<svg width="460" height="294" viewBox="0 0 460 294" fill="none" xmlns="http://www.w3.org/2000/svg">
<path d="M195.989 268.052L243.15 272.866C246.948 273.248 250.6 274.527 253.807 276.599C257.013 278.67 259.681 281.474 261.59 284.779L262.651 286.248H188.482L195.989 268.052Z" fill="#4D4E4F"/>
<path d="M377.372 235.331H125.491V243.164H377.372V235.331Z" fill="url(#paint0_linear_883_1003)"/>
<path d="M92.2826 128.028C92.2826 128.028 100.442 142.961 90.9771 149.978C95.2199 152.263 111.784 154.303 111.784 154.303L110.233 133.251L92.2826 128.028Z" fill="#775238"/>
<path d="M95.628 126.723C97.3415 135.862 101.748 140.186 111.702 139.044C120.351 138.065 121.656 130.558 120.841 120.766C119.698 107.71 112.926 106.241 105.664 107.629C98.4022 109.016 93.8329 117.502 95.628 126.723Z" fill="#775238"/>
<path d="M105.909 136.841C114.155 136.841 120.84 130.155 120.84 121.908C120.84 113.661 114.155 106.976 105.909 106.976C97.6622 106.976 90.9771 113.661 90.9771 121.908C90.9771 130.155 97.6622 136.841 105.909 136.841Z" fill="#775238"/>
<path d="M119.617 105.997C119.617 105.997 129.082 121.99 107.459 122.888C107.489 125.002 106.954 127.087 105.909 128.926C105.909 128.926 105.909 134.719 94.8122 134.719C86.1632 128.273 83.9602 115.136 91.0588 108.363C102.319 97.7552 119.617 105.997 119.617 105.997Z" fill="#247B87"/>
<path d="M108.936 130.717C110.972 130.33 112.214 127.863 111.709 125.206C111.204 122.55 109.144 120.71 107.108 121.097C105.071 121.484 103.83 123.952 104.334 126.608C104.839 129.264 106.899 131.104 108.936 130.717Z" fill="#775238"/>
<path d="M84.3684 115.952C88.424 115.952 91.7118 112.664 91.7118 108.608C91.7118 104.552 88.424 101.264 84.3684 101.264C80.3127 101.264 77.0249 104.552 77.0249 108.608C77.0249 112.664 80.3127 115.952 84.3684 115.952Z" fill="#247B87"/>
<path d="M133.243 140.268C133.243 140.268 147.522 165.401 149.888 170.052C152.254 174.703 153.886 184.413 153.886 184.413L137.078 177.477L128.021 141.166L133.243 140.268Z" fill="#775238"/>
<path d="M121.412 144.511C121.412 144.511 92.038 148.754 85.5105 150.631C78.983 152.508 74.5769 168.909 81.1044 179.109C87.632 189.309 93.0172 200.488 91.7932 207.505C90.5693 214.523 130.958 215.992 128.592 207.505C126.226 199.019 129.245 154.058 129.245 154.058L121.412 144.511Z" fill="#00C1D5"/>
<path d="M153.886 184.495L121.493 144.593C121.493 144.593 110.396 151.61 115.292 165.4C121.738 183.597 148.582 194.776 148.582 194.776L153.886 184.495Z" fill="#00C1D5"/>
<path d="M91.7933 207.424C90.651 214.36 81.1045 230.108 88.1216 251.324C93.7515 268.296 96.7705 280.455 97.6681 284.453C97.7576 284.858 97.9862 285.218 98.3143 285.472C98.6423 285.725 99.0489 285.856 99.4631 285.84H144.177C144.449 285.84 144.717 285.779 144.962 285.662C145.208 285.545 145.424 285.375 145.596 285.164C145.768 284.953 145.891 284.707 145.956 284.443C146.021 284.179 146.026 283.903 145.972 283.637C143.361 271.724 130.714 215.012 128.592 207.424C128.481 207.031 128.246 206.684 127.923 206.435C127.6 206.185 127.205 206.046 126.797 206.037L91.8749 207.016C91.8749 207.179 91.7933 207.261 91.7933 207.424Z" fill="url(#paint1_linear_883_1003)"/>
<path d="M164.412 188.819C164.412 188.819 169.715 180.333 165.962 166.951C161.882 152.1 185.463 169.888 185.463 169.888L185.381 188.901L164.412 188.819Z" fill="#A77B4F"/>
<path d="M182.036 179.027C190.93 179.027 195.825 176.661 197.131 167.277L198.028 157.404C198.436 146.959 190.93 140.105 182.036 140.105C177.767 140.109 173.672 141.802 170.646 144.813C167.619 147.824 165.906 151.91 165.88 156.18V166.461C165.962 167.522 173.142 179.027 182.036 179.027Z" fill="#A77B4F"/>
<path d="M197.213 150.631C199.824 147.857 198.192 144.185 194.765 142.553C190.767 140.676 186.279 137.983 180.486 137.983C169.144 137.983 164.82 147.286 164.249 152.508C163.514 159.199 166.778 170.133 166.778 170.133H174.53C175.517 170.134 176.472 169.781 177.221 169.137C177.97 168.493 178.463 167.601 178.609 166.624L179.262 162.545L186.932 160.097L187.095 155.201C187.095 152.916 187.993 149.407 192.317 150.06L197.213 150.631Z" fill="#346899"/>
<path d="M186.021 163.62C186.029 160.736 184.281 158.393 182.118 158.388C179.955 158.382 178.196 160.716 178.188 163.6C178.18 166.484 179.928 168.827 182.091 168.832C184.254 168.838 186.013 166.504 186.021 163.62Z" fill="#A77B4F"/>
<path d="M203.087 145.327C203.087 145.327 200.15 149.081 197.212 150.631C194.193 148.673 184.647 138.473 184.647 138.473L199.987 141.737L198.11 143.94L203.087 145.327Z" fill="#346899"/>
<path d="M457.334 77.9267L299.939 235.331H142.463L299.368 78.4163L457.334 77.9267Z" fill="url(#paint2_linear_883_1003)"/>
<path d="M171.021 128.028V6.69109H265.262V98.408" stroke="#1C7D91" stroke-width="1.31" stroke-linecap="round" stroke-linejoin="round"/>
<path d="M114.721 90.3297C116.028 90.3297 117.087 89.2703 117.087 87.9634C117.087 86.6565 116.028 85.597 114.721 85.597C113.414 85.597 112.355 86.6565 112.355 87.9634C112.355 89.2703 113.414 90.3297 114.721 90.3297Z" stroke="#1C7D91" stroke-width="1.31" stroke-linecap="round" stroke-linejoin="round"/>
<path d="M125.981 77.3555C127.288 77.3555 128.347 76.2961 128.347 74.9892C128.347 73.6823 127.288 72.6228 125.981 72.6228C124.674 72.6228 123.615 73.6823 123.615 74.9892C123.615 76.2961 124.674 77.3555 125.981 77.3555Z" stroke="#1C7D91" stroke-width="1.31" stroke-linecap="round" stroke-linejoin="round"/>
<path d="M139.607 90.0033C140.914 90.0033 141.974 88.9439 141.974 87.637C141.974 86.3301 140.914 85.2706 139.607 85.2706C138.301 85.2706 137.241 86.3301 137.241 87.637C137.241 88.9439 138.301 90.0033 139.607 90.0033Z" stroke="#1C7D91" stroke-width="1.31" stroke-linecap="round" stroke-linejoin="round"/>
<path d="M154.049 66.3397C155.356 66.3397 156.416 65.2803 156.416 63.9734C156.416 62.6665 155.356 61.607 154.049 61.607C152.743 61.607 151.683 62.6665 151.683 63.9734C151.683 65.2803 152.743 66.3397 154.049 66.3397Z" stroke="#1C7D91" stroke-width="1.31" stroke-linecap="round" stroke-linejoin="round"/>
<path d="M115.945 85.9234L124.186 76.5396" stroke="#1C7D91" stroke-width="1.31" stroke-linecap="round" stroke-linejoin="round"/>
<path d="M128.347 76.2948L138.138 85.7602" stroke="#1C7D91" stroke-width="1.31" stroke-linecap="round" stroke-linejoin="round"/>
<path d="M152.825 65.9317L140.913 85.6786" stroke="#1C7D91" stroke-width="1.31" stroke-linecap="round" stroke-linejoin="round"/>
<path d="M104.767 77.5187H84.2866" stroke="#1C7D91" stroke-width="1.31" stroke-linecap="round" stroke-linejoin="round"/>
<path d="M104.767 70.5013H86.8975" stroke="#1C7D91" stroke-width="1.31" stroke-linecap="round" stroke-linejoin="round"/>
<path d="M104.767 63.4838H81.9204" stroke="#1C7D91" stroke-width="1.31" stroke-linecap="round" stroke-linejoin="round"/>
<path d="M134.385 48.2248C146.552 48.2248 156.416 38.3609 156.416 26.1932C156.416 14.0254 146.552 4.16153 134.385 4.16153C122.218 4.16153 112.355 14.0254 112.355 26.1932C112.355 38.3609 122.218 48.2248 134.385 48.2248Z" stroke="#1C7D91" stroke-width="1.31" stroke-linecap="round" stroke-linejoin="round"/>
<path d="M134.385 4.24313V26.1932H112.355" stroke="#1C7D91" stroke-width="1.31" stroke-linecap="round" stroke-linejoin="round"/>
<path d="M117.25 40.0649L134.385 26.1932" stroke="#1C7D91" stroke-width="1.31" stroke-linecap="round" stroke-linejoin="round"/>
<path d="M124.186 45.7769L134.385 26.1932" stroke="#1C7D91" stroke-width="1.31" stroke-linecap="round" stroke-linejoin="round"/>
<path d="M104.44 26.1932H88.6108" stroke="#1C7D91" stroke-width="1.31" stroke-linecap="round" stroke-linejoin="round"/>
<path d="M104.44 33.2107H95.1387" stroke="#1C7D91" stroke-width="1.31" stroke-linecap="round" stroke-linejoin="round"/>
<path d="M104.44 40.2281H86.4897" stroke="#1C7D91" stroke-width="1.31" stroke-linecap="round" stroke-linejoin="round"/>
<path d="M198.273 20.0733L202.353 15.9933L206.351 20.0733H198.273Z" stroke="#1C7D91" stroke-width="1.31" stroke-linecap="round" stroke-linejoin="round"/>
<path d="M171.021 23.7452H265.262" stroke="#1C7D91" stroke-width="1.31" stroke-linecap="round" stroke-linejoin="round"/>
<path d="M171.021 12.811H265.262" stroke="#1C7D91" stroke-width="1.31" stroke-linecap="round" stroke-linejoin="round"/>
<path d="M175.753 18.0333H191.583" stroke="#1C7D91" stroke-width="1.31" stroke-linecap="round" stroke-linejoin="round"/>
<path d="M214.592 18.0333H232.787" stroke="#1C7D91" stroke-width="1.31" stroke-linecap="round" stroke-linejoin="round"/>
<path d="M241.437 18.0333H259.632" stroke="#1C7D91" stroke-width="1.31" stroke-linecap="round" stroke-linejoin="round"/>
<path d="M198.273 31.5787L202.353 27.4987L206.351 31.5787H198.273Z" stroke="#1C7D91" stroke-width="1.31" stroke-linecap="round" stroke-linejoin="round"/>
<path d="M171.021 35.2506H265.262" stroke="#1C7D91" stroke-width="1.31" stroke-linecap="round" stroke-linejoin="round"/>
<path d="M175.753 29.5387H191.583" stroke="#1C7D91" stroke-width="1.31" stroke-linecap="round" stroke-linejoin="round"/>
<path d="M214.592 29.5387H232.787" stroke="#1C7D91" stroke-width="1.31" stroke-linecap="round" stroke-linejoin="round"/>
<path d="M241.437 29.5387H255.389" stroke="#1C7D91" stroke-width="1.31" stroke-linecap="round" stroke-linejoin="round"/>
<path d="M198.273 43.0025L202.353 39.0042L206.351 43.0025H198.273Z" stroke="#1C7D91" stroke-width="1.31" stroke-linecap="round" stroke-linejoin="round"/>
<path d="M171.021 46.756H265.262" stroke="#1C7D91" stroke-width="1.31" stroke-linecap="round" stroke-linejoin="round"/>
<path d="M175.753 41.0441H191.583" stroke="#1C7D91" stroke-width="1.31" stroke-linecap="round" stroke-linejoin="round"/>
<path d="M214.592 41.0441H230.095" stroke="#1C7D91" stroke-width="1.31" stroke-linecap="round" stroke-linejoin="round"/>
<path d="M241.437 41.0441H259.632" stroke="#1C7D91" stroke-width="1.31" stroke-linecap="round" stroke-linejoin="round"/>
<path d="M198.273 61.9334L202.353 66.0133L206.351 61.9334H198.273Z" stroke="#1C7D91" stroke-width="1.31" stroke-linecap="round" stroke-linejoin="round"/>
<path d="M171.021 58.2615H265.262" stroke="#1C7D91" stroke-width="1.31" stroke-linecap="round" stroke-linejoin="round"/>
<path d="M175.753 52.4679H191.583" stroke="#1C7D91" stroke-width="1.31" stroke-linecap="round" stroke-linejoin="round"/>
<path d="M214.592 52.4679H232.787" stroke="#1C7D91" stroke-width="1.31" stroke-linecap="round" stroke-linejoin="round"/>
<path d="M241.437 52.4679H259.632" stroke="#1C7D91" stroke-width="1.31" stroke-linecap="round" stroke-linejoin="round"/>
<path d="M198.273 50.5096L202.353 54.5079L206.351 50.5096H198.273Z" stroke="#1C7D91" stroke-width="1.31" stroke-linecap="round" stroke-linejoin="round"/>
<path d="M171.021 69.7669H265.262" stroke="#1C7D91" stroke-width="1.31" stroke-linecap="round" stroke-linejoin="round"/>
<path d="M175.753 63.9734H191.583" stroke="#1C7D91" stroke-width="1.31" stroke-linecap="round" stroke-linejoin="round"/>
<path d="M214.592 63.9734H232.787" stroke="#1C7D91" stroke-width="1.31" stroke-linecap="round" stroke-linejoin="round"/>
<path d="M241.437 63.9734H254.9" stroke="#1C7D91" stroke-width="1.31" stroke-linecap="round" stroke-linejoin="round"/>
<path d="M198.273 77.5187L202.353 73.4388L206.351 77.5187H198.273Z" stroke="#1C7D91" stroke-width="1.31" stroke-linecap="round" stroke-linejoin="round"/>
<path d="M171.021 81.1907H265.262" stroke="#1C7D91" stroke-width="1.31" stroke-linecap="round" stroke-linejoin="round"/>
<path d="M175.753 75.4788H191.583" stroke="#1C7D91" stroke-width="1.31" stroke-linecap="round" stroke-linejoin="round"/>
<path d="M214.592 75.4788H232.787" stroke="#1C7D91" stroke-width="1.31" stroke-linecap="round" stroke-linejoin="round"/>
<path d="M241.437 75.4788H259.632" stroke="#1C7D91" stroke-width="1.31" stroke-linecap="round" stroke-linejoin="round"/>
<path d="M198.273 85.6786L202.353 89.6769L206.351 85.6786H198.273Z" stroke="#1C7D91" stroke-width="1.31" stroke-linecap="round" stroke-linejoin="round"/>
<path d="M171.021 92.6961H265.262" stroke="#1C7D91" stroke-width="1.31" stroke-linecap="round" stroke-linejoin="round"/>
<path d="M175.753 86.9842H191.583" stroke="#1C7D91" stroke-width="1.31" stroke-linecap="round" stroke-linejoin="round"/>
<path d="M214.592 86.9842H232.787" stroke="#1C7D91" stroke-width="1.31" stroke-linecap="round" stroke-linejoin="round"/>
<path d="M241.437 86.9842H255.389" stroke="#1C7D91" stroke-width="1.31" stroke-linecap="round" stroke-linejoin="round"/>
<path d="M198.273 100.448L202.353 96.4496L206.351 100.448H198.273Z" stroke="#1C7D91" stroke-width="1.31" stroke-linecap="round" stroke-linejoin="round"/>
<path d="M171.021 104.202H241.437" stroke="#1C7D91" stroke-width="1.31" stroke-linecap="round" stroke-linejoin="round"/>
<path d="M175.753 98.4896H191.583" stroke="#1C7D91" stroke-width="1.31" stroke-linecap="round" stroke-linejoin="round"/>
<path d="M214.592 98.4896H232.787" stroke="#1C7D91" stroke-width="1.31" stroke-linecap="round" stroke-linejoin="round"/>
<path d="M241.437 98.4896H259.632" stroke="#1C7D91" stroke-width="1.31" stroke-linecap="round" stroke-linejoin="round"/>
<path d="M175.753 109.913H191.583" stroke="#1C7D91" stroke-width="1.31" stroke-linecap="round" stroke-linejoin="round"/>
<path d="M516 76.8659L359.095 235.331H215.979L372.476 77.2739L516 76.8659Z" fill="url(#paint3_linear_883_1003)"/>
<g opacity="0.6">
<path opacity="0.6" d="M427.568 106.642C429.732 97.4751 424.055 88.29 414.888 86.1264C405.722 83.9628 396.537 89.6401 394.374 98.807C392.21 107.974 397.887 117.159 407.054 119.323C416.22 121.486 425.405 115.809 427.568 106.642Z" fill="black"/>
<path opacity="0.6" d="M427.84 152.638C429.349 143.341 423.036 134.581 413.739 133.072C404.443 131.563 395.683 137.876 394.174 147.173C392.665 156.47 398.978 165.23 408.275 166.74C417.571 168.249 426.331 161.935 427.84 152.638Z" fill="black"/>
<path opacity="0.6" d="M427.841 199.89C429.35 190.593 423.037 181.833 413.741 180.323C404.444 178.814 395.685 185.128 394.176 194.425C392.667 203.722 398.98 212.482 408.276 213.991C417.573 215.5 426.332 209.187 427.841 199.89Z" fill="black"/>
</g>
<path d="M291.535 165.319H225.607V211.585H291.535V165.319Z" fill="#0091DA"/>
<path d="M370.926 165.319H304.998V211.585H370.926V165.319Z" fill="#0091DA"/>
<path opacity="0.6" d="M366.03 170.052H309.894V187.351H366.03V170.052Z" fill="#1D428A"/>
<path opacity="0.6" d="M246.577 170.052H229.442V207.832H246.577V170.052Z" fill="#1D428A"/>
<path opacity="0.6" d="M266.894 170.052H249.759V207.832H266.894V170.052Z" fill="#1D428A"/>
<path opacity="0.6" d="M287.292 170.052H270.158V207.832H287.292V170.052Z" fill="#1D428A"/>
<path d="M336.82 189.717H309.894V207.424H336.82V189.717Z" fill="#1D428A"/>
<path opacity="0.7" d="M366.03 189.717H339.104V207.424H366.03V189.717Z" fill="#001559"/>
<path d="M370.844 165.319H371.987C372.213 165.313 372.438 165.354 372.649 165.438C372.859 165.522 373.05 165.648 373.211 165.808C373.371 165.969 373.497 166.16 373.581 166.37C373.665 166.581 373.706 166.806 373.7 167.032V209.872C373.706 210.098 373.665 210.324 373.581 210.534C373.497 210.745 373.371 210.936 373.211 211.096C373.05 211.256 372.859 211.382 372.649 211.466C372.438 211.55 372.213 211.591 371.987 211.585H370.844V165.319Z" fill="#22343C"/>
<path d="M370.844 155.772H304.998L291.454 109.505H357.381L370.844 155.772Z" fill="#0091DA"/>
<path d="M291.943 155.772H226.015L212.552 109.505H278.48L291.943 155.772Z" fill="#0091DA"/>
<path d="M358.524 107.792H294.391L291.535 109.587H357.382L370.845 155.853L372.313 154.793C372.59 154.575 372.798 154.282 372.914 153.95C373.03 153.617 373.048 153.258 372.966 152.916L360.156 109.097C360.065 108.731 359.855 108.405 359.56 108.169C359.266 107.933 358.901 107.8 358.524 107.792Z" fill="#22343C"/>
<path d="M215.408 107.792L212.552 109.587H278.48L291.943 155.853L293.33 154.793C293.628 154.574 293.851 154.268 293.968 153.917C294.085 153.567 294.09 153.188 293.983 152.834L280.846 107.792H215.408Z" fill="#22343C"/>
<path d="M239.07 211.667L285.416 165.319H291.454V211.667H239.07Z" fill="url(#paint4_linear_883_1003)"/>
<path d="M291.454 165.319H292.596C292.822 165.313 293.048 165.354 293.258 165.438C293.469 165.522 293.66 165.648 293.82 165.808C293.98 165.969 294.106 166.16 294.19 166.37C294.274 166.581 294.315 166.806 294.309 167.032V209.872C294.315 210.098 294.274 210.324 294.19 210.534C294.106 210.745 293.98 210.936 293.82 211.096C293.66 211.256 293.469 211.382 293.258 211.466C293.048 211.55 292.822 211.591 292.596 211.585H291.454V165.319Z" fill="#22343C"/>
<path d="M148.501 205.873L151.03 278.007H202.679L208.228 193.062L186.442 186.779H165.799L163.025 187.514C158.808 188.33 155.023 190.632 152.359 194C149.694 197.369 148.325 201.582 148.501 205.873Z" fill="#0091DA"/>
<path d="M274.156 228.884L265.915 223.499L256.123 224.233L252.289 229.455L254.41 231.414C255.71 232.57 257.404 233.184 259.142 233.127L274.401 232.638L274.156 228.884Z" fill="#A77B4F"/>
<path d="M208.228 193.062L224.71 226.518L256.042 224.233V227.987C256.042 230.598 255.063 231.577 251.554 233.943C251.554 233.943 234.991 244.47 218.101 245.694L194.439 217.297C185.545 206.118 196.234 192.981 208.228 193.062Z" fill="#0091DA"/>
<path d="M187.829 189.717V181.965H164.82L161.964 191.186L187.829 189.717Z" fill="#0091DA"/>
<path d="M219.569 253.772L209.451 278.007L172.653 210.525C172.145 209.601 171.402 208.827 170.5 208.282C169.597 207.738 168.566 207.442 167.512 207.424H143.932C143.556 207.422 143.184 207.494 142.836 207.637C142.489 207.78 142.173 207.99 141.907 208.255C141.642 208.521 141.431 208.837 141.289 209.184C141.146 209.532 141.074 209.904 141.076 210.28V286.656H225.117L231.482 253.69H219.569V253.772Z" fill="url(#paint5_linear_883_1003)"/>
<path d="M119.617 128.436L128.347 130.476L133.243 140.268L129.327 142.716C128.519 143.241 127.552 143.464 126.596 143.344C125.641 143.225 124.758 142.771 124.105 142.063L121.249 139.207L122.962 132.843L117.74 130.721L119.617 128.436Z" fill="#775238"/>
<path d="M274.156 235.331C273.734 234.167 273.087 233.098 272.251 232.185C271.415 231.271 270.408 230.532 269.286 230.009C268.164 229.486 266.95 229.19 265.714 229.137C264.477 229.084 263.242 229.275 262.08 229.7C260.793 230.181 259.624 230.932 258.653 231.903C257.681 232.875 256.93 234.043 256.45 235.331H274.156Z" fill="#1D428A"/>
<path d="M424.305 104.197C426.469 95.0303 420.792 85.8452 411.626 83.6816C402.459 81.5181 393.275 87.1953 391.111 96.3622C388.948 105.529 394.625 114.714 403.791 116.878C412.957 119.041 422.142 113.364 424.305 104.197Z" fill="#22343C"/>
<path d="M424.573 150.275C426.082 140.978 419.769 132.218 410.473 130.709C401.176 129.2 392.417 135.513 390.908 144.81C389.399 154.107 395.712 162.867 405.008 164.376C414.305 165.885 423.064 159.572 424.573 150.275Z" fill="#22343C"/>
<path d="M424.576 197.44C426.085 188.143 419.772 179.383 410.475 177.874C401.179 176.364 392.419 182.678 390.91 191.975C389.401 201.272 395.714 210.032 405.011 211.541C414.307 213.05 423.067 206.737 424.576 197.44Z" fill="#22343C"/>
<path d="M407.725 183.434V194.694L413.681 189.064" stroke="#1DA3B5" stroke-width="1.31" stroke-linecap="round" stroke-linejoin="round"/>
<path d="M407.725 136.27V147.53H416.21" stroke="#1DA3B5" stroke-width="1.31" stroke-linecap="round" stroke-linejoin="round"/>
<path d="M407.725 89.1057V100.285L414.742 107.792" stroke="#1DA3B5" stroke-width="1.31" stroke-linecap="round" stroke-linejoin="round"/>
<g opacity="0.3">
<path opacity="0.3" d="M314.544 189.717V207.424" stroke="#4896D1" stroke-width="3.14" stroke-miterlimit="10"/>
<path opacity="0.3" d="M320.501 189.717V207.424" stroke="#4896D1" stroke-width="3.14" stroke-miterlimit="10"/>
<path opacity="0.3" d="M326.375 189.717V207.424" stroke="#4896D1" stroke-width="3.14" stroke-miterlimit="10"/>
<path opacity="0.3" d="M332.25 189.717V207.424" stroke="#4896D1" stroke-width="3.14" stroke-miterlimit="10"/>
</g>
<path d="M337.962 205.71L344.408 199.264L348.161 203.017L356.321 194.858L361.053 199.59L367.336 193.307" stroke="#0091DA" stroke-miterlimit="10"/>
<path opacity="0.8" d="M246.577 170.052H229.442V176.58H246.577V170.052Z" fill="#F7C22B"/>
<path opacity="0.6" d="M324.662 152.018H307.528L296.104 114.157H313.239L324.662 152.018Z" fill="#1D428A"/>
<path opacity="0.6" d="M344.979 152.018H327.844L316.503 114.157H333.638L344.979 152.018Z" fill="#1D428A"/>
<path opacity="0.6" d="M365.378 152.018H348.243L336.82 114.157H353.955L365.378 152.018Z" fill="#1D428A"/>
<path opacity="0.7" d="M318.951 133.087H301.816L296.104 114.157H313.239L318.951 133.087Z" fill="#001559"/>
<path opacity="0.8" d="M361.543 139.207H344.408L342.45 132.679H359.584L361.543 139.207Z" fill="#F7C22B"/>
<path opacity="0.6" d="M246.169 152.018H229.034L217.611 114.157H234.746L246.169 152.018Z" fill="#1D428A"/>
<path opacity="0.7" d="M286.884 152.018H249.596L238.173 114.157H275.461L286.884 152.018Z" fill="#001559"/>
<path opacity="0.7" d="M246.169 152.018H229.034L223.323 133.087H240.457L246.169 152.018Z" fill="#001559"/>
<path d="M370.844 177.722L336.901 211.667H304.998V165.319H370.844V177.722Z" fill="url(#paint6_linear_883_1003)"/>
<path d="M209.533 278.007L219.569 253.772H222.751L211.981 283.066L209.533 278.007Z" fill="#54687A"/>
<path d="M217.448 249.937H245.598C246.157 249.947 246.691 250.174 247.086 250.57C247.482 250.965 247.709 251.499 247.719 252.058C247.709 252.618 247.482 253.151 247.086 253.547C246.691 253.943 246.157 254.169 245.598 254.18H217.448C216.888 254.169 216.355 253.943 215.959 253.547C215.564 253.151 215.337 252.618 215.326 252.058C215.324 251.779 215.377 251.502 215.483 251.244C215.589 250.985 215.745 250.751 215.943 250.553C216.14 250.356 216.375 250.2 216.633 250.094C216.892 249.988 217.168 249.935 217.448 249.937Z" fill="#54687A"/>
<defs>
<linearGradient id="paint0_linear_883_1003" x1="377.372" y1="239.247" x2="125.491" y2="239.247" gradientUnits="userSpaceOnUse">
<stop stop-color="#5C79B0" stop-opacity="0"/>
<stop offset="0.39" stop-color="#5C79B0"/>
</linearGradient>
<linearGradient id="paint1_linear_883_1003" x1="115.79" y1="198.032" x2="115.79" y2="292.694" gradientUnits="userSpaceOnUse">
<stop offset="0.08" stop-color="#0F5999"/>
<stop offset="0.66" stop-color="#0F5999"/>
<stop offset="0.77" stop-color="#0F5C9E" stop-opacity="0.69"/>
<stop offset="0.9" stop-color="#1165AE" stop-opacity="0.29"/>
<stop offset="1" stop-color="#126EBE" stop-opacity="0"/>
</linearGradient>
<linearGradient id="paint2_linear_883_1003" x1="299.898" y1="77.9267" x2="299.898" y2="235.331" gradientUnits="userSpaceOnUse">
<stop offset="0.05" stop-color="#00C1D5" stop-opacity="0"/>
<stop offset="0.1" stop-color="#00C1D5" stop-opacity="0.05"/>
<stop offset="0.28" stop-color="#00C1D5" stop-opacity="0.18"/>
<stop offset="0.43" stop-color="#00C1D5" stop-opacity="0.27"/>
<stop offset="0.54" stop-color="#00C1D5" stop-opacity="0.3"/>
<stop offset="0.64" stop-color="#00C1D5" stop-opacity="0.27"/>
<stop offset="0.78" stop-color="#00C1D5" stop-opacity="0.19"/>
<stop offset="0.95" stop-color="#00C1D5" stop-opacity="0.05"/>
<stop offset="1" stop-color="#00C1D5" stop-opacity="0"/>
</linearGradient>
<linearGradient id="paint3_linear_883_1003" x1="365.989" y1="76.8659" x2="365.989" y2="235.331" gradientUnits="userSpaceOnUse">
<stop offset="0.09" stop-color="#0062B8" stop-opacity="0"/>
<stop offset="0.54" stop-color="#0E8AE8" stop-opacity="0.3"/>
<stop offset="0.82" stop-color="#0673CC" stop-opacity="0.12"/>
<stop offset="1" stop-color="#0062B8" stop-opacity="0"/>
</linearGradient>
<linearGradient id="paint4_linear_883_1003" x1="265.262" y1="165.319" x2="265.262" y2="211.667" gradientUnits="userSpaceOnUse">
<stop stop-color="#81C6ED" stop-opacity="0"/>
<stop offset="0.21" stop-color="#81C6ED" stop-opacity="0.03"/>
<stop offset="0.5" stop-color="#81C6ED" stop-opacity="0.1"/>
<stop offset="0.83" stop-color="#81C6ED" stop-opacity="0.23"/>
<stop offset="1" stop-color="#81C6ED" stop-opacity="0.3"/>
</linearGradient>
<linearGradient id="paint5_linear_883_1003" x1="186.279" y1="294.196" x2="186.279" y2="224.543" gradientUnits="userSpaceOnUse">
<stop stop-color="#6D7E91"/>
<stop offset="0.6" stop-color="#97A6B5"/>
</linearGradient>
<linearGradient id="paint6_linear_883_1003" x1="27575.2" y1="97726.4" x2="27575.2" y2="100359" gradientUnits="userSpaceOnUse">
<stop stop-color="#81C6ED" stop-opacity="0"/>
<stop offset="0.21" stop-color="#81C6ED" stop-opacity="0.03"/>
<stop offset="0.5" stop-color="#81C6ED" stop-opacity="0.1"/>
<stop offset="0.83" stop-color="#81C6ED" stop-opacity="0.23"/>
<stop offset="1" stop-color="#81C6ED" stop-opacity="0.3"/>
</linearGradient>
</defs>
</svg>
