<svg width="48" height="48" viewBox="0 0 48 48" fill="none" xmlns="http://www.w3.org/2000/svg">
<path fill-rule="evenodd" clip-rule="evenodd" d="M42.2949 31.5923C37.341 35.2513 30.1435 37.1937 23.9549 37.1937C15.2817 37.1937 7.46688 33.9865 1.56434 28.6561C1.09756 28.2345 1.51917 27.6623 2.07629 27.9936C8.46068 31.6977 16.3358 33.9413 24.4819 33.9413C29.9779 33.9413 36.0159 32.7969 41.5721 30.448C42.4003 30.0715 43.108 30.99 42.2949 31.5923Z" fill="#FF9900"/>
<path fill-rule="evenodd" clip-rule="evenodd" d="M44.3577 29.2433C43.7253 28.4302 40.1717 28.8518 38.5605 29.0476C38.0787 29.1078 38.0034 28.6862 38.4401 28.37C41.2709 26.3824 45.9237 26.9546 46.4657 27.6171C47.0078 28.2947 46.3152 32.9475 43.665 35.176C43.2585 35.5223 42.867 35.3416 43.0477 34.8899C43.65 33.3992 44.9901 30.0414 44.3577 29.2433Z" fill="#FF9900"/>
<path fill-rule="evenodd" clip-rule="evenodd" d="M37.1302 24.0033C37.8831 24.184 38.6661 24.2744 39.4491 24.2744C40.217 24.2744 40.9247 24.169 41.6023 23.9582C42.2498 23.7624 42.8069 23.4914 43.2737 23.1149C43.7405 22.7536 44.1018 22.3018 44.3729 21.7899C44.6288 21.2779 44.7644 20.6907 44.7644 20.0432C44.7644 19.2602 44.5385 18.5525 44.0717 17.9351C43.6049 17.3178 42.8219 16.8359 41.7378 16.4896L39.5996 15.812C38.8016 15.5561 38.2445 15.27 37.9433 14.9839C37.6422 14.6978 37.4916 14.3364 37.4916 13.9148C37.4916 13.2974 37.7325 12.8608 38.1993 12.5747C38.6661 12.2886 39.3437 12.1531 40.2019 12.1531C41.271 12.1531 42.2347 12.3488 43.093 12.7403C43.349 12.8608 43.5447 12.921 43.6652 12.921C43.891 12.921 44.0115 12.7554 44.0115 12.4392V11.7315C44.0115 11.5206 43.9663 11.355 43.876 11.2346C43.7856 11.099 43.6351 10.9786 43.4242 10.8581C43.2737 10.7678 43.0629 10.6774 42.7918 10.5871C42.5208 10.4967 42.2347 10.4215 41.9336 10.3462C41.6173 10.2859 41.3011 10.2257 40.9548 10.1805C40.6235 10.1354 40.2772 10.1203 39.946 10.1203C39.2834 10.1203 38.651 10.1956 38.0487 10.3763C37.4464 10.557 36.9345 10.8129 36.4827 11.1593C36.031 11.4905 35.6696 11.9121 35.3986 12.394C35.1276 12.8758 34.992 13.433 34.992 14.0654C34.992 14.8484 35.248 15.5862 35.7449 16.2487C36.2418 16.9263 37.0549 17.4383 38.1541 17.7846L40.3375 18.4622C41.0753 18.7031 41.5872 18.9591 41.8583 19.2452C42.1293 19.5312 42.2648 19.8776 42.2648 20.2992C42.2648 20.9165 41.9938 21.3984 41.4818 21.7296C40.9699 22.0609 40.2321 22.2265 39.2834 22.2265C38.6811 22.2265 38.0939 22.1663 37.4916 22.0458C36.9043 21.9254 36.3472 21.7447 35.8353 21.5188C35.7819 21.4975 35.7305 21.4762 35.6823 21.4562C35.5944 21.4197 35.5172 21.3877 35.4588 21.3683C35.3685 21.3381 35.2781 21.3231 35.1878 21.3231C34.9619 21.3231 34.8415 21.4737 34.8415 21.7899V22.5578C34.8415 22.6933 34.8716 22.8439 34.9318 22.9794C34.992 23.1149 35.1577 23.2655 35.3986 23.401C35.7901 23.6269 36.3773 23.8226 37.1302 24.0033ZM14.2879 21.2925C14.1825 20.9613 14.1223 20.5095 14.1223 19.9524H14.0922V15.0738C14.0922 13.4175 13.6706 12.1827 12.8424 11.3696C11.9992 10.5565 10.6892 10.15 8.89734 10.15C8.06918 10.15 7.28619 10.2403 6.54837 10.4361C5.81055 10.6168 5.17814 10.8426 4.65112 11.1137C4.44032 11.2191 4.3048 11.3245 4.22951 11.4299C4.15423 11.5353 4.12411 11.716 4.12411 11.9569V12.6947C4.12411 13.0109 4.22951 13.1615 4.44032 13.1615C4.50055 13.1615 4.57584 13.1464 4.68124 13.1163C4.78664 13.0862 4.96733 13.026 5.20825 12.9206C5.73526 12.7097 6.27733 12.5441 6.83446 12.4086C7.39159 12.2731 7.93366 12.2129 8.46067 12.2129C9.6201 12.2129 10.4332 12.4387 10.915 12.9055C11.3818 13.3723 11.6227 14.1703 11.6227 15.3147V16.4139C11.0204 16.2784 10.4483 16.1579 9.89114 16.0826C9.33401 16.0073 8.807 15.9622 8.29504 15.9622C6.74412 15.9622 5.52446 16.3537 4.60595 17.1367C3.68744 17.9196 3.23572 18.9586 3.23572 20.2385C3.23572 21.4431 3.61216 22.4068 4.34997 23.1295C5.08779 23.8523 6.09664 24.2137 7.36147 24.2137C9.13826 24.2137 10.6139 23.521 11.7884 22.1358C11.954 22.4821 12.1046 22.7682 12.2552 23.0241C12.4057 23.2651 12.5864 23.506 12.7972 23.7318C12.9478 23.8674 13.0984 23.9427 13.249 23.9427C13.3694 23.9427 13.5049 23.8975 13.6405 23.8071L14.5891 23.1747C14.7848 23.0241 14.8752 22.8736 14.8752 22.723C14.8752 22.6176 14.8451 22.4971 14.7698 22.3767C14.559 21.9852 14.4084 21.6238 14.2879 21.2925ZM9.5599 21.9706C9.01783 22.1512 8.50587 22.2416 8.00897 22.2416C7.31633 22.2416 6.78931 22.0609 6.42793 21.6845C6.0515 21.3231 5.87081 20.7961 5.87081 20.0884C5.87081 19.3355 6.11173 18.7633 6.60862 18.3568C7.10552 17.9502 7.84334 17.7545 8.85219 17.7545C9.31898 17.7545 9.78576 17.7846 10.2676 17.8448C10.7494 17.905 11.2162 17.9954 11.6529 18.1008V18.7332C11.6529 19.2451 11.5927 19.6818 11.5023 20.0432C11.412 20.4046 11.2313 20.7208 10.9904 21.0069C10.5838 21.4586 10.102 21.7899 9.5599 21.9706ZM20.1001 23.8678C19.8291 23.8678 19.6484 23.8226 19.528 23.7172C19.4075 23.6269 19.3021 23.4161 19.2117 23.13L15.6732 11.4905C15.5829 11.1894 15.5377 10.9936 15.5377 10.8882C15.5377 10.6473 15.6582 10.5118 15.8991 10.5118H17.3747C17.6608 10.5118 17.8566 10.557 17.962 10.6624C18.0824 10.7527 18.1728 10.9635 18.2631 11.2496L20.7928 21.2177L23.1418 11.2496C23.217 10.9485 23.3074 10.7527 23.4278 10.6624C23.5483 10.572 23.7591 10.5118 24.0301 10.5118H25.2347C25.5208 10.5118 25.7166 10.557 25.837 10.6624C25.9575 10.7527 26.0629 10.9635 26.1231 11.2496L28.5022 21.3381L31.1072 11.2496C31.1975 10.9485 31.3029 10.7527 31.4083 10.6624C31.5288 10.572 31.7245 10.5118 31.9956 10.5118H33.3959C33.6368 10.5118 33.7724 10.6323 33.7724 10.8882C33.7724 10.9525 33.7614 11.0168 33.7488 11.0905L33.7422 11.1291C33.7272 11.2195 33.6971 11.34 33.6368 11.5056L30.008 23.145C29.9176 23.4462 29.8122 23.6419 29.6918 23.7323C29.5713 23.8226 29.3756 23.8829 29.1196 23.8829H27.8246C27.5385 23.8829 27.3428 23.8377 27.2223 23.7323C27.1019 23.6269 26.9965 23.4311 26.9362 23.13L24.6023 13.4179L22.2835 23.1149C22.2082 23.4161 22.1178 23.6118 21.9974 23.7172C21.8769 23.8226 21.6661 23.8678 21.3951 23.8678H20.1001Z" fill="#252F3E"/>
</svg>
