<svg width="48" height="48" viewBox="0 0 48 48" fill="none" xmlns="http://www.w3.org/2000/svg">
<path fill-rule="evenodd" clip-rule="evenodd" d="M42.2949 31.5923C37.341 35.2513 30.1435 37.1937 23.9549 37.1937C15.2817 37.1937 7.46688 33.9865 1.56434 28.6561C1.09756 28.2345 1.51917 27.6623 2.07629 27.9936C8.46068 31.6977 16.3358 33.9413 24.4819 33.9413C29.9779 33.9413 36.0159 32.7969 41.5721 30.448C42.4003 30.0715 43.108 30.99 42.2949 31.5923Z" fill="#FF9900"/>
<path fill-rule="evenodd" clip-rule="evenodd" d="M44.3578 29.2434C43.7254 28.4303 40.1718 28.8519 38.5607 29.0476C38.0788 29.1078 38.0035 28.6862 38.4402 28.37C41.271 26.3824 45.9238 26.9546 46.4659 27.6172C47.0079 28.2947 46.3153 32.9475 43.6652 35.176C43.2586 35.5223 42.8671 35.3417 43.0478 34.8899C43.6501 33.3992 44.9902 30.0414 44.3578 29.2434Z" fill="#FF9900"/>
<path fill-rule="evenodd" clip-rule="evenodd" d="M37.1301 24.0033C37.883 24.184 38.666 24.2744 39.4489 24.2744C40.2169 24.2744 40.9246 24.169 41.6022 23.9582C42.2496 23.7624 42.8068 23.4914 43.2735 23.1149C43.7403 22.7536 44.1017 22.3018 44.3727 21.7899C44.6287 21.2779 44.7642 20.6907 44.7642 20.0432C44.7642 19.2602 44.5384 18.5525 44.0716 17.9352C43.6048 17.3178 42.8218 16.836 41.7377 16.4896L39.5995 15.8121C38.8015 15.5561 38.2443 15.27 37.9432 14.9839C37.642 14.6978 37.4915 14.3364 37.4915 13.9148C37.4915 13.2975 37.7324 12.8608 38.1992 12.5747C38.666 12.2886 39.3435 12.1531 40.2018 12.1531C41.2709 12.1531 42.2346 12.3488 43.0929 12.7403C43.3488 12.8608 43.5446 12.921 43.665 12.921C43.8909 12.921 44.0114 12.7554 44.0114 12.4392V11.7315C44.0114 11.5207 43.9662 11.355 43.8759 11.2346C43.7855 11.0991 43.6349 10.9786 43.4241 10.8581C43.2735 10.7678 43.0627 10.6774 42.7917 10.5871C42.5207 10.4968 42.2346 10.4215 41.9334 10.3462C41.6172 10.2859 41.301 10.2257 40.9547 10.1805C40.6234 10.1354 40.2771 10.1203 39.9458 10.1203C39.2833 10.1203 38.6509 10.1956 38.0486 10.3763C37.4463 10.557 36.9343 10.813 36.4826 11.1593C36.0309 11.4905 35.6695 11.9122 35.3985 12.394C35.1274 12.8758 34.9919 13.433 34.9919 14.0654C34.9919 14.8484 35.2479 15.5862 35.7448 16.2487C36.2417 16.9263 37.0548 17.4383 38.154 17.7846L40.3373 18.4622C41.0752 18.7031 41.5871 18.9591 41.8581 19.2452C42.1292 19.5313 42.2647 19.8776 42.2647 20.2992C42.2647 20.9165 41.9937 21.3984 41.4817 21.7297C40.9697 22.0609 40.2319 22.2266 39.2833 22.2266C38.681 22.2266 38.0938 22.1663 37.4915 22.0459C36.9042 21.9254 36.3471 21.7447 35.8351 21.5189C35.7818 21.4975 35.7304 21.4762 35.6821 21.4562C35.5942 21.4197 35.517 21.3877 35.4587 21.3683C35.3684 21.3382 35.278 21.3231 35.1877 21.3231C34.9618 21.3231 34.8413 21.4737 34.8413 21.7899V22.5578C34.8413 22.6933 34.8715 22.8439 34.9317 22.9794C34.9919 23.1149 35.1576 23.2655 35.3985 23.401C35.79 23.6269 36.3772 23.8226 37.1301 24.0033ZM14.2878 21.2925C14.1824 20.9613 14.1222 20.5096 14.1222 19.9524H14.0921V15.0738C14.0921 13.4175 13.6704 12.1828 12.8423 11.3696C11.9991 10.5565 10.6891 10.15 8.89722 10.15C8.06906 10.15 7.28607 10.2403 6.54825 10.4361C5.81043 10.6168 5.17801 10.8426 4.651 11.1137C4.4402 11.2191 4.30468 11.3245 4.22939 11.4299C4.1541 11.5353 4.12399 11.716 4.12399 11.9569V12.6947C4.12399 13.0109 4.22939 13.1615 4.4402 13.1615C4.50043 13.1615 4.57571 13.1464 4.68112 13.1163C4.78652 13.0862 4.96721 13.026 5.20813 12.9206C5.73514 12.7098 6.27721 12.5441 6.83434 12.4086C7.39147 12.2731 7.93354 12.2129 8.46055 12.2129C9.61998 12.2129 10.4331 12.4387 10.9149 12.9055C11.3817 13.3723 11.6226 14.1703 11.6226 15.3147V16.4139C11.0203 16.2784 10.4481 16.1579 9.89101 16.0826C9.33389 16.0074 8.80687 15.9622 8.29492 15.9622C6.744 15.9622 5.52434 16.3537 4.60583 17.1367C3.68732 17.9197 3.2356 18.9586 3.2356 20.2385C3.2356 21.4431 3.61203 22.4068 4.34985 23.1296C5.08767 23.8523 6.09652 24.2137 7.36135 24.2137C9.13814 24.2137 10.6138 23.5211 11.7883 22.1358C11.9539 22.4821 12.1045 22.7682 12.255 23.0242C12.4056 23.2651 12.5863 23.506 12.7971 23.7319C12.9477 23.8674 13.0983 23.9427 13.2488 23.9427C13.3693 23.9427 13.5048 23.8975 13.6403 23.8071L14.589 23.1747C14.7847 23.0242 14.875 22.8736 14.875 22.723C14.875 22.6176 14.8449 22.4971 14.7696 22.3767C14.5588 21.9852 14.4083 21.6238 14.2878 21.2925ZM9.55977 21.9706C9.0177 22.1513 8.50575 22.2416 8.00885 22.2416C7.31621 22.2416 6.78919 22.0609 6.42781 21.6845C6.05137 21.3231 5.87068 20.7961 5.87068 20.0884C5.87068 19.3355 6.1116 18.7633 6.6085 18.3568C7.1054 17.9502 7.84322 17.7545 8.85207 17.7545C9.31885 17.7545 9.78564 17.7846 10.2675 17.8448C10.7493 17.905 11.2161 17.9954 11.6528 18.1008V18.7332C11.6528 19.2452 11.5925 19.6818 11.5022 20.0432C11.4118 20.4046 11.2312 20.7208 10.9902 21.0069C10.5837 21.4586 10.1018 21.7899 9.55977 21.9706ZM20.1 23.8678C19.829 23.8678 19.6483 23.8226 19.5278 23.7172C19.4074 23.6269 19.302 23.4161 19.2116 23.13L15.6731 11.4905C15.5828 11.1894 15.5376 10.9936 15.5376 10.8882C15.5376 10.6473 15.658 10.5118 15.899 10.5118H17.3746C17.6607 10.5118 17.8564 10.557 17.9618 10.6624C18.0823 10.7527 18.1727 10.9635 18.263 11.2496L20.7927 21.2177L23.1416 11.2496C23.2169 10.9485 23.3073 10.7527 23.4277 10.6624C23.5482 10.572 23.759 10.5118 24.03 10.5118H25.2346C25.5207 10.5118 25.7165 10.557 25.8369 10.6624C25.9574 10.7527 26.0628 10.9635 26.123 11.2496L28.5021 21.3382L31.1071 11.2496C31.1974 10.9485 31.3028 10.7527 31.4082 10.6624C31.5287 10.572 31.7244 10.5118 31.9954 10.5118H33.3958C33.6367 10.5118 33.7722 10.6323 33.7722 10.8882C33.7722 10.9525 33.7612 11.0168 33.7487 11.0905L33.7421 11.1292C33.7271 11.2195 33.6969 11.34 33.6367 11.5056L30.0079 23.1451C29.9175 23.4462 29.8121 23.642 29.6916 23.7323C29.5712 23.8226 29.3754 23.8829 29.1195 23.8829H27.8245C27.5384 23.8829 27.3427 23.8377 27.2222 23.7323C27.1018 23.6269 26.9964 23.4311 26.9361 23.13L24.6022 13.4179L22.2834 23.1149C22.2081 23.4161 22.1177 23.6118 21.9973 23.7172C21.8768 23.8226 21.666 23.8678 21.395 23.8678H20.1Z" fill="white"/>
</svg>
