<svg width="307" height="194" fill="none" xmlns="http://www.w3.org/2000/svg"><path opacity=".15" fill-rule="evenodd" clip-rule="evenodd" d="M0 130.864h130.864L261.728 0H130.864L0 130.864Z" fill="url(#a)"/><path opacity=".15" fill-rule="evenodd" clip-rule="evenodd" d="M26.402 156.118h130.864L288.13 25.254H157.266L26.402 156.118Z" fill="url(#b)"/><path opacity=".15" fill-rule="evenodd" clip-rule="evenodd" d="M44.77 194h130.863L306.497 63.136H175.633L44.769 194Z" fill="url(#c)"/><path fill-rule="evenodd" clip-rule="evenodd" d="M127.833 77.195H79.167v32.444H75.11V76.181a3.042 3.042 0 0 1 3.042-3.042h50.694a3.042 3.042 0 0 1 3.042 3.042v33.458h-4.056V77.195Zm-58.805 36.499v6.895a5.272 5.272 0 0 0 5.272 5.272h58.278a5.272 5.272 0 0 0 5.273-5.272v-6.895H69.028Zm64.889 6.895c0 .672-.545 1.217-1.217 1.217H74.219a1.217 1.217 0 0 1-1.217-1.217v-3.792H93.18a3.325 3.325 0 0 0 3.041 2.028h14.458a3.325 3.325 0 0 0 3.042-2.028h20.197v3.792Z" fill="#ADBBC4"/><path clip-rule="evenodd" d="M103.429 84.902a1.373 1.373 0 0 0-.521.13l-7.106 3.375a1.343 1.343 0 0 0-.735.909l-1.753 7.58a1.323 1.323 0 0 0 .262 1.133l4.918 6.077c.258.319.649.504 1.063.504l7.887-.002c.413.001.804-.185 1.062-.503l4.917-6.078c.258-.319.355-.736.263-1.134l-1.756-7.58a1.344 1.344 0 0 0-.735-.908l-7.107-3.372a1.376 1.376 0 0 0-.659-.131Z" stroke="#00C1D5" stroke-width="2"/><path fill-rule="evenodd" clip-rule="evenodd" d="M180.155 84.06h-2.744a7.511 7.511 0 0 0-7.457 7.51 7.439 7.439 0 0 0 1.463 4.406 14.595 14.595 0 0 0-1.21 4.045 11.105 11.105 0 0 1 6.861-19.572A16.61 16.61 0 0 1 193.21 67.61h.162a16.574 16.574 0 0 1 14.047 8.07 20.04 20.04 0 0 0-5.579-1.155 12.91 12.91 0 0 0-8.504-3.304h-.126a12.983 12.983 0 0 0-12.766 11.267l-.289 1.57Zm4.623 10.472h2.744l.145-1.643a12.98 12.98 0 0 1 12.855-11.285h.127a12.945 12.945 0 0 1 10.291 5.272 19.94 19.94 0 0 1 4.911 1.39 16.61 16.61 0 0 0-15.166-10.273h-.163a16.612 16.612 0 0 0-16.142 12.856 11.105 11.105 0 0 0-6.572 19.861 14.622 14.622 0 0 1 1.427-3.611 7.475 7.475 0 0 1 5.416-12.64l.127.073Zm39.758 12.53v1.12h.072a8.81 8.81 0 0 1-2.636 17.207h-29.828c-5.98-.13-10.786-4.967-10.878-10.948-.093-5.981 4.562-10.964 10.535-11.279 1.883-8.267 9.702-13.78 18.122-12.778 8.42 1.004 14.725 8.2 14.613 16.678Zm-32.392 14.716h29.828a5.217 5.217 0 0 0 .524-10.418l-1.697-.199.126-2.004v-2.167c.04-7.155-5.701-13-12.856-13.09h-.126a12.983 12.983 0 0 0-12.856 11.285l-.198 1.571h-2.745a7.51 7.51 0 1 0 0 15.022Z" fill="#00C1D5"/><defs><linearGradient id="a" x1="130.864" y1="0" x2="0" y2="130.864" gradientUnits="userSpaceOnUse"><stop offset=".224" stop-color="#00C1D5"/><stop offset="1" stop-color="#00C1D5" stop-opacity="0"/></linearGradient><linearGradient id="b" x1="157.266" y1="25.254" x2="26.402" y2="156.118" gradientUnits="userSpaceOnUse"><stop offset=".224" stop-color="#0091DA"/><stop offset="1" stop-color="#0091DA" stop-opacity="0"/></linearGradient><linearGradient id="c" x1="44.77" y1="194" x2="149.227" y2="44.665" gradientUnits="userSpaceOnUse"><stop stop-color="#1A428A" stop-opacity="0"/><stop offset=".999" stop-color="#1A428A"/></linearGradient></defs></svg>