<svg id="ed00c4b3-57b4-4cd7-86ba-de1d4612831e" data-name="Layer 1" xmlns="http://www.w3.org/2000/svg" xmlns:xlink="http://www.w3.org/1999/xlink" width="713.67" height="370.85" viewBox="0 0 713.67 370.85"><defs><linearGradient id="040f6ff3-1b99-4d30-bda3-24759f9aac24" x1="3015.28" y1="3457.6" x2="3015.94" y2="3457.6" gradientTransform="matrix(0, -384.54, -384.54, 0, 1329958.31, 1159789.33)" gradientUnits="userSpaceOnUse"><stop offset="0" stop-color="#fff"/><stop offset="0.29" stop-color="#fff"/><stop offset="0.37" stop-color="#fafafa"/><stop offset="0.46" stop-color="#ececec"/><stop offset="0.55" stop-color="#d5d5d5"/><stop offset="0.65" stop-color="#b5b5b5"/><stop offset="0.75" stop-color="#8c8c8c"/><stop offset="0.85" stop-color="#595959"/><stop offset="0.95" stop-color="#1e1e1e"/><stop offset="1"/></linearGradient><linearGradient id="4d691b40-95a5-4b85-b422-18e8cee2a021" x1="3016.26" y1="3459.04" x2="3016.92" y2="3459.04" gradientTransform="matrix(0, -339.07, -339.07, 0, 1173316.79, 1023004.98)" gradientUnits="userSpaceOnUse"><stop offset="0" stop-color="#b3b3b3"/><stop offset="0.15" stop-color="#b3b3b3"/><stop offset="0.3" stop-color="#999"/><stop offset="0.63" stop-color="#555"/><stop offset="1"/></linearGradient><linearGradient id="45f36a99-6d90-47cb-8e8c-047ad8531d04" x1="2936" y1="3356.24" x2="2936.67" y2="3356.24" gradientTransform="matrix(0, 39.24, 39.24, 0, -131485.91, -114859.31)" gradientUnits="userSpaceOnUse"><stop offset="0" stop-color="#999"/><stop offset="0" stop-color="#999"/><stop offset="0.37" stop-color="#5d5d5d"/><stop offset="0.8" stop-color="#1a1a1a"/><stop offset="1"/></linearGradient><linearGradient id="a6de93bb-998f-47dd-94c4-14c19bc4c73a" x1="3025.18" y1="3470.49" x2="3025.83" y2="3470.49" gradientTransform="matrix(0, -163.16, -163.16, 0, 566569.59, 493875.13)" gradientUnits="userSpaceOnUse"><stop offset="0" stop-color="#fff"/><stop offset="0.4" stop-color="#9d9d9d"/><stop offset="1"/></linearGradient><linearGradient id="ab406d9c-2658-4dd0-8ac8-a20760466a03" x1="3034.96" y1="3483.59" x2="3035.62" y2="3483.59" gradientTransform="matrix(0, -104.79, -104.79, 0, 365498.29, 318377.41)" xlink:href="#a6de93bb-998f-47dd-94c4-14c19bc4c73a"/><clipPath id="3fdac8ed-3cf5-4d7e-b171-0a71d75b1753"><polygon points="664.11 37.02 412.12 289.01 75.83 289.07 327.29 37.61 664.11 37.02" fill="none"/></clipPath><mask id="f33eea8e-eae0-4025-b0f1-4c1ab17cb5fe" x="75.83" y="37.02" width="588.28" height="252.05" maskUnits="userSpaceOnUse"><rect x="75.83" y="37.02" width="588.28" height="252.05" fill="url(#040f6ff3-1b99-4d30-bda3-24759f9aac24)"/></mask><linearGradient id="9d9f7370-05ae-45a8-a73a-b91dc8b8cd8b" x1="3015.28" y1="3457.6" x2="3015.94" y2="3457.6" gradientTransform="matrix(0, -384.54, -384.54, 0, 1329958.31, 1159789.33)" gradientUnits="userSpaceOnUse"><stop offset="0" stop-color="#1c4177"/><stop offset="0.29" stop-color="#1c4177"/><stop offset="0.4" stop-color="#20467b"/><stop offset="0.53" stop-color="#2a5488"/><stop offset="0.66" stop-color="#3c6b9c"/><stop offset="0.8" stop-color="#548bb8"/><stop offset="0.94" stop-color="#73b4dd"/><stop offset="1" stop-color="#81c6ed"/></linearGradient><clipPath id="8b49d0b8-226b-42bf-95e4-be79112b04c9"><polygon points="682.24 69.76 460 292 262.59 292 484.03 70.56 682.24 69.76" fill="none"/></clipPath><mask id="d118bbed-c6c6-4d5d-9575-d482bffee90c" x="262.59" y="69.76" width="419.66" height="222.24" maskUnits="userSpaceOnUse"><rect x="262.59" y="69.76" width="419.66" height="222.24" fill="url(#4d691b40-95a5-4b85-b422-18e8cee2a021)"/></mask><linearGradient id="515d1764-c448-4ca7-a286-67530b32e9ec" x1="3015.97" y1="3459.04" x2="3016.63" y2="3459.04" gradientTransform="matrix(0, -339.07, -339.07, 0, 1173316.9, 1023005.07)" gradientUnits="userSpaceOnUse"><stop offset="0" stop-color="#1c4077"/><stop offset="0.18" stop-color="#1f467d"/><stop offset="0.43" stop-color="#28578f"/><stop offset="0.71" stop-color="#3673ac"/><stop offset="1" stop-color="#4896d1"/></linearGradient><clipPath id="a039acb4-7dc5-4e5b-a83e-ee74b52a62a8"><path d="M351.61,20.44A42.67,42.67,0,1,0,381.77,8a42.66,42.66,0,0,0-30.16,12.49" fill="none"/></clipPath><linearGradient id="cd1b6eeb-e6e3-46c5-80e0-0866b1bff0b7" x1="3036.57" y1="3427.46" x2="3037.23" y2="3427.46" gradientTransform="matrix(-130.17, 0, 0, 130.17, 395680.48, -446083.61)" gradientUnits="userSpaceOnUse"><stop offset="0" stop-color="#fff"/><stop offset="0.27" stop-color="#f9fcfe"/><stop offset="0.63" stop-color="#e7f3fb"/><stop offset="1" stop-color="#cee6f7"/></linearGradient><clipPath id="07b14aef-ecb5-4348-8604-125fb737401c"><path d="M236.86,103.32l-2.31,27.2-16.24-17.26S201.05,119.66,208,134c14.09,15.57,36.64,22.93,36.64,22.93s3.55-5.4,4.29-15.69S248,103,248,103Z" fill="none"/></clipPath><linearGradient id="aed83cab-606e-4649-8518-97b0e22fd867" x1="2952.76" y1="3489.64" x2="2953.41" y2="3489.64" gradientTransform="matrix(65.25, 0, 0, -65.25, -192463.53, 227831.77)" gradientUnits="userSpaceOnUse"><stop offset="0" stop-color="#08968b"/><stop offset="0.33" stop-color="#0d9c90"/><stop offset="0.79" stop-color="#1aae9d"/><stop offset="1" stop-color="#22b9a5"/></linearGradient><clipPath id="4342e1e0-5506-47e0-86c0-6d0a11ff1500"><path d="M161.16,108.85a15.79,15.79,0,0,0-15.45,12.55l-1.22,5.81,2.24,49.62s2.53,9.18,21.81,9.18,29.94-9.18,29.94-9.18V126.48l-1.94-6.4a15.78,15.78,0,0,0-15.12-11.23Z" fill="none"/></clipPath><linearGradient id="b3c32f9b-e654-4d72-9d00-f36885baaf28" x1="2964.63" y1="3481.1" x2="2965.29" y2="3481.1" gradientTransform="matrix(82.37, 0, 0, -82.37, -244046.93, 286879.09)" gradientUnits="userSpaceOnUse"><stop offset="0" stop-color="#404041"/><stop offset="0.19" stop-color="#3a393a"/><stop offset="1" stop-color="#231f20"/></linearGradient><clipPath id="7d551206-c804-47c5-b5f8-48ce7e577600"><path d="M161.16,108.85a15.79,15.79,0,0,0-15.45,12.55l-.86,4.1,9.42,18.37h21.31l18.47-28.7a15.8,15.8,0,0,0-12.63-6.32Z" fill="none"/></clipPath><linearGradient id="a28d0788-29ed-4f60-92be-fd5052781e6b" x1="2960.41" y1="3484.17" x2="2961.07" y2="3484.17" gradientTransform="matrix(75.06, 0, 0, -75.06, -222074.55, 261661.15)" gradientUnits="userSpaceOnUse"><stop offset="0" stop-color="#58595b"/><stop offset="0.18" stop-color="#4c4d4f"/><stop offset="0.44" stop-color="#434344"/><stop offset="0.76" stop-color="#404041"/><stop offset="1" stop-color="#404041"/></linearGradient><clipPath id="67cfc05d-23cf-4537-9e3b-7bce0e2a5b19"><polygon points="178.63 335.76 152.5 361.88 216.86 361.88 242.75 335.99 214.2 335.99 189.18 354.28 204.22 335.76 178.63 335.76" fill="none"/></clipPath><mask id="9d88d39e-a992-4761-84ba-2d58dfcc1faf" x="152.19" y="335.76" width="90.25" height="26.12" maskUnits="userSpaceOnUse"><rect x="152.19" y="335.76" width="90.25" height="26.12" fill="url(#45f36a99-6d90-47cb-8e8c-047ad8531d04)"/></mask><linearGradient id="7b760665-f575-4ad7-884a-0fc65b5dfa5e" x1="2936" y1="3356.24" x2="2936.67" y2="3356.24" gradientTransform="matrix(0, 39.24, 39.24, 0, -131485.91, -114859.31)" gradientUnits="userSpaceOnUse"><stop offset="0" stop-color="#81c6ed"/><stop offset="0" stop-color="#81c6ed"/><stop offset="0.62" stop-color="#b4dbf4"/><stop offset="1" stop-color="#cee6f7"/></linearGradient><clipPath id="3f6d899e-cf52-443f-9b3f-74f138995e08"><polygon points="317.72 237.19 303.19 251.4 318.15 292.7 361.51 249.35 299.09 185.75 317.72 237.19" fill="none"/></clipPath><mask id="eac07f21-3581-47aa-85bd-a45779d94e22" x="299.09" y="185.76" width="62.42" height="106.94" maskUnits="userSpaceOnUse"><rect x="299.09" y="185.76" width="62.42" height="106.94" fill="url(#a6de93bb-998f-47dd-94c4-14c19bc4c73a)"/></mask><linearGradient id="b9c58bf2-b5ab-4b5b-90be-5a9b1b9bb85d" x1="3025.18" y1="3470.49" x2="3025.83" y2="3470.49" gradientTransform="matrix(0, -163.16, -163.16, 0, 566569.59, 493875.13)" gradientUnits="userSpaceOnUse"><stop offset="0" stop-color="#cee6f7"/><stop offset="1" stop-color="#cee6f7"/></linearGradient><clipPath id="0d481528-7f8c-4ad4-b788-09c524eefaa1"><polygon points="384.77 316.36 398.14 335.83 502.68 335.83 433.99 267.14 384.77 316.36" fill="none"/></clipPath><mask id="d429c613-618e-41b8-96c3-34624d787de7" x="384.77" y="267.14" width="117.91" height="68.69" maskUnits="userSpaceOnUse"><rect x="384.77" y="267.14" width="117.91" height="68.69" fill="url(#ab406d9c-2658-4dd0-8ac8-a20760466a03)"/></mask><linearGradient id="dd9a7d59-f2f0-404e-83a5-f6fb36a5051c" x1="3034.96" y1="3483.59" x2="3035.62" y2="3483.59" gradientTransform="matrix(0, -104.79, -104.79, 0, 365498.31, 318377.43)" xlink:href="#b9c58bf2-b5ab-4b5b-90be-5a9b1b9bb85d"/></defs><title>Artboard 17</title><g clip-path="url(#3fdac8ed-3cf5-4d7e-b171-0a71d75b1753)"><g mask="url(#f33eea8e-eae0-4025-b0f1-4c1ab17cb5fe)"><rect x="75.83" y="37.02" width="588.28" height="252.05" fill="url(#9d9f7370-05ae-45a8-a73a-b91dc8b8cd8b)"/></g></g><g clip-path="url(#8b49d0b8-226b-42bf-95e4-be79112b04c9)"><g mask="url(#d118bbed-c6c6-4d5d-9575-d482bffee90c)"><rect x="262.59" y="69.76" width="419.66" height="222.24" fill="url(#515d1764-c448-4ca7-a286-67530b32e9ec)"/></g></g><polygon points="248.11 314.51 148.8 215.2 50.04 313.95 248.11 314.51" fill="#82c7ed" fill-rule="evenodd"/><polygon points="162.47 322.37 298.5 186.34 361.51 249.35 388.86 222 502.68 335.83 169.45 335.83 162.47 322.37" fill="#82c7ed" fill-rule="evenodd"/><path d="M217.66,84.71h27.88a5.7,5.7,0,1,1,0,11.4H225.72L220.92,91h-6Z" fill="#231f20" fill-rule="evenodd"/><path d="M187.13,114s4.81-7.72,1.42-20c-3.75-13.55,17.85,2.67,17.85,2.67l0,17.38Z" fill="#a77b4f"/><path d="M203.25,105.12h0c8.1,0,12.61-2.19,13.83-10.76l.85-9c.35-9.56-6.49-15.79-14.59-15.81A14.78,14.78,0,0,0,188.57,84.2l0,9.36c0,1,6.6,11.54,14.7,11.56" fill="#a77b4f"/><path d="M217.11,79.13c2.36-2.57.93-5.92-2.22-7.39-3.66-1.7-7.78-4.16-13.06-4.18-10.35,0-14.35,8.53-14.84,13.24-.63,6.15,2.32,16.12,2.32,16.12h7.07a3.81,3.81,0,0,0,3.76-3.2l.62-3.76,7-2.2.14-4.48c0-2.06.87-5.31,4.78-4.68Z" fill="#1f2049"/><path d="M198.43,89.67c0,2.64,1.58,4.79,3.54,4.79s3.55-2.13,3.56-4.77S204,84.9,202,84.9s-3.55,2.13-3.56,4.77" fill="#a77b4f"/><polygon points="182.08 115.25 187.5 105.55 210.43 107.31 210.43 115.25 182.08 115.25" fill="#06968a" fill-rule="evenodd"/><g clip-path="url(#a039acb4-7dc5-4e5b-a83e-ee74b52a62a8)"><rect x="334.95" y="7.95" width="93.65" height="89.48" fill="url(#cd1b6eeb-e6e3-46c5-80e0-0866b1bff0b7)"/></g><path d="M472.38,182.26a36,36,0,0,1,17.17,4.33,56.44,56.44,0,0,1,106.64,25.79H436.78a36.1,36.1,0,0,1,35.6-30.12" fill="#fff" fill-rule="evenodd"/><path d="M58.37,302H170.78c46.86,0,165.45,6.09,241.81,61.88H5.94Z" fill="#fafafa" fill-rule="evenodd"/><path d="M168.59,188.73a83.52,83.52,0,0,0,2.95,31.77,280.16,280.16,0,0,1,9.59,43.34,262.7,262.7,0,0,0-2.79,31.72c-.1,10.16.78,40.27.78,40.27h25v-2.7a6.08,6.08,0,0,0-3.56-5.54l-1.51-.7a6.08,6.08,0,0,1-3.54-5.84l4-57.46-1-41.25-10-33.61Z" fill="#231f20" fill-rule="evenodd"/><path d="M213.17,188.73l19.35,73.46s-1.82,48.3-.87,58.19a5.53,5.53,0,0,0,2.66,4.2l5.05,3a5.52,5.52,0,0,1,2.68,4.73v3.49H213.93s-5-52.52-2.2-70.7c-8.95-21-30.18-49.92-31.62-76.4Z" fill="#231f20" fill-rule="evenodd"/><path d="M213.17,188.73s7.52-42.42,9.73-53.43-4.59-22-4.59-22H173.5s-8.18,17.21-5,75.47Z" fill="#06968a" fill-rule="evenodd"/><g clip-path="url(#07b14aef-ecb5-4348-8604-125fb737401c)"><rect x="201.05" y="102.98" width="48.64" height="53.94" fill="url(#aed83cab-606e-4649-8518-97b0e22fd867)"/></g><path d="M216.28,171.32s-16.52-1.5-21.47-15.46l-5.52,8.82s9.19,19.48,24.69,19.48c1.57-8.8,2.3-12.84,2.3-12.84" fill="#231f20" fill-rule="evenodd"/><path d="M210.23,113.26s-11.75,4-11.75,13.22-9.19,0-9.19,0,2.57-11,9.19-13.22Z" fill="#231f20" fill-rule="evenodd"/><g clip-path="url(#4342e1e0-5506-47e0-86c0-6d0a11ff1500)"><rect x="144.49" y="108.85" width="53.99" height="77.16" fill="url(#b3c32f9b-e654-4d72-9d00-f36885baaf28)"/></g><g clip-path="url(#7d551206-c804-47c5-b5f8-48ce7e577600)"><rect x="144.85" y="108.85" width="49.2" height="35.02" fill="url(#a28d0788-29ed-4f60-92be-fd5052781e6b)"/></g><rect x="162.47" y="139.94" width="5.71" height="8.96" fill="#231f20"/><path d="M186.11,83.92s-2.83-17.47,12.75-19.75S220,75,219.63,78.25s-33.52,5.67-33.52,5.67" fill="#1c4177"/><path d="M188,91.47l32-5.2a2.05,2.05,0,0,0,1.73-2V78.73a2.06,2.06,0,0,0-2.35-2l-33,4.72a2,2,0,0,0-1.74,2.38l1,6A2.05,2.05,0,0,0,188,91.47" fill="#1c4177"/><g clip-path="url(#67cfc05d-23cf-4537-9e3b-7bce0e2a5b19)"><g mask="url(#9d88d39e-a992-4761-84ba-2d58dfcc1faf)"><rect x="152.19" y="335.76" width="90.25" height="26.12" fill="url(#7b760665-f575-4ad7-884a-0fc65b5dfa5e)"/></g></g><path d="M171.7,124.09a6.38,6.38,0,1,1-6.38-6.38,6.38,6.38,0,0,1,6.38,6.38" fill="#6d6e70" fill-rule="evenodd"/><path d="M236.88,103.32,229.53,99l-1.2-2.87h1.16A2.92,2.92,0,0,0,232.4,93l-.26-4a3.53,3.53,0,0,0-1.69-2.78l-2.12-1.29,1.2-1.68h7.35l4.32,3a4.1,4.1,0,0,1,1.67,2.49l2.54,11.52L246,103Z" fill="#a77b4f"/><path d="M306.94,134.46a2,2,0,1,1-2-2,2,2,0,0,1,2,2" fill="#fff"/><path d="M447.27,122.34a2,2,0,1,1-2-2,2,2,0,0,1,2,2" fill="#fff"/><path d="M379.44,136.42a2,2,0,1,1-2-2,2,2,0,0,1,2,2" fill="#fff"/><path d="M482.67,151a2,2,0,1,1-2-2,2,2,0,0,1,2,2" fill="#fff"/><path d="M509.42,96.34A1.34,1.34,0,1,1,508.09,95a1.33,1.33,0,0,1,1.33,1.33" fill="#fff"/><path d="M405.32,199.59a1.34,1.34,0,1,1-1.33-1.34,1.33,1.33,0,0,1,1.33,1.34" fill="#fff"/><path d="M276.85,170a1.34,1.34,0,1,1-1.33-1.33,1.33,1.33,0,0,1,1.33,1.33" fill="#fff"/><path d="M343.1,200.92a1.34,1.34,0,1,1-1.34-1.33,1.33,1.33,0,0,1,1.34,1.33" fill="#fff"/><path d="M376.85,177.12a1.34,1.34,0,1,1-1.33-1.33,1.34,1.34,0,0,1,1.33,1.33" fill="#fff"/><path d="M328.52,187a1.34,1.34,0,1,1-1.34-1.33,1.34,1.34,0,0,1,1.34,1.33" fill="#fff"/><polygon points="52.53 301.19 88.17 265.54 123.81 301.19 52.53 301.19" fill="#06968a"/><polygon points="58.33 272.98 88.17 243.13 118.02 272.98 58.33 272.98" fill="#06968a"/><polygon points="65.58 248.49 88.17 225.9 110.77 248.49 65.58 248.49" fill="#06968a"/><polygon points="110.77 301.19 135.71 276.24 160.66 301.19 110.77 301.19" fill="#06968a"/><polygon points="114.82 281.44 135.71 260.55 156.6 281.44 114.82 281.44" fill="#06968a"/><polygon points="119.9 264.31 135.71 248.49 151.53 264.31 119.9 264.31" fill="#06968a"/><g clip-path="url(#3f6d899e-cf52-443f-9b3f-74f138995e08)"><g mask="url(#eac07f21-3581-47aa-85bd-a45779d94e22)"><rect x="299.09" y="185.76" width="62.42" height="106.94" fill="url(#b9c58bf2-b5ab-4b5b-90be-5a9b1b9bb85d)"/></g></g><path d="M382.92,78.76a3.48,3.48,0,1,1-3.48-3.49,3.48,3.48,0,0,1,3.48,3.49" fill="#fff"/><path d="M412.12,48.38a3.48,3.48,0,1,1-3.48-3.48,3.48,3.48,0,0,1,3.48,3.48" fill="#fff"/><path d="M382.92,60.42a3.48,3.48,0,1,1-3.48-3.48,3.48,3.48,0,0,1,3.48,3.48" fill="#fff"/><path d="M405.68,66.38a7.53,7.53,0,1,1-7.53-7.53,7.53,7.53,0,0,1,7.53,7.53" fill="#fff"/><g clip-path="url(#0d481528-7f8c-4ad4-b788-09c524eefaa1)"><g mask="url(#d429c613-618e-41b8-96c3-34624d787de7)"><rect x="384.77" y="267.14" width="117.91" height="68.69" fill="url(#dd9a7d59-f2f0-404e-83a5-f6fb36a5051c)"/></g></g></svg>