<svg width="48" height="48" viewBox="0 0 48 48" fill="none" xmlns="http://www.w3.org/2000/svg">
<g clip-path="url(#clip0_1052_18248)">
<path fill-rule="evenodd" clip-rule="evenodd" d="M9.61877 22.7742H14.5747V18.2689H9.61877V22.7742Z" fill="#46A4E0"/>
<path fill-rule="evenodd" clip-rule="evenodd" d="M3.76196 22.7742H8.71784V18.2689H3.76196L3.76196 22.7742Z" fill="#46A4E0"/>
<path fill-rule="evenodd" clip-rule="evenodd" d="M15.4757 22.7742H20.4313V18.2689H15.4757V22.7742Z" fill="#46A4E0"/>
<path fill-rule="evenodd" clip-rule="evenodd" d="M21.3325 22.7742H26.2883V18.2689H21.3325V22.7742Z" fill="#46A4E0"/>
<path fill-rule="evenodd" clip-rule="evenodd" d="M27.1893 22.7742H32.1452V18.2689H27.1893V22.7742Z" fill="#46A4E0"/>
<path fill-rule="evenodd" clip-rule="evenodd" d="M9.61877 17.3679H14.5747V12.8625H9.61877V17.3679Z" fill="#46A4E0"/>
<path fill-rule="evenodd" clip-rule="evenodd" d="M15.4757 17.3679H20.4313V12.8625H15.4757V17.3679Z" fill="#46A4E0"/>
<path fill-rule="evenodd" clip-rule="evenodd" d="M21.3325 17.3679H26.2883V12.8625H21.3325V17.3679Z" fill="#46A4E0"/>
<path fill-rule="evenodd" clip-rule="evenodd" d="M21.3325 11.9615H26.2883V7.45624L21.3325 7.45624V11.9615Z" fill="#46A4E0"/>
<path fill-rule="evenodd" clip-rule="evenodd" d="M46.9062 19.6598C45.8889 18.9752 43.2166 18.6828 41.2736 19.2062C41.1694 17.2707 40.171 15.6397 38.3452 14.2171L37.6696 13.7636L37.2187 14.4439C36.3336 15.7877 35.9607 17.5782 36.0929 19.2062C36.1968 20.209 36.5457 21.3365 37.2187 22.1543C36.7033 22.555 35.0999 23.3295 32.9391 23.2883L0.726108 23.2883C0.153255 26.6899 1.13429 39.6161 16.044 39.6161C27.113 39.6161 36.2081 34.6381 40.3725 24.1953C41.7428 24.2178 45.3604 24.4409 47.1306 21.0203C47.1736 20.9629 47.5812 20.1134 47.5812 20.1134L46.9062 19.6598Z" fill="#46A4E0"/>
<mask id="mask0_1052_18248" style="mask-type:alpha" maskUnits="userSpaceOnUse" x="4" y="33" width="16" height="7">
<path d="M12.6278 33.4746C8.95208 34.7496 4.99451 34.9341 4.16736 34.8973C6.92471 37.1964 11.8373 41.5354 19.9358 39.0581C18.4568 38.6562 14.9682 37.3115 12.6278 33.4746Z" fill="white"/>
</mask>
<g mask="url(#mask0_1052_18248)">
<mask id="mask1_1052_18248" style="mask-type:alpha" maskUnits="userSpaceOnUse" x="-26" y="-12" width="93" height="93">
<path d="M-25.072 80.8923L66.8361 80.8923L66.8361 -11.0156L-25.072 -11.0156L-25.072 80.8923Z" fill="white"/>
</mask>
<g mask="url(#mask1_1052_18248)">
<path fill-rule="evenodd" clip-rule="evenodd" d="M1.91467 40H22.1885V31.222H1.91467L1.91467 40Z" fill="white"/>
</g>
</g>
<path fill-rule="evenodd" clip-rule="evenodd" d="M12.2172 32.6808C10.4487 33.6902 8.39897 34.257 6.22499 34.257C5.12338 34.257 4.05637 34.1107 3.04114 33.8362C3.68398 34.9168 3.68398 34.9168 3.68398 34.9168C4.50604 35.0791 5.35531 35.1643 6.22499 35.1643C8.5678 35.1643 10.7529 34.5519 12.6565 33.4746C12.4988 33.2138 12.3522 32.953 12.2172 32.6808Z" fill="#3371C1"/>
<path fill-rule="evenodd" clip-rule="evenodd" d="M15.6455 32.0929C16.5105 32.0929 17.2117 31.3869 17.2117 30.5161C17.2117 29.6452 16.5105 28.9392 15.6455 28.9392C14.7802 28.9392 14.079 29.6452 14.079 30.5161C14.079 31.3869 14.7802 32.0929 15.6455 32.0929Z" fill="white"/>
<path fill-rule="evenodd" clip-rule="evenodd" d="M15.8812 30.0731C15.8812 29.9284 15.9526 29.8055 16.0572 29.7226C15.9344 29.6588 15.7973 29.6194 15.6498 29.6194C15.1557 29.6194 14.7548 30.0231 14.7548 30.5206C14.7548 31.0181 15.1557 31.4216 15.6498 31.4216C16.1441 31.4216 16.545 31.0181 16.545 30.5206L16.5398 30.4688C16.4767 30.5026 16.408 30.5264 16.3317 30.5264C16.0828 30.5264 15.8812 30.3235 15.8812 30.0731Z" fill="#46505C"/>
<path fill-rule="evenodd" clip-rule="evenodd" d="M46.7726 19.5773C46.0763 19.1827 44.8089 18.9383 43.5003 18.9383C42.737 18.9383 41.9598 19.0214 41.2735 19.2062C41.2715 19.1654 41.2689 19.1247 41.2659 19.0841C41.8842 18.9207 42.5942 18.8476 43.3028 18.8476C44.7104 18.8476 46.1116 19.1361 46.7726 19.5773Z" fill="#E7E3E1"/>
<path fill-rule="evenodd" clip-rule="evenodd" d="M18.2858 39.4803C18.8205 39.3708 19.3703 39.2311 19.9358 39.0581C19.2431 38.8698 18.1094 38.4747 16.8594 37.7135C27.1571 37.4629 34.6979 32.1774 40.7255 19.7021L41.139 19.1192C41.1807 19.1071 41.223 19.0954 41.2659 19.0841C41.2689 19.1247 41.2716 19.1654 41.2736 19.2062C41.9599 19.0214 42.7371 18.9383 43.5003 18.9383C44.809 18.9383 46.0763 19.1827 46.7726 19.5773C46.7736 19.5781 46.775 19.5789 46.7763 19.5798L47.4566 20.0411L47.1139 20.7664C45.5515 23.9333 42.1587 24.1712 40.5706 24.1712C40.4414 24.1712 40.3242 24.1697 40.221 24.168C36.3276 33.8096 28.2392 38.7824 18.2858 39.4803Z" fill="#E7E3E1"/>
<path fill-rule="evenodd" clip-rule="evenodd" d="M18.2858 39.4803C18.8205 39.3708 19.3703 39.2311 19.9358 39.0581C19.2431 38.8698 18.1094 38.4747 16.8594 37.7135C27.1571 37.4629 34.6979 32.1774 40.7255 19.7021L41.139 19.1192C41.1807 19.1071 41.223 19.0954 41.2659 19.0841C41.2689 19.1247 41.2716 19.1654 41.2736 19.2062C41.9599 19.0214 42.7371 18.9383 43.5003 18.9383C44.809 18.9383 46.0763 19.1827 46.7726 19.5773C46.7736 19.5781 46.775 19.5789 46.7763 19.5798L47.4566 20.0411L47.1139 20.7664C45.5515 23.9333 42.1587 24.1712 40.5706 24.1712C40.4414 24.1712 40.3242 24.1697 40.221 24.168C36.3276 33.8096 28.2392 38.7824 18.2858 39.4803Z" fill="#4195CA"/>
<path fill-rule="evenodd" clip-rule="evenodd" d="M10.5032 38.9467C7.43559 38.1554 5.25422 36.6758 3.71179 34.9223C3.8675 34.9527 4.02411 34.9803 4.18175 35.0051C5.56041 36.5708 7.43689 37.9109 9.96997 38.7363C10.1445 38.8092 10.3225 38.8795 10.5032 38.9467Z" fill="#E7E3E1"/>
<path fill-rule="evenodd" clip-rule="evenodd" d="M9.96999 38.7363C7.43691 37.9109 5.56042 36.5708 4.18176 35.0051C4.22832 35.0124 4.27517 35.0196 4.32185 35.0263C5.67374 36.1563 7.51926 37.7124 9.96999 38.7363Z" fill="#E7E3E1"/>
<path fill-rule="evenodd" clip-rule="evenodd" d="M9.96999 38.7363C7.43691 37.9109 5.56042 36.5708 4.18176 35.0051C4.22832 35.0124 4.27517 35.0196 4.32185 35.0263C5.67374 36.1563 7.51926 37.7124 9.96999 38.7363Z" fill="#4195CA"/>
<path fill-rule="evenodd" clip-rule="evenodd" d="M3.63441 34.8336C0.253466 30.9155 0.00281066 25.6765 0.140691 23.6547H0.67491C0.436614 25.744 0.732145 30.2243 3.31818 33.9077C3.22544 33.8849 3.13308 33.8611 3.04112 33.8362C3.41027 34.4568 3.56754 34.721 3.63441 34.8336Z" fill="#E7E3E1"/>
<path fill-rule="evenodd" clip-rule="evenodd" d="M5.97344 34.2545C5.06017 34.236 4.17174 34.1168 3.31819 33.9077C0.732162 30.2243 0.43663 25.744 0.674927 23.6547H1.94291C2.36929 28.0058 3.38025 31.7329 5.97344 34.2545Z" fill="#E7E3E1"/>
<path fill-rule="evenodd" clip-rule="evenodd" d="M5.97344 34.2545C5.06017 34.236 4.17174 34.1168 3.31819 33.9077C0.732162 30.2243 0.43663 25.744 0.674927 23.6547H1.94291C2.36929 28.0058 3.38025 31.7329 5.97344 34.2545Z" fill="#4195CA"/>
<path fill-rule="evenodd" clip-rule="evenodd" d="M15.8024 39.5661C13.7931 39.5661 12.0375 39.3425 10.5032 38.9467C10.3225 38.8796 10.1446 38.8092 9.97004 38.7364C7.51931 37.7124 5.67379 36.1563 4.3219 35.0263C4.94313 35.1173 5.57842 35.1643 6.22503 35.1643C6.49209 35.1643 6.75678 35.1564 7.01955 35.1407C9.2281 36.7675 12.3593 37.7025 16.8103 37.7147C16.8267 37.7143 16.843 37.714 16.8594 37.7136C18.1094 38.4748 19.2431 38.8698 19.9358 39.0582C19.3704 39.2312 18.8205 39.3709 18.2858 39.4804C17.4701 39.5376 16.6419 39.5661 15.8024 39.5661Z" fill="#E7E3E1"/>
<path fill-rule="evenodd" clip-rule="evenodd" d="M15.8024 39.5661C13.7931 39.5661 12.0375 39.3425 10.5032 38.9467C10.3225 38.8796 10.1446 38.8092 9.97004 38.7364C7.51931 37.7124 5.67379 36.1563 4.3219 35.0263C4.94313 35.1173 5.57842 35.1643 6.22503 35.1643C6.49209 35.1643 6.75678 35.1564 7.01955 35.1407C9.2281 36.7675 12.3593 37.7025 16.8103 37.7147C16.8267 37.7143 16.843 37.714 16.8594 37.7136C18.1094 38.4748 19.2431 38.8698 19.9358 39.0582C19.3704 39.2312 18.8205 39.3709 18.2858 39.4804C17.4701 39.5376 16.6419 39.5661 15.8024 39.5661Z" fill="#E7E3E1"/>
<path fill-rule="evenodd" clip-rule="evenodd" d="M6.22499 35.1643C5.57838 35.1643 4.94309 35.1172 4.32186 35.0263C4.27518 35.0196 4.22832 35.0124 4.18177 35.0051C4.02413 34.9803 3.86752 34.9527 3.71182 34.9223C3.68568 34.8926 3.66004 34.8633 3.63443 34.8335C3.56756 34.721 3.41029 34.4568 3.04114 33.8362C3.1331 33.8611 3.22546 33.8849 3.3182 33.9077C4.17175 34.1168 5.06018 34.236 5.97344 34.2544C6.29668 34.5688 6.64516 34.8649 7.01951 35.1406C6.75674 35.1564 6.49205 35.1643 6.22499 35.1643Z" fill="#E7E3E1"/>
<path fill-rule="evenodd" clip-rule="evenodd" d="M6.22499 35.1643C5.57838 35.1643 4.94309 35.1172 4.32186 35.0263C4.27518 35.0196 4.22832 35.0124 4.18177 35.0051C4.02413 34.9803 3.86752 34.9527 3.71182 34.9223C3.68568 34.8926 3.66004 34.8633 3.63443 34.8335C3.56756 34.721 3.41029 34.4568 3.04114 33.8362C3.1331 33.8611 3.22546 33.8849 3.3182 33.9077C4.17175 34.1168 5.06018 34.236 5.97344 34.2544C6.29668 34.5688 6.64516 34.8649 7.01951 35.1406C6.75674 35.1564 6.49205 35.1643 6.22499 35.1643Z" fill="#3068AF"/>
<path fill-rule="evenodd" clip-rule="evenodd" d="M4.66296 21.8732H5.11355V19.1698H4.66296V21.8732Z" fill="#3271C1"/>
<path fill-rule="evenodd" clip-rule="evenodd" d="M6.01465 21.8732H6.46497V19.1698H6.01465V21.8732Z" fill="#3271C1"/>
<path fill-rule="evenodd" clip-rule="evenodd" d="M7.36621 21.8732H7.81666V19.1698H7.36621V21.8732Z" fill="#3271C1"/>
<path fill-rule="evenodd" clip-rule="evenodd" d="M10.5199 21.8732H10.9703V19.1698H10.5199V21.8732Z" fill="#3271C1"/>
<path fill-rule="evenodd" clip-rule="evenodd" d="M11.8715 21.8732H12.322V19.1698H11.8715V21.8732Z" fill="#3271C1"/>
<path fill-rule="evenodd" clip-rule="evenodd" d="M13.2231 21.8732H13.6736V19.1698H13.2231V21.8732Z" fill="#3271C1"/>
<path fill-rule="evenodd" clip-rule="evenodd" d="M16.3768 21.8732H16.8273V19.1698H16.3768V21.8732Z" fill="#3271C1"/>
<path fill-rule="evenodd" clip-rule="evenodd" d="M17.7283 21.8732H18.1789V19.1698H17.7283V21.8732Z" fill="#3271C1"/>
<path fill-rule="evenodd" clip-rule="evenodd" d="M19.08 21.8732H19.5305V19.1698H19.08V21.8732Z" fill="#3271C1"/>
<path fill-rule="evenodd" clip-rule="evenodd" d="M22.2335 21.8732H22.6842V19.1698H22.2335V21.8732Z" fill="#3271C1"/>
<path fill-rule="evenodd" clip-rule="evenodd" d="M23.5853 21.8732H24.0356V19.1698H23.5853V21.8732Z" fill="#3271C1"/>
<path fill-rule="evenodd" clip-rule="evenodd" d="M24.9368 21.8732H25.3875V19.1698H24.9368V21.8732Z" fill="#3271C1"/>
<path fill-rule="evenodd" clip-rule="evenodd" d="M28.0905 21.8732H28.5412V19.1698H28.0905V21.8732Z" fill="#3271C1"/>
<path fill-rule="evenodd" clip-rule="evenodd" d="M29.4423 21.8732H29.8927V19.1698H29.4423V21.8732Z" fill="#3271C1"/>
<path fill-rule="evenodd" clip-rule="evenodd" d="M30.7937 21.8732H31.2442V19.1698H30.7937V21.8732Z" fill="#3271C1"/>
<path fill-rule="evenodd" clip-rule="evenodd" d="M11.8715 16.4667H12.322V13.7636H11.8715V16.4667Z" fill="#3271C1"/>
<path fill-rule="evenodd" clip-rule="evenodd" d="M13.2231 16.4667H13.6736V13.7636H13.2231V16.4667Z" fill="#3271C1"/>
<path fill-rule="evenodd" clip-rule="evenodd" d="M16.3768 16.4667H16.8273V13.7636H16.3768V16.4667Z" fill="#3271C1"/>
<path fill-rule="evenodd" clip-rule="evenodd" d="M17.7283 16.4667H18.1789V13.7636H17.7283V16.4667Z" fill="#3271C1"/>
<path fill-rule="evenodd" clip-rule="evenodd" d="M19.08 16.4667H19.5305V13.7636H19.08V16.4667Z" fill="#3271C1"/>
<path fill-rule="evenodd" clip-rule="evenodd" d="M22.2335 16.4667H22.6842V13.7636H22.2335V16.4667Z" fill="#3271C1"/>
<path fill-rule="evenodd" clip-rule="evenodd" d="M23.5853 16.4667H24.0356V13.7636H23.5853V16.4667Z" fill="#3271C1"/>
<path fill-rule="evenodd" clip-rule="evenodd" d="M24.9368 16.4667H25.3875V13.7636H24.9368V16.4667Z" fill="#3271C1"/>
<path fill-rule="evenodd" clip-rule="evenodd" d="M23.5853 11.0605H24.0356V8.35728H23.5853V11.0605Z" fill="#3271C1"/>
<path fill-rule="evenodd" clip-rule="evenodd" d="M22.2335 11.0605H22.6842V8.35728H22.2335V11.0605Z" fill="#3271C1"/>
<path fill-rule="evenodd" clip-rule="evenodd" d="M24.9368 11.0605H25.3875V8.35728H24.9368V11.0605Z" fill="#3271C1"/>
<path fill-rule="evenodd" clip-rule="evenodd" d="M10.5199 16.4667H10.9703V13.7636H10.5199V16.4667Z" fill="#3271C1"/>
<path d="M46.7927 20.3117C46.7371 20.4254 46.6898 20.5212 46.6532 20.5932C46.6335 20.632 46.6175 20.6634 46.5739 20.741C45.9049 22.0333 44.9226 22.842 43.6769 23.2801C42.6909 23.6267 41.7968 23.7043 40.4571 23.6767C40.4438 23.6763 40.3599 23.6745 40.223 23.6719L39.9127 23.6669L39.7975 23.9565C35.8562 33.8401 27.2493 39.0926 15.887 39.0926C9.39167 39.0926 5.15316 36.6329 2.81492 32.436C1.91258 30.8165 1.33882 28.9994 1.06995 27.1393C0.883293 25.8491 0.858059 24.5972 0.96095 23.6719H2.86084V23.6753L33.0464 23.6753V23.6665C34.8309 23.6464 36.4995 23.0942 37.337 22.4436L37.7063 22.1567L37.4089 21.7951C36.8508 21.1173 36.4912 20.124 36.3836 19.0892C36.2558 17.51 36.6384 15.8375 37.4376 14.6247L37.6374 14.3228L37.9247 14.5157C39.6736 15.8822 40.5717 17.3999 40.6669 19.1611L40.6969 19.7189L41.233 19.5745C42.9876 19.1021 45.5559 19.3328 46.4986 19.967L46.8466 20.2011C46.831 20.234 46.815 20.2666 46.7927 20.3117ZM3.76201 18.2689H8.71789V22.7648H3.76201L3.76201 18.2689ZM9.61877 18.2689L14.5747 18.2689V22.7648L9.61877 22.7648V18.2689ZM9.61877 12.8624L14.5747 12.8624V17.3679L9.61877 17.3679V12.8624ZM15.4758 18.2689H20.4317V22.7648H15.4758V18.2689ZM15.4758 12.8624H20.4317V17.3679H15.4758V12.8624ZM21.3326 18.2689H26.2884V22.7648H21.3326V18.2689ZM21.3326 12.8624H26.2884V17.3679H21.3326V12.8624ZM21.3326 7.45623H26.2884V11.9614H21.3326V7.45623ZM27.1894 18.2689H32.1453V22.7648H27.1894V18.2689ZM46.9991 19.2127C45.9169 18.4843 43.4491 18.2099 41.5161 18.5803C41.2667 16.7578 40.2444 15.1761 38.4515 13.7788L37.3873 13.0647L36.687 14.1226C35.7709 15.5131 35.342 17.3884 35.4865 19.1733C35.5931 20.1968 35.9095 21.1842 36.4169 21.9662C35.65 22.3935 34.3917 22.7434 33.0464 22.7612V17.3679H27.1894V6.55511H20.4317V11.9614L8.71789 11.9614V17.3679H2.86084L2.86084 22.7648H0.1883L0.124693 23.1426C-0.050649 24.1845 -0.0480473 25.7043 0.178284 27.27C0.462239 29.2347 1.06943 31.1576 2.029 32.8798C4.52803 37.3652 9.06803 40 15.887 40C27.4899 40 36.378 34.6427 40.5161 24.585C41.9137 24.6101 42.88 24.521 43.9742 24.1365C45.4234 23.6269 46.5856 22.6725 47.3648 21.1761C47.4084 21.1039 47.472 20.9759 47.6078 20.6989C47.6568 20.5986 47.7087 20.4913 47.761 20.3839C47.7787 20.3463 47.7957 20.3116 47.83 20.2407L48.0001 19.8852L46.9991 19.2127Z" fill="#3271C1"/>
</g>
<defs>
<clipPath id="clip0_1052_18248">
<rect width="48" height="48" fill="white"/>
</clipPath>
</defs>
</svg>
