<svg width="267" height="187" viewBox="0 0 267 187" fill="none" xmlns="http://www.w3.org/2000/svg">
<g opacity="0.5">
<path opacity="0.4" d="M262.456 24.9244L162.977 124.457H47.3124L146.412 25.3038L262.456 24.9244Z" fill="url(#paint0_linear_669_49921)"/>
<path opacity="0.6" d="M261.836 48.2834L141.168 169.016H83.0743L203.454 48.5666L261.836 48.2834Z" fill="url(#paint1_linear_669_49921)"/>
<path d="M127.407 91.0209L150.711 67.7047" stroke="#49AFD9" stroke-width="1.78" stroke-linecap="round" stroke-linejoin="round"/>
<path d="M80.3082 63.3609L94.1121 52.1944" stroke="#20B5EF" stroke-width="2.52" stroke-linecap="round" stroke-linejoin="round"/>
<path d="M92.7397 48.7536C92.7397 49.6458 92.8572 50.2335 94.016 50.9762C95.1748 51.7189 94.7956 52.6165 94.55 52.8676C94.3044 53.1187 93.2737 53.5247 92.3179 51.7242C91.6878 50.5327 90.0484 51.1151 90.1819 51.425C90.3154 51.7349 91.0149 51.5906 91.6824 53.4232C92.3499 55.2558 94.833 55.5283 96.0719 54.2888C96.316 54.0432 96.5059 53.7493 96.6295 53.4258C96.7531 53.1024 96.8076 52.7566 96.7895 52.4108C96.7714 52.065 96.681 51.7269 96.5243 51.4181C96.3676 51.1094 96.148 50.8369 95.8797 50.6182C94.7689 49.6725 94.3791 48.8337 94.6034 48.3368C94.8277 47.8399 92.7397 48.7536 92.7397 48.7536Z" fill="#1D428A"/>
<path d="M94.1122 52.1944L106.725 63.3609" stroke="#20B5EF" stroke-width="2.52" stroke-linecap="round" stroke-linejoin="round"/>
<path d="M255.156 95.931H211.224V121.304H255.156V95.931Z" stroke="#49AFD9" stroke-width="1.78" stroke-linecap="round" stroke-linejoin="round"/>
<path d="M255.156 100.387H211.224V117.367H255.156V100.387Z" stroke="#49AFD9" stroke-width="1.78" stroke-linecap="round" stroke-linejoin="round"/>
<path d="M192.656 121.299H262.151" stroke="#49AFD9" stroke-width="1.78" stroke-linecap="round" stroke-linejoin="round"/>
<path d="M211.224 100.387H255.156" stroke="#49AFD9" stroke-width="1.78" stroke-linecap="round" stroke-linejoin="round"/>
<path d="M201.27 106.045H255.156" stroke="#49AFD9" stroke-width="1.78" stroke-linecap="round" stroke-linejoin="round"/>
<path d="M201.27 111.708H255.156" stroke="#49AFD9" stroke-width="1.78" stroke-linecap="round" stroke-linejoin="round"/>
<path d="M201.27 117.367H255.156" stroke="#49AFD9" stroke-width="1.78" stroke-linecap="round" stroke-linejoin="round"/>
<path d="M237.502 88.6914H221.268V121.304H237.502V88.6914Z" stroke="#49AFD9" stroke-width="1.78" stroke-linecap="round" stroke-linejoin="round"/>
<path d="M221.268 117.367H237.502" stroke="#49AFD9" stroke-width="1.78" stroke-linecap="round" stroke-linejoin="round"/>
<path d="M67.9942 92.7894H40.1248V160.708H67.9942V92.7894Z" fill="#8FCBE5"/>
<path d="M67.9942 150.856H40.1248V160.708H67.9942V150.856Z" fill="#001559"/>
<path d="M45.0001 98.9871C45.6342 98.9871 46.1482 98.4728 46.1482 97.8384C46.1482 97.204 45.6342 96.6897 45.0001 96.6897C44.3661 96.6897 43.8521 97.204 43.8521 97.8384C43.8521 98.4728 44.3661 98.9871 45.0001 98.9871Z" fill="#33FFFF"/>
<path d="M40.1248 107.931H67.9942" stroke="#2D4F66" stroke-width="2" stroke-miterlimit="10"/>
<path d="M40.1248 114.663H67.9942" stroke="#2D4F66" stroke-width="2" stroke-miterlimit="10"/>
<path d="M40.1248 121.39H67.9942" stroke="#2D4F66" stroke-width="2" stroke-miterlimit="10"/>
<path d="M40.1248 128.122H67.9942" stroke="#2D4F66" stroke-width="2" stroke-miterlimit="10"/>
<path d="M40.1248 134.848H67.9942" stroke="#2D4F66" stroke-width="2" stroke-miterlimit="10"/>
<path d="M40.1248 141.575H67.9942" stroke="#2D4F66" stroke-width="2" stroke-miterlimit="10"/>
<path d="M40.1248 148.307H67.9942" stroke="#2D4F66" stroke-width="2" stroke-miterlimit="10"/>
<path d="M107.451 62.6343H79.582V130.553H107.451V62.6343Z" fill="#8FCBE5"/>
<path d="M107.451 120.701H79.582V130.553H107.451V120.701Z" fill="#2D4F66"/>
<path d="M84.4574 68.832C85.0915 68.832 85.6055 68.3177 85.6055 67.6833C85.6055 67.0489 85.0915 66.5346 84.4574 66.5346C83.8233 66.5346 83.3093 67.0489 83.3093 67.6833C83.3093 68.3177 83.8233 68.832 84.4574 68.832Z" fill="#33FFFF"/>
<path d="M79.582 77.776H107.451" stroke="#2D4F66" stroke-width="2" stroke-miterlimit="10"/>
<path d="M79.582 84.508H107.451" stroke="#2D4F66" stroke-width="2" stroke-miterlimit="10"/>
<path d="M79.582 91.2346H107.451" stroke="#2D4F66" stroke-width="2" stroke-miterlimit="10"/>
<path d="M79.582 97.9666H107.451" stroke="#2D4F66" stroke-width="2" stroke-miterlimit="10"/>
<path d="M79.582 104.693H107.451" stroke="#2D4F66" stroke-width="2" stroke-miterlimit="10"/>
<path d="M79.582 111.42H107.451" stroke="#2D4F66" stroke-width="2" stroke-miterlimit="10"/>
<path fill-rule="evenodd" clip-rule="evenodd" d="M117.416 139.78C110.033 139.78 102.952 142.714 97.7319 147.938C92.5114 153.161 89.5785 160.245 89.5785 167.632H145.248C145.249 163.975 144.529 160.353 143.131 156.974C141.733 153.595 139.683 150.524 137.098 147.938C134.514 145.352 131.445 143.3 128.068 141.9C124.691 140.5 121.071 139.78 117.416 139.78Z" fill="url(#paint2_linear_669_49921)"/>
<path d="M154.04 104.698L150.324 105.642L165.09 163.855L168.806 162.912L154.04 104.698Z" fill="#0091DA"/>
<path d="M208.468 167.44L200.683 171.41L89.4343 14.8531L97.22 10.8834L208.468 167.44Z" fill="#0091DA"/>
<path d="M90.9294 43.181L88.708 13.5815" stroke="#20B5EF" stroke-width="2.52" stroke-miterlimit="10"/>
<path d="M96.6113 43.4267L99.0303 13.2396" stroke="#20B5EF" stroke-width="2.52" stroke-miterlimit="10"/>
<path d="M99.1584 15.6546C98.5983 16.7116 97.7373 17.5786 96.6846 18.1459C95.6318 18.7133 94.4345 18.9555 93.2442 18.842C92.0538 18.7284 90.9238 18.2642 89.9972 17.508C89.0706 16.7518 88.389 15.7376 88.0385 14.5937C87.6881 13.4498 87.6846 12.2277 88.0284 11.0818C88.3723 9.93596 89.0481 8.91788 89.9704 8.15637C90.8927 7.39487 92.02 6.92414 93.2097 6.80375C94.3993 6.68335 95.598 6.91869 96.654 7.48C98.068 8.23323 99.1258 9.51682 99.5953 11.0493C100.065 12.5817 99.9077 14.2379 99.1584 15.6546Z" fill="#20B5EF"/>
<path d="M96.3603 14.1639C96.0923 14.6648 95.6821 15.0751 95.1813 15.3428C94.6805 15.6106 94.1116 15.7238 93.5465 15.6683C92.9814 15.6128 92.4454 15.391 92.0062 15.0309C91.567 14.6707 91.2444 14.1885 91.079 13.645C90.9135 13.1015 90.9128 12.5212 91.0768 11.9773C91.2408 11.4334 91.5623 10.9503 92.0005 10.5891C92.4388 10.2278 92.9742 10.0046 93.5392 9.94766C94.1041 9.89069 94.6733 10.0025 95.1748 10.269C95.5087 10.4464 95.8043 10.688 96.0446 10.9799C96.285 11.2719 96.4654 11.6084 96.5756 11.9702C96.6857 12.3321 96.7234 12.7121 96.6864 13.0886C96.6495 13.465 96.5386 13.8304 96.3603 14.1639Z" fill="#1D428A"/>
<path d="M158.379 108.129C157.7 109.404 156.658 110.45 155.385 111.133C154.112 111.816 152.665 112.107 151.227 111.967C149.789 111.828 148.425 111.265 147.307 110.35C146.189 109.435 145.367 108.208 144.945 106.826C144.523 105.444 144.52 103.967 144.937 102.583C145.354 101.199 146.172 99.9702 147.287 99.0511C148.402 98.1321 149.764 97.5644 151.201 97.4199C152.639 97.2753 154.086 97.5604 155.362 98.2391C156.209 98.69 156.96 99.3036 157.57 100.045C158.18 100.786 158.638 101.64 158.919 102.558C159.199 103.477 159.295 104.442 159.203 105.397C159.11 106.353 158.83 107.281 158.379 108.129Z" fill="#0091DA"/>
<path d="M97.0812 44.5274C96.7419 45.1648 96.2211 45.6871 95.5849 46.0282C94.9487 46.3693 94.2257 46.5139 93.5073 46.4436C92.7889 46.3734 92.1076 46.0914 91.5494 45.6335C90.9913 45.1755 90.5816 44.5622 90.372 43.8711C90.1625 43.18 90.1626 42.4423 90.3724 41.7513C90.5821 41.0603 90.9921 40.4471 91.5504 39.9893C92.1087 39.5315 92.7901 39.2498 93.5085 39.1798C94.2269 39.1098 94.9499 39.2546 95.586 39.5959C96.0078 39.8215 96.3811 40.128 96.6845 40.4979C96.988 40.8678 97.2156 41.2939 97.3545 41.7518C97.4933 42.2097 97.5406 42.6905 97.4938 43.1668C97.4469 43.643 97.3067 44.1053 97.0812 44.5274Z" fill="#1D428A"/>
<path d="M96.9957 49.0047H90.7372L90.2192 42.5933H97.5083L96.9957 49.0047Z" fill="#1D428A"/>
<path fill-rule="evenodd" clip-rule="evenodd" d="M167.676 161.386C172.151 161.381 176.556 162.494 180.492 164.624C184.823 156.236 191.842 149.545 200.426 145.623C209.01 141.702 218.662 140.777 227.833 142.998C237.005 145.218 245.166 150.455 251.009 157.868C256.852 165.282 260.039 174.444 260.058 183.885H141.077C142.136 177.593 145.389 171.881 150.258 167.762C155.128 163.643 161.299 161.384 167.676 161.386Z" fill="url(#paint3_linear_669_49921)"/>
<path d="M150.689 31.0741H186.927V41.1079H150.689V31.0741ZM150.689 54.6147H186.927V44.5808H150.689V54.6147ZM150.689 68.1161H186.927V58.0822H150.689V68.1161Z" stroke="#49AFD9" stroke-width="1.78" stroke-linecap="round" stroke-linejoin="round"/>
<path d="M152.297 41.1079V44.5808" stroke="#49AFD9" stroke-width="1.78" stroke-linecap="round" stroke-linejoin="round"/>
<path d="M185.319 41.1079V44.5808" stroke="#49AFD9" stroke-width="1.78" stroke-linecap="round" stroke-linejoin="round"/>
<path d="M152.297 54.6147V58.0822" stroke="#49AFD9" stroke-width="1.78" stroke-linecap="round" stroke-linejoin="round"/>
<path d="M185.319 54.6147V58.0822" stroke="#49AFD9" stroke-width="1.78" stroke-linecap="round" stroke-linejoin="round"/>
<path d="M41.4277 62.6343C55.4158 62.6343 66.7553 51.2887 66.7553 37.2931C66.7553 23.2976 55.4158 11.952 41.4277 11.952C27.4397 11.952 16.1001 23.2976 16.1001 37.2931C16.1001 51.2887 27.4397 62.6343 41.4277 62.6343Z" stroke="#49AFD9" stroke-width="1.78" stroke-linecap="round" stroke-linejoin="round"/>
<path d="M16.4525 32.9921C16.4525 32.9921 27.234 42.0376 50.7727 41.9094" stroke="#49AFD9" stroke-width="1.78" stroke-linecap="round" stroke-linejoin="round"/>
<path d="M29.5142 29.0384C29.5142 29.0384 21.3226 29.4552 16.4525 32.1213" stroke="#49AFD9" stroke-width="1.78" stroke-linecap="round" stroke-linejoin="round"/>
<path d="M55.1248 15.6225C56.8927 19.4844 57.6625 23.7288 57.3634 27.9659C57.0644 32.2031 55.706 36.2971 53.4132 39.872C51.1203 43.4469 47.9664 46.3881 44.2412 48.4255C40.5159 50.4628 36.3388 51.531 32.0933 51.5318H31.4579" stroke="#49AFD9" stroke-width="1.78" stroke-linecap="round" stroke-linejoin="round"/>
<path d="M57.4317 57.3235C53.2515 55.5538 49.4656 52.9687 46.2949 49.7191C43.1241 46.4695 40.6321 42.6205 38.9643 38.3967C37.2965 34.173 36.4863 29.6592 36.5811 25.1188C36.6758 20.5784 37.6735 16.1024 39.516 11.952" stroke="#49AFD9" stroke-width="1.78" stroke-linecap="round" stroke-linejoin="round"/>
<path d="M37.2091 24.294C42.9359 24.2122 48.5917 25.5685 53.6592 28.2389C58.7267 30.9094 63.0439 34.8086 66.216 39.5799" stroke="#49AFD9" stroke-width="1.78" stroke-linecap="round" stroke-linejoin="round"/>
<path d="M55.8136 48.7215C56.5975 51.2745 57.1638 53.8894 57.5064 56.5381" stroke="#49AFD9" stroke-width="1.78" stroke-linecap="round" stroke-linejoin="round"/>
<path d="M55.285 18.0001C56.332 18.0001 57.1807 17.1509 57.1807 16.1034C57.1807 15.0559 56.332 14.2067 55.285 14.2067C54.238 14.2067 53.3893 15.0559 53.3893 16.1034C53.3893 17.1509 54.238 18.0001 55.285 18.0001Z" fill="#49AFD9"/>
<path d="M51.862 43.571C52.8264 43.571 53.6082 42.7888 53.6082 41.8239C53.6082 40.859 52.8264 40.0768 51.862 40.0768C50.8976 40.0768 50.1158 40.859 50.1158 41.8239C50.1158 42.7888 50.8976 43.571 51.862 43.571Z" fill="#49AFD9"/>
<path d="M31.4579 53.3912C32.5343 53.3912 33.407 52.5181 33.407 51.441C33.407 50.364 32.5343 49.4909 31.4579 49.4909C30.3814 49.4909 29.5088 50.364 29.5088 51.441C29.5088 52.5181 30.3814 53.3912 31.4579 53.3912Z" fill="#49AFD9"/>
<path d="M36.1678 26.1907C37.2001 26.1907 38.0368 25.3535 38.0368 24.3207C38.0368 23.2879 37.2001 22.4507 36.1678 22.4507C35.1356 22.4507 34.2988 23.2879 34.2988 24.3207C34.2988 25.3535 35.1356 26.1907 36.1678 26.1907Z" fill="#49AFD9"/>
<path d="M66.5685 42.1071C67.6125 42.1071 68.4588 41.2603 68.4588 40.2157C68.4588 39.1711 67.6125 38.3243 66.5685 38.3243C65.5244 38.3243 64.6781 39.1711 64.6781 40.2157C64.6781 41.2603 65.5244 42.1071 66.5685 42.1071Z" fill="#49AFD9"/>
<path d="M15.9719 34.9316C17.2578 34.9316 18.3002 33.8886 18.3002 32.6021C18.3002 31.3156 17.2578 30.2726 15.9719 30.2726C14.6861 30.2726 13.6437 31.3156 13.6437 32.6021C13.6437 33.8886 14.6861 34.9316 15.9719 34.9316Z" fill="#49AFD9"/>
<path d="M29.5142 30.5505C30.3488 30.5505 31.0254 29.8735 31.0254 29.0384C31.0254 28.2034 30.3488 27.5264 29.5142 27.5264C28.6795 27.5264 28.0029 28.2034 28.0029 29.0384C28.0029 29.8735 28.6795 30.5505 29.5142 30.5505Z" fill="#49AFD9"/>
<path d="M55.8137 50.2335C56.6483 50.2335 57.3249 49.5566 57.3249 48.7215C57.3249 47.8864 56.6483 47.2095 55.8137 47.2095C54.9791 47.2095 54.3025 47.8864 54.3025 48.7215C54.3025 49.5566 54.9791 50.2335 55.8137 50.2335Z" fill="#49AFD9"/>
<path d="M57.186 59.076C58.2536 59.076 59.1191 58.2101 59.1191 57.1419C59.1191 56.0737 58.2536 55.2078 57.186 55.2078C56.1184 55.2078 55.2529 56.0737 55.2529 57.1419C55.2529 58.2101 56.1184 59.076 57.186 59.076Z" fill="#49AFD9"/>
<path d="M201.27 24.513C205.938 24.513 209.723 20.7264 209.723 16.0553C209.723 11.3842 205.938 7.59753 201.27 7.59753C196.601 7.59753 192.817 11.3842 192.817 16.0553C192.817 20.7264 196.601 24.513 201.27 24.513Z" stroke="#49AFD9" stroke-width="1.78" stroke-linecap="round" stroke-linejoin="round"/>
<path d="M130.205 16.1568H196.309" stroke="#49AFD9" stroke-width="1.78" stroke-linecap="round" stroke-linejoin="round"/>
<path d="M201.27 21.0081C203.948 21.0081 206.119 18.8361 206.119 16.1568C206.119 13.4775 203.948 11.3055 201.27 11.3055C198.592 11.3055 196.421 13.4775 196.421 16.1568C196.421 18.8361 198.592 21.0081 201.27 21.0081Z" stroke="#49AFD9" stroke-width="1.78" stroke-linecap="round" stroke-linejoin="round"/>
<path d="M125.362 21.0081C128.04 21.0081 130.21 18.8361 130.21 16.1568C130.21 13.4775 128.04 11.3055 125.362 11.3055C122.684 11.3055 120.513 13.4775 120.513 16.1568C120.513 18.8361 122.684 21.0081 125.362 21.0081Z" stroke="#49AFD9" stroke-width="1.78" stroke-linecap="round" stroke-linejoin="round"/>
<path d="M201.27 24.513V121.299" stroke="#49AFD9" stroke-width="1.78" stroke-linecap="round" stroke-linejoin="round"/>
<path d="M125.362 127.892C129.001 127.892 131.951 124.94 131.951 121.299C131.951 117.658 129.001 114.706 125.362 114.706C121.722 114.706 118.772 117.658 118.772 121.299C118.772 124.94 121.722 127.892 125.362 127.892Z" stroke="#49AFD9" stroke-width="1.78" stroke-linecap="round" stroke-linejoin="round"/>
<path d="M125.362 114.706V95.8615" stroke="#49AFD9" stroke-width="1.78" stroke-linecap="round" stroke-linejoin="round"/>
<path d="M125.362 95.8402C126.892 95.8402 128.133 94.5987 128.133 93.0672C128.133 91.5358 126.892 90.2943 125.362 90.2943C123.831 90.2943 122.59 91.5358 122.59 93.0672C122.59 94.5987 123.831 95.8402 125.362 95.8402Z" stroke="#49AFD9" stroke-width="1.78" stroke-linecap="round" stroke-linejoin="round"/>
<path d="M255.156 87.7564C258.294 87.7564 260.838 85.2113 260.838 82.0716C260.838 78.932 258.294 76.3868 255.156 76.3868C252.018 76.3868 249.474 78.932 249.474 82.0716C249.474 85.2113 252.018 87.7564 255.156 87.7564Z" stroke="#49AFD9" stroke-width="1.92" stroke-linecap="round" stroke-linejoin="round"/>
<path d="M67.1985 77.044H27.9976" stroke="#49AFD9" stroke-width="1.78" stroke-linecap="round" stroke-linejoin="round"/>
<path d="M62.5955 72.4438L67.1985 77.044L62.5955 81.6442" stroke="#49AFD9" stroke-width="1.78" stroke-linecap="round" stroke-linejoin="round"/>
<path d="M76.8906 24.2245V1.50134" stroke="#49AFD9" stroke-width="1.78" stroke-linecap="round" stroke-linejoin="round"/>
<path d="M81.4883 19.619L76.8906 24.2245L72.2928 19.619" stroke="#49AFD9" stroke-width="1.78" stroke-linecap="round" stroke-linejoin="round"/>
<path d="M215.191 62.7625L242.911 35.0278" stroke="#49AFD9" stroke-width="1.78" stroke-linecap="round" stroke-linejoin="round"/>
<path d="M221.695 62.7625H215.191V56.2549" stroke="#49AFD9" stroke-width="1.78" stroke-linecap="round" stroke-linejoin="round"/>
<path d="M191.941 111.436L168.808 88.2961V75.6976" stroke="#49AFD9" stroke-width="1.78" stroke-linecap="round" stroke-linejoin="round"/>
<path d="M191.941 104.928V111.436H185.431" stroke="#49AFD9" stroke-width="1.78" stroke-linecap="round" stroke-linejoin="round"/>
</g>
<defs>
<linearGradient id="paint0_linear_669_49921" x1="154.887" y1="24.9244" x2="154.887" y2="124.457" gradientUnits="userSpaceOnUse">
<stop offset="0.05" stop-color="#00C1D5" stop-opacity="0"/>
<stop offset="0.08" stop-color="#00C1D5" stop-opacity="0.05"/>
<stop offset="0.22" stop-color="#00C1D5" stop-opacity="0.25"/>
<stop offset="0.35" stop-color="#00C1D5" stop-opacity="0.38"/>
<stop offset="0.46" stop-color="#00C1D5" stop-opacity="0.47"/>
<stop offset="0.54" stop-color="#00C1D5" stop-opacity="0.5"/>
<stop offset="0.61" stop-color="#00C1D5" stop-opacity="0.47"/>
<stop offset="0.71" stop-color="#00C1D5" stop-opacity="0.39"/>
<stop offset="0.83" stop-color="#00C1D5" stop-opacity="0.25"/>
<stop offset="0.96" stop-color="#00C1D5" stop-opacity="0.06"/>
<stop offset="1" stop-color="#00C1D5" stop-opacity="0"/>
</linearGradient>
<linearGradient id="paint1_linear_669_49921" x1="172.455" y1="48.2834" x2="172.455" y2="169.016" gradientUnits="userSpaceOnUse">
<stop stop-color="#1A428A"/>
<stop offset="1" stop-color="#1F488F" stop-opacity="0"/>
</linearGradient>
<linearGradient id="paint2_linear_669_49921" x1="117.416" y1="167.632" x2="117.416" y2="139.78" gradientUnits="userSpaceOnUse">
<stop stop-color="#36464F"/>
<stop offset="0.12" stop-color="#374B56"/>
<stop offset="0.3" stop-color="#3B5869"/>
<stop offset="0.51" stop-color="#406E88"/>
<stop offset="0.74" stop-color="#488DB3"/>
<stop offset="0.99" stop-color="#52B4EA"/>
<stop offset="1" stop-color="#53B6ED"/>
</linearGradient>
<linearGradient id="paint3_linear_669_49921" x1="44832.6" y1="14620.9" x2="44832.6" y2="11302" gradientUnits="userSpaceOnUse">
<stop stop-color="#36464F"/>
<stop offset="0.12" stop-color="#374B56"/>
<stop offset="0.3" stop-color="#3B5869"/>
<stop offset="0.51" stop-color="#406E88"/>
<stop offset="0.74" stop-color="#488DB3"/>
<stop offset="0.99" stop-color="#52B4EA"/>
<stop offset="1" stop-color="#53B6ED"/>
</linearGradient>
</defs>
</svg>
