<svg width="367" height="197" viewBox="0 0 367 197" fill="none" xmlns="http://www.w3.org/2000/svg">
<path opacity="0.15" fill-rule="evenodd" clip-rule="evenodd" d="M42 114H156L270 0H156L42 114Z" fill="url(#paint0_linear_673_43788)"/>
<path opacity="0.15" fill-rule="evenodd" clip-rule="evenodd" d="M0 197H114L228 83H114L0 197Z" fill="url(#paint1_linear_673_43788)"/>
<path opacity="0.15" fill-rule="evenodd" clip-rule="evenodd" d="M139 161H253L367 47H253L139 161Z" fill="url(#paint2_linear_673_43788)"/>
<path opacity="0.5" fill-rule="evenodd" clip-rule="evenodd" d="M316.847 40.0038C316.458 40.0235 316.077 40.1207 315.726 40.2895L300.43 47.6509C299.628 48.0367 299.045 48.7663 298.847 49.6332L295.074 66.1688C294.897 66.9385 295.041 67.7466 295.471 68.4092C295.522 68.4893 295.578 68.5669 295.637 68.6417L306.225 81.9005C306.78 82.5955 307.621 83 308.512 83L325.491 82.9961C326.38 82.9967 327.222 82.5928 327.777 81.8985L338.361 68.6377C338.917 67.9424 339.125 67.0321 338.927 66.1649L335.147 49.6292C334.949 48.7623 334.366 48.0328 333.564 47.647L318.266 40.2895C317.824 40.0771 317.337 39.9789 316.847 40.0038Z" stroke="#ADBBC4" stroke-width="2" stroke-linecap="square" stroke-linejoin="round"/>
<path opacity="0.5" fill-rule="evenodd" clip-rule="evenodd" d="M316.847 95.0038C316.458 95.0235 316.077 95.1207 315.726 95.2895L300.43 102.651C299.628 103.037 299.045 103.766 298.847 104.633L295.074 121.169C294.897 121.939 295.041 122.747 295.471 123.409C295.522 123.489 295.578 123.567 295.637 123.642L306.225 136.901C306.78 137.596 307.621 138 308.512 138L325.491 137.996C326.38 137.997 327.222 137.593 327.777 136.899L338.361 123.638C338.917 122.942 339.125 122.032 338.927 121.165L335.147 104.629C334.949 103.762 334.366 103.033 333.564 102.647L318.266 95.2895C317.824 95.0771 317.337 94.9789 316.847 95.0038Z" stroke="#ADBBC4" stroke-width="2" stroke-linecap="square" stroke-linejoin="round"/>
<path opacity="0.5" fill-rule="evenodd" clip-rule="evenodd" d="M316.847 150.004C316.458 150.024 316.077 150.121 315.726 150.289L300.43 157.651C299.628 158.037 299.045 158.766 298.847 159.633L295.074 176.169C294.897 176.939 295.041 177.747 295.471 178.409C295.522 178.489 295.578 178.567 295.637 178.642L306.225 191.901C306.78 192.596 307.621 193 308.512 193L325.491 192.996C326.38 192.997 327.222 192.593 327.777 191.899L338.361 178.638C338.917 177.942 339.125 177.032 338.927 176.165L335.147 159.629C334.949 158.762 334.366 158.033 333.564 157.647L318.266 150.289C317.824 150.077 317.337 149.979 316.847 150.004Z" stroke="#ADBBC4" stroke-width="2" stroke-linecap="square" stroke-linejoin="round"/>
<path opacity="0.5" d="M253.816 95.8822C253.828 96.4344 254.285 96.8722 254.838 96.86C255.39 96.8479 255.827 96.3905 255.815 95.8383L253.816 95.8822ZM282.971 68.8095C283.52 68.7485 283.915 68.254 283.854 67.7051C283.793 67.1562 283.299 66.7607 282.75 66.8218L282.971 68.8095ZM255.815 95.8001C255.808 95.2478 255.354 94.806 254.802 94.8133C254.249 94.8205 253.808 95.274 253.815 95.8263L255.815 95.8001ZM254.032 91.57C253.977 92.1196 254.378 92.6096 254.927 92.6646C255.477 92.7196 255.967 92.3186 256.022 91.7691L254.032 91.57ZM256.032 91.6704C256.088 91.121 255.688 90.6301 255.139 90.5739C254.589 90.5177 254.098 90.9175 254.042 91.467L256.032 91.6704ZM254.676 87.2629C254.566 87.8042 254.916 88.3319 255.457 88.4417C255.999 88.5514 256.526 88.2016 256.636 87.6603L254.676 87.2629ZM256.656 87.5643C256.767 87.0233 256.419 86.4946 255.878 86.3834C255.337 86.2723 254.808 86.6207 254.697 87.1617L256.656 87.5643ZM255.807 83.0317C255.628 83.5545 255.908 84.1227 256.43 84.3008C256.953 84.479 257.521 84.1997 257.7 83.6769L255.807 83.0317ZM257.731 83.5846C257.911 83.0625 257.634 82.4933 257.112 82.3133C256.59 82.1332 256.021 82.4105 255.841 82.9326L257.731 83.5846ZM257.589 78.976C257.319 79.4577 257.491 80.0672 257.973 80.3373C258.454 80.6075 259.064 80.436 259.334 79.9543L257.589 78.976ZM259.381 79.8706C259.654 79.3904 259.486 78.78 259.005 78.5072C258.525 78.2345 257.915 78.4028 257.642 78.8831L259.381 79.8706ZM260.277 75.3537C259.888 75.7457 259.89 76.3789 260.282 76.7679C260.674 77.1569 261.308 77.1545 261.697 76.7625L260.277 75.3537ZM261.76 76.699C262.152 76.3098 262.154 75.6767 261.765 75.2848C261.376 74.8929 260.743 74.8906 260.351 75.2798L261.76 76.699ZM263.565 72.7858C263.096 73.0775 262.953 73.6941 263.244 74.1631C263.536 74.6321 264.153 74.7758 264.622 74.4841L263.565 72.7858ZM264.698 74.4369C265.168 74.1472 265.314 73.5312 265.025 73.061C264.735 72.5908 264.119 72.4445 263.649 72.7342L264.698 74.4369ZM267.188 70.8967C266.683 71.1194 266.454 71.7097 266.676 72.2151C266.899 72.7205 267.489 72.9496 267.995 72.7269L267.188 70.8967ZM268.078 72.6902C268.584 72.4689 268.815 71.8793 268.594 71.3733C268.372 70.8673 267.783 70.6365 267.277 70.8579L268.078 72.6902ZM270.964 69.4548C270.44 69.6284 270.156 70.1942 270.329 70.7185C270.503 71.2427 271.069 71.527 271.593 71.3533L270.964 69.4548ZM271.68 71.3245C272.205 71.1518 272.49 70.5866 272.318 70.062C272.145 69.5374 271.58 69.2521 271.055 69.4247L271.68 71.3245ZM274.822 68.3329C274.286 68.469 273.963 69.0132 274.099 69.5485C274.235 70.0837 274.779 70.4073 275.314 70.2712L274.822 68.3329ZM275.403 70.2487C275.939 70.1134 276.263 69.5697 276.128 69.0342C275.992 68.4988 275.449 68.1744 274.913 68.3097L275.403 70.2487ZM278.733 67.4627C278.191 67.5669 277.836 68.091 277.94 68.6334C278.044 69.1757 278.568 69.5309 279.111 69.4267L278.733 67.4627ZM279.2 69.4096C279.742 69.3062 280.098 68.7825 279.995 68.24C279.891 67.6975 279.368 67.3416 278.825 67.4451L279.2 69.4096ZM282.698 66.8278C282.149 66.8922 281.757 67.3891 281.821 67.9376C281.886 68.4861 282.382 68.8785 282.931 68.8141L282.698 66.8278ZM254.816 95.8603C255.815 95.8383 255.815 95.8383 255.815 95.8383C255.815 95.8383 255.815 95.8383 255.815 95.8384C255.815 95.8384 255.815 95.8384 255.815 95.8384C255.815 95.8384 255.815 95.8384 255.815 95.8384C255.815 95.8385 255.815 95.8385 255.815 95.8385C255.815 95.8386 255.815 95.8386 255.815 95.8387C255.815 95.8387 255.815 95.8387 255.815 95.8387C255.815 95.8385 255.815 95.8381 255.815 95.8375C255.815 95.8362 255.815 95.834 255.815 95.8308C255.815 95.8244 255.815 95.8141 255.815 95.8001L253.815 95.8263C253.815 95.8434 253.815 95.8566 253.816 95.866C253.816 95.8707 253.816 95.8744 253.816 95.8771C253.816 95.8784 253.816 95.8796 253.816 95.8804C253.816 95.8808 253.816 95.8812 253.816 95.8815C253.816 95.8817 253.816 95.8818 253.816 95.8819C253.816 95.882 253.816 95.882 253.816 95.8821C253.816 95.8821 253.816 95.8821 253.816 95.8822C253.816 95.8822 253.816 95.8822 253.816 95.8822C253.816 95.8822 253.816 95.8822 253.816 95.8822C253.816 95.8822 253.816 95.8822 254.816 95.8603ZM256.022 91.7691C256.025 91.7363 256.029 91.7035 256.032 91.6704L254.042 91.467C254.039 91.5015 254.035 91.5358 254.032 91.57L256.022 91.7691ZM256.636 87.6603C256.643 87.6283 256.649 87.5963 256.656 87.5643L254.697 87.1617C254.69 87.1954 254.683 87.2292 254.676 87.2629L256.636 87.6603ZM257.7 83.6769C257.71 83.6462 257.721 83.6154 257.731 83.5846L255.841 82.9326C255.829 82.9656 255.818 82.9987 255.807 83.0317L257.7 83.6769ZM259.334 79.9543C259.35 79.9264 259.365 79.8985 259.381 79.8706L257.642 78.8831C257.624 78.914 257.607 78.945 257.589 78.976L259.334 79.9543ZM261.697 76.7625C261.708 76.7514 261.719 76.7404 261.73 76.7294L260.315 75.3151C260.302 75.328 260.29 75.3408 260.277 75.3537L261.697 76.7625ZM261.73 76.7294C261.74 76.7192 261.75 76.7091 261.76 76.699L260.351 75.2798C260.339 75.2916 260.327 75.3033 260.315 75.3151L261.73 76.7294ZM264.622 74.4841C264.647 74.4684 264.672 74.4526 264.698 74.4369L263.649 72.7342C263.621 72.7514 263.593 72.7686 263.565 72.7858L264.622 74.4841ZM267.995 72.7269C268.022 72.7147 268.05 72.7024 268.078 72.6902L267.277 70.8579C267.247 70.8708 267.218 70.8837 267.188 70.8967L267.995 72.7269ZM271.593 71.3533C271.622 71.3437 271.651 71.3341 271.68 71.3245L271.055 69.4247C271.025 69.4347 270.994 69.4447 270.964 69.4548L271.593 71.3533ZM275.314 70.2712C275.344 70.2637 275.374 70.2562 275.403 70.2487L274.913 68.3097C274.883 68.3174 274.852 68.3251 274.822 68.3329L275.314 70.2712ZM279.111 69.4267C279.141 69.421 279.17 69.4153 279.2 69.4096L278.825 67.4451C278.795 67.4509 278.764 67.4567 278.733 67.4627L279.111 69.4267ZM282.931 68.8141C282.945 68.8125 282.956 68.8113 282.962 68.8105C282.966 68.8101 282.968 68.8099 282.969 68.8097C282.97 68.8096 282.971 68.8096 282.971 68.8095C282.971 68.8095 282.971 68.8095 282.971 68.8095C282.971 68.8095 282.971 68.8095 282.971 68.8095C282.971 68.8095 282.971 68.8095 282.971 68.8095C282.971 68.8095 282.971 68.8095 282.971 68.8095C282.971 68.8095 282.971 68.8095 282.971 68.8095C282.971 68.8095 282.971 68.8095 282.971 68.8095C282.971 68.8095 282.971 68.8095 282.86 67.8157C282.75 66.8218 282.75 66.8218 282.75 66.8218C282.75 66.8218 282.75 66.8218 282.75 66.8218C282.75 66.8218 282.75 66.8218 282.75 66.8218C282.75 66.8218 282.75 66.8218 282.75 66.8218C282.749 66.8218 282.749 66.8218 282.749 66.8218C282.749 66.8218 282.749 66.8219 282.749 66.8219C282.749 66.8219 282.749 66.8219 282.748 66.822C282.747 66.822 282.746 66.8222 282.745 66.8223C282.743 66.8226 282.739 66.823 282.735 66.8235C282.726 66.8244 282.714 66.8259 282.698 66.8278L282.931 68.8141Z" fill="#ADBBC4"/>
<path opacity="0.5" d="M111.82 127.958C111.875 128.508 112.364 128.91 112.914 128.855C113.463 128.801 113.865 128.312 113.811 127.762L111.82 127.958ZM137.926 103.497C138.477 103.538 138.956 103.125 138.997 102.574C139.038 102.023 138.625 101.544 138.074 101.503L137.926 103.497ZM113.807 127.725C113.758 127.175 113.273 126.768 112.723 126.817C112.173 126.866 111.766 127.352 111.815 127.902L113.807 127.725ZM111.728 123.666C111.71 124.218 112.144 124.68 112.696 124.697C113.248 124.715 113.709 124.281 113.727 123.729L111.728 123.666ZM113.73 123.631C113.749 123.079 113.317 122.617 112.765 122.598C112.213 122.579 111.75 123.011 111.731 123.563L113.73 123.631ZM112.093 119.351C112.016 119.898 112.396 120.404 112.943 120.481C113.49 120.558 113.996 120.178 114.073 119.631L112.093 119.351ZM114.087 119.535C114.166 118.988 113.787 118.481 113.24 118.402C112.694 118.323 112.187 118.702 112.108 119.249L114.087 119.535ZM112.992 115.085C112.838 115.616 113.144 116.171 113.674 116.324C114.205 116.478 114.759 116.173 114.913 115.642L112.992 115.085ZM114.94 115.55C115.096 115.02 114.793 114.464 114.263 114.308C113.733 114.152 113.177 114.456 113.021 114.985L114.94 115.55ZM114.62 110.98C114.362 111.468 114.549 112.073 115.038 112.331C115.526 112.589 116.131 112.401 116.389 111.913L114.62 110.98ZM116.433 111.829C116.694 111.342 116.51 110.736 116.023 110.476C115.536 110.215 114.93 110.399 114.67 110.886L116.433 111.829ZM117.254 107.331C116.866 107.724 116.868 108.357 117.26 108.746C117.652 109.135 118.286 109.132 118.674 108.74L117.254 107.331ZM118.74 108.674C119.132 108.285 119.135 107.652 118.746 107.26C118.357 106.868 117.724 106.865 117.332 107.254L118.74 108.674ZM120.907 104.643C120.421 104.906 120.241 105.513 120.503 105.999C120.766 106.485 121.373 106.665 121.859 106.402L120.907 104.643ZM121.943 106.357C122.43 106.097 122.615 105.491 122.354 105.004C122.094 104.517 121.489 104.333 121.001 104.593L121.943 106.357ZM125.022 102.95C124.494 103.112 124.197 103.671 124.359 104.199C124.521 104.727 125.08 105.024 125.608 104.862L125.022 102.95ZM125.701 104.834C126.23 104.674 126.529 104.116 126.369 103.587C126.209 103.058 125.651 102.759 125.122 102.919L125.701 104.834ZM129.304 101.969C128.759 102.057 128.388 102.57 128.476 103.116C128.564 103.661 129.077 104.032 129.622 103.944L129.304 101.969ZM129.719 103.928C130.265 103.842 130.637 103.33 130.55 102.784C130.464 102.239 129.952 101.866 129.406 101.953L129.719 103.928ZM133.644 101.51C133.093 101.54 132.67 102.011 132.7 102.562C132.73 103.114 133.201 103.537 133.753 103.507L133.644 101.51ZM133.851 103.502C134.403 103.473 134.827 103.003 134.798 102.451C134.769 101.9 134.299 101.476 133.748 101.504L133.851 103.502ZM138.018 101.499C137.466 101.463 136.991 101.881 136.955 102.432C136.919 102.983 137.337 103.459 137.888 103.495L138.018 101.499ZM112.816 127.86C113.811 127.762 113.811 127.762 113.811 127.762C113.811 127.762 113.811 127.762 113.811 127.762C113.811 127.762 113.811 127.762 113.811 127.762C113.811 127.762 113.811 127.762 113.811 127.762C113.811 127.762 113.811 127.762 113.811 127.762C113.811 127.763 113.811 127.763 113.811 127.763C113.811 127.763 113.811 127.763 113.811 127.763C113.811 127.763 113.811 127.762 113.811 127.762C113.811 127.76 113.81 127.758 113.81 127.755C113.81 127.749 113.809 127.739 113.807 127.725L111.815 127.902C111.817 127.919 111.818 127.932 111.819 127.942C111.819 127.946 111.82 127.95 111.82 127.953C111.82 127.954 111.82 127.955 111.82 127.956C111.82 127.957 111.82 127.957 111.82 127.957C111.82 127.958 111.82 127.958 111.82 127.958C111.82 127.958 111.82 127.958 111.82 127.958C111.82 127.958 111.82 127.958 111.82 127.958C111.82 127.958 111.82 127.958 111.82 127.958C111.82 127.958 111.82 127.958 111.82 127.958C111.82 127.958 111.82 127.958 112.816 127.86ZM113.727 123.729C113.728 123.697 113.729 123.664 113.73 123.631L111.731 123.563C111.73 123.598 111.729 123.632 111.728 123.666L113.727 123.729ZM114.073 119.631C114.078 119.599 114.083 119.567 114.087 119.535L112.108 119.249C112.103 119.283 112.098 119.317 112.093 119.351L114.073 119.631ZM114.913 115.642C114.922 115.611 114.931 115.581 114.94 115.55L113.021 114.985C113.012 115.019 113.002 115.052 112.992 115.085L114.913 115.642ZM116.389 111.913C116.404 111.885 116.418 111.857 116.433 111.829L114.67 110.886C114.653 110.917 114.636 110.949 114.62 110.98L116.389 111.913ZM118.674 108.74C118.685 108.729 118.696 108.718 118.707 108.707L117.293 107.293C117.28 107.306 117.267 107.319 117.254 107.331L118.674 108.74ZM118.707 108.707C118.718 108.696 118.729 108.685 118.74 108.674L117.332 107.254C117.319 107.267 117.306 107.28 117.293 107.293L118.707 108.707ZM121.859 106.402C121.887 106.387 121.915 106.372 121.943 106.357L121.001 104.593C120.97 104.61 120.938 104.626 120.907 104.643L121.859 106.402ZM125.608 104.862C125.639 104.852 125.67 104.843 125.701 104.834L125.122 102.919C125.089 102.929 125.055 102.94 125.022 102.95L125.608 104.862ZM129.622 103.944C129.655 103.938 129.687 103.933 129.719 103.928L129.406 101.953C129.372 101.958 129.338 101.964 129.304 101.969L129.622 103.944ZM133.753 103.507C133.786 103.505 133.818 103.503 133.851 103.502L133.748 101.504C133.713 101.506 133.679 101.508 133.644 101.51L133.753 103.507ZM137.888 103.495C137.902 103.496 137.912 103.496 137.919 103.497C137.922 103.497 137.924 103.497 137.925 103.497C137.926 103.497 137.926 103.497 137.927 103.497C137.927 103.497 137.927 103.497 137.927 103.497C137.926 103.497 137.926 103.497 137.926 103.497C137.926 103.497 137.926 103.497 137.926 103.497C137.926 103.497 137.926 103.497 137.926 103.497C137.926 103.497 137.926 103.497 137.926 103.497C137.926 103.497 137.926 103.497 137.926 103.497C137.926 103.497 137.926 103.497 138 102.5C138.074 101.503 138.074 101.503 138.074 101.503C138.074 101.503 138.074 101.503 138.074 101.503C138.074 101.503 138.074 101.503 138.074 101.503C138.074 101.503 138.074 101.503 138.074 101.503C138.074 101.503 138.074 101.503 138.074 101.503C138.073 101.503 138.073 101.503 138.073 101.503C138.073 101.503 138.072 101.503 138.072 101.503C138.071 101.503 138.07 101.502 138.069 101.502C138.066 101.502 138.062 101.502 138.057 101.502C138.048 101.501 138.035 101.5 138.018 101.499L137.888 103.495Z" fill="#ADBBC4"/>
<path opacity="0.5" d="M253.816 136.162C253.828 135.61 254.285 135.173 254.838 135.185C255.39 135.197 255.827 135.654 255.815 136.206L253.816 136.162ZM282.971 163.235C283.52 163.296 283.915 163.791 283.854 164.34C283.793 164.889 283.299 165.284 282.75 165.223L282.971 163.235ZM255.815 136.245C255.808 136.797 255.354 137.239 254.802 137.231C254.249 137.224 253.808 136.771 253.815 136.218L255.815 136.245ZM254.032 140.475C253.977 139.925 254.378 139.435 254.927 139.38C255.477 139.325 255.967 139.726 256.022 140.276L254.032 140.475ZM256.032 140.374C256.088 140.924 255.688 141.415 255.139 141.471C254.589 141.527 254.098 141.127 254.042 140.578L256.032 140.374ZM254.676 144.782C254.566 144.241 254.916 143.713 255.457 143.603C255.999 143.493 256.526 143.843 256.636 144.384L254.676 144.782ZM256.656 144.48C256.767 145.021 256.419 145.55 255.878 145.661C255.337 145.772 254.808 145.424 254.697 144.883L256.656 144.48ZM255.807 149.013C255.628 148.49 255.908 147.922 256.43 147.744C256.953 147.566 257.521 147.845 257.7 148.368L255.807 149.013ZM257.731 148.46C257.911 148.982 257.634 149.551 257.112 149.731C256.59 149.911 256.021 149.634 255.841 149.112L257.731 148.46ZM257.589 153.069C257.319 152.587 257.491 151.977 257.973 151.707C258.454 151.437 259.064 151.609 259.334 152.09L257.589 153.069ZM259.381 152.174C259.654 152.654 259.486 153.265 259.005 153.537C258.525 153.81 257.915 153.642 257.642 153.162L259.381 152.174ZM260.277 156.691C259.888 156.299 259.89 155.666 260.282 155.277C260.674 154.888 261.308 154.89 261.697 155.282L260.277 156.691ZM261.76 155.346C262.152 155.735 262.154 156.368 261.765 156.76C261.376 157.152 260.743 157.154 260.351 156.765L261.76 155.346ZM263.565 159.259C263.096 158.967 262.953 158.351 263.244 157.882C263.536 157.413 264.153 157.269 264.622 157.561L263.565 159.259ZM264.698 157.608C265.168 157.897 265.314 158.513 265.025 158.984C264.735 159.454 264.119 159.6 263.649 159.31L264.698 157.608ZM267.188 161.148C266.683 160.925 266.454 160.335 266.676 159.83C266.899 159.324 267.489 159.095 267.995 159.318L267.188 161.148ZM268.078 159.354C268.584 159.576 268.815 160.165 268.594 160.671C268.372 161.177 267.783 161.408 267.277 161.187L268.078 159.354ZM270.964 162.59C270.44 162.416 270.156 161.85 270.329 161.326C270.503 160.802 271.069 160.518 271.593 160.691L270.964 162.59ZM271.68 160.72C272.205 160.893 272.49 161.458 272.318 161.983C272.145 162.507 271.58 162.793 271.055 162.62L271.68 160.72ZM274.822 163.712C274.286 163.576 273.963 163.031 274.099 162.496C274.235 161.961 274.779 161.637 275.314 161.773L274.822 163.712ZM275.403 161.796C275.939 161.931 276.263 162.475 276.128 163.01C275.992 163.546 275.449 163.87 274.913 163.735L275.403 161.796ZM278.733 164.582C278.191 164.478 277.836 163.954 277.94 163.411C278.044 162.869 278.568 162.514 279.111 162.618L278.733 164.582ZM279.2 162.635C279.742 162.739 280.098 163.262 279.995 163.805C279.891 164.347 279.368 164.703 278.825 164.6L279.2 162.635ZM282.698 165.217C282.149 165.152 281.757 164.656 281.821 164.107C281.886 163.559 282.382 163.166 282.931 163.231L282.698 165.217ZM254.816 136.184C255.815 136.206 255.815 136.206 255.815 136.206C255.815 136.206 255.815 136.206 255.815 136.206C255.815 136.206 255.815 136.206 255.815 136.206C255.815 136.206 255.815 136.206 255.815 136.206C255.815 136.206 255.815 136.206 255.815 136.206C255.815 136.206 255.815 136.206 255.815 136.206C255.815 136.206 255.815 136.206 255.815 136.206C255.815 136.206 255.815 136.207 255.815 136.207C255.815 136.208 255.815 136.211 255.815 136.214C255.815 136.22 255.815 136.231 255.815 136.245L253.815 136.218C253.815 136.201 253.815 136.188 253.816 136.179C253.816 136.174 253.816 136.17 253.816 136.168C253.816 136.166 253.816 136.165 253.816 136.164C253.816 136.164 253.816 136.163 253.816 136.163C253.816 136.163 253.816 136.163 253.816 136.163C253.816 136.163 253.816 136.163 253.816 136.163C253.816 136.163 253.816 136.163 253.816 136.163C253.816 136.162 253.816 136.162 253.816 136.162C253.816 136.162 253.816 136.162 253.816 136.162C253.816 136.162 253.816 136.162 254.816 136.184ZM256.022 140.276C256.025 140.308 256.029 140.341 256.032 140.374L254.042 140.578C254.039 140.543 254.035 140.509 254.032 140.475L256.022 140.276ZM256.636 144.384C256.643 144.416 256.649 144.448 256.656 144.48L254.697 144.883C254.69 144.849 254.683 144.815 254.676 144.782L256.636 144.384ZM257.7 148.368C257.71 148.399 257.721 148.429 257.731 148.46L255.841 149.112C255.829 149.079 255.818 149.046 255.807 149.013L257.7 148.368ZM259.334 152.09C259.35 152.118 259.365 152.146 259.381 152.174L257.642 153.162C257.624 153.131 257.607 153.1 257.589 153.069L259.334 152.09ZM261.697 155.282C261.708 155.293 261.719 155.304 261.73 155.315L260.315 156.73C260.302 156.717 260.29 156.704 260.277 156.691L261.697 155.282ZM261.73 155.315C261.74 155.325 261.75 155.336 261.76 155.346L260.351 156.765C260.339 156.753 260.327 156.741 260.315 156.73L261.73 155.315ZM264.622 157.561C264.647 157.576 264.672 157.592 264.698 157.608L263.649 159.31C263.621 159.293 263.593 159.276 263.565 159.259L264.622 157.561ZM267.995 159.318C268.022 159.33 268.05 159.342 268.078 159.354L267.277 161.187C267.247 161.174 267.218 161.161 267.188 161.148L267.995 159.318ZM271.593 160.691C271.622 160.701 271.651 160.711 271.68 160.72L271.055 162.62C271.025 162.61 270.994 162.6 270.964 162.59L271.593 160.691ZM275.314 161.773C275.344 161.781 275.374 161.788 275.403 161.796L274.913 163.735C274.883 163.727 274.852 163.72 274.822 163.712L275.314 161.773ZM279.111 162.618C279.141 162.624 279.17 162.629 279.2 162.635L278.825 164.6C278.795 164.594 278.764 164.588 278.733 164.582L279.111 162.618ZM282.931 163.231C282.945 163.232 282.956 163.233 282.962 163.234C282.966 163.235 282.968 163.235 282.969 163.235C282.97 163.235 282.971 163.235 282.971 163.235C282.971 163.235 282.971 163.235 282.971 163.235C282.971 163.235 282.971 163.235 282.971 163.235C282.971 163.235 282.971 163.235 282.971 163.235C282.971 163.235 282.971 163.235 282.971 163.235C282.971 163.235 282.971 163.235 282.971 163.235C282.971 163.235 282.971 163.235 282.971 163.235C282.971 163.235 282.971 163.235 282.86 164.229C282.75 165.223 282.75 165.223 282.75 165.223C282.75 165.223 282.75 165.223 282.75 165.223C282.75 165.223 282.75 165.223 282.75 165.223C282.75 165.223 282.75 165.223 282.75 165.223C282.749 165.223 282.749 165.223 282.749 165.223C282.749 165.223 282.749 165.223 282.749 165.223C282.749 165.223 282.749 165.223 282.748 165.223C282.747 165.223 282.746 165.223 282.745 165.222C282.743 165.222 282.739 165.222 282.735 165.221C282.726 165.22 282.714 165.219 282.698 165.217L282.931 163.231Z" fill="#ADBBC4"/>
<line opacity="0.5" x1="260" y1="115" x2="289" y2="115" stroke="#ADBBC4" stroke-width="2" stroke-linecap="round" stroke-dasharray="0.1 4.1"/>
<path fill-rule="evenodd" clip-rule="evenodd" d="M206.841 78.0039C206.434 78.0241 206.035 78.1235 205.669 78.2962L189.677 85.8289C188.838 86.2236 188.229 86.9701 188.022 87.8572L184.077 104.777C183.893 105.565 184.043 106.392 184.492 107.07C184.546 107.152 184.604 107.231 184.666 107.308L195.735 120.875C196.315 121.586 197.195 122 198.126 122L215.876 121.996C216.807 121.997 217.687 121.583 218.267 120.873L229.332 107.304C229.913 106.592 230.13 105.661 229.923 104.773L225.972 87.8532C225.765 86.9661 225.156 86.2196 224.317 85.8248L208.323 78.2962C207.862 78.0789 207.352 77.9784 206.841 78.0039Z" stroke="#00C1D5" stroke-width="2"/>
<path d="M241.523 98.1939V95.8861C241.754 78.407 228.756 63.5718 211.398 61.5038C194.04 59.4358 177.921 70.8019 174.039 87.8461C161.725 88.4951 152.129 98.7673 152.32 111.097C152.51 123.427 162.418 133.398 174.746 133.667H236.237C245.178 133.629 252.762 127.091 254.116 118.253C255.47 109.415 250.191 100.906 241.672 98.1939H241.523Z" stroke="#00C1D5" stroke-width="2"/>
<path d="M213.494 54.2717C208.523 47.516 200.665 43.4904 192.278 43.4028H192.017C178.601 43.4182 167.269 53.3653 165.515 66.6667L165.217 70.0539H159.559C153.386 70.0439 147.542 73.5704 145.11 79.2447C142.678 84.919 143.867 91.497 148.132 95.9606" stroke="#00C1D5" stroke-width="2" stroke-linecap="round"/>
<path d="M194.734 28.8117C189.914 24.483 183.681 22.0611 177.203 22H176.942C163.609 22.1057 152.387 32.0099 150.626 45.2267L150.031 48.465H144.373C135.865 48.5264 129 55.441 129 63.9494C129.011 67.2209 130.067 70.4034 132.015 73.0317" stroke="#00C1D5" stroke-width="2" stroke-linecap="round"/>
<path fill-rule="evenodd" clip-rule="evenodd" d="M99.1667 136.361H127.833V155.472H130.222V135.764C130.222 134.774 129.42 133.972 128.431 133.972H98.5694C97.5799 133.972 96.7778 134.774 96.7778 135.764V155.472H99.1667V136.361ZM93.1944 161.922V157.861H133.734V161.922C133.734 163.637 132.343 165.028 130.628 165.028H96.3C94.5848 165.028 93.1944 163.637 93.1944 161.922ZM130.7 162.639C131.096 162.639 131.417 162.318 131.417 161.922V159.689H119.52C119.215 160.409 118.51 160.878 117.728 160.883H109.212C108.43 160.878 107.725 160.409 107.42 159.689H95.5356V161.922C95.5356 162.318 95.8564 162.639 96.2522 162.639H130.7ZM103.467 140.661V155.329H101.556V138.75H123.032L121.144 140.661H103.467Z" fill="#ADBBC4"/>
<defs>
<linearGradient id="paint0_linear_673_43788" x1="156" y1="0" x2="42" y2="114" gradientUnits="userSpaceOnUse">
<stop offset="0.223958" stop-color="#00C1D5"/>
<stop offset="1" stop-color="#00C1D5" stop-opacity="0"/>
</linearGradient>
<linearGradient id="paint1_linear_673_43788" x1="114" y1="83" x2="0" y2="197" gradientUnits="userSpaceOnUse">
<stop offset="0.223958" stop-color="#0091DA"/>
<stop offset="1" stop-color="#0091DA" stop-opacity="0"/>
</linearGradient>
<linearGradient id="paint2_linear_673_43788" x1="139" y1="161" x2="229.996" y2="30.9093" gradientUnits="userSpaceOnUse">
<stop stop-color="#1A428A" stop-opacity="0"/>
<stop offset="0.9987" stop-color="#1A428A"/>
</linearGradient>
</defs>
</svg>
