<svg width="367" height="197" fill="none" xmlns="http://www.w3.org/2000/svg"><path opacity=".15" fill-rule="evenodd" clip-rule="evenodd" d="M42 114h114L270 0H156L42 114Z" fill="url(#a)"/><path opacity=".15" fill-rule="evenodd" clip-rule="evenodd" d="M0 197h114L228 83H114L0 197Z" fill="url(#b)"/><path opacity=".15" fill-rule="evenodd" clip-rule="evenodd" d="M139 161h114L367 47H253L139 161Z" fill="url(#c)"/><path opacity=".5" clip-rule="evenodd" d="M316.847 40.004c-.389.02-.77.117-1.121.285l-15.296 7.362a2.923 2.923 0 0 0-1.583 1.982l-3.773 16.536a2.915 2.915 0 0 0 .563 2.473L306.225 81.9a2.925 2.925 0 0 0 2.287 1.1l16.979-.004c.889 0 1.731-.403 2.286-1.097l10.584-13.261a2.919 2.919 0 0 0 .566-2.473l-3.78-16.536a2.923 2.923 0 0 0-1.583-1.982l-15.298-7.358a2.93 2.93 0 0 0-1.419-.285ZM316.847 95.004c-.389.02-.77.117-1.121.285l-15.296 7.362a2.922 2.922 0 0 0-1.583 1.982l-3.773 16.536a2.914 2.914 0 0 0 .563 2.473l10.588 13.259a2.925 2.925 0 0 0 2.287 1.099l16.979-.004a2.924 2.924 0 0 0 2.286-1.097l10.584-13.261a2.92 2.92 0 0 0 .566-2.473l-3.78-16.536a2.922 2.922 0 0 0-1.583-1.982l-15.298-7.358a2.93 2.93 0 0 0-1.419-.285ZM316.847 150.004c-.389.02-.77.117-1.121.285l-15.296 7.362a2.922 2.922 0 0 0-1.583 1.982l-3.773 16.536a2.914 2.914 0 0 0 .563 2.473l10.588 13.259a2.925 2.925 0 0 0 2.287 1.099l16.979-.004a2.924 2.924 0 0 0 2.286-1.097l10.584-13.261a2.92 2.92 0 0 0 .566-2.473l-3.78-16.536a2.922 2.922 0 0 0-1.583-1.982l-15.298-7.358a2.933 2.933 0 0 0-1.419-.285Z" stroke="#ADBBC4" stroke-width="2" stroke-linecap="square" stroke-linejoin="round"/><path opacity=".5" d="M253.816 95.882a1 1 0 1 0 1.999-.044l-1.999.044Zm29.155-27.073a1 1 0 0 0-.221-1.987l.221 1.987ZM255.815 95.8a1 1 0 1 0-2 .026l2-.026Zm-1.783-4.23a1 1 0 1 0 1.99.2l-1.99-.2Zm2 .1a1 1 0 0 0-1.99-.203l1.99.203Zm-1.356-4.407a1 1 0 1 0 1.96.397l-1.96-.397Zm1.98.301a1 1 0 1 0-1.959-.402l1.959.402Zm-.849-4.532a1 1 0 1 0 1.893.645l-1.893-.645Zm1.924.553a1 1 0 1 0-1.89-.652l1.89.652Zm-.142-4.609a1 1 0 0 0 1.745.978l-1.745-.978Zm1.792.895a1 1 0 1 0-1.739-.988l1.739.988Zm.896-4.517a1 1 0 1 0 1.42 1.409l-1.42-1.41Zm1.483 1.345a1 1 0 0 0-1.409-1.42l1.409 1.42Zm1.805-3.913a1 1 0 0 0 1.057 1.698l-1.057-1.698Zm1.133 1.65a1 1 0 0 0-1.049-1.702l1.049 1.703Zm2.49-3.54a1.001 1.001 0 0 0 .807 1.83l-.807-1.83Zm.89 1.794a1 1 0 0 0-.801-1.832l.801 1.832Zm2.886-3.235a1 1 0 0 0 .629 1.898l-.629-1.898Zm.716 1.87a1 1 0 0 0-.625-1.9l.625 1.9Zm3.142-2.992a1 1 0 1 0 .492 1.938l-.492-1.938Zm.581 1.916a1 1 0 1 0-.49-1.94l.49 1.94Zm3.33-2.786a1 1 0 0 0 .378 1.964l-.378-1.964Zm.467 1.947a1 1 0 0 0-.375-1.965l.375 1.965Zm3.498-2.582a1 1 0 1 0 .233 1.986l-.233-1.986ZM254.816 95.86l.999-.022V95.8l-2 .025.001.04v.016l1-.022Zm1.206-4.09.01-.1-1.99-.203-.01.103 1.99.2Zm.614-4.11.02-.096-1.959-.402-.021.1 1.96.398Zm1.064-3.983.031-.092-1.89-.652-.034.099 1.893.645Zm1.634-3.723.047-.083-1.739-.988-.053.093 1.745.978Zm2.363-3.191.033-.034-1.415-1.414-.038.039 1.42 1.409Zm.033-.034.03-.03-1.409-1.42-.036.036 1.415 1.414Zm2.892-2.245.076-.047-1.049-1.703-.084.052 1.057 1.698Zm3.373-1.757.083-.037-.801-1.832-.089.039.807 1.83Zm3.598-1.374.087-.028-.625-1.9-.091.03.629 1.898Zm3.721-1.082.089-.022-.49-1.94-.091.024.492 1.938Zm3.797-.844.089-.017-.375-1.965-.092.018.378 1.964Zm3.82-.613.031-.003.007-.001h.002l-.111-.994-.11-.994h-.005l-.01.001-.037.005.233 1.986ZM111.82 127.958a1 1 0 0 0 1.991-.196l-1.991.196Zm26.106-24.461a1 1 0 1 0 .148-1.994l-.148 1.994Zm-24.119 24.228a1 1 0 1 0-1.992.177l1.992-.177Zm-2.079-4.059a1 1 0 1 0 1.999.063l-1.999-.063Zm2.002-.035a1 1 0 1 0-1.999-.068l1.999.068Zm-1.637-4.28a1 1 0 1 0 1.98.28l-1.98-.28Zm1.994.184a1 1 0 1 0-1.979-.286l1.979.286Zm-1.095-4.45a1 1 0 1 0 1.921.557l-1.921-.557Zm1.948.465a1 1 0 1 0-1.919-.565l1.919.565Zm-.32-4.57a1 1 0 1 0 1.769.933l-1.769-.933Zm1.813.849a.999.999 0 1 0-1.763-.943l1.763.943Zm.821-4.498a1 1 0 1 0 1.42 1.409l-1.42-1.409Zm1.486 1.343a1 1 0 1 0-1.408-1.42l1.408 1.42Zm2.167-4.031a1 1 0 1 0 .952 1.759l-.952-1.759Zm1.036 1.714a1 1 0 1 0-.942-1.764l.942 1.764Zm3.079-3.407a1 1 0 1 0 .586 1.912l-.586-1.912Zm.679 1.884a1 1 0 1 0-.579-1.915l.579 1.915Zm3.603-2.865a1 1 0 0 0 .318 1.975l-.318-1.975Zm.415 1.959a1 1 0 1 0-.313-1.975l.313 1.975Zm3.925-2.418a1 1 0 1 0 .109 1.997l-.109-1.997Zm.207 1.992a1 1 0 0 0-.103-1.998l.103 1.998Zm4.167-2.003a1 1 0 1 0-.13 1.996l.13-1.996Zm-25.202 26.361.995-.098v.001-.001l-.001-.007a.244.244 0 0 0-.003-.03l-1.992.177.004.04.001.011v.005l.996-.098Zm.911-4.131.003-.098-1.999-.068-.003.103 1.999.063Zm.346-4.098a3.17 3.17 0 0 0 .014-.096l-1.979-.286-.015.102 1.98.28Zm.84-3.989.027-.092-1.919-.565-.029.1 1.921.557Zm1.476-3.729.044-.084-1.763-.943a4.28 4.28 0 0 0-.05.094l1.769.933Zm2.285-3.173.033-.033-1.414-1.414-.039.038 1.42 1.409Zm.033-.033.033-.033-1.408-1.42-.039.039 1.414 1.414Zm3.152-2.305.084-.045-.942-1.764-.094.05.952 1.759Zm3.749-1.54.093-.028-.579-1.915-.1.031.586 1.912Zm4.014-.918.097-.016-.313-1.975-.102.016.318 1.975Zm4.131-.437.098-.005-.103-1.998-.104.006.109 1.997Zm4.135-.012.031.002h.008-.001l.074-.997.074-.997h-.002l-.003-.001h-.012a.812.812 0 0 0-.039-.003l-.13 1.996ZM253.816 136.162a1 1 0 1 1 1.999.044l-1.999-.044Zm29.155 27.073a1 1 0 0 1-.221 1.988l.221-1.988Zm-27.156-26.99a.999.999 0 1 1-2-.027l2 .027Zm-1.783 4.23a1 1 0 1 1 1.99-.199l-1.99.199Zm2-.101a1 1 0 0 1-1.99.204l1.99-.204Zm-1.356 4.408a1 1 0 0 1 1.96-.398l-1.96.398Zm1.98-.302a1 1 0 0 1-1.959.403l1.959-.403Zm-.849 4.533a1 1 0 1 1 1.893-.645l-1.893.645Zm1.924-.553a1 1 0 1 1-1.89.652l1.89-.652Zm-.142 4.609a1 1 0 0 1 1.745-.979l-1.745.979Zm1.792-.895a1 1 0 0 1-1.739.988l1.739-.988Zm.896 4.517a1 1 0 1 1 1.42-1.409l-1.42 1.409Zm1.483-1.345a1 1 0 1 1-1.409 1.419l1.409-1.419Zm1.805 3.913a1 1 0 0 1 1.057-1.698l-1.057 1.698Zm1.133-1.651a1 1 0 0 1-1.049 1.702l1.049-1.702Zm2.49 3.54a1 1 0 0 1 .807-1.83l-.807 1.83Zm.89-1.794a1 1 0 0 1-.801 1.833l.801-1.833Zm2.886 3.236a1.001 1.001 0 0 1 .629-1.899l-.629 1.899Zm.716-1.87a1.001 1.001 0 0 1-.625 1.9l.625-1.9Zm3.142 2.992a1 1 0 0 1 .492-1.939l-.492 1.939Zm.581-1.916a1 1 0 1 1-.49 1.939l.49-1.939Zm3.33 2.786a1 1 0 0 1 .378-1.964l-.378 1.964Zm.467-1.947a1.001 1.001 0 0 1-.375 1.965l.375-1.965Zm3.498 2.582a1 1 0 0 1 .233-1.986l-.233 1.986Zm-27.882-29.033.999.022v.039l-2-.027.001-.039v-.017l1 .022Zm1.206 4.092.01.098-1.99.204-.01-.103 1.99-.199Zm.614 4.108.02.096-1.959.403a17.425 17.425 0 0 0-.021-.101l1.96-.398Zm1.064 3.984.031.092-1.89.652-.034-.099 1.893-.645Zm1.634 3.722.047.084-1.739.988-.053-.093 1.745-.979Zm2.363 3.192.033.033-1.415 1.415-.038-.039 1.42-1.409Zm.033.033.03.031-1.409 1.419a1.172 1.172 0 0 0-.036-.035l1.415-1.415Zm2.892 2.246.076.047-1.049 1.702-.084-.051 1.057-1.698Zm3.373 1.757.083.036-.801 1.833-.089-.039.807-1.83Zm3.598 1.373.087.029-.625 1.9-.091-.03.629-1.899Zm3.721 1.082.089.023-.49 1.939-.091-.023.492-1.939Zm3.797.845.089.017-.375 1.965-.092-.018.378-1.964Zm3.82.613a.404.404 0 0 1 .031.003l.007.001h.002l-.111.994-.11.994h-.002l-.003-.001-.01-.001-.037-.004.233-1.986Z" fill="#ADBBC4"/><path opacity=".5" stroke="#ADBBC4" stroke-width="2" stroke-linecap="round" stroke-dasharray="0.1 4.1" d="M260 115h29"/><path clip-rule="evenodd" d="M206.841 78.004a3.11 3.11 0 0 0-1.172.292l-15.992 7.533a3.002 3.002 0 0 0-1.655 2.028l-3.945 16.92a2.938 2.938 0 0 0 .589 2.531l11.069 13.567a3.084 3.084 0 0 0 2.391 1.125l17.75-.004a3.083 3.083 0 0 0 2.391-1.123l11.065-13.569a2.94 2.94 0 0 0 .591-2.531l-3.951-16.92a3.002 3.002 0 0 0-1.655-2.028l-15.994-7.529a3.115 3.115 0 0 0-1.482-.292Z" stroke="#00C1D5" stroke-width="2"/><path d="M241.523 98.194v-2.308c.231-17.479-12.767-32.314-30.125-34.382-17.358-2.068-33.477 9.298-37.359 26.342-12.314.65-21.91 10.921-21.719 23.251.19 12.33 10.098 22.301 22.426 22.57h61.491c8.941-.038 16.525-6.576 17.879-15.414 1.354-8.838-3.925-17.347-12.444-20.06h-.149Z" stroke="#00C1D5" stroke-width="2"/><path d="M213.494 54.272a26.687 26.687 0 0 0-21.216-10.87h-.261c-13.416.016-24.748 9.963-26.502 23.265l-.298 3.387h-5.658c-6.173-.01-12.017 3.516-14.449 9.19a15.41 15.41 0 0 0 3.022 16.717M194.734 28.812A26.613 26.613 0 0 0 177.203 22h-.261c-13.333.106-24.555 10.01-26.316 23.227l-.595 3.238h-5.658C135.865 48.526 129 55.441 129 63.949a15.34 15.34 0 0 0 3.015 9.083" stroke="#00C1D5" stroke-width="2" stroke-linecap="round"/><path fill-rule="evenodd" clip-rule="evenodd" d="M99.167 136.361h28.666v19.111h2.389v-19.708c0-.99-.802-1.792-1.791-1.792H98.569c-.99 0-1.791.802-1.791 1.792v19.708h2.389v-19.111Zm-5.973 25.561v-4.061h40.54v4.061a3.107 3.107 0 0 1-3.106 3.106H96.3a3.106 3.106 0 0 1-3.106-3.106Zm37.506.717a.717.717 0 0 0 .717-.717v-2.233H119.52a1.96 1.96 0 0 1-1.792 1.194h-8.516a1.96 1.96 0 0 1-1.792-1.194H95.536v2.233c0 .396.32.717.716.717H130.7Zm-27.233-21.978v14.668h-1.911V138.75h21.476l-1.888 1.911h-17.677Z" fill="#ADBBC4"/><defs><linearGradient id="a" x1="156" y1="0" x2="42" y2="114" gradientUnits="userSpaceOnUse"><stop offset=".224" stop-color="#00C1D5"/><stop offset="1" stop-color="#00C1D5" stop-opacity="0"/></linearGradient><linearGradient id="b" x1="114" y1="83" x2="0" y2="197" gradientUnits="userSpaceOnUse"><stop offset=".224" stop-color="#0091DA"/><stop offset="1" stop-color="#0091DA" stop-opacity="0"/></linearGradient><linearGradient id="c" x1="139" y1="161" x2="229.996" y2="30.909" gradientUnits="userSpaceOnUse"><stop stop-color="#1A428A" stop-opacity="0"/><stop offset=".999" stop-color="#1A428A"/></linearGradient></defs></svg>