<svg width="349" height="261" viewBox="0 0 349 261" fill="none" xmlns="http://www.w3.org/2000/svg">
<path opacity="0.5" d="M346.269 28.9154L173.552 202.104H89.7158L261.94 29.372L346.269 28.9154Z" fill="url(#paint0_linear_73_14307)"/>
<path opacity="0.5" d="M324.381 95.7634L218.922 201.685H144.722L249.839 96.0678L324.381 95.7634Z" fill="url(#paint1_linear_73_14307)"/>
<path d="M155.077 75.4845C158.45 75.4845 161.185 72.7421 161.185 69.359C161.185 65.976 158.45 63.2335 155.077 63.2335C151.704 63.2335 148.97 65.976 148.97 69.359C148.97 72.7421 151.704 75.4845 155.077 75.4845Z" fill="#4896D1"/>
<path d="M153.023 43.1785L151.316 43.1995L151.619 68.0421L153.326 68.0212L153.023 43.1785Z" fill="#4896D1"/>
<path d="M152.156 44.7048C153.497 44.7048 154.584 43.6146 154.584 42.2698C154.584 40.925 153.497 39.8348 152.156 39.8348C150.815 39.8348 149.729 40.925 149.729 42.2698C149.729 43.6146 150.815 44.7048 152.156 44.7048Z" fill="#4896D1"/>
<path d="M147.908 198.337C142.711 164.095 153.067 148.686 153.522 148.078L158.567 151.616L156.064 149.866L158.605 151.616C158.529 151.768 149.235 165.921 154.015 197.462L147.908 198.337Z" fill="url(#paint2_linear_73_14307)"/>
<path d="M194.415 193.239L188.27 192.935C189.067 175.89 187.056 165.427 185.197 159.682C183.225 153.518 181.024 151.273 181.024 151.273L181.062 151.311L185.197 146.784C186.335 147.773 196.085 157.817 194.415 193.239Z" fill="url(#paint3_linear_73_14307)"/>
<path d="M190.508 90.3988L189.901 64.2227C189.665 59.8263 187.754 55.689 184.563 52.6655C181.372 49.6421 177.145 47.9635 172.755 47.9768C168.596 48.0003 164.588 49.543 161.481 52.3161C158.373 55.0892 156.38 58.9028 155.874 63.0432L155.115 91.5782L190.508 90.3988Z" fill="url(#paint4_linear_73_14307)"/>
<path d="M138.196 103.297C129.282 103.297 118.432 101.432 111.49 93.6708L116.042 89.5618C126.816 101.546 151.587 95.6873 151.853 95.6492L153.294 101.623C148.336 102.723 143.274 103.284 138.196 103.297Z" fill="url(#paint5_linear_73_14307)"/>
<path d="M151.132 91.0837L184.742 89.5238L186.108 153.556L146.428 152.301C145.357 152.267 144.302 152.022 143.325 151.579C142.349 151.136 141.468 150.505 140.735 149.72C140.002 148.935 139.431 148.013 139.054 147.007C138.677 146 138.501 144.929 138.538 143.854V143.588L140.738 105.161L151.132 91.0837Z" fill="url(#paint6_linear_73_14307)"/>
<path d="M195.098 90.1325L184.742 89.5238L175.714 103.753L174.727 141.381C174.672 142.927 174.922 144.467 175.463 145.915C176.004 147.363 176.826 148.689 177.88 149.817C178.934 150.945 180.201 151.853 181.606 152.488C183.012 153.124 184.529 153.474 186.07 153.518H186.108C187.784 153.572 189.455 153.293 191.024 152.698C192.593 152.104 194.03 151.205 195.252 150.053C196.475 148.901 197.459 147.519 198.149 145.985C198.838 144.451 199.22 142.797 199.271 141.115V140.62L199.081 115.091C198.702 98.6169 195.098 90.1325 195.098 90.1325Z" fill="url(#paint7_linear_73_14307)"/>
<path d="M138.879 137.158L199.233 137.805" stroke="#4896D1" stroke-width="5.69" stroke-miterlimit="10"/>
<path d="M166.609 111.819L166.306 126.733C166.294 127.372 166.033 127.98 165.579 128.429C165.125 128.877 164.515 129.128 163.878 129.13L149.197 129.283C148.875 129.288 148.555 129.228 148.256 129.108C147.958 128.988 147.685 128.81 147.456 128.583C147.226 128.356 147.044 128.086 146.92 127.788C146.795 127.49 146.731 127.171 146.731 126.848V126.733L147.187 112.047C147.205 111.421 147.464 110.826 147.909 110.387C148.355 109.947 148.952 109.697 149.577 109.689L164.068 109.308C164.39 109.298 164.71 109.352 165.011 109.468C165.312 109.583 165.587 109.757 165.82 109.981C166.053 110.204 166.24 110.471 166.369 110.767C166.498 111.063 166.566 111.382 166.571 111.705C166.586 111.72 166.597 111.738 166.603 111.758C166.61 111.778 166.612 111.799 166.609 111.819Z" fill="#81C6ED"/>
<path d="M110.125 99.3397C113.959 99.3397 117.067 96.2225 117.067 92.3772C117.067 88.5319 113.959 85.4147 110.125 85.4147C106.291 85.4147 103.183 88.5319 103.183 92.3772C103.183 96.2225 106.291 99.3397 110.125 99.3397Z" fill="#0065AB"/>
<path d="M168.658 76.8922C174.021 76.8922 178.369 72.5315 178.369 67.1523C178.369 61.7731 174.021 57.4124 168.658 57.4124C163.294 57.4124 158.946 61.7731 158.946 67.1523C158.946 72.5315 163.294 76.8922 168.658 76.8922Z" fill="url(#paint8_linear_73_14307)"/>
<path d="M116.536 81.0774L116.915 93.1382C116.935 94.3225 116.488 95.4668 115.671 96.322C114.854 97.1772 113.733 97.6738 112.553 97.7038H111.528L112.439 84.2733C112.47 83.6306 112.709 83.0156 113.119 82.5213C113.53 82.027 114.09 81.6804 114.715 81.534L116.536 81.0774Z" fill="#0065AB"/>
<path d="M147.529 190.842C150.316 190.842 152.988 191.952 154.959 193.929C156.93 195.905 158.037 198.586 158.037 201.381H131.482C131.482 201.381 136.224 190.842 147.529 190.842Z" fill="#0065AB"/>
<path d="M191.532 190.842C188.745 190.842 186.073 191.952 184.102 193.929C182.131 195.905 181.024 198.586 181.024 201.381H203.861C203.823 201.381 202.799 190.842 191.532 190.842Z" fill="#0065AB"/>
<path d="M180.987 201.381H203.824" stroke="#4896D1" stroke-width="5.69" stroke-miterlimit="10"/>
<path d="M158.037 201.381H131.482" stroke="#4896D1" stroke-width="5.69" stroke-miterlimit="10"/>
<path d="M171.655 68.8264C172.807 68.8264 173.741 67.8895 173.741 66.7338C173.741 65.5781 172.807 64.6412 171.655 64.6412C170.502 64.6412 169.568 65.5781 169.568 66.7338C169.568 67.8895 170.502 68.8264 171.655 68.8264Z" fill="#FFFCC0"/>
<path d="M163.992 68.7884C165.144 68.7884 166.078 67.8515 166.078 66.6958C166.078 65.5401 165.144 64.6033 163.992 64.6033C162.839 64.6033 161.905 65.5401 161.905 66.6958C161.905 67.8515 162.839 68.7884 163.992 68.7884Z" fill="#FFFCC0"/>
<path d="M175.714 103.753L140.7 105.161L151.132 91.0837L184.742 89.5238L175.714 103.753Z" fill="url(#paint9_linear_73_14307)"/>
<path d="M163.081 113.569L154.546 124.717L151.132 120.38" stroke="#CEE6F7" stroke-width="4.25" stroke-linecap="round" stroke-linejoin="round"/>
<path d="M168.924 80.8111L178.256 76.8923C178.256 76.8923 179.773 81.0394 176.397 83.0178C172.3 85.4528 168.924 80.8111 168.924 80.8111Z" fill="white"/>
<path d="M151.132 91.0837L216.569 81.1915C218.662 80.8763 220.8 81.079 222.797 81.7819C224.793 82.4848 226.588 83.6666 228.026 85.2245L232.009 89.5237H249.762C251.551 89.5275 253.32 89.9011 254.958 90.6211C256.596 91.3412 258.069 92.3924 259.284 93.7089L268.502 103.715L198.171 103.487C197.564 97.6657 195.06 90.1325 195.06 90.1325L151.132 91.0837Z" fill="#0065AB"/>
<path d="M199.272 137.729C198.627 137.736 197.998 137.538 197.472 137.164C196.947 136.79 196.553 136.259 196.347 135.647C196.14 135.035 196.133 134.373 196.324 133.756C196.516 133.139 196.897 132.599 197.413 132.212C206.593 125.25 210.88 119.048 209.817 114.254C208.224 107.177 195.402 102.992 190.622 102.003C189.831 101.828 189.14 101.348 188.699 100.665C188.258 99.9831 188.104 99.1541 188.268 98.3581C188.433 97.5621 188.904 96.8633 189.579 96.4132C190.254 95.9631 191.079 95.798 191.874 95.9537C195.499 96.774 199.033 97.9594 202.42 99.492C210.121 102.992 214.597 107.52 215.811 112.884C217.48 120.304 212.549 128.446 201.13 137.12C200.592 137.518 199.94 137.732 199.272 137.729Z" fill="url(#paint10_linear_73_14307)"/>
<path d="M199.272 142.751C203.713 142.751 207.314 139.14 207.314 134.685C207.314 130.23 203.713 126.619 199.272 126.619C194.83 126.619 191.229 130.23 191.229 134.685C191.229 139.14 194.83 142.751 199.272 142.751Z" fill="#0065AB"/>
<defs>
<linearGradient id="paint0_linear_73_14307" x1="217.985" y1="46.044" x2="218.008" y2="225.491" gradientUnits="userSpaceOnUse">
<stop offset="0.02" stop-color="#81C6ED" stop-opacity="0"/>
<stop offset="0.51" stop-color="#81C6ED" stop-opacity="0.47"/>
<stop offset="0.57" stop-color="#81C6ED" stop-opacity="0.33"/>
<stop offset="0.63" stop-color="#81C6ED" stop-opacity="0.21"/>
<stop offset="0.7" stop-color="#81C6ED" stop-opacity="0.12"/>
<stop offset="0.77" stop-color="#81C6ED" stop-opacity="0.05"/>
<stop offset="0.85" stop-color="#81C6ED" stop-opacity="0.01"/>
<stop offset="0.97" stop-color="#81C6ED" stop-opacity="0"/>
</linearGradient>
<linearGradient id="paint1_linear_73_14307" x1="234.551" y1="95.7634" x2="234.551" y2="201.685" gradientUnits="userSpaceOnUse">
<stop stop-color="#81C6ED" stop-opacity="0"/>
<stop offset="0.41" stop-color="#81C6ED" stop-opacity="0.4"/>
<stop offset="0.52" stop-color="#81C6ED" stop-opacity="0.4"/>
<stop offset="1" stop-color="#81C6ED" stop-opacity="0"/>
</linearGradient>
<linearGradient id="paint2_linear_73_14307" x1="152.528" y1="198.337" x2="152.528" y2="148.078" gradientUnits="userSpaceOnUse">
<stop offset="0.28" stop-color="#22B9A5"/>
<stop offset="0.84" stop-color="#02958A"/>
</linearGradient>
<linearGradient id="paint3_linear_73_14307" x1="5710.63" y1="-67017.2" x2="5710.63" y2="-72689.4" gradientUnits="userSpaceOnUse">
<stop offset="0.28" stop-color="#22B9A5"/>
<stop offset="0.84" stop-color="#02958A"/>
</linearGradient>
<linearGradient id="paint4_linear_73_14307" x1="156.197" y1="63.7743" x2="195.964" y2="80.6791" gradientUnits="userSpaceOnUse">
<stop offset="0.05" stop-color="#CEE6F7"/>
<stop offset="0.17" stop-color="#C7E3F6"/>
<stop offset="0.34" stop-color="#B5DCF4"/>
<stop offset="0.54" stop-color="#97CFF0"/>
<stop offset="0.66" stop-color="#81C6ED"/>
</linearGradient>
<linearGradient id="paint5_linear_73_14307" x1="130.872" y1="82.3857" x2="132.909" y2="99.1467" gradientUnits="userSpaceOnUse">
<stop offset="0.28" stop-color="#22B9A5"/>
<stop offset="0.55" stop-color="#1FB6A3"/>
<stop offset="0.79" stop-color="#02958A"/>
</linearGradient>
<linearGradient id="paint6_linear_73_14307" x1="158.153" y1="84.9565" x2="166.153" y2="150.769" gradientUnits="userSpaceOnUse">
<stop offset="0.48" stop-color="#CEE6F7"/>
<stop offset="0.58" stop-color="#C7E3F6"/>
<stop offset="0.72" stop-color="#B5DCF4"/>
<stop offset="0.89" stop-color="#97CFF0"/>
<stop offset="1" stop-color="#81C6ED"/>
</linearGradient>
<linearGradient id="paint7_linear_73_14307" x1="171.325" y1="125.267" x2="203.128" y2="117.421" gradientUnits="userSpaceOnUse">
<stop stop-color="#4896D1"/>
<stop offset="1" stop-color="#81C6ED"/>
</linearGradient>
<linearGradient id="paint8_linear_73_14307" x1="4260.9" y1="-33912.8" x2="2498.61" y2="-33699.8" gradientUnits="userSpaceOnUse">
<stop offset="0.28" stop-color="#22B9A5"/>
<stop offset="0.84" stop-color="#02958A"/>
</linearGradient>
<linearGradient id="paint9_linear_73_14307" x1="174.36" y1="104.568" x2="152.934" y2="87.8232" gradientUnits="userSpaceOnUse">
<stop stop-color="#CEE6F7"/>
<stop offset="1" stop-color="#81C6ED"/>
</linearGradient>
<linearGradient id="paint10_linear_73_14307" x1="9555.15" y1="-55159.9" x2="7815.63" y2="-54730.8" gradientUnits="userSpaceOnUse">
<stop offset="0.28" stop-color="#22B9A5"/>
<stop offset="0.84" stop-color="#02958A"/>
</linearGradient>
</defs>
</svg>
