<?xml version="1.0" encoding="utf-8"?>
<!-- Generator: Adobe Illustrator 22.1.0, SVG Export Plug-In . SVG Version: 6.00 Build 0)  -->
<svg version="1.1" xmlns="http://www.w3.org/2000/svg" xmlns:xlink="http://www.w3.org/1999/xlink" x="0px" y="0px"
	 viewBox="0 0 400 400" style="enable-background:new 0 0 400 400;" xml:space="preserve">
<style type="text/css">
	.st0{fill:#0091DA;}
	.st1{fill:#00C1D5;}
	.st2{fill:#78BE20;}
	.st3{fill:#1A428A;}
</style>
<g id="Layer_2">
</g>
<g id="Layer_1">
	<g>
		<path class="st0" d="M259.3,351.4H139.9c-4.7,0-9.2-2.1-12.1-5.8l-75.5-94.7c-3-3.7-4.1-8.8-2.9-13.4l28.8-116
			c1.1-4.4,4-8.1,8.1-10.1L193,57.9c4.3-2.2,9.5-2.2,13.8,0l108,53.5c4.1,2.1,7.1,5.8,8.2,10.3l27.4,115.9c1.1,4.7,0,9.5-3,13.3
			l-76.2,94.7C268.4,349.3,264,351.4,259.3,351.4z M140.2,335.4h118.9l75.9-94.4l-27.3-115.4L200,72.3L93.7,125.6L65,241.1
			L140.2,335.4z"/>
		<g>
			<polygon class="st1" points="337,90.1 350.5,78.9 208,8.3 208,26.2 			"/>
			<polygon class="st2" points="24.2,255.9 6.8,259.8 106.3,384.6 114.1,368.7 			"/>
			<polygon class="st1" points="192,26.3 192,8.4 51.3,78.9 64.4,90.2 			"/>
			<polygon class="st3" points="54.9,103.2 41.3,91.5 3.4,244.2 20.8,240.3 			"/>
			<polygon class="st3" points="379.3,240.4 396.6,244.2 360.4,91.5 346.7,102.8 			"/>
			<polygon class="st2" points="375.6,255.9 284.8,368.9 292.6,384.8 393.1,259.8 			"/>
			<polygon class="st1" points="128.5,375.7 120.7,391.7 278.1,391.7 270.3,375.7 			"/>
		</g>
	</g>
</g>
<g id="Layer_4">
</g>
<g id="Layer_3">
</g>
</svg>
