<svg width="296" height="220" viewBox="0 0 296 220" fill="none" xmlns="http://www.w3.org/2000/svg">
<path opacity="0.4" d="M296 0L159.134 137H0L136.344 0.522142L296 0Z" fill="url(#paint0_linear_868_44200)"/>
<path opacity="0.6" d="M295 54L128.945 220H49L214.658 54.3893L295 54Z" fill="url(#paint1_linear_868_44200)"/>
<path fill-rule="evenodd" clip-rule="evenodd" d="M220.333 57.6666H210.333V67.6666H220.333V57.6666ZM210.333 76H220.333V86H210.333V76ZM210.333 94.3333H220.333V104.333H210.333V94.3333ZM192 94.3333H202V104.333H192V94.3333ZM202 76H192V86H202V76ZM192 57.6666H202V67.6666H192V57.6666ZM183.667 94.3333H173.667V104.333H183.667V94.3333ZM173.667 76H183.667V86H173.667V76ZM183.667 57.6666H173.667V67.6666H183.667V57.6666Z" fill="#00C1D5"/>
<path fill-rule="evenodd" clip-rule="evenodd" d="M173.667 138.667H220.333C222.174 138.667 223.667 140.159 223.667 142V182C223.667 183.841 222.174 185.333 220.333 185.333H173.667C171.826 185.333 170.333 183.841 170.333 182V142C170.333 140.159 171.826 138.667 173.667 138.667ZM220.333 142H173.667V149H220.333V142ZM173.667 182V151.667H220.333V182H173.667ZM192 143.667H188.667V147H192V143.667ZM182 143.667H185.333V147H182V143.667ZM178.667 143.667H175.333V147H178.667V143.667Z" fill="#00C1D5"/>
<path d="M124.216 165.017C123.291 165.019 122.369 164.919 121.466 164.717C121.993 165.854 122.395 167.044 122.666 168.267C123.166 168.267 123.683 168.267 124.216 168.267C125.916 168.264 127.604 167.988 129.216 167.45L127.666 164.433C126.549 164.785 125.388 164.981 124.216 165.017Z" fill="#00C1D5"/>
<path d="M115.6 161.783L115 161.15C113.699 159.878 112.695 158.333 112.061 156.627C111.427 154.922 111.179 153.097 111.333 151.283C111.503 148.855 112.397 146.532 113.9 144.617L113.766 147C113.765 147.417 113.92 147.82 114.2 148.128C114.481 148.437 114.868 148.629 115.283 148.667H115.433C115.85 148.668 116.253 148.513 116.562 148.233C116.87 147.952 117.062 147.566 117.1 147.15L117.666 140.333C117.686 140.092 117.654 139.849 117.57 139.622C117.487 139.394 117.355 139.188 117.183 139.017C117.001 138.869 116.789 138.761 116.562 138.701C116.335 138.641 116.098 138.629 115.866 138.667L109.05 139.25C108.608 139.288 108.199 139.499 107.913 139.838C107.627 140.177 107.487 140.616 107.525 141.058C107.562 141.5 107.774 141.909 108.113 142.195C108.452 142.481 108.891 142.621 109.333 142.583L111.483 142.4C109.459 144.933 108.265 148.03 108.066 151.267C107.894 153.485 108.203 155.714 108.971 157.802C109.739 159.891 110.948 161.789 112.516 163.367L113.033 163.983C115.163 166.184 116.388 169.105 116.466 172.167C116.555 173.553 116.409 174.945 116.033 176.283L119.033 177.8C119.679 175.921 119.934 173.931 119.783 171.95C119.681 168.163 118.192 164.546 115.6 161.783Z" fill="#00C1D5"/>
<path d="M139 161.85L136.983 162C138.823 159.618 139.958 156.768 140.259 153.773C140.56 150.778 140.014 147.759 138.684 145.059C137.354 142.359 135.293 140.087 132.735 138.5C130.178 136.913 127.226 136.076 124.216 136.083C122.516 136.08 120.827 136.356 119.216 136.9L120.733 139.9C122.636 139.361 124.638 139.271 126.581 139.637C128.525 140.003 130.357 140.814 131.933 142.008C133.51 143.202 134.788 144.745 135.667 146.516C136.546 148.288 137.002 150.239 137 152.217C136.999 155.074 136.03 157.848 134.25 160.083L134.416 157.517C134.431 157.298 134.402 157.078 134.331 156.871C134.26 156.663 134.15 156.471 134.005 156.306C133.86 156.142 133.684 156.007 133.488 155.91C133.291 155.813 133.077 155.756 132.858 155.742C132.639 155.727 132.42 155.756 132.212 155.827C132.004 155.898 131.813 156.008 131.648 156.153C131.483 156.298 131.348 156.474 131.251 156.67C131.155 156.867 131.097 157.081 131.083 157.3L130.616 164.1C130.603 164.341 130.643 164.582 130.732 164.807C130.821 165.031 130.958 165.234 131.133 165.4C131.283 165.552 131.462 165.672 131.66 165.752C131.858 165.832 132.07 165.871 132.283 165.867H132.45L139.25 165.167C139.469 165.146 139.682 165.082 139.876 164.978C140.071 164.874 140.243 164.733 140.382 164.563C140.522 164.392 140.626 164.196 140.689 163.985C140.752 163.774 140.773 163.552 140.75 163.333C140.704 162.909 140.496 162.519 140.171 162.243C139.845 161.967 139.426 161.826 139 161.85Z" fill="#00C1D5"/>
<path d="M91.7831 166.067H91.9165L98.7331 165.483C98.952 165.465 99.1651 165.403 99.3602 165.302C99.5553 165.201 99.7285 165.063 99.8702 164.895C100.012 164.727 100.119 164.533 100.185 164.324C100.252 164.114 100.277 163.894 100.258 163.675C100.24 163.456 100.178 163.243 100.077 163.048C99.9761 162.853 99.8377 162.68 99.6698 162.538C99.5019 162.396 99.3077 162.289 99.0984 162.223C98.8891 162.156 98.6687 162.131 98.4498 162.15L96.1331 162.35C98.3153 160.74 100.955 159.87 103.666 159.867C104.58 159.872 105.49 159.973 106.383 160.167C105.86 159.03 105.463 157.84 105.2 156.617C104.7 156.617 104.183 156.617 103.666 156.617C100.111 156.611 96.6529 157.783 93.8331 159.95L94.0331 157.767C94.0514 157.548 94.0261 157.327 93.9588 157.118C93.8915 156.909 93.7835 156.715 93.641 156.548C93.4984 156.38 93.3242 156.243 93.1284 156.143C92.9326 156.043 92.7189 155.983 92.4998 155.967C92.0601 155.93 91.6237 156.069 91.2863 156.353C90.9489 156.637 90.738 157.044 90.6998 157.483L90.1165 164.283C90.098 164.513 90.1275 164.744 90.2029 164.962C90.2784 165.18 90.3982 165.38 90.5549 165.549C90.7115 165.718 90.9015 165.853 91.113 165.945C91.3244 166.037 91.5526 166.084 91.7831 166.083V166.067Z" fill="#00C1D5"/>
<path d="M115.7 179.05L108.883 179.5C108.441 179.529 108.029 179.732 107.736 180.065C107.444 180.398 107.296 180.833 107.325 181.275C107.354 181.717 107.557 182.13 107.89 182.422C108.222 182.714 108.658 182.862 109.1 182.833L111.666 182.65C109.779 184.167 107.501 185.12 105.096 185.399C102.69 185.677 100.255 185.271 98.0703 184.225C95.8858 183.18 94.0412 181.539 92.749 179.491C91.4567 177.443 90.7695 175.072 90.7665 172.65C90.7785 171.522 90.941 170.401 91.2498 169.317L88.3331 167.767C87.8168 169.355 87.5525 171.014 87.5498 172.683C87.5694 175.702 88.4335 178.654 90.0445 181.207C91.6555 183.759 93.9489 185.81 96.6651 187.127C99.3813 188.443 102.412 188.973 105.414 188.656C108.415 188.339 111.268 187.188 113.65 185.333L113.45 187.3C113.427 187.518 113.447 187.738 113.509 187.948C113.571 188.158 113.674 188.354 113.811 188.524C113.949 188.694 114.119 188.836 114.312 188.94C114.504 189.045 114.715 189.11 114.933 189.133H115.116C115.531 189.135 115.932 188.983 116.24 188.705C116.548 188.428 116.742 188.046 116.783 187.633L117.483 180.867C117.508 180.626 117.48 180.382 117.401 180.153C117.322 179.924 117.194 179.714 117.025 179.54C116.857 179.365 116.653 179.23 116.427 179.142C116.201 179.055 115.958 179.017 115.716 179.033L115.7 179.05Z" fill="#00C1D5"/>
<path fill-rule="evenodd" clip-rule="evenodd" d="M93.9998 64.6502V97.6668C94.4665 98.7002 99.2165 100.433 107.333 101V104.333C99.6498 103.8 90.6665 102.05 90.6665 97.6668V64.5335C90.6665 59.2835 104.283 57.8668 112.333 57.8668C120.383 57.8668 134 59.2168 134 64.5335V77.6835H127.65C128.74 77.3918 129.764 76.8939 130.667 76.2168V67.7668C126.817 69.8335 119.3 70.8002 112.15 70.8002C107.161 70.8698 102.182 70.3099 97.3332 69.1335V66.7335C102.176 67.9438 107.159 68.4987 112.15 68.3835C123.033 68.3835 129.3 66.2835 130.667 64.9668V64.4668C130.117 63.3835 123.483 61.1335 112.333 61.1335C101.183 61.1335 94.5665 63.3835 93.9998 64.6502ZM97.3332 80.3002C100.774 81.1553 104.291 81.6689 107.833 81.8335C108.185 80.977 108.707 80.2004 109.367 79.5502C105.304 79.4707 101.265 78.9112 97.3332 77.8835V80.3002ZM114 81.0002H137.333C139.174 81.0002 140.667 82.4925 140.667 84.3335V104.333C140.667 106.174 139.174 107.667 137.333 107.667H114C112.159 107.667 110.667 106.174 110.667 104.333V84.3335C110.667 82.4925 112.159 81.0002 114 81.0002ZM114 84.3335V104.333H137.333V84.3335H114ZM97.3332 91.4668C100.611 92.2838 103.96 92.7806 107.333 92.9501V90.6168C103.955 90.4523 100.603 89.9328 97.3332 89.0668V91.4668ZM117.833 88.3335C117.833 87.6892 118.356 87.1668 119 87.1668C119.644 87.1668 120.167 87.6892 120.167 88.3335V100.817C120.167 101.461 119.644 101.983 119 101.983C118.356 101.983 117.833 101.461 117.833 100.817V88.3335ZM125.667 87.3668C125.022 87.3668 124.5 87.8892 124.5 88.5335V101C124.5 101.644 125.022 102.167 125.667 102.167C126.311 102.167 126.833 101.644 126.833 101V88.5335C126.833 87.8892 126.311 87.3668 125.667 87.3668ZM131.167 88.3335C131.167 87.6892 131.689 87.1668 132.333 87.1668C132.978 87.1668 133.5 87.6892 133.5 88.3335V100.817C133.5 101.461 132.978 101.983 132.333 101.983C131.689 101.983 131.167 101.461 131.167 100.817V88.3335Z" fill="#00C1D5"/>
<defs>
<linearGradient id="paint0_linear_868_44200" x1="148.004" y1="0" x2="148.004" y2="137" gradientUnits="userSpaceOnUse">
<stop offset="0.05" stop-color="#00C1D5" stop-opacity="0"/>
<stop offset="0.08" stop-color="#00C1D5" stop-opacity="0.05"/>
<stop offset="0.22" stop-color="#00C1D5" stop-opacity="0.25"/>
<stop offset="0.35" stop-color="#00C1D5" stop-opacity="0.38"/>
<stop offset="0.46" stop-color="#00C1D5" stop-opacity="0.47"/>
<stop offset="0.54" stop-color="#00C1D5" stop-opacity="0.5"/>
<stop offset="0.61" stop-color="#00C1D5" stop-opacity="0.47"/>
<stop offset="0.71" stop-color="#00C1D5" stop-opacity="0.39"/>
<stop offset="0.83" stop-color="#00C1D5" stop-opacity="0.25"/>
<stop offset="0.96" stop-color="#00C1D5" stop-opacity="0.06"/>
<stop offset="1" stop-color="#00C1D5" stop-opacity="0"/>
</linearGradient>
<linearGradient id="paint1_linear_868_44200" x1="172" y1="54" x2="172" y2="220" gradientUnits="userSpaceOnUse">
<stop stop-color="#1A428A"/>
<stop offset="1" stop-color="#1F488F" stop-opacity="0"/>
</linearGradient>
</defs>
</svg>
