<svg width="296" height="198" viewBox="0 0 296 198" fill="none" xmlns="http://www.w3.org/2000/svg">
<path opacity="0.4" d="M296 0L159.134 137H0L136.344 0.522142L296 0Z" fill="url(#paint0_linear_867_44141)"/>
<path opacity="0.6" d="M295 32L128.945 198H49L214.658 32.3893L295 32Z" fill="url(#paint1_linear_867_44141)"/>
<path d="M215.099 128.025L209.91 114.383C209.238 112.6 210.679 110.816 212.553 111.057L227.063 113.226L215.099 128.025Z" fill="#78BE20"/>
<path d="M221.922 91.2931L209.958 99.3433C208.42 100.404 206.306 99.3433 206.114 97.4633L205.009 83.002L221.922 91.2931Z" fill="#1BC1D5"/>
<path d="M197.994 114.383L192.804 128.025L181.033 113.082L195.399 111.057C197.225 110.816 198.714 112.648 197.994 114.383Z" fill="#78BE20"/>
<path d="M194.15 106.767L180.648 110.961L185.069 93.0769L195.159 102.67C196.504 103.971 195.928 106.237 194.15 106.767Z" fill="#1D428A"/>
<path d="M227.543 111.057L213.801 106.911C211.975 106.381 211.447 104.019 212.84 102.717L223.267 92.98L227.543 111.057Z" fill="#1D428A"/>
<path d="M202.895 83.0984L201.645 97.2705C201.453 99.1505 199.387 100.163 197.802 99.1023L186.366 91.2932L202.895 83.0984Z" fill="#1BC1D5"/>
<path d="M194.775 128.941L201.886 116.552C202.847 114.913 205.201 114.913 206.114 116.552L213.225 128.941H194.775Z" fill="#1BC1D5"/>
<path d="M204 75C186.318 75 172 89.365 172 107.104C172 124.844 186.318 139.208 204 139.208C221.682 139.208 236 124.844 236 107.104C236 89.365 221.682 75 204 75ZM204.096 134.966C188.673 134.966 176.18 122.433 176.18 106.96C176.18 91.486 188.673 78.9528 204.096 78.9528C219.52 78.9528 232.012 91.486 232.012 106.96C232.012 122.433 219.52 134.966 204.096 134.966Z" fill="#717074"/>
<path fill-rule="evenodd" clip-rule="evenodd" d="M138.997 28C121.329 28 107 42.6893 107 60.8108C107 75.3068 116.168 87.6033 128.884 91.9419C130.485 92.244 131.069 91.2309 131.069 90.3607C131.069 89.5833 131.041 87.5187 131.025 84.7815C122.124 86.7634 120.246 80.3825 120.246 80.3825C118.791 76.5919 116.693 75.5828 116.693 75.5828C113.787 73.5485 116.913 73.5887 116.913 73.5887C120.125 73.8204 121.814 76.9705 121.814 76.9705C124.668 81.9838 129.304 80.5356 131.127 79.6957C131.418 77.5768 132.245 76.1306 133.159 75.3109C126.053 74.483 118.582 71.6672 118.582 59.0948C118.582 55.5136 119.83 52.583 121.877 50.2908C121.547 49.461 120.449 46.1235 122.191 41.6077C122.191 41.6077 124.877 40.7255 130.99 44.9714C133.542 44.2423 136.28 43.8797 139.001 43.8656C141.72 43.8797 144.456 44.2423 147.012 44.9714C153.121 40.7255 155.803 41.6077 155.803 41.6077C157.549 46.1235 156.451 49.461 156.123 50.2908C158.174 52.583 159.412 55.5136 159.412 59.0948C159.412 71.6994 151.929 74.473 144.802 75.2847C145.949 76.2978 146.973 78.2999 146.973 81.3614C146.973 85.7463 146.933 89.2852 146.933 90.3607C146.933 91.2389 147.511 92.2601 149.134 91.9398C161.84 87.5912 171 75.3028 171 60.8108C171 42.6893 156.671 28 138.997 28Z" fill="#00C1D5"/>
<defs>
<linearGradient id="paint0_linear_867_44141" x1="148.004" y1="0" x2="148.004" y2="137" gradientUnits="userSpaceOnUse">
<stop offset="0.05" stop-color="#00C1D5" stop-opacity="0"/>
<stop offset="0.08" stop-color="#00C1D5" stop-opacity="0.05"/>
<stop offset="0.22" stop-color="#00C1D5" stop-opacity="0.25"/>
<stop offset="0.35" stop-color="#00C1D5" stop-opacity="0.38"/>
<stop offset="0.46" stop-color="#00C1D5" stop-opacity="0.47"/>
<stop offset="0.54" stop-color="#00C1D5" stop-opacity="0.5"/>
<stop offset="0.61" stop-color="#00C1D5" stop-opacity="0.47"/>
<stop offset="0.71" stop-color="#00C1D5" stop-opacity="0.39"/>
<stop offset="0.83" stop-color="#00C1D5" stop-opacity="0.25"/>
<stop offset="0.96" stop-color="#00C1D5" stop-opacity="0.06"/>
<stop offset="1" stop-color="#00C1D5" stop-opacity="0"/>
</linearGradient>
<linearGradient id="paint1_linear_867_44141" x1="172" y1="32" x2="172" y2="198" gradientUnits="userSpaceOnUse">
<stop stop-color="#1A428A"/>
<stop offset="1" stop-color="#1F488F" stop-opacity="0"/>
</linearGradient>
</defs>
</svg>
