<svg width="309" height="79" viewBox="0 0 309 79" fill="none" xmlns="http://www.w3.org/2000/svg">
<path d="M49.8005 61.123L44.2385 46.501C43.5175 44.5893 45.0625 42.6776 47.071 42.9359L62.624 45.2609L49.8005 61.123Z" fill="#78BE20"/>
<path d="M57.1135 21.7521L44.29 30.3806C42.642 31.5173 40.376 30.3806 40.17 28.3656L38.9855 12.8653L57.1135 21.7521Z" fill="#1BC1D5"/>
<path d="M31.4665 46.501L25.9045 61.123L13.287 45.106L28.6855 42.9359C30.6425 42.6776 32.239 44.6409 31.4665 46.501Z" fill="#78BE20"/>
<path d="M27.3465 38.3375L12.875 42.8326L17.613 23.6638L28.428 33.9457C29.87 35.3407 29.252 37.7691 27.3465 38.3375Z" fill="#1D428A"/>
<path d="M63.139 42.9359L48.41 38.4925C46.453 37.9241 45.8865 35.3924 47.38 33.9974L58.5555 23.5605L63.139 42.9359Z" fill="#1D428A"/>
<path d="M36.7195 12.9686L35.3805 28.1589C35.1745 30.174 32.96 31.259 31.2605 30.1223L19.0035 21.7521L36.7195 12.9686Z" fill="#1BC1D5"/>
<path d="M28.016 62.1046L35.638 48.826C36.668 47.0693 39.1915 47.0693 40.17 48.826L47.792 62.1046H28.016Z" fill="#1BC1D5"/>
<path d="M37.904 4.28843C18.952 4.28843 3.60498 19.6854 3.60498 38.6992C3.60498 57.7129 18.952 73.1099 37.904 73.1099C56.856 73.1099 72.203 57.7129 72.203 38.6992C72.203 19.6854 56.856 4.28843 37.904 4.28843ZM38.007 68.5631C21.4755 68.5631 8.08548 55.1295 8.08548 38.5441C8.08548 21.9588 21.4755 8.52518 38.007 8.52518C54.5385 8.52518 67.9285 21.9588 67.9285 38.5441C67.9285 55.1295 54.5385 68.5631 38.007 68.5631Z" fill="#717074"/>
<path d="M112.373 14.7253L103.721 34.8757H100.425L91.7729 14.7253H95.069L102.124 31.104L109.077 14.7253C109.128 14.7253 112.373 14.7253 112.373 14.7253Z" fill="white"/>
<path d="M115.514 14.7253H118.45L125.505 27.8489L132.561 14.7253H135.496V34.8757H132.561V20.5121L125.505 33.6357L118.45 20.5121V34.8241H115.514V14.7253Z" fill="white"/>
<path d="M138.947 19.6854H141.882L145.281 30.949L149.041 19.6854H151.461L155.221 30.949L158.723 19.6854H161.658L156.56 34.8241H153.933L150.328 23.5605L146.723 34.8241H144.097L138.947 19.6854Z" fill="white"/>
<path d="M174.894 21.0804C176.027 22.2171 176.542 23.7155 176.542 25.6789V34.8241H173.709V32.809C173.143 33.584 172.473 34.1524 171.546 34.5657C170.619 34.9791 169.641 35.1857 168.714 35.1857C167.117 35.1857 165.778 34.7724 164.748 33.8424C163.718 32.9124 163.152 31.8273 163.152 30.329C163.152 29.3473 163.409 28.5206 163.976 27.6939C164.542 26.9189 165.212 26.2989 166.139 25.8855C167.066 25.4722 168.096 25.2655 169.229 25.2655C170.671 25.2655 172.164 25.5239 173.761 26.0922V25.6272C173.761 24.4905 173.503 23.6122 172.834 22.8371C172.216 22.0621 171.237 21.7005 169.847 21.7005C168.662 21.7005 167.272 22.1138 165.572 22.9405L164.439 20.7704C166.448 19.7371 168.353 19.2204 170.156 19.2204C172.267 19.3237 173.812 19.9438 174.894 21.0804ZM172.061 32.189C172.885 31.724 173.452 31.0007 173.658 30.0706V28.0556C172.422 27.6422 171.031 27.4872 169.538 27.4872C168.508 27.4872 167.632 27.7456 166.911 28.2623C166.19 28.8306 165.778 29.4506 165.778 30.2773C165.778 31.0523 166.139 31.724 166.757 32.189C167.375 32.654 168.199 32.9124 169.177 32.9124C170.31 32.964 171.237 32.654 172.061 32.189Z" fill="white"/>
<path d="M186.481 20.2538C187.46 19.6338 188.644 19.3237 189.88 19.3237V21.8555C188.747 21.8555 187.769 22.0621 186.945 22.4755C186.121 22.8888 185.4 23.4572 184.936 24.2322C184.473 25.0072 184.215 25.8339 184.215 26.8156V34.8757H181.28V19.6854H184.215V22.6305C184.782 21.6488 185.503 20.8738 186.481 20.2538Z" fill="white"/>
<path d="M201.674 32.344C202.498 31.9823 203.219 31.569 203.631 31.104L205.279 32.9124C204.661 33.6357 203.734 34.1524 202.549 34.5657C201.365 34.9791 200.232 35.1857 199.15 35.1857C197.76 35.1857 196.524 34.8241 195.236 34.1524C194.052 33.429 193.073 32.5507 192.404 31.3107C191.683 30.1223 191.374 28.7273 191.374 27.2806C191.374 25.8339 191.734 24.4905 192.404 23.2505C193.125 22.0621 194 21.0804 195.185 20.4604C196.369 19.7371 197.605 19.4271 198.996 19.4271C200.541 19.4271 201.828 19.7888 202.91 20.5638C204.043 21.2871 204.867 22.3205 205.433 23.6638C206 25.0072 206.257 26.5056 206.257 28.3656H194.206C194.412 29.7606 194.927 30.794 195.803 31.724C196.73 32.5507 197.811 32.964 199.15 32.964C199.974 32.809 200.85 32.654 201.674 32.344ZM195.957 22.9405C195.03 23.7155 194.515 24.7489 194.309 26.0922H203.579C203.425 24.8522 202.961 23.7672 202.189 22.9922C201.416 22.2171 200.386 21.8038 199.099 21.8038C197.914 21.7521 196.833 22.1138 195.957 22.9405Z" fill="white"/>
<path d="M223.149 17.5154H216.506V14.777H232.625V17.5154H226.085V34.8757H223.149V17.5154Z" fill="white"/>
<path d="M245.707 21.0804C246.84 22.2171 247.354 23.7155 247.354 25.6789V34.8241H244.522V32.809C243.955 33.584 243.286 34.1524 242.359 34.5657C241.432 34.9791 240.453 35.1857 239.526 35.1857C237.93 35.1857 236.591 34.7724 235.561 33.8424C234.531 32.9124 233.964 31.8273 233.964 30.329C233.964 29.3473 234.222 28.5206 234.788 27.6939C235.355 26.9189 236.024 26.2989 236.951 25.8855C237.878 25.4722 238.908 25.2655 240.041 25.2655C241.483 25.2655 242.977 25.5239 244.573 26.0922V25.6272C244.573 24.4905 244.316 23.6122 243.646 22.8371C242.977 22.0621 242.05 21.7005 240.659 21.7005C239.475 21.7005 238.084 22.1138 236.385 22.9405L235.252 20.7704C237.26 19.7371 239.166 19.2204 240.968 19.2204C243.08 19.3237 244.573 19.9438 245.707 21.0804ZM242.925 32.189C243.75 31.724 244.316 31.0007 244.522 30.0706V28.0556C243.286 27.6422 241.895 27.4872 240.402 27.4872C239.372 27.4872 238.496 27.7456 237.775 28.2623C237.054 28.8306 236.642 29.4506 236.642 30.2773C236.642 31.0523 237.003 31.724 237.621 32.189C238.239 32.654 239.063 32.9124 240.041 32.9124C241.123 32.964 242.101 32.654 242.925 32.189Z" fill="white"/>
<path d="M262.444 20.0988C263.268 20.5638 263.989 21.2871 264.452 22.2171C264.916 23.1472 265.173 24.1288 265.173 25.3172V34.8757H262.392V25.6789C262.392 24.5422 262.032 23.6638 261.414 22.8888C260.796 22.1655 259.972 21.8555 258.89 21.8555C258.118 21.8555 257.448 22.0105 256.779 22.3205C256.109 22.6305 255.594 23.0955 255.234 23.6638C254.873 24.2322 254.667 24.8005 254.667 25.4722V34.8241H251.732V19.6854H254.667V21.9071C255.079 21.1321 255.8 20.5121 256.624 19.9954C257.448 19.5304 258.427 19.2721 259.457 19.2721C260.641 19.3237 261.62 19.5821 262.444 20.0988Z" fill="white"/>
<path d="M268.418 32.654L276.915 22.3205H268.624V19.7371H280.726V21.9071L272.229 32.2407H280.778V34.8241H268.366V32.654H268.418Z" fill="white"/>
<path d="M297.206 19.6854V34.8757H294.271V32.7057C293.807 33.4807 293.138 34.1007 292.262 34.5141C291.438 34.9791 290.46 35.2374 289.43 35.2374C288.297 35.2374 287.318 35.0307 286.494 34.5141C285.67 33.9974 284.949 33.3257 284.486 32.3957C284.022 31.4657 283.765 30.484 283.765 29.2956V19.6854H286.597V28.8306C286.597 29.9673 286.958 30.8457 287.576 31.6207C288.194 32.344 289.018 32.654 290.099 32.654C290.872 32.654 291.541 32.499 292.211 32.189C292.829 31.8273 293.344 31.414 293.756 30.8457C294.116 30.2773 294.322 29.709 294.322 29.0373V19.6854H297.206Z" fill="white"/>
<path d="M97.9015 62.3113C96.8715 61.6913 96.0989 60.9163 95.4809 59.8829C94.8629 58.8496 94.554 57.7129 94.554 56.5245C94.554 55.3362 94.8114 54.1995 95.4809 53.2178C96.0989 52.1844 96.8715 51.4094 97.9015 50.7894C98.9315 50.1694 100.013 49.8594 101.197 49.8594C102.124 49.8594 102.948 50.0661 103.772 50.4277C104.596 50.7894 105.317 51.2544 105.935 51.8744L104.596 53.1145C104.184 52.6495 103.618 52.2878 103.051 51.9778C102.433 51.7194 101.867 51.5644 101.146 51.5644C100.322 51.5644 99.5495 51.7711 98.777 52.2878C98.056 52.7011 97.438 53.3211 97.0259 54.0961C96.6139 54.8712 96.408 55.6462 96.408 56.5245C96.408 57.4029 96.6139 58.1779 97.0259 58.9529C97.438 59.7279 98.0045 60.2963 98.777 60.7613C99.5495 61.2263 100.322 61.4846 101.146 61.4846C101.764 61.4846 102.382 61.3296 103.051 61.0713C103.721 60.813 104.184 60.4513 104.596 59.9346L105.935 61.1746C105.317 61.7946 104.596 62.3113 103.772 62.6213C102.948 62.983 102.124 63.1897 101.197 63.1897C100.064 63.2413 98.9315 62.9313 97.9015 62.3113Z" fill="white"/>
<path d="M110.107 62.518C109.334 62.053 108.716 61.4846 108.201 60.6063C107.738 59.8313 107.48 59.0046 107.48 58.0746C107.48 57.1445 107.686 56.3179 108.201 55.5428C108.665 54.7678 109.334 54.1478 110.107 53.7345C110.879 53.2695 111.703 53.0111 112.63 53.0111C113.557 53.0111 114.381 53.2178 115.154 53.7345C115.926 54.1995 116.544 54.7678 117.059 55.5428C117.523 56.3179 117.78 57.1445 117.78 58.0746C117.78 59.0046 117.574 59.8313 117.059 60.6063C116.544 61.3813 115.926 62.0013 115.154 62.518C114.381 62.983 113.557 63.2413 112.63 63.2413C111.703 63.2413 110.879 63.0347 110.107 62.518ZM114.227 61.123C114.69 60.8646 115.154 60.3479 115.411 59.8829C115.669 59.3146 115.823 58.7462 115.823 58.1262C115.823 57.5062 115.669 56.9379 115.411 56.3695C115.154 55.8012 114.69 55.3878 114.227 55.1295C113.763 54.8712 113.197 54.6645 112.63 54.6645C112.064 54.6645 111.497 54.8195 111.034 55.1295C110.57 55.3878 110.107 55.8528 109.849 56.3695C109.592 56.9379 109.437 57.5062 109.437 58.1262C109.437 58.7462 109.592 59.3146 109.849 59.8829C110.107 60.4513 110.57 60.8646 111.034 61.123C111.497 61.3813 112.064 61.588 112.63 61.588C113.248 61.6396 113.712 61.4846 114.227 61.123Z" fill="white"/>
<path d="M132.509 53.5795C133.076 53.9411 133.488 54.3545 133.745 54.9228C134.003 55.4912 134.157 56.1112 134.157 56.8862V63.0347H132.355V57.1445C132.355 56.4212 132.149 55.8012 131.788 55.3878C131.376 54.9745 130.861 54.6645 130.346 54.6645C129.625 54.6645 129.11 54.8712 128.595 55.2845C128.183 55.6978 127.874 56.2662 127.874 56.8862V63.0347H126.072V57.1445C126.072 56.4212 125.866 55.8012 125.505 55.3878C125.145 54.9745 124.681 54.6645 124.063 54.6645C123.342 54.6645 122.827 54.8712 122.312 55.2845C121.9 55.6978 121.591 56.2662 121.591 56.8862V63.0347H119.686V53.3211H121.591V54.7162C121.849 54.2512 122.209 53.7861 122.724 53.5278C123.188 53.2695 123.754 53.1145 124.372 53.1145C125.145 53.1145 125.763 53.3211 126.381 53.7345C126.947 54.1478 127.359 54.7162 127.617 55.3878C127.771 54.6645 128.08 54.1478 128.647 53.7345C129.213 53.3211 129.831 53.1145 130.604 53.1145C131.428 53.1145 131.994 53.2178 132.509 53.5795Z" fill="white"/>
<path d="M149.813 53.5795C150.38 53.9411 150.792 54.3545 151.049 54.9228C151.307 55.4912 151.461 56.1112 151.461 56.8862V63.0347H149.659V57.1445C149.659 56.4212 149.453 55.8012 149.092 55.3878C148.68 54.9745 148.165 54.6645 147.65 54.6645C146.929 54.6645 146.414 54.8712 145.899 55.2845C145.487 55.6978 145.178 56.2662 145.178 56.8862V63.0347H143.376V57.1445C143.376 56.4212 143.17 55.8012 142.809 55.3878C142.449 54.9745 141.985 54.6645 141.367 54.6645C140.646 54.6645 140.131 54.8712 139.616 55.2845C139.204 55.6978 138.895 56.2662 138.895 56.8862V63.0347H136.99V53.3211H138.895V54.7162C139.153 54.2512 139.513 53.7861 140.028 53.5278C140.492 53.2695 141.058 53.1145 141.676 53.1145C142.449 53.1145 143.067 53.3211 143.685 53.7345C144.251 54.1478 144.663 54.7162 144.921 55.3878C145.075 54.6645 145.384 54.1478 145.951 53.7345C146.517 53.3211 147.135 53.1145 147.908 53.1145C148.68 53.1145 149.35 53.2178 149.813 53.5795Z" fill="white"/>
<path d="M162.843 53.3211V63.0347H160.937V61.6396C160.68 62.1047 160.216 62.5697 159.701 62.828C159.135 63.0863 158.517 63.2413 157.899 63.2413C157.178 63.2413 156.56 63.0863 155.993 62.7763C155.427 62.518 155.015 62.0013 154.757 61.433C154.5 60.8646 154.294 60.2446 154.294 59.4696V53.3211H156.096V59.2113C156.096 59.9346 156.302 60.5546 156.714 60.968C157.126 61.433 157.693 61.6913 158.311 61.6913C158.774 61.6913 159.238 61.6396 159.65 61.433C160.062 61.2263 160.371 60.968 160.628 60.6063C160.834 60.2446 160.989 59.8829 160.989 59.4696V53.4761L162.843 53.3211Z" fill="white"/>
<path d="M172.886 53.5795C173.452 53.8378 173.864 54.3545 174.122 54.9228C174.379 55.4912 174.585 56.1112 174.585 56.8862V63.0347H172.783V57.1445C172.783 56.4212 172.576 55.8012 172.164 55.3878C171.752 54.9228 171.186 54.6645 170.568 54.6645C170.105 54.6645 169.641 54.7162 169.229 54.9228C168.817 55.1295 168.457 55.3878 168.251 55.7495C168.045 56.1112 167.89 56.4729 167.89 56.8862V62.8797H165.984V53.2178H167.89V54.6128C168.148 54.1478 168.611 53.6828 169.126 53.4245C169.693 53.1661 170.311 52.9595 170.929 52.9595C171.753 53.1145 172.319 53.2178 172.886 53.5795Z" fill="white"/>
<path d="M177.829 51.3578C177.623 51.1511 177.469 50.8927 177.469 50.5827C177.469 50.3244 177.623 50.0144 177.829 49.8077C178.035 49.6011 178.293 49.446 178.602 49.446C178.859 49.446 179.168 49.6011 179.374 49.8077C179.58 50.0144 179.735 50.2727 179.735 50.5827C179.735 50.8411 179.58 51.1511 179.374 51.3578C179.168 51.5644 178.911 51.7194 178.602 51.7194C178.241 51.6678 178.035 51.5644 177.829 51.3578ZM177.675 53.3211H179.581V63.0347H177.675V53.3211Z" fill="white"/>
<path d="M187.82 62.518C187.563 62.7247 187.254 62.8797 186.893 62.983C186.533 63.138 186.172 63.1897 185.863 63.1897C185.091 63.1897 184.524 62.9313 184.061 62.4146C183.597 61.9496 183.34 61.278 183.34 60.5029V54.7678H181.898V53.2178H183.34V50.5827H185.142V53.2178H187.46V54.8195H185.142V60.4513C185.142 60.8129 185.194 61.0713 185.4 61.278C185.606 61.4846 185.812 61.6396 186.121 61.6396C186.327 61.6396 186.533 61.6396 186.687 61.588C186.842 61.5363 186.945 61.433 187.099 61.3296L187.82 62.518Z" fill="white"/>
<path d="M189.314 65.9797L189.726 64.5847C190.086 64.7914 190.499 64.843 190.911 64.843C191.168 64.843 191.477 64.7914 191.683 64.688C191.889 64.533 192.095 64.4297 192.249 64.1197L192.713 63.0863L188.542 53.3211H190.498L193.64 60.968L196.576 53.2695H198.533L194.258 63.8097C193.898 64.6364 193.485 65.2564 193.022 65.7214C192.558 66.1347 191.889 66.3414 191.219 66.3414C190.447 66.3931 189.829 66.2381 189.314 65.9797Z" fill="white"/>
<path d="M208.06 51.9261V55.6462H214.909V57.4029H208.06V61.3296H215.579V63.0863H206.103V50.1694H215.579V51.9261H208.06Z" fill="white"/>
<path d="M227.372 49.8594V63.0347H225.467V61.3813C225.055 61.9496 224.54 62.4147 224.025 62.7763C223.458 63.138 222.789 63.2413 222.068 63.2413C221.244 63.2413 220.471 63.0347 219.75 62.6213C219.029 62.208 218.566 61.588 218.154 60.813C217.742 60.0379 217.587 59.1596 217.587 58.1779C217.587 57.1962 217.793 56.3695 218.154 55.5945C218.566 54.8195 219.081 54.1995 219.75 53.7861C220.471 53.3728 221.192 53.1661 222.068 53.1661C222.789 53.1661 223.458 53.3211 224.025 53.6311C224.591 53.9928 225.055 54.4062 225.467 55.0262V50.0144L227.372 49.8594ZM224.128 61.2263C224.591 60.968 224.952 60.5029 225.158 59.9863C225.415 59.4179 225.57 58.8496 225.57 58.1779C225.57 57.5579 225.415 56.9379 225.158 56.3695C224.9 55.8012 224.54 55.4395 224.128 55.1295C223.664 54.8712 223.149 54.7162 222.583 54.7162C222.016 54.7162 221.45 54.8712 221.038 55.1295C220.574 55.3878 220.214 55.8528 220.008 56.3695C219.802 56.9379 219.596 57.5062 219.596 58.1779C219.596 58.7979 219.75 59.4179 220.008 59.9863C220.265 60.5546 220.626 60.968 221.038 61.2263C221.501 61.4846 222.016 61.6396 222.583 61.6396C223.149 61.6396 223.613 61.4846 224.128 61.2263Z" fill="white"/>
<path d="M230.72 51.3578C230.514 51.1511 230.359 50.8927 230.359 50.5827C230.359 50.3244 230.514 50.0144 230.72 49.8077C230.926 49.6011 231.183 49.446 231.492 49.446C231.801 49.446 232.059 49.6011 232.265 49.8077C232.471 50.0144 232.625 50.2727 232.625 50.5827C232.625 50.8411 232.471 51.1511 232.265 51.3578C232.059 51.5644 231.801 51.7194 231.492 51.7194C231.183 51.7194 230.926 51.5644 230.72 51.3578ZM230.566 53.3211H232.471V63.0347H230.566V53.3211Z" fill="white"/>
<path d="M240.762 62.518C240.505 62.7247 240.196 62.8797 239.835 62.983C239.475 63.138 239.114 63.1897 238.805 63.1897C238.033 63.1897 237.466 62.9313 237.003 62.4146C236.539 61.9496 236.282 61.278 236.282 60.5029V54.7678H234.84V53.2178H236.282V50.5827H238.084V53.2178H240.402V54.8195H238.084V60.4513C238.084 60.8129 238.136 61.0713 238.342 61.278C238.548 61.4846 238.754 61.6396 239.063 61.6396C239.269 61.6396 239.475 61.6396 239.629 61.588C239.784 61.5363 239.887 61.433 240.041 61.3296L240.762 62.518Z" fill="white"/>
<path d="M242.977 51.3578C242.771 51.1511 242.616 50.8927 242.616 50.5827C242.616 50.3244 242.771 50.0144 242.977 49.8077C243.183 49.6011 243.44 49.446 243.749 49.446C244.058 49.446 244.316 49.6011 244.522 49.8077C244.728 50.0144 244.882 50.2727 244.882 50.5827C244.882 50.8411 244.728 51.1511 244.522 51.3578C244.316 51.5644 244.058 51.7194 243.749 51.7194C243.44 51.7194 243.183 51.5644 242.977 51.3578ZM242.874 53.3211H244.779V63.0347H242.874V53.3211Z" fill="white"/>
<path d="M249.672 62.518C248.899 62.053 248.281 61.4846 247.766 60.6063C247.303 59.8313 247.045 59.0046 247.045 58.0746C247.045 57.1445 247.251 56.3179 247.766 55.5428C248.23 54.7678 248.899 54.1478 249.672 53.7345C250.444 53.2695 251.268 53.0111 252.195 53.0111C253.122 53.0111 253.946 53.2178 254.719 53.7345C255.491 54.1995 256.109 54.7678 256.624 55.5428C257.088 56.3179 257.345 57.1445 257.345 58.0746C257.345 59.0046 257.139 59.8313 256.624 60.6063C256.161 61.3813 255.491 62.0013 254.719 62.518C253.946 63.0347 253.122 63.2413 252.195 63.2413C251.268 63.2413 250.444 63.0347 249.672 62.518ZM253.843 61.123C254.307 60.8646 254.77 60.3479 255.028 59.8829C255.285 59.3146 255.44 58.7462 255.44 58.1262C255.44 57.5062 255.285 56.9379 255.028 56.3695C254.77 55.8012 254.307 55.3878 253.843 55.1295C253.38 54.8712 252.813 54.6645 252.247 54.6645C251.68 54.6645 251.114 54.8195 250.65 55.1295C250.187 55.3878 249.723 55.8528 249.466 56.3695C249.208 56.9379 249.054 57.5062 249.054 58.1262C249.054 58.7462 249.208 59.3146 249.466 59.8829C249.723 60.4513 250.187 60.8646 250.65 61.123C251.114 61.3813 251.68 61.588 252.247 61.588C252.813 61.6396 253.328 61.4846 253.843 61.123Z" fill="white"/>
<path d="M266.564 53.5795C267.13 53.8378 267.542 54.3545 267.8 54.9228C268.057 55.4912 268.263 56.1112 268.263 56.8862V63.0347H266.461V57.1445C266.461 56.4212 266.255 55.8012 265.843 55.3878C265.431 54.9228 264.864 54.6645 264.246 54.6645C263.783 54.6645 263.319 54.7162 262.907 54.9228C262.495 55.1295 262.135 55.3878 261.929 55.7495C261.723 56.1112 261.568 56.4729 261.568 56.8862V62.8797H259.663V53.2178H261.568V54.6128C261.826 54.1478 262.289 53.6828 262.804 53.4245C263.371 53.1661 263.989 52.9595 264.607 52.9595C265.379 53.1145 265.997 53.2178 266.564 53.5795Z" fill="white"/>
<path d="M299.936 20.0988H298.906V19.7371H301.326V20.0988H300.296V22.8372H299.936V20.0988Z" fill="white"/>
<path d="M301.944 19.7371H302.305L303.438 21.9071L304.571 19.7371H304.931V22.8372H304.571V20.5121L303.438 22.6821L302.305 20.5121V22.8372H301.944V19.7371Z" fill="white"/>
</svg>
