<svg width="369" height="172" fill="none" xmlns="http://www.w3.org/2000/svg"><path opacity=".4" d="M296 35 159.134 172H0L136.344 35.522 296 35Z" fill="url(#a)"/><path opacity=".6" d="M369 0 202.945 166H123L288.658.39 369 0Z" fill="url(#b)"/><path d="M255.026 44.116s8.496 7.094 26.988 6.994m-16.719-10.094s-6.44.327-10.269 2.417m30.408-12.941a19.859 19.859 0 0 1-1.346 19.017 19.917 19.917 0 0 1-7.21 6.708 19.961 19.961 0 0 1-9.55 2.439h-.5m20.42 4.546a26.877 26.877 0 0 1-14.498-14.856 26.82 26.82 0 0 1 .426-20.734m-1.83 9.683a26.973 26.973 0 0 1 12.933 3.088 26.914 26.914 0 0 1 9.876 8.89m-8.178 7.18a37.128 37.128 0 0 1 1.334 6.13m-54.178 59.962c4.644 0 8.409-3.757 8.409-8.392s-3.765-8.393-8.409-8.393c-4.645 0-8.41 3.758-8.41 8.393 0 4.635 3.765 8.392 8.41 8.392Zm0 0v17.373m-30.493-25.665h25.561m-25.561 0a4.815 4.815 0 0 1-4.82 4.81 4.815 4.815 0 0 1-4.82-4.81 4.815 4.815 0 0 1 4.82-4.81 4.815 4.815 0 0 1 4.82 4.81Zm30.196-88.476v33.404m5.4 15.133 19.602 19.561m11.841 5.042c0 3.857-3.134 6.985-6.999 6.985-3.866 0-7-3.128-7-6.985 0-3.858 3.134-6.986 7-6.986 3.865 0 6.999 3.128 6.999 6.986Zm24.904-51.428c0 10.978-8.918 19.878-19.918 19.878s-19.918-8.9-19.918-19.878 8.918-19.877 19.918-19.877 19.918 8.9 19.918 19.877Zm-7.529-16.621a1.49 1.49 0 0 1-1.492 1.489 1.49 1.49 0 0 1-1.492-1.49c0-.822.668-1.489 1.492-1.489a1.49 1.49 0 0 1 1.492 1.49Zm-2.809 20.174c0 .757-.616 1.372-1.375 1.372a1.374 1.374 0 0 1-1.375-1.372c0-.758.616-1.372 1.375-1.372s1.375.614 1.375 1.372Zm-15.886 7.545c0 .845-.687 1.53-1.533 1.53a1.531 1.531 0 0 1-1.533-1.53c0-.844.686-1.53 1.533-1.53.846 0 1.533.686 1.533 1.53Zm3.636-21.273c0 .809-.657 1.464-1.468 1.464-.81 0-1.467-.655-1.467-1.464 0-.81.657-1.465 1.467-1.465.811 0 1.468.656 1.468 1.465ZM295.92 49.78c0 .82-.666 1.484-1.487 1.484a1.486 1.486 0 0 1-1.487-1.484c0-.82.666-1.483 1.487-1.483.821 0 1.487.664 1.487 1.483Zm-39.441-5.972a1.828 1.828 0 0 1-1.83 1.826 1.828 1.828 0 0 1-1.83-1.826c0-1.009.819-1.827 1.83-1.827 1.011 0 1.83.818 1.83 1.827Zm10.003-2.793c0 .654-.531 1.184-1.187 1.184a1.185 1.185 0 1 1 0-2.368c.656 0 1.187.53 1.187 1.184Zm20.682 15.437a1.186 1.186 0 0 1-2.374 0c0-.654.532-1.184 1.187-1.184s1.187.53 1.187 1.184Zm1.41 6.604c0 .838-.68 1.517-1.52 1.517a1.518 1.518 0 0 1-1.519-1.517c0-.837.68-1.516 1.519-1.516.84 0 1.52.679 1.52 1.516Zm-47.247 4.718c0 4.68-3.802 8.474-8.491 8.474-4.69 0-8.492-3.794-8.492-8.474s3.802-8.474 8.492-8.474c4.689 0 8.491 3.794 8.491 8.474Zm-3.374 46.478a4.815 4.815 0 0 1-4.82 4.81 4.815 4.815 0 0 1-4.82-4.81 4.815 4.815 0 0 1 4.82-4.81 4.815 4.815 0 0 1 4.82 4.81Zm.283-93.863a5.395 5.395 0 0 1-5.4 5.39 5.395 5.395 0 0 1-5.401-5.39 5.395 5.395 0 0 1 5.401-5.39c2.982 0 5.4 2.413 5.4 5.39Zm.246 125.272a5.344 5.344 0 0 1-5.349 5.338 5.344 5.344 0 0 1-5.349-5.338 5.344 5.344 0 0 1 5.349-5.338 5.344 5.344 0 0 1 5.349 5.338Zm-24.58-103.334c0 .728-.591 1.317-1.32 1.317-.729 0-1.32-.59-1.32-1.317 0-.728.591-1.318 1.32-1.318.729 0 1.32.59 1.32 1.318ZM310 63.817c0 .727-.591 1.317-1.32 1.317a1.319 1.319 0 1 1 0-2.635c.729 0 1.32.59 1.32 1.318Zm-94.777 30.276c0 .727-.591 1.317-1.321 1.317a1.319 1.319 0 1 1 0-2.635c.73 0 1.321.59 1.321 1.318Zm-8.767 51.778c0 .728-.591 1.318-1.32 1.318a1.32 1.32 0 0 1-1.321-1.318c0-.727.591-1.317 1.321-1.317.729 0 1.32.59 1.32 1.317Z" stroke="#00C1D5" stroke-width="3" stroke-linecap="round" stroke-linejoin="round"/><path d="M196.931 84.631 179.1 107l-1.463-3.056 16.013-20.063 3.281.75Zm-53.569 19.313L127.35 83.881l-3.3.75L141.9 107l1.462-3.056Z" fill="#65A11B"/><path d="m123 79.981 6.375-27.9 2.644 2.1-5.719 25.032-3.3.768Zm75 0-6.375-27.9-2.644 2.1 5.719 25.032 3.3.768Z" fill="#1D428A"/><path d="M173.344 106.006h-25.688l-1.462 3.057h28.612l-1.462-3.057ZM186 50.469 162.881 39.33v-3.394l25.781 12.413L186 50.469Zm-27.881-14.532L132.337 48.35 135 50.469l23.119-11.138v-3.394Z" fill="#00A1B3"/><path d="M173.212 100.194h-25.425l-15.844-19.876 5.663-24.787L160.5 44.525l22.893 11.025 5.663 24.787-15.844 19.857Zm-23.981-3h22.519l14.043-17.607-5.006-21.956-20.287-9.788-20.288 9.788-5.025 21.956 14.044 17.606Z" fill="#0091DA"/><defs><linearGradient id="a" x1="148.004" y1="35" x2="148.004" y2="172" gradientUnits="userSpaceOnUse"><stop offset=".05" stop-color="#00C1D5" stop-opacity="0"/><stop offset=".08" stop-color="#00C1D5" stop-opacity=".05"/><stop offset=".22" stop-color="#00C1D5" stop-opacity=".25"/><stop offset=".35" stop-color="#00C1D5" stop-opacity=".38"/><stop offset=".46" stop-color="#00C1D5" stop-opacity=".47"/><stop offset=".54" stop-color="#00C1D5" stop-opacity=".5"/><stop offset=".61" stop-color="#00C1D5" stop-opacity=".47"/><stop offset=".71" stop-color="#00C1D5" stop-opacity=".39"/><stop offset=".83" stop-color="#00C1D5" stop-opacity=".25"/><stop offset=".96" stop-color="#00C1D5" stop-opacity=".06"/><stop offset="1" stop-color="#00C1D5" stop-opacity="0"/></linearGradient><linearGradient id="b" x1="246" y1="0" x2="246" y2="166" gradientUnits="userSpaceOnUse"><stop stop-color="#1A428A"/><stop offset="1" stop-color="#1F488F" stop-opacity="0"/></linearGradient></defs></svg>