<svg width="367" height="197" viewBox="0 0 367 197" fill="none" xmlns="http://www.w3.org/2000/svg">
<path opacity="0.15" fill-rule="evenodd" clip-rule="evenodd" d="M42 114H156L270 0H156L42 114Z" fill="url(#paint0_linear_603_26714)"/>
<path opacity="0.15" fill-rule="evenodd" clip-rule="evenodd" d="M0 197H114L228 83H114L0 197Z" fill="url(#paint1_linear_603_26714)"/>
<path opacity="0.15" fill-rule="evenodd" clip-rule="evenodd" d="M139 161H253L367 47H253L139 161Z" fill="url(#paint2_linear_603_26714)"/>
<g opacity="0.5">
<path fill-rule="evenodd" clip-rule="evenodd" d="M177.167 94.3611H205.833V113.472H208.222V93.7638C208.222 92.7743 207.42 91.9722 206.43 91.9722H176.569C175.58 91.9722 174.778 92.7743 174.778 93.7638V113.472H177.167V94.3611ZM171.194 119.922V115.861H211.734V119.922C211.734 121.637 210.343 123.028 208.628 123.028H174.3C172.585 123.028 171.194 121.637 171.194 119.922ZM208.7 120.639C209.096 120.639 209.417 120.318 209.417 119.922V117.689H197.52C197.215 118.409 196.51 118.878 195.728 118.883H187.212C186.43 118.878 185.725 118.409 185.42 117.689H173.535V119.922C173.535 120.318 173.856 120.639 174.252 120.639H208.7ZM181.467 98.6611V113.329H179.555V96.7499H201.032L199.144 98.6611H181.467Z" fill="#ADBBC4"/>
</g>
<path fill-rule="evenodd" clip-rule="evenodd" d="M287.847 81.0038C287.458 81.0235 287.077 81.1207 286.726 81.2895L271.43 88.6509C270.628 89.0367 270.045 89.7663 269.847 90.6332L266.074 107.169C265.897 107.939 266.041 108.747 266.471 109.409C266.522 109.489 266.578 109.567 266.637 109.642L277.225 122.901C277.78 123.596 278.621 124 279.512 124L296.491 123.996C297.38 123.997 298.222 123.593 298.777 122.899L309.361 109.638C309.917 108.942 310.125 108.032 309.927 107.165L306.147 90.6292C305.949 89.7623 305.366 89.0328 304.564 88.647L289.266 81.2895C288.824 81.0771 288.337 80.9789 287.847 81.0038Z" stroke="#BB6BD9" stroke-opacity="0.78" stroke-width="2" stroke-linecap="square" stroke-linejoin="round"/>
<path fill-rule="evenodd" clip-rule="evenodd" d="M296.667 94.3335H293.167V97.8335H296.667V94.3335ZM293.167 100.75H296.667V104.25H293.167V100.75ZM293.167 107.167H296.667V110.667H293.167V107.167ZM286.75 107.167H290.25V110.667H286.75V107.167ZM290.25 100.75H286.75V104.25H290.25V100.75ZM286.75 94.3335H290.25V97.8335H286.75V94.3335ZM283.833 107.167H280.333V110.667H283.833V107.167ZM280.333 100.75H283.833V104.25H280.333V100.75ZM283.833 94.3335H280.333V97.8335H283.833V94.3335Z" fill="#BB6BD9"/>
<line opacity="0.5" x1="214" y1="102" x2="258" y2="102" stroke="#ADBBC4" stroke-width="2" stroke-linecap="round" stroke-dasharray="0.1 4.1"/>
<path opacity="0.5" d="M213.495 54.2717C208.523 47.516 200.665 43.4905 192.278 43.4028H192.017C178.601 43.4183 167.269 53.3654 165.515 66.6667L165.217 70.0539H159.56C153.386 70.044 147.542 73.5704 145.11 79.2447C142.678 84.919 143.868 91.497 148.132 95.9606" stroke="#ADBBC4" stroke-width="2" stroke-linecap="round" stroke-dasharray="0.1 4.1"/>
<path opacity="0.5" d="M194.734 28.8117C189.914 24.483 183.681 22.0611 177.203 22H176.942C163.609 22.1057 152.387 32.0099 150.626 45.2267L150.031 48.465H144.373C135.865 48.5264 129 55.441 129 63.9494C129.011 67.2209 130.067 70.4034 132.015 73.0317" stroke="#ADBBC4" stroke-width="2" stroke-linecap="round" stroke-dasharray="0.1 4.1"/>
<defs>
<linearGradient id="paint0_linear_603_26714" x1="156" y1="0" x2="42" y2="114" gradientUnits="userSpaceOnUse">
<stop offset="0.223958" stop-color="#00C1D5"/>
<stop offset="1" stop-color="#00C1D5" stop-opacity="0"/>
</linearGradient>
<linearGradient id="paint1_linear_603_26714" x1="114" y1="83" x2="0" y2="197" gradientUnits="userSpaceOnUse">
<stop offset="0.223958" stop-color="#0091DA"/>
<stop offset="1" stop-color="#0091DA" stop-opacity="0"/>
</linearGradient>
<linearGradient id="paint2_linear_603_26714" x1="139" y1="161" x2="229.996" y2="30.9093" gradientUnits="userSpaceOnUse">
<stop stop-color="#1A428A" stop-opacity="0"/>
<stop offset="0.9987" stop-color="#1A428A"/>
</linearGradient>
</defs>
</svg>
