<svg width="296" height="198" fill="none" xmlns="http://www.w3.org/2000/svg"><path opacity=".4" d="M296 0 159.134 137H0L136.344.522 296 0Z" fill="url(#a)"/><path opacity=".6" d="M295 32 128.945 198H49L214.658 32.39 295 32Z" fill="url(#b)"/><path fill-rule="evenodd" clip-rule="evenodd" d="M172 67h-48v32h-4V66a3 3 0 0 1 3-3h50a3 3 0 0 1 3 3v33h-4V67Zm-58 36v6.8a5.2 5.2 0 0 0 5.2 5.2h57.48a5.2 5.2 0 0 0 5.2-5.2V103H114Zm64 6.8a1.2 1.2 0 0 1-1.2 1.2h-57.68a1.2 1.2 0 0 1-1.2-1.2v-3.74h19.9a3.28 3.28 0 0 0 3 2h14.26a3.28 3.28 0 0 0 3-2H178v3.74Z" fill="#ADBBC4" opacity=".5"/><path clip-rule="evenodd" d="M147.93 74.602a1.349 1.349 0 0 0-.513.129l-7.009 3.328a1.324 1.324 0 0 0-.725.896l-1.729 7.476a1.304 1.304 0 0 0 .258 1.118l4.851 5.994c.254.314.64.497 1.048.497l7.779-.002c.408 0 .794-.182 1.048-.496l4.849-5.995c.255-.314.35-.726.259-1.118l-1.731-7.476a1.325 1.325 0 0 0-.726-.896l-7.009-3.326a1.356 1.356 0 0 0-.65-.13Z" stroke="#AD48F1" stroke-width="2"/><defs><linearGradient id="a" x1="148.004" y1="0" x2="148.004" y2="137" gradientUnits="userSpaceOnUse"><stop offset=".05" stop-color="#00C1D5" stop-opacity="0"/><stop offset=".08" stop-color="#00C1D5" stop-opacity=".05"/><stop offset=".22" stop-color="#00C1D5" stop-opacity=".25"/><stop offset=".35" stop-color="#00C1D5" stop-opacity=".38"/><stop offset=".46" stop-color="#00C1D5" stop-opacity=".47"/><stop offset=".54" stop-color="#00C1D5" stop-opacity=".5"/><stop offset=".61" stop-color="#00C1D5" stop-opacity=".47"/><stop offset=".71" stop-color="#00C1D5" stop-opacity=".39"/><stop offset=".83" stop-color="#00C1D5" stop-opacity=".25"/><stop offset=".96" stop-color="#00C1D5" stop-opacity=".06"/><stop offset="1" stop-color="#00C1D5" stop-opacity="0"/></linearGradient><linearGradient id="b" x1="172" y1="32" x2="172" y2="198" gradientUnits="userSpaceOnUse"><stop stop-color="#1A428A"/><stop offset="1" stop-color="#1F488F" stop-opacity="0"/></linearGradient></defs></svg>