<svg width="48" height="48" viewBox="0 0 48 48" fill="none" xmlns="http://www.w3.org/2000/svg">
<path d="M39.8307 0H26.8853L24.9653 1.92H39.8307C41.4875 1.92187 43.076 2.58089 44.2476 3.75246C45.4192 4.92404 46.0782 6.5125 46.0801 8.16936V39.8306C46.0782 41.4875 45.4192 43.076 44.2476 44.2475C43.076 45.4191 41.4875 46.0781 39.8307 46.08H27.2807L25.3607 48H39.8307C41.9966 47.9975 44.0731 47.136 45.6046 45.6045C47.1361 44.073 47.9976 41.9965 48.0001 39.8306V8.16936C47.9976 6.00347 47.1361 3.927 45.6046 2.39549C44.0731 0.863971 41.9966 0.0024773 39.8307 0V0Z" fill="#78BE20"/>
<path d="M23.0324 46.08H8.16936C6.5125 46.0781 4.92404 45.4191 3.75247 44.2475C2.58089 43.076 1.92187 41.4875 1.92 39.8306V8.16936C1.92187 6.5125 2.58089 4.92404 3.75247 3.75246C4.92404 2.58089 6.5125 1.92187 8.16936 1.92H20.7172L22.6372 0H8.16936C6.00347 0.0024773 3.927 0.863971 2.39549 2.39549C0.863971 3.927 0.0024773 6.00347 0 8.16936L0 39.8306C0.0024773 41.9965 0.863971 44.073 2.39549 45.6045C3.927 47.136 6.00347 47.9975 8.16936 48H21.1124L23.0324 46.08Z" fill="#00C1D5"/>
<path d="M38.4916 42.3173H17.7059C16.7057 42.3162 15.7467 41.9184 15.0394 41.2111C14.332 40.5038 13.9342 39.5448 13.933 38.5445V17.2408C13.9341 16.2405 14.332 15.2815 15.0393 14.5742C15.7466 13.8668 16.7056 13.469 17.7059 13.4679H38.4916C39.4919 13.469 40.4509 13.8669 41.1582 14.5742C41.8655 15.2815 42.2633 16.2405 42.2644 17.2408V38.544C42.2634 39.5444 41.8656 40.5035 41.1583 41.2108C40.451 41.9182 39.492 42.3162 38.4916 42.3173ZM17.7059 15.3879C17.2147 15.3884 16.7437 15.5838 16.3964 15.9312C16.049 16.2786 15.8536 16.7495 15.853 17.2408V38.544C15.8536 39.0353 16.049 39.5062 16.3964 39.8536C16.7437 40.2009 17.2147 40.3963 17.7059 40.3968H38.4916C38.9828 40.3962 39.4536 40.2008 39.8009 39.8534C40.1482 39.5061 40.3435 39.0352 40.3441 38.544V17.2408C40.3435 16.7496 40.1481 16.2786 39.8008 15.9312C39.4535 15.5838 38.9825 15.3884 38.4913 15.3879H17.7059ZM12.074 32.5491H9.39414C8.90288 32.5485 8.43191 32.3531 8.08456 32.0057C7.73721 31.6583 7.54185 31.1873 7.54134 30.696V9.39243C7.54188 8.9012 7.73726 8.43025 8.08461 8.0829C8.43196 7.73555 8.90291 7.54017 9.39414 7.53963H30.1801C30.6713 7.54017 31.1422 7.73555 31.4896 8.0829C31.8369 8.43025 32.0323 8.9012 32.0329 9.39243V11.5589H33.9529V9.39243C33.9517 8.39217 33.5539 7.43321 32.8466 6.72592C32.1393 6.01863 31.1803 5.62077 30.1801 5.61963H9.39414C8.39388 5.62077 7.43492 6.01863 6.72763 6.72592C6.02034 7.43321 5.62248 8.39217 5.62134 9.39243V30.696C5.62245 31.6963 6.02029 32.6553 6.72759 33.3626C7.43488 34.0699 8.39386 34.4678 9.39414 34.469H12.074V32.5491Z" fill="#0091DA"/>
</svg>
