<svg width="338" height="197" fill="none" xmlns="http://www.w3.org/2000/svg"><path opacity=".15" fill-rule="evenodd" clip-rule="evenodd" d="M110 159h114L338 45H224L110 159Z" fill="url(#a)"/><path opacity=".15" fill-rule="evenodd" clip-rule="evenodd" d="M27 197h114L255 83H141L27 197Z" fill="url(#b)"/><path opacity=".15" fill-rule="evenodd" clip-rule="evenodd" d="M0 114h114L228 0H114L0 114Z" fill="url(#c)"/><path clip-rule="evenodd" d="M240.847 40.004c-.389.02-.77.117-1.121.285l-15.296 7.362a2.923 2.923 0 0 0-1.583 1.982l-3.773 16.536a2.915 2.915 0 0 0 .563 2.473L230.225 81.9a2.925 2.925 0 0 0 2.287 1.1l16.979-.004c.889 0 1.731-.403 2.286-1.097l10.584-13.261a2.919 2.919 0 0 0 .566-2.473l-3.78-16.536a2.923 2.923 0 0 0-1.583-1.982l-15.298-7.358a2.93 2.93 0 0 0-1.419-.285ZM240.847 95.004c-.389.02-.77.117-1.121.285l-15.296 7.362a2.922 2.922 0 0 0-1.583 1.982l-3.773 16.536a2.914 2.914 0 0 0 .563 2.473l10.588 13.259a2.925 2.925 0 0 0 2.287 1.099l16.979-.004a2.924 2.924 0 0 0 2.286-1.097l10.584-13.261a2.92 2.92 0 0 0 .566-2.473l-3.78-16.536a2.922 2.922 0 0 0-1.583-1.982l-15.298-7.358a2.93 2.93 0 0 0-1.419-.285ZM240.847 150.004c-.389.02-.77.117-1.121.285l-15.296 7.362a2.922 2.922 0 0 0-1.583 1.982l-3.773 16.536a2.914 2.914 0 0 0 .563 2.473l10.588 13.259a2.925 2.925 0 0 0 2.287 1.099l16.979-.004a2.924 2.924 0 0 0 2.286-1.097l10.584-13.261a2.92 2.92 0 0 0 .566-2.473l-3.78-16.536a2.922 2.922 0 0 0-1.583-1.982l-15.298-7.358a2.933 2.933 0 0 0-1.419-.285Z" stroke="#60B515" stroke-width="2" stroke-linecap="square" stroke-linejoin="round"/><path opacity=".5" d="M178.816 95.86s-.293-13.338 6.206-19.838c6.5-6.5 21.838-8.206 21.838-8.206M178.816 136.184s-.293 13.339 6.206 19.838c6.5 6.5 21.838 8.207 21.838 8.207M184 115h29" stroke="#ADBBC4" stroke-width="2" stroke-linecap="round" stroke-dasharray="0.1 4.1"/><path fill-rule="evenodd" clip-rule="evenodd" d="M249.667 108.333h-3.5v3.5h3.5v-3.5Zm-3.5 6.417h3.5v3.5h-3.5v-3.5Zm0 6.417h3.5v3.5h-3.5v-3.5Zm-6.417 0h3.5v3.5h-3.5v-3.5Zm3.5-6.417h-3.5v3.5h3.5v-3.5Zm-3.5-6.417h3.5v3.5h-3.5v-3.5Zm-2.917 12.834h-3.5v3.5h3.5v-3.5Zm-3.5-6.417h3.5v3.5h-3.5v-3.5Zm3.5-6.417h-3.5v3.5h3.5v-3.5ZM233.333 163.333h16.334c.644 0 1.166.523 1.166 1.167v14c0 .644-.522 1.167-1.166 1.167h-16.334a1.167 1.167 0 0 1-1.166-1.167v-14c0-.644.522-1.167 1.166-1.167Zm16.334 1.167h-16.334v2.45h16.334v-2.45Zm-16.334 14v-10.617h16.334V178.5h-16.334Zm6.417-13.417h-1.167v1.167h1.167v-1.167Zm-3.5 0h1.167v1.167h-1.167v-1.167Zm-1.167 0h-1.166v1.167h1.166v-1.167ZM234.5 55.778v11.555c.163.362 1.826.969 4.667 1.167v1.167c-2.69-.187-5.834-.8-5.834-2.334V55.737c0-1.838 4.766-2.334 7.584-2.334 2.817 0 7.583.473 7.583 2.334v4.602h-2.223a3.09 3.09 0 0 0 1.056-.513v-2.958c-1.347.724-3.978 1.062-6.481 1.062a20.761 20.761 0 0 1-5.185-.583v-.84c1.695.423 3.439.617 5.185.577 3.81 0 6.003-.735 6.481-1.196v-.175c-.192-.379-2.514-1.166-6.416-1.166-3.903 0-6.219.787-6.417 1.23Zm1.167 5.477c1.204.3 2.435.479 3.675.537a2.4 2.4 0 0 1 .536-.8 18.042 18.042 0 0 1-4.211-.583v.846Zm5.833.245h8.167c.644 0 1.166.522 1.166 1.167v7c0 .644-.522 1.166-1.166 1.166H241.5a1.167 1.167 0 0 1-1.167-1.166v-7c0-.645.523-1.167 1.167-1.167Zm0 1.167v7h8.167v-7H241.5Zm-5.833 2.496c1.147.286 2.319.46 3.5.52v-.817a16.861 16.861 0 0 1-3.5-.543v.84Zm7.175-1.096a.408.408 0 1 1 .816 0v4.369a.408.408 0 0 1-.816 0v-4.37Zm2.741-.339a.408.408 0 0 0-.408.409V68.5a.408.408 0 0 0 .817 0v-4.363a.409.409 0 0 0-.409-.409Zm1.925.339a.409.409 0 0 1 .817 0v4.369a.408.408 0 0 1-.817 0v-4.37Z" fill="#60B515"/><g opacity=".5" stroke="#ADBBC4" stroke-width="2"><path clip-rule="evenodd" d="M129.841 77.004a3.11 3.11 0 0 0-1.172.292l-15.992 7.533a3.002 3.002 0 0 0-1.655 2.028l-3.945 16.92a2.938 2.938 0 0 0 .589 2.531l11.069 13.567a3.084 3.084 0 0 0 2.391 1.125l17.75-.004a3.083 3.083 0 0 0 2.391-1.123l11.065-13.569a2.94 2.94 0 0 0 .591-2.531l-3.951-16.92a3.002 3.002 0 0 0-1.655-2.028l-15.994-7.529a3.115 3.115 0 0 0-1.482-.292Z"/><path d="M164.523 97.194v-2.308c.231-17.48-12.767-32.314-30.125-34.382-17.358-2.068-33.477 9.298-37.359 26.342-12.314.649-21.91 10.921-21.72 23.251.191 12.33 10.099 22.301 22.427 22.569h61.491c8.941-.037 16.526-6.575 17.88-15.413 1.353-8.838-3.925-17.347-12.445-20.06h-.149Z"/><path d="M136.495 53.272a26.69 26.69 0 0 0-21.217-10.87h-.261c-13.416.016-24.748 9.963-26.502 23.265l-.298 3.387H82.56c-6.174-.01-12.018 3.516-14.45 9.19a15.41 15.41 0 0 0 3.022 16.717M117.734 27.812A26.613 26.613 0 0 0 100.203 21h-.26c-13.334.106-24.556 10.01-26.317 23.227l-.595 3.238h-5.658C58.865 47.526 52 54.441 52 62.949a15.336 15.336 0 0 0 3.015 9.083" stroke-linecap="round"/></g><defs><linearGradient id="a" x1="224" y1="45" x2="110" y2="159" gradientUnits="userSpaceOnUse"><stop offset=".224" stop-color="#00C1D5"/><stop offset="1" stop-color="#00C1D5" stop-opacity="0"/></linearGradient><linearGradient id="b" x1="141" y1="83" x2="27" y2="197" gradientUnits="userSpaceOnUse"><stop offset=".224" stop-color="#0091DA"/><stop offset="1" stop-color="#0091DA" stop-opacity="0"/></linearGradient><linearGradient id="c" x1="0" y1="114" x2="90.996" y2="-16.091" gradientUnits="userSpaceOnUse"><stop stop-color="#1A428A" stop-opacity="0"/><stop offset=".999" stop-color="#1A428A"/></linearGradient></defs></svg>