<svg width="338" height="197" viewBox="0 0 338 197" fill="none" xmlns="http://www.w3.org/2000/svg">
<path opacity="0.15" fill-rule="evenodd" clip-rule="evenodd" d="M110 159H224L338 45H224L110 159Z" fill="url(#paint0_linear_673_43789)"/>
<path opacity="0.15" fill-rule="evenodd" clip-rule="evenodd" d="M27 197H141L255 83H141L27 197Z" fill="url(#paint1_linear_673_43789)"/>
<path opacity="0.15" fill-rule="evenodd" clip-rule="evenodd" d="M0 114H114L228 0H114L0 114Z" fill="url(#paint2_linear_673_43789)"/>
<path fill-rule="evenodd" clip-rule="evenodd" d="M240.847 40.0038C240.458 40.0235 240.077 40.1207 239.726 40.2895L224.43 47.6509C223.628 48.0367 223.045 48.7663 222.847 49.6332L219.074 66.1688C218.897 66.9385 219.041 67.7466 219.471 68.4092C219.522 68.4893 219.578 68.5669 219.637 68.6417L230.225 81.9005C230.78 82.5955 231.621 83 232.512 83L249.491 82.9961C250.38 82.9967 251.222 82.5928 251.777 81.8985L262.361 68.6377C262.917 67.9424 263.125 67.0321 262.927 66.1649L259.147 49.6292C258.949 48.7623 258.366 48.0328 257.564 47.647L242.266 40.2895C241.824 40.0771 241.337 39.9789 240.847 40.0038Z" stroke="#ADBBC4" stroke-width="2" stroke-linecap="square" stroke-linejoin="round"/>
<path fill-rule="evenodd" clip-rule="evenodd" d="M240.847 95.0038C240.458 95.0235 240.077 95.1207 239.726 95.2895L224.43 102.651C223.628 103.037 223.045 103.766 222.847 104.633L219.074 121.169C218.897 121.939 219.041 122.747 219.471 123.409C219.522 123.489 219.578 123.567 219.637 123.642L230.225 136.901C230.78 137.596 231.621 138 232.512 138L249.491 137.996C250.38 137.997 251.222 137.593 251.777 136.899L262.361 123.638C262.917 122.942 263.125 122.032 262.927 121.165L259.147 104.629C258.949 103.762 258.366 103.033 257.564 102.647L242.266 95.2895C241.824 95.0771 241.337 94.9789 240.847 95.0038Z" stroke="#ADBBC4" stroke-width="2" stroke-linecap="square" stroke-linejoin="round"/>
<path fill-rule="evenodd" clip-rule="evenodd" d="M240.847 150.004C240.458 150.024 240.077 150.121 239.726 150.289L224.43 157.651C223.628 158.037 223.045 158.766 222.847 159.633L219.074 176.169C218.897 176.939 219.041 177.747 219.471 178.409C219.522 178.489 219.578 178.567 219.637 178.642L230.225 191.901C230.78 192.596 231.621 193 232.512 193L249.491 192.996C250.38 192.997 251.222 192.593 251.777 191.899L262.361 178.638C262.917 177.942 263.125 177.032 262.927 176.165L259.147 159.629C258.949 158.762 258.366 158.033 257.564 157.647L242.266 150.289C241.824 150.077 241.337 149.979 240.847 150.004Z" stroke="#ADBBC4" stroke-width="2" stroke-linecap="square" stroke-linejoin="round"/>
<path d="M177.816 95.8822C177.828 96.4344 178.285 96.8722 178.838 96.86C179.39 96.8479 179.827 96.3905 179.815 95.8383L177.816 95.8822ZM206.971 68.8095C207.52 68.7485 207.915 68.254 207.854 67.7051C207.793 67.1562 207.299 66.7607 206.75 66.8218L206.971 68.8095ZM178.816 95.8603C179.815 95.8383 179.815 95.8385 179.815 95.8387C179.815 95.8386 179.815 95.8387 179.815 95.8387C179.815 95.8386 179.815 95.8383 179.815 95.8378C179.815 95.8369 179.815 95.8351 179.815 95.8326C179.815 95.8275 179.815 95.8192 179.815 95.8078C179.815 95.7851 179.814 95.7501 179.814 95.7033C179.813 95.6097 179.813 95.4693 179.816 95.2869C179.82 94.922 179.834 94.3898 179.87 93.7293C179.942 92.407 180.105 90.5784 180.466 88.5542C181.195 84.4634 182.702 79.757 185.73 76.7294L184.315 75.3151C180.843 78.7873 179.246 83.9999 178.497 88.2032C178.119 90.326 177.949 92.2382 177.873 93.6199C177.835 94.3115 177.821 94.8721 177.816 95.262C177.813 95.4571 177.813 95.6095 177.814 95.7145C177.814 95.767 177.815 95.8077 177.815 95.8358C177.815 95.8499 177.815 95.8608 177.816 95.8686C177.816 95.8725 177.816 95.8756 177.816 95.8779C177.816 95.879 177.816 95.8799 177.816 95.8807C177.816 95.881 177.816 95.8814 177.816 95.8816C177.816 95.8819 177.816 95.8822 178.816 95.8603ZM185.73 76.7294C188.779 73.6798 194.011 71.6811 198.636 70.4478C200.923 69.838 203.012 69.4276 204.53 69.1698C205.288 69.041 205.902 68.9505 206.325 68.8924C206.536 68.8634 206.699 68.8424 206.809 68.8289C206.864 68.8221 206.905 68.8171 206.933 68.814C206.946 68.8124 206.956 68.8112 206.963 68.8105C206.966 68.8101 206.968 68.8098 206.969 68.8097C206.97 68.8096 206.971 68.8096 206.971 68.8095C206.971 68.8095 206.971 68.8095 206.971 68.8095C206.971 68.8095 206.971 68.8095 206.86 67.8157C206.75 66.8218 206.749 66.8218 206.749 66.8219C206.749 66.8219 206.749 66.8219 206.748 66.822C206.747 66.822 206.747 66.8222 206.745 66.8223C206.743 66.8225 206.74 66.8229 206.736 66.8234C206.727 66.8244 206.715 66.8257 206.699 66.8276C206.668 66.8312 206.623 66.8367 206.564 66.844C206.445 66.8586 206.273 66.8807 206.052 66.911C205.611 66.9717 204.976 67.0653 204.195 67.198C202.633 67.4633 200.482 67.8859 198.121 68.5153C193.452 69.7603 187.766 71.8649 184.315 75.3151L185.73 76.7294Z" fill="#ADBBC4"/>
<path d="M177.816 136.162C177.828 135.61 178.285 135.173 178.838 135.185C179.39 135.197 179.827 135.654 179.815 136.206L177.816 136.162ZM206.971 163.235C207.52 163.296 207.915 163.791 207.854 164.34C207.793 164.889 207.299 165.284 206.75 165.223L206.971 163.235ZM178.816 136.184C179.815 136.206 179.815 136.206 179.815 136.206C179.815 136.206 179.815 136.206 179.815 136.206C179.815 136.206 179.815 136.206 179.815 136.207C179.815 136.208 179.815 136.21 179.815 136.212C179.815 136.217 179.815 136.225 179.815 136.237C179.815 136.26 179.814 136.295 179.814 136.341C179.813 136.435 179.813 136.575 179.816 136.758C179.82 137.123 179.834 137.655 179.87 138.315C179.942 139.638 180.105 141.466 180.466 143.49C181.195 147.581 182.702 152.288 185.73 155.315L184.315 156.73C180.843 153.257 179.246 148.045 178.497 143.841C178.119 141.719 177.949 139.807 177.873 138.425C177.835 137.733 177.821 137.173 177.816 136.783C177.813 136.588 177.813 136.435 177.814 136.33C177.814 136.278 177.815 136.237 177.815 136.209C177.815 136.195 177.815 136.184 177.816 136.176C177.816 136.172 177.816 136.169 177.816 136.167C177.816 136.166 177.816 136.165 177.816 136.164C177.816 136.164 177.816 136.163 177.816 136.163C177.816 136.163 177.816 136.162 178.816 136.184ZM185.73 155.315C188.779 158.365 194.011 160.364 198.636 161.597C200.923 162.207 203.012 162.617 204.53 162.875C205.288 163.004 205.902 163.094 206.325 163.152C206.536 163.181 206.699 163.202 206.809 163.216C206.864 163.223 206.905 163.228 206.933 163.231C206.946 163.232 206.956 163.233 206.963 163.234C206.966 163.235 206.968 163.235 206.969 163.235C206.97 163.235 206.971 163.235 206.971 163.235C206.971 163.235 206.971 163.235 206.971 163.235C206.971 163.235 206.971 163.235 206.86 164.229C206.75 165.223 206.749 165.223 206.749 165.223C206.749 165.223 206.749 165.223 206.748 165.223C206.747 165.223 206.747 165.223 206.745 165.222C206.743 165.222 206.74 165.222 206.736 165.221C206.727 165.22 206.715 165.219 206.699 165.217C206.668 165.213 206.623 165.208 206.564 165.201C206.445 165.186 206.273 165.164 206.052 165.134C205.611 165.073 204.976 164.979 204.195 164.847C202.633 164.581 200.482 164.159 198.121 163.529C193.452 162.284 187.766 160.18 184.315 156.73L185.73 155.315Z" fill="#ADBBC4"/>
<line x1="184" y1="115" x2="213" y2="115" stroke="#ADBBC4" stroke-width="2" stroke-linecap="round"/>
<path fill-rule="evenodd" clip-rule="evenodd" d="M249.667 108.333H246.167V111.833H249.667V108.333ZM246.167 114.75H249.667V118.25H246.167V114.75ZM246.167 121.167H249.667V124.667H246.167V121.167ZM239.75 121.167H243.25V124.667H239.75V121.167ZM243.25 114.75H239.75V118.25H243.25V114.75ZM239.75 108.333H243.25V111.833H239.75V108.333ZM236.833 121.167H233.333V124.667H236.833V121.167ZM233.333 114.75H236.833V118.25H233.333V114.75ZM236.833 108.333H233.333V111.833H236.833V108.333Z" fill="#ADBBC4"/>
<path fill-rule="evenodd" clip-rule="evenodd" d="M233.333 163.333H249.667C250.311 163.333 250.833 163.856 250.833 164.5V178.5C250.833 179.144 250.311 179.667 249.667 179.667H233.333C232.689 179.667 232.167 179.144 232.167 178.5V164.5C232.167 163.856 232.689 163.333 233.333 163.333ZM249.667 164.5H233.333V166.95H249.667V164.5ZM233.333 178.5V167.883H249.667V178.5H233.333ZM239.75 165.083H238.583V166.25H239.75V165.083ZM236.25 165.083H237.417V166.25H236.25V165.083ZM235.083 165.083H233.917V166.25H235.083V165.083Z" fill="#ADBBC4"/>
<path fill-rule="evenodd" clip-rule="evenodd" d="M234.5 55.7776V67.3334C234.663 67.6951 236.326 68.3017 239.167 68.5001V69.6667C236.477 69.4801 233.333 68.8676 233.333 67.3334V55.7367C233.333 53.8992 238.099 53.4034 240.917 53.4034C243.734 53.4034 248.5 53.8759 248.5 55.7367V60.3392H246.277C246.659 60.2371 247.017 60.0629 247.333 59.8259V56.8684C245.986 57.5917 243.355 57.9301 240.852 57.9301C239.106 57.9545 237.364 57.7585 235.667 57.3467V56.5067C237.362 56.9303 239.106 57.1246 240.852 57.0842C244.662 57.0842 246.855 56.3492 247.333 55.8884V55.7134C247.141 55.3342 244.819 54.5467 240.917 54.5467C237.014 54.5467 234.698 55.3342 234.5 55.7776ZM235.667 61.2551C236.871 61.5544 238.102 61.7341 239.342 61.7917C239.465 61.492 239.647 61.2202 239.878 60.9926C238.456 60.9648 237.043 60.769 235.667 60.4092V61.2551ZM241.5 61.5001H249.667C250.311 61.5001 250.833 62.0224 250.833 62.6667V69.6667C250.833 70.3111 250.311 70.8334 249.667 70.8334H241.5C240.856 70.8334 240.333 70.3111 240.333 69.6667V62.6667C240.333 62.0224 240.856 61.5001 241.5 61.5001ZM241.5 62.6667V69.6667H249.667V62.6667H241.5ZM235.667 65.1634C236.814 65.4494 237.986 65.6232 239.167 65.6826V64.8659C237.984 64.8083 236.811 64.6265 235.667 64.3234V65.1634ZM242.842 64.0667C242.842 63.8412 243.024 63.6584 243.25 63.6584C243.475 63.6584 243.658 63.8412 243.658 64.0667V68.4359C243.658 68.6614 243.475 68.8442 243.25 68.8442C243.024 68.8442 242.842 68.6614 242.842 68.4359V64.0667ZM245.583 63.7284C245.358 63.7284 245.175 63.9112 245.175 64.1367V68.5001C245.175 68.7256 245.358 68.9084 245.583 68.9084C245.809 68.9084 245.992 68.7256 245.992 68.5001V64.1367C245.992 63.9112 245.809 63.7284 245.583 63.7284ZM247.508 64.0667C247.508 63.8412 247.691 63.6584 247.917 63.6584C248.142 63.6584 248.325 63.8412 248.325 64.0667V68.4359C248.325 68.6614 248.142 68.8442 247.917 68.8442C247.691 68.8442 247.508 68.6614 247.508 68.4359V64.0667Z" fill="#ADBBC4"/>
<g opacity="0.5">
<path fill-rule="evenodd" clip-rule="evenodd" d="M129.841 77.0039C129.434 77.0241 129.035 77.1235 128.669 77.2962L112.677 84.8289C111.838 85.2236 111.229 85.9701 111.022 86.8572L107.077 103.777C106.893 104.565 107.043 105.392 107.492 106.07C107.546 106.152 107.604 106.231 107.666 106.308L118.735 119.875C119.315 120.586 120.195 121 121.126 121L138.876 120.996C139.807 120.997 140.687 120.583 141.267 119.873L152.332 106.304C152.913 105.592 153.13 104.661 152.923 103.773L148.972 86.8532C148.765 85.9661 148.156 85.2196 147.317 84.8248L131.323 77.2962C130.862 77.0789 130.352 76.9784 129.841 77.0039Z" stroke="#00C1D5" stroke-width="2"/>
<path d="M164.523 97.1939V94.8861C164.754 77.407 151.756 62.5718 134.398 60.5038C117.04 58.4358 100.921 69.8019 97.0389 86.8461C84.7247 87.4951 75.1292 97.7673 75.3195 110.097C75.5098 122.427 85.4178 132.398 97.7461 132.667H159.237C168.178 132.629 175.762 126.091 177.116 117.253C178.47 108.415 173.191 99.9062 164.672 97.1939H164.523Z" stroke="#00C1D5" stroke-width="2"/>
<path d="M136.494 53.2717C131.523 46.516 123.665 42.4904 115.278 42.4028H115.017C101.601 42.4182 90.269 52.3653 88.515 65.6667L88.2172 69.0539H82.5594C76.386 69.0439 70.5418 72.5704 68.11 78.2447C65.6781 83.919 66.8674 90.497 71.1322 94.9606" stroke="#00C1D5" stroke-width="2" stroke-linecap="round"/>
<path d="M117.734 27.8117C112.914 23.483 106.681 21.0611 100.203 21H99.9422C86.609 21.1057 75.3874 31.0099 73.6261 44.2267L73.0306 47.465H67.3728C58.8646 47.5264 51.9998 54.441 52 62.9494C52.0105 66.2209 53.067 69.4034 55.015 72.0317" stroke="#00C1D5" stroke-width="2" stroke-linecap="round"/>
</g>
<defs>
<linearGradient id="paint0_linear_673_43789" x1="224" y1="45" x2="110" y2="159" gradientUnits="userSpaceOnUse">
<stop offset="0.223958" stop-color="#00C1D5"/>
<stop offset="1" stop-color="#00C1D5" stop-opacity="0"/>
</linearGradient>
<linearGradient id="paint1_linear_673_43789" x1="141" y1="83" x2="27" y2="197" gradientUnits="userSpaceOnUse">
<stop offset="0.223958" stop-color="#0091DA"/>
<stop offset="1" stop-color="#0091DA" stop-opacity="0"/>
</linearGradient>
<linearGradient id="paint2_linear_673_43789" x1="-1.78402e-06" y1="114" x2="90.9964" y2="-16.0907" gradientUnits="userSpaceOnUse">
<stop stop-color="#1A428A" stop-opacity="0"/>
<stop offset="0.9987" stop-color="#1A428A"/>
</linearGradient>
</defs>
</svg>
