<svg version="1.1" width="36" height="36"  viewBox="0 0 36 36" preserveAspectRatio="xMidYMid meet" xmlns="http://www.w3.org/2000/svg" xmlns:xlink="http://www.w3.org/1999/xlink">
    <title>highlighter-line</title>
    <path d="M15.82,26.06a1,1,0,0,1-.71-.29L8.67,19.33a1,1,0,0,1-.29-.71,1,1,0,0,1,.29-.71L23,3.54a5.55,5.55,0,1,1,7.85,7.86L16.53,25.77A1,1,0,0,1,15.82,26.06Zm-5-7.44,5,5L29.48,10a3.54,3.54,0,0,0,0-5,3.63,3.63,0,0,0-5,0Z" class="clr-i-outline clr-i-outline-path-1"></path><path d="M10.38,28.28A1,1,0,0,1,9.67,28L6.45,24.77a1,1,0,0,1-.22-1.09l2.22-5.44a1,1,0,0,1,1.63-.33l6.45,6.44A1,1,0,0,1,16.2,26l-5.44,2.22A1.33,1.33,0,0,1,10.38,28.28ZM8.33,23.82l2.29,2.28,3.43-1.4L9.74,20.39Z" class="clr-i-outline clr-i-outline-path-2"></path><path d="M8.94,30h-5a1,1,0,0,1-.84-1.55l3.22-4.94a1,1,0,0,1,1.55-.16l3.21,3.22a1,1,0,0,1,.06,1.35L9.7,29.64A1,1,0,0,1,8.94,30ZM5.78,28H8.47L9,27.34l-1.7-1.7Z" class="clr-i-outline clr-i-outline-path-3"></path><rect x="3.06" y="31" width="30" height="3" class="clr-i-outline clr-i-outline-path-4"></rect>
    <rect x="0" y="0" width="36" height="36" fill-opacity="0"/>
</svg>