<?xml version="1.0" encoding="UTF-8"?>
<svg width="29px" height="29px" viewBox="0 0 29 29" version="1.1" xmlns="http://www.w3.org/2000/svg" xmlns:xlink="http://www.w3.org/1999/xlink">
    <title>SVGicon-tools-repair-black</title>
    <defs>
        <polygon id="path-1" points="0 29 29 29 29 0 0 0"></polygon>
    </defs>
    <g id="Enhancements" stroke="none" stroke-width="1" fill="none" fill-rule="evenodd">
        <g id="Rd-Resources" transform="translate(-297.000000, -788.000000)">
            <g id="Use-Cases" transform="translate(279.397329, 291.000000)">
                <g id="FAQs" transform="translate(0.000000, 46.000000)">
                    <g id="1" transform="translate(0.000000, 73.954887)">
                        <g id="Group-4-Copy" transform="translate(17.602671, 173.045113)">
                            <g id="resource-4" transform="translate(0.000000, 187.000000)">
                                <g id="SVGicon-tools-repair-black" transform="translate(0.000000, 17.000000)">
                                    <g id="g12-Clipped" transform="translate(14.500000, 14.500000) scale(-1, 1) rotate(-180.000000) translate(-14.500000, -14.500000) ">
                                        <mask id="mask-2" fill="white">
                                            <use xlink:href="#path-1"></use>
                                        </mask>
                                        <g id="path14"></g>
                                        <g id="g12" mask="url(#mask-2)">
                                            <g transform="translate(3.059825, 3.115542)">
                                                <g id="g18" transform="translate(0.404080, 0.000000)">
                                                    <path d="M21.9858667,4.12235 L15.7786583,10.3293167 L14.4852583,11.0166167 C14.47535,11.2807583 14.3697417,11.5446583 14.165775,11.7488667 L13.4876583,12.4267417 C13.0674,12.8472417 12.393875,12.8576333 11.9869083,12.450425 L11.22155,11.6850667 L3.56651667,19.3403417 L3.56651667,20.8809667 L1.1832,22.4099917 L0,21.2267917 L1.1948,19.178425 C1.27865833,19.03415 1.463775,18.985575 1.60805,19.069675 C1.75208333,19.153775 1.8009,19.33865 1.71655833,19.482925 L0.756658333,21.1289167 L1.266575,21.6385917 L2.96235,20.55085 L2.96235,19.0902167 L10.794525,11.2580417 L9.701225,10.1647417 C9.293775,9.75753333 9.30465,9.08425 9.72490833,8.66375 L10.3020083,8.08665 L10.729275,8.51391667 L10.152175,9.09101667 C9.9673,9.27589167 9.95666667,9.56589167 10.1284917,9.737475 L12.414175,12.0231583 C12.5857583,12.1947417 12.8755167,12.18435 13.0606333,11.999475 L13.7385083,11.3216 C13.9231417,11.136725 13.9340167,10.846725 13.7621917,10.6749 L13.7730667,10.664025 L11.3841917,8.27539167 C11.2662583,8.15745833 11.2662583,7.96605833 11.3841917,7.848125 C11.502125,7.73019167 11.6932833,7.73019167 11.8112167,7.848125 L14.361525,10.3981917 L15.415675,9.83825 L21.4377667,3.81591667 L21.5685083,3.26854167 L18.9544,0.654191667 L18.451975,0.751583333 L12.14085,7.06270833 C12.0229167,7.18088333 11.8317583,7.18088333 11.713825,7.06270833 C11.59565,6.944775 11.59565,6.75361667 11.713825,6.63568333 L18.1556917,0.193816667 L19.1545,0 L22.2345417,3.08028333 L21.9858667,4.12235 Z" id="path20" fill="#000000" fill-rule="nonzero"></path>
                                                </g>
                                                <g id="g22" transform="translate(0.000000, 0.016264)">
                                                    <path d="M9.45758968,8.06055 L6.44859801,5.05155833 L6.52617301,4.86499167 C7.00588135,3.70885833 6.74463968,2.39080833 5.86038135,1.50655 C5.10082301,0.746991667 4.01404801,0.446116667 2.98938135,0.683916667 L4.44107301,2.13560833 L3.95387301,3.95390833 L2.13557301,4.44110833 L0.683881346,2.98941667 C0.446323013,4.01408333 0.746956346,5.10085833 1.50651468,5.86041667 C2.39077301,6.744675 3.70882301,7.00591667 4.86495635,6.52596667 L5.05152301,6.44863333 L9.70143135,11.0985417 L9.27416468,11.5258083 L4.90579801,7.1572 C3.57058968,7.62796667 2.08868968,7.297125 1.07948968,6.28768333 C0.0352480129,5.24368333 -0.28423532,3.683 0.265556346,2.31178333 L0.43568968,1.88693333 L2.31609801,3.76734167 L3.46063135,3.46066667 L3.76730635,2.31613333 L1.88689801,0.435725 L2.31198968,0.265591667 C2.75738135,0.0867583333 3.22307301,0 3.68441468,0 C4.64286468,0 5.58294801,0.374583333 6.28764801,1.07928333 C7.29708968,2.088725 7.62793135,3.570625 7.15716468,4.90559167 L9.86503968,7.613225 L9.45758968,8.06055 Z" id="path24" fill="#000000" fill-rule="nonzero"></path>
                                                </g>
                                                <g id="g26" transform="translate(11.284831, 12.702073)">
                                                    <path d="M11.2986417,7.85126667 L11.1282667,8.27635833 L9.24785833,6.39570833 L8.103325,6.70238333 L7.79665,7.84691667 L9.6773,9.727325 L9.25220833,9.8977 C7.88099167,10.4470083 6.32030833,10.1277667 5.27655,9.08376667 C4.26710833,8.074325 3.93626667,6.59218333 4.40679167,5.25745833 L0,0.850666667 L0.427266667,0.4234 L5.1156,5.11173333 L5.038025,5.2983 C4.558075,6.45395 4.81955833,7.77224167 5.703575,8.6565 C6.46313333,9.41605833 7.549425,9.71693333 8.57481667,9.47913333 L7.12288333,8.02744167 L7.61008333,6.20914167 L9.42838333,5.72194167 L10.8803167,7.17363333 C11.1176333,6.14896667 10.817,5.06219167 10.0574417,4.30263333 C9.17318333,3.418375 7.85489167,3.157375 6.699,3.63708333 L6.51243333,3.71441667 L3.2451,0.447083333 L3.65230833,0 L6.6584,3.00585 C7.99336667,2.53556667 9.47526667,2.86616667 10.4847083,3.87536667 C11.5287083,4.91960833 11.8481917,6.48005 11.2986417,7.85126667" id="path28" fill="#000000" fill-rule="nonzero"></path>
                                                </g>
                                            </g>
                                        </g>
                                    </g>
                                </g>
                            </g>
                        </g>
                    </g>
                </g>
            </g>
        </g>
    </g>
</svg>