<?xml version="1.0" encoding="UTF-8"?>
<svg width="29px" height="29px" viewBox="0 0 29 29" version="1.1" xmlns="http://www.w3.org/2000/svg" xmlns:xlink="http://www.w3.org/1999/xlink">
    <title>blog</title>
    <defs>
        <polygon id="path-1" points="0 29 29 29 29 0 0 0"></polygon>
    </defs>
    <g id="Enhancements" stroke="none" stroke-width="1" fill="none" fill-rule="evenodd">
        <g id="Rd-Resources" transform="translate(-297.000000, -646.000000)">
            <g id="Use-Cases" transform="translate(279.397329, 291.000000)">
                <g id="FAQs" transform="translate(0.000000, 46.000000)">
                    <g id="1" transform="translate(0.000000, 73.954887)">
                        <g id="Group-4-Copy" transform="translate(17.602671, 173.045113)">
                            <g id="resource-2" transform="translate(0.000000, 62.000000)">
                                <g id="g12-Clipped" transform="translate(14.500000, 14.500000) scale(-1, 1) rotate(-180.000000) translate(-14.500000, -14.500000) ">
                                    <mask id="mask-2" fill="white">
                                        <use xlink:href="#path-1"></use>
                                    </mask>
                                    <g id="path14"></g>
                                    <g id="g12" mask="url(#mask-2)">
                                        <g transform="translate(3.020809, 2.980330)" id="g18">
                                            <path d="M7.86528333,20.7173583 C7.51051667,20.7173583 7.26643333,20.4976833 7.26643333,20.1134333 C7.26643333,19.73885 7.49964167,19.509025 7.87615833,19.509025 L7.88606667,19.509025 C8.23165,19.509025 8.47476667,19.7219333 8.47476667,20.0967583 C8.47476667,20.4807667 8.22101667,20.7173583 7.86528333,20.7173583 M5.44861667,20.7173583 C5.09385,20.7173583 4.84976667,20.4976833 4.84976667,20.1134333 C4.84976667,19.73885 5.082975,19.509025 5.45949167,19.509025 L5.4694,19.509025 C5.81498333,19.509025 6.0581,19.7219333 6.0581,20.0967583 C6.0581,20.4807667 5.80435,20.7173583 5.44861667,20.7173583 M3.03195,20.7173583 C2.67718333,20.7173583 2.4331,20.4976833 2.4331,20.1134333 C2.4331,19.73885 2.66630833,19.509025 3.042825,19.509025 L3.05273333,19.509025 C3.39831667,19.509025 3.64143333,19.7219333 3.64143333,20.0967583 C3.64143333,20.4807667 3.38768333,20.7173583 3.03195,20.7173583 M3.88285833,7.80800833 L19.0757167,7.80800833 L19.0757167,8.412175 L3.88285833,8.412175 L3.88285833,7.80800833 Z M3.88285833,10.0008917 L19.0757167,10.0008917 L19.0757167,10.6050583 L3.88285833,10.6050583 L3.88285833,10.0008917 Z M3.88285833,12.1940167 L19.0757167,12.1940167 L19.0757167,12.7981833 L3.88285833,12.7981833 L3.88285833,12.1940167 Z M3.88285833,14.3873833 L19.0757167,14.3873833 L19.0757167,14.99155 L3.88285833,14.99155 L3.88285833,14.3873833 Z M22.3541667,6.1828 C22.3541667,5.81643333 22.05595,5.51821667 21.6895833,5.51821667 L13.320425,5.51821667 C13.153675,5.51821667 13.0183417,5.383125 13.0183417,5.21613333 L13.0183417,1.03143333 L8.61976667,5.42976667 C8.56321667,5.48655833 8.48636667,5.51821667 8.40613333,5.51821667 L1.26875,5.51821667 C0.902383333,5.51821667 0.604166667,5.81643333 0.604166667,6.1828 L0.604166667,17.4720167 L20.7722167,17.4720167 L20.7722167,18.0761833 L0.604166667,18.0761833 L0.604166667,21.7703 C0.604166667,22.1369083 0.902383333,22.4348833 1.26875,22.4348833 L21.6895833,22.4348833 C22.05595,22.4348833 22.3541667,22.1369083 22.3541667,21.7703 L22.3541667,6.1828 Z M21.6895833,23.03905 L1.26875,23.03905 C0.569125,23.03905 0,22.469925 0,21.7703 L0,6.1828 C0,5.48341667 0.569125,4.91405 1.26875,4.91405 L8.28119167,4.91405 L13.1067917,0.0886916667 C13.1647917,0.0306916667 13.2418833,0 13.3206667,0 C13.3593333,0 13.398725,0.00773333333 13.4361833,0.0229583333 C13.5490417,0.0698416667 13.6225083,0.180041667 13.6225083,0.302083333 L13.6225083,4.91405 L21.6895833,4.91405 C22.3892083,4.91405 22.9583333,5.48341667 22.9583333,6.1828 L22.9583333,21.7703 C22.9583333,22.469925 22.3892083,23.03905 21.6895833,23.03905" id="path20" fill="#000000" fill-rule="nonzero"></path>
                                        </g>
                                    </g>
                                </g>
                            </g>
                        </g>
                    </g>
                </g>
            </g>
        </g>
    </g>
</svg>