<?xml version="1.0" encoding="UTF-8"?>
<svg width="29px" height="29px" viewBox="0 0 29 29" version="1.1" xmlns="http://www.w3.org/2000/svg" xmlns:xlink="http://www.w3.org/1999/xlink">
    <title>Webinar</title>
    <defs>
        <polygon id="path-1" points="0 29 29 29 29 0 0 0"></polygon>
    </defs>
    <g id="Enhancements" stroke="none" stroke-width="1" fill="none" fill-rule="evenodd">
        <g id="Rd-Resources" transform="translate(-297.000000, -584.000000)">
            <g id="Use-Cases" transform="translate(279.397329, 291.000000)">
                <g id="FAQs" transform="translate(0.000000, 46.000000)">
                    <g id="1" transform="translate(0.000000, 73.954887)">
                        <g id="Webinar" transform="translate(17.602671, 173.045113)">
                            <path d="M10.0799831,13.8111956 C8.84168312,13.8111956 7.83447688,12.8039894 7.83447688,11.5658706 C7.83447688,10.3275706 8.84168312,9.32036437 10.0799831,9.32036437 C11.3181019,9.32036437 12.3253081,10.3275706 12.3253081,11.5658706 C12.3253081,12.8039894 11.3181019,13.8111956 10.0799831,13.8111956 M10.0799831,9.92447062 C9.17500187,9.92447062 8.43858312,10.6608894 8.43858312,11.5658706 C8.43858312,12.4706706 9.17500187,13.2070894 10.0799831,13.2070894 C10.9847831,13.2070894 11.7212019,12.4706706 11.7212019,11.5658706 C11.7212019,10.6608894 10.9847831,9.92447062 10.0799831,9.92447062" id="Fill-1" fill="#000000"></path>
                            <path d="M14.2713894,17.08361 L13.6672831,17.08361 L13.6672831,16.1655788 C12.6765706,15.284885 11.4078206,14.8011288 10.0799831,14.8011288 C8.75178313,14.8011288 7.48303313,15.284885 6.49268313,16.1655788 L6.49268313,17.08361 L5.88839563,17.08361 L5.88839563,15.9009537 L5.98445812,15.811235 C7.10041438,14.7703163 8.55494563,14.1968413 10.0799831,14.1968413 C11.6048394,14.1968413 13.0591894,14.7703163 14.1755081,15.811235 L14.2713894,15.9009537 L14.2713894,17.08361 Z" id="Fill-3" fill="#000000"></path>
                            <path d="M22.0641969,14.7651869 L15.4487531,14.7651869 C14.8712906,14.7651869 14.4014906,14.2952056 14.4014906,13.7175619 L14.4014906,13.5944931 L12.2685406,13.5944931 L14.4014906,11.4615431 L14.4014906,8.98059313 C14.4014906,8.40313063 14.8712906,7.93296813 15.4487531,7.93296813 L22.0641969,7.93296813 C22.6418406,7.93296813 23.1116406,8.40313063 23.1116406,8.98059313 L23.1116406,13.7175619 C23.1116406,14.2952056 22.6418406,14.7651869 22.0641969,14.7651869 L22.0641969,14.7651869 Z M13.7268781,12.9903869 L15.0055969,12.9903869 L15.0055969,13.7175619 C15.0055969,13.9620681 15.2042469,14.1610806 15.4487531,14.1610806 L22.0641969,14.1610806 C22.3087031,14.1610806 22.5073531,13.9620681 22.5073531,13.7175619 L22.5073531,8.98059313 C22.5073531,8.73608687 22.3087031,8.53725563 22.0641969,8.53725563 L15.4487531,8.53725563 C15.2042469,8.53725563 15.0055969,8.73608687 15.0055969,8.98059313 L15.0055969,11.7116681 L13.7268781,12.9903869 Z" id="Fill-5" fill="#000000"></path>
                            <path d="M18.4063906,24.9887381 C18.0315656,24.7241131 17.0424844,24.3288069 16.6245219,24.1671319 L16.3439469,21.2051444 L15.7369406,21.2051444 L16.0582969,24.5986881 L16.2351969,24.6648444 C16.5306344,24.7757694 17.2190219,25.0476444 17.6857406,25.2752944 L11.0818969,25.2752944 C11.5516969,25.0469194 12.2364594,24.7754069 12.5288156,24.6646631 L12.6979219,24.6008631 L13.1423469,21.2051444 L12.5331656,21.2051444 L12.1458344,24.1645944 C11.7358469,24.3240944 10.7505719,24.7195819 10.3645094,24.9834819 C10.1856156,25.1052819 10.1089469,25.3274944 10.1734719,25.5366569 C10.2365469,25.7414694 10.4214219,25.8795819 10.6331219,25.8795819 L18.1299844,25.8795819 C18.3398719,25.8795819 18.5243844,25.7427381 18.5889094,25.5391944 C18.6541594,25.3331131 18.5811156,25.1119881 18.4063906,24.9887381" id="Fill-7" fill="#000000"></path>
                            <path d="M24.6463025,6.5682825 C25.0006463,6.5682825 25.2886525,6.82692625 25.2886525,7.14483875 L25.2886525,19.3275575 C25.2886525,19.6181013 25.0238462,19.8546325 24.6985025,19.8546325 L4.07787125,19.8546325 C3.77518375,19.8546325 3.52904625,19.6356825 3.52904625,19.3667075 L3.52904625,7.04986375 C3.52904625,6.78451375 3.77228375,6.5682825 4.0715275,6.5682825 L24.6463025,6.5682825 M24.6463025,5.96417625 L4.0715275,5.96417625 C3.43805875,5.96417625 2.92475875,6.45028875 2.92475875,7.04986375 L2.92475875,19.3667075 C2.92475875,19.9697263 3.44095875,20.4587388 4.07787125,20.4587388 L24.6985025,20.4587388 C25.3580712,20.4587388 25.8927588,19.9523263 25.8927588,19.3275575 L25.8927588,7.14483875 C25.8927588,6.4928825 25.3348713,5.96417625 24.6463025,5.96417625" id="Fill-9" fill="#000000"></path>
                            <mask id="mask-2" fill="white">
                                <use xlink:href="#path-1"></use>
                            </mask>
                            <g id="Clip-12"></g>
                            <polygon id="Fill-11" fill="#000000" mask="url(#mask-2)" points="5.3805875 18.9457 23.5130188 18.9457 23.5130188 18.3415938 5.3805875 18.3415938"></polygon>
                        </g>
                    </g>
                </g>
            </g>
        </g>
    </g>
</svg>