<svg xmlns="http://www.w3.org/2000/svg" width="36" height="36" viewBox="0 0 36 36"><title>crown-solid</title><g id="b4dd88e3-aa37-48df-864c-a0d0dc35fb0b" data-name="Layer 3"><path d="M2.6,11.93A1.4,1.4,0,1,0,4,13.33,1.4,1.4,0,0,0,2.6,11.93Z"/><ellipse cx="33.83" cy="13.33" rx="1.39" ry="1.39"/><path d="M18.22,6.39A1.39,1.39,0,1,0,16.84,5,1.39,1.39,0,0,0,18.22,6.39Z"/><path d="M31.63,16.1A18.61,18.61,0,0,0,28,17.34a21.57,21.57,0,0,0-4,2.49,19.2,19.2,0,0,1-2.26-3.49,48.92,48.92,0,0,1-2.52-6.58,1,1,0,0,0-1-.71h0a1,1,0,0,0-1,.71,48.42,48.42,0,0,1-2.52,6.58,18.69,18.69,0,0,1-2.26,3.48,22.81,22.81,0,0,0-4-2.48A18.83,18.83,0,0,0,4.9,16.1a1,1,0,0,0-1,.33,1,1,0,0,0-.13,1.07,55.9,55.9,0,0,1,4,13.5,1,1,0,0,0,1,.83h19a1,1,0,0,0,1-.83,55.9,55.9,0,0,1,4-13.5,1,1,0,0,0-.13-1.07A1,1,0,0,0,31.63,16.1ZM11.08,28.55a1.11,1.11,0,1,1,1.1-1.11A1.11,1.11,0,0,1,11.08,28.55Zm7.15,0a1.11,1.11,0,0,1,0-2.21,1.11,1.11,0,0,1,0,2.21Zm7.16,0a1.11,1.11,0,1,1,1.1-1.11A1.11,1.11,0,0,1,25.39,28.55Z"/></g></svg>