<?xml version="1.0" encoding="utf-8"?>
<!-- Generator: Adobe Illustrator 25.2.0, SVG Export Plug-In . SVG Version: 6.00 Build 0)  -->
<svg version="1.1" id="Layer_1" xmlns="http://www.w3.org/2000/svg" xmlns:xlink="http://www.w3.org/1999/xlink" x="0px" y="0px"
	 viewBox="0 0 228.6 228.6" style="enable-background:new 0 0 228.6 228.6;" xml:space="preserve">
<style type="text/css">
	.st0{fill:#78BE20;}
	.st1{fill:#1BC1D5;}
	.st2{fill:#1D428A;}
	.st3{fill:#717074;}
</style>
<g id="Layer_3">
</g>
<g>
	<path class="st0" d="M154.2,189.2l-18.7-48.7c-2.3-6.2,2.9-12.9,9.5-11.9l51.8,7.6L154.2,189.2z"/>
	<path class="st1" d="M178.4,58.2l-42.9,28.4c-5.6,3.7-13.1,0-13.6-6.6L118,28.4L178.4,58.2z"/>
	<path class="st0" d="M93,140.5L74.3,189l-42.1-53l51.4-7.4C90.1,127.6,95.4,134.2,93,140.5z"/>
	<path class="st2" d="M79.2,113.4l-48.3,15l15.8-63.9l36,34.1C87.6,103.2,85.6,111.4,79.2,113.4z"/>
	<path class="st2" d="M198.4,128.8l-48.9-15c-6.4-1.9-8.4-10.1-3.3-14.8l37.2-34.5L198.4,128.8z"/>
	<path class="st1" d="M110.4,29l-4.5,50.5c-0.6,6.6-8.2,10.3-13.6,6.4L51.4,58.2L110.4,29z"/>
	<path class="st1" d="M81.4,192.3l25.3-44c3.3-5.8,11.9-5.8,15.2,0l25.1,44H81.4z"/>
	<path class="st3" d="M114.3,0C51.2,0,0,51.2,0,114.3s51.2,114.3,114.3,114.3s114.3-51.2,114.3-114.3S177.4,0,114.3,0z M114.7,213.7
		c-55.1,0-99.5-44.6-99.5-99.7c0-54.9,44.6-99.5,99.5-99.5s99.5,44.6,99.5,99.5C214.4,169.1,169.8,213.7,114.7,213.7z"/>
</g>
</svg>
