<svg xmlns="http://www.w3.org/2000/svg" width="400" viewBox="0, 0, 400,400">
  <path id="path0" d="M16.000 257.464 C 14.570 257.785,11.256 258.449,8.635 258.938 C 3.033 259.984,2.484 260.417,4.160 262.458 C 4.767 263.196,5.654 264.312,6.132 264.937 C 6.609 265.563,7.405 266.484,7.900 266.983 C 8.395 267.483,8.800 268.045,8.800 268.232 C 8.800 268.419,9.160 268.938,9.601 269.386 C 10.042 269.834,11.027 271.010,11.791 272.000 C 13.858 274.681,14.900 275.939,15.900 276.967 C 16.395 277.476,16.800 278.064,16.800 278.274 C 16.800 278.484,17.205 279.032,17.700 279.492 C 18.195 279.951,19.224 281.199,19.986 282.264 C 21.618 284.544,22.005 285.031,23.372 286.518 C 23.937 287.133,24.400 287.795,24.400 287.989 C 24.400 288.183,24.850 288.696,25.400 289.129 C 25.950 289.561,26.400 290.045,26.400 290.205 C 26.400 290.364,26.895 291.079,27.500 291.793 C 28.105 292.507,29.050 293.686,29.600 294.413 C 30.150 295.140,31.005 296.163,31.500 296.686 C 31.995 297.209,32.400 297.795,32.400 297.989 C 32.400 298.183,32.850 298.696,33.400 299.129 C 33.950 299.561,34.400 300.036,34.400 300.184 C 34.400 300.333,34.939 301.117,35.597 301.927 C 36.720 303.308,54.261 325.422,55.961 327.600 C 56.390 328.150,57.841 329.950,59.185 331.600 C 60.529 333.250,61.937 335.008,62.315 335.506 C 63.196 336.672,64.184 337.907,67.185 341.600 C 69.594 344.564,70.345 345.513,71.686 347.291 C 72.064 347.791,73.021 349.010,73.815 350.000 C 74.608 350.990,75.649 352.312,76.129 352.937 C 76.608 353.563,77.405 354.484,77.900 354.983 C 78.395 355.483,78.800 356.045,78.800 356.232 C 78.800 356.419,79.160 356.938,79.601 357.386 C 80.042 357.834,81.027 359.010,81.791 360.000 C 83.858 362.681,84.900 363.939,85.900 364.967 C 86.395 365.476,86.800 366.064,86.800 366.274 C 86.800 366.484,87.205 367.032,87.700 367.492 C 88.195 367.951,89.224 369.199,89.986 370.264 C 91.618 372.544,92.005 373.031,93.372 374.518 C 93.937 375.133,94.400 375.795,94.400 375.989 C 94.400 376.183,94.850 376.696,95.400 377.129 C 95.950 377.561,96.400 378.045,96.400 378.205 C 96.400 378.364,96.895 379.079,97.500 379.793 C 98.105 380.507,99.050 381.686,99.600 382.413 C 100.150 383.140,101.005 384.163,101.500 384.686 C 101.995 385.209,102.400 385.778,102.400 385.952 C 102.400 386.380,104.821 388.513,105.048 388.285 C 105.478 387.856,113.200 372.271,113.200 371.834 C 113.200 371.568,112.884 371.002,112.498 370.575 C 111.878 369.891,110.875 368.634,105.800 362.184 C 105.140 361.345,104.418 360.465,104.196 360.229 C 103.973 359.993,102.713 358.430,101.396 356.754 C 100.078 355.079,98.460 353.023,97.800 352.184 C 97.140 351.345,96.418 350.465,96.196 350.229 C 95.718 349.722,91.433 344.304,90.000 342.395 C 89.450 341.662,87.958 339.788,86.685 338.231 C 85.413 336.674,84.063 334.992,83.685 334.494 C 82.793 333.314,81.785 332.054,78.812 328.400 C 77.469 326.750,76.063 324.992,75.685 324.494 C 75.308 323.996,74.607 323.096,74.126 322.494 C 73.645 321.892,72.604 320.590,71.813 319.600 C 71.021 318.610,69.974 317.326,69.487 316.746 C 68.999 316.166,68.240 315.218,67.800 314.640 C 67.360 314.061,66.607 313.096,66.126 312.494 C 65.645 311.892,64.604 310.590,63.813 309.600 C 63.021 308.610,61.974 307.326,61.487 306.746 C 60.999 306.166,60.240 305.218,59.800 304.640 C 59.360 304.061,58.607 303.096,58.126 302.494 C 57.645 301.892,56.604 300.590,55.813 299.600 C 55.021 298.610,53.974 297.326,53.487 296.746 C 52.999 296.166,52.240 295.218,51.800 294.640 C 51.360 294.061,50.607 293.096,50.126 292.494 C 49.645 291.892,48.604 290.590,47.813 289.600 C 47.021 288.610,45.974 287.326,45.487 286.746 C 44.999 286.166,44.240 285.218,43.800 284.640 C 43.360 284.061,42.607 283.096,42.126 282.494 C 41.645 281.892,40.604 280.590,39.813 279.600 C 39.021 278.610,37.974 277.326,37.487 276.746 C 36.999 276.166,36.240 275.218,35.800 274.640 C 35.360 274.061,34.607 273.096,34.126 272.494 C 32.620 270.610,30.409 267.846,29.486 266.694 C 28.999 266.085,28.285 265.280,27.900 264.905 C 27.515 264.529,27.200 264.044,27.200 263.825 C 27.200 263.607,26.840 263.062,26.399 262.614 C 25.958 262.166,24.957 260.990,24.174 260.000 C 23.391 259.010,22.494 257.885,22.179 257.500 C 21.487 256.652,19.654 256.641,16.000 257.464 M377.200 257.166 C 377.200 257.367,376.845 257.952,376.412 258.466 C 375.597 259.432,371.476 264.490,369.785 266.600 C 369.257 267.260,368.454 268.250,368.002 268.800 C 367.550 269.350,366.105 271.150,364.791 272.800 C 363.476 274.450,362.040 276.166,361.600 276.614 C 361.160 277.062,360.800 277.581,360.800 277.768 C 360.800 277.955,360.395 278.517,359.900 279.017 C 359.405 279.516,358.608 280.437,358.129 281.063 C 356.132 283.669,354.353 285.850,353.601 286.614 C 353.160 287.062,352.800 287.581,352.800 287.768 C 352.800 287.955,352.395 288.498,351.900 288.974 C 351.405 289.451,350.460 290.545,349.800 291.406 C 349.140 292.267,348.105 293.542,347.500 294.239 C 346.895 294.935,346.400 295.609,346.400 295.735 C 346.400 295.861,345.995 296.399,345.500 296.932 C 344.323 298.198,342.843 299.969,341.600 301.598 C 341.050 302.319,340.105 303.493,339.500 304.207 C 338.895 304.921,338.400 305.609,338.400 305.735 C 338.400 305.861,337.937 306.467,337.372 307.082 C 336.806 307.697,336.023 308.560,335.632 309.000 C 335.241 309.440,330.902 314.840,325.990 321.000 C 321.078 327.160,316.086 333.370,314.897 334.800 C 312.631 337.525,311.458 338.982,310.315 340.494 C 308.825 342.463,304.719 347.457,303.787 348.433 C 303.244 349.002,302.800 349.613,302.800 349.791 C 302.800 349.970,302.430 350.495,301.977 350.958 C 301.524 351.421,300.085 353.150,298.777 354.800 C 297.470 356.450,296.040 358.166,295.600 358.614 C 295.160 359.062,294.800 359.581,294.800 359.768 C 294.800 359.955,294.395 360.517,293.900 361.017 C 293.405 361.516,292.608 362.437,292.129 363.063 C 290.040 365.789,286.837 369.703,285.714 370.901 C 285.026 371.636,292.777 388.388,293.808 388.397 C 294.032 388.398,294.932 387.486,295.808 386.368 C 296.684 385.251,297.804 383.856,298.298 383.268 C 298.791 382.681,299.557 381.750,300.000 381.200 C 300.443 380.650,301.209 379.718,301.702 379.128 C 302.196 378.538,303.230 377.219,304.000 376.197 C 304.770 375.174,305.805 373.959,306.300 373.497 C 306.795 373.034,307.200 372.484,307.200 372.274 C 307.200 372.064,307.605 371.476,308.100 370.967 C 308.595 370.458,309.406 369.538,309.903 368.921 C 310.400 368.304,311.434 367.080,312.201 366.200 C 312.968 365.320,313.597 364.446,313.598 364.258 C 313.599 364.069,314.050 363.561,314.600 363.129 C 315.150 362.696,315.600 362.183,315.600 361.989 C 315.600 361.795,316.005 361.209,316.500 360.686 C 316.995 360.163,317.850 359.150,318.400 358.434 C 318.950 357.718,319.892 356.563,320.494 355.866 C 321.095 355.170,321.590 354.446,321.594 354.258 C 321.597 354.069,322.050 353.561,322.600 353.129 C 323.150 352.696,323.600 352.085,323.600 351.771 C 323.600 351.457,323.743 351.200,323.918 351.200 C 324.167 351.200,328.586 345.909,332.270 341.200 C 332.528 340.870,334.204 338.800,335.994 336.600 C 337.784 334.400,339.642 332.088,340.124 331.463 C 340.606 330.837,341.405 329.916,341.900 329.417 C 342.395 328.917,342.800 328.336,342.800 328.126 C 342.800 327.916,343.205 327.366,343.700 326.903 C 344.195 326.441,345.230 325.214,346.000 324.177 C 346.770 323.140,347.805 321.924,348.300 321.474 C 348.795 321.024,349.200 320.484,349.200 320.274 C 349.200 320.064,349.605 319.476,350.100 318.967 C 351.100 317.939,352.142 316.681,354.209 314.000 C 354.973 313.010,355.958 311.834,356.399 311.386 C 356.840 310.938,357.200 310.419,357.200 310.232 C 357.200 310.045,357.605 309.481,358.100 308.980 C 358.595 308.478,359.493 307.467,360.096 306.734 C 360.698 306.000,361.731 304.770,362.389 304.000 C 363.048 303.230,363.590 302.446,363.594 302.258 C 363.597 302.069,364.050 301.561,364.600 301.129 C 365.150 300.696,365.600 300.183,365.600 299.989 C 365.600 299.795,366.005 299.209,366.500 298.686 C 366.995 298.163,367.850 297.150,368.400 296.434 C 368.950 295.718,369.892 294.563,370.494 293.866 C 371.095 293.170,371.590 292.487,371.594 292.348 C 371.597 292.210,372.275 291.375,373.100 290.493 C 374.308 289.202,378.581 283.935,382.400 279.031 C 382.730 278.607,383.405 277.833,383.900 277.312 C 384.395 276.790,384.800 276.269,384.800 276.152 C 384.800 276.036,385.806 274.739,387.035 273.270 C 388.265 271.802,389.660 270.088,390.135 269.463 C 390.611 268.837,391.405 267.916,391.900 267.417 C 392.395 266.917,392.800 266.355,392.800 266.168 C 392.800 265.981,393.155 265.462,393.589 265.014 C 397.972 260.494,397.825 260.097,391.357 258.979 C 388.741 258.526,386.330 258.044,386.000 257.907 C 384.004 257.077,377.200 256.504,377.200 257.166 " stroke="none" fill="#7cbc24" fill-rule="evenodd"></path>
  <path id="path1" d="M195.187 54.816 C 192.265 55.510,83.170 110.411,81.314 112.122 C 78.035 115.145,75.904 119.489,74.800 125.400 C 74.553 126.720,74.117 128.430,73.830 129.200 C 73.543 129.970,73.078 131.860,72.796 133.400 C 72.514 134.940,72.157 136.290,72.004 136.400 C 71.850 136.510,71.398 138.310,71.000 140.400 C 70.602 142.490,70.152 144.290,70.000 144.400 C 69.848 144.510,69.398 146.310,69.000 148.400 C 68.602 150.490,68.155 152.290,68.008 152.400 C 67.861 152.510,67.427 154.130,67.043 156.000 C 66.660 157.870,66.241 159.670,66.113 160.000 C 65.709 161.037,65.635 161.328,64.986 164.400 C 64.638 166.050,64.246 167.670,64.116 168.000 C 63.712 169.024,63.637 169.315,62.989 172.400 C 62.642 174.050,62.197 175.760,62.000 176.200 C 61.803 176.640,61.350 178.440,60.993 180.200 C 60.636 181.960,60.186 183.760,59.993 184.200 C 59.800 184.640,59.350 186.440,58.993 188.200 C 58.636 189.960,58.186 191.760,57.993 192.200 C 57.800 192.640,57.339 194.440,56.969 196.200 C 56.600 197.960,56.167 199.580,56.008 199.800 C 55.848 200.020,55.405 201.820,55.021 203.800 C 54.638 205.780,54.188 207.580,54.021 207.800 C 53.855 208.020,53.407 209.800,53.028 211.756 C 52.648 213.712,52.180 215.602,51.989 215.956 C 51.798 216.310,51.353 218.040,51.000 219.800 C 50.647 221.560,50.200 223.360,50.007 223.800 C 49.814 224.240,49.364 226.040,49.007 227.800 C 48.650 229.560,48.201 231.360,48.010 231.800 C 47.818 232.240,47.374 233.950,47.022 235.600 C 46.670 237.250,46.197 239.425,45.971 240.433 C 45.745 241.442,45.653 242.702,45.766 243.233 C 46.996 249.004,47.759 250.770,49.990 253.014 C 50.436 253.462,50.800 253.968,50.800 254.140 C 50.800 254.311,51.249 254.935,51.797 255.526 C 52.668 256.464,53.644 257.679,58.090 263.364 C 58.590 264.004,59.315 264.859,59.700 265.264 C 60.085 265.669,60.400 266.103,60.400 266.230 C 60.400 266.356,61.406 267.661,62.635 269.130 C 63.865 270.598,65.260 272.312,65.735 272.938 C 66.211 273.564,67.005 274.517,67.500 275.056 C 67.995 275.595,68.400 276.131,68.400 276.246 C 68.400 276.420,70.614 279.214,72.200 281.042 C 72.420 281.295,73.050 282.082,73.600 282.789 C 74.150 283.497,75.005 284.517,75.500 285.056 C 75.995 285.595,76.400 286.131,76.400 286.248 C 76.400 286.364,77.406 287.661,78.635 289.130 C 79.865 290.598,81.260 292.312,81.735 292.938 C 82.211 293.564,82.960 294.485,83.400 294.985 C 83.840 295.484,84.380 296.167,84.600 296.501 C 85.189 297.396,87.057 299.785,89.995 303.400 C 91.426 305.160,94.456 308.940,96.730 311.800 C 99.004 314.660,101.525 317.793,102.332 318.763 C 103.140 319.732,104.062 320.902,104.381 321.363 C 104.701 321.823,105.781 323.197,106.781 324.415 C 107.782 325.633,109.140 327.326,109.800 328.177 C 110.460 329.028,112.260 331.302,113.800 333.229 C 117.576 337.956,123.660 345.604,124.400 346.555 C 127.357 350.354,129.948 352.408,132.809 353.224 C 133.794 353.505,134.771 353.885,134.980 354.067 C 135.457 354.485,263.600 354.512,263.600 354.095 C 263.600 353.927,264.508 353.574,265.617 353.310 C 266.727 353.047,268.101 352.464,268.671 352.015 C 269.241 351.567,269.909 351.196,270.154 351.192 C 270.656 351.182,275.200 346.691,275.200 346.205 C 275.200 346.033,275.605 345.470,276.100 344.956 C 276.595 344.441,277.270 343.689,277.600 343.284 C 277.930 342.880,278.965 341.629,279.900 340.503 C 280.835 339.377,281.600 338.362,281.600 338.246 C 281.600 338.131,282.005 337.609,282.500 337.086 C 282.995 336.563,283.850 335.552,284.400 334.838 C 284.950 334.125,285.872 332.969,286.449 332.271 C 288.547 329.728,299.239 316.569,300.108 315.461 C 301.623 313.527,307.202 306.669,308.330 305.353 C 308.919 304.667,309.850 303.519,310.400 302.802 C 310.950 302.085,312.345 300.364,313.500 298.979 C 314.655 297.593,315.600 296.266,315.600 296.030 C 315.600 295.793,315.751 295.600,315.935 295.600 C 316.120 295.600,317.875 293.585,319.835 291.122 C 321.796 288.659,323.760 286.242,324.200 285.751 C 324.640 285.260,325.450 284.282,326.000 283.578 C 328.614 280.231,333.319 274.493,334.208 273.567 C 334.754 272.998,335.200 272.389,335.200 272.213 C 335.200 272.036,335.605 271.470,336.100 270.956 C 336.595 270.441,337.270 269.689,337.600 269.284 C 337.930 268.880,338.965 267.629,339.900 266.503 C 340.835 265.377,341.600 264.362,341.600 264.246 C 341.600 264.131,342.005 263.609,342.500 263.086 C 342.995 262.563,343.850 261.544,344.400 260.821 C 344.950 260.098,345.680 259.213,346.021 258.854 C 349.899 254.775,353.117 249.544,353.503 246.690 C 353.616 245.860,353.864 245.084,354.054 244.967 C 354.517 244.681,354.496 241.767,354.025 240.895 C 353.819 240.513,353.344 238.490,352.969 236.400 C 352.595 234.310,352.159 232.420,352.000 232.200 C 351.841 231.980,351.391 230.090,351.000 228.000 C 350.609 225.910,350.156 224.020,349.994 223.800 C 349.833 223.580,349.391 221.690,349.013 219.600 C 348.636 217.510,348.186 215.620,348.013 215.400 C 347.841 215.180,347.391 213.290,347.013 211.200 C 346.636 209.110,346.190 207.220,346.022 207.000 C 345.855 206.780,345.407 205.000,345.028 203.044 C 344.648 201.088,344.184 199.198,343.997 198.844 C 343.810 198.490,343.357 196.580,342.990 194.600 C 342.624 192.620,342.189 190.820,342.023 190.600 C 341.858 190.380,341.403 188.490,341.013 186.400 C 340.623 184.310,340.171 182.420,340.008 182.200 C 339.845 181.980,339.402 180.090,339.024 178.000 C 338.646 175.910,338.179 173.840,337.988 173.400 C 337.796 172.960,337.341 171.070,336.978 169.200 C 336.614 167.330,336.188 165.620,336.031 165.400 C 335.874 165.180,335.416 163.290,335.014 161.200 C 334.611 159.110,334.149 157.220,333.988 157.000 C 333.826 156.780,333.376 154.800,332.988 152.600 C 332.599 150.400,332.156 148.510,332.003 148.400 C 331.850 148.290,331.401 146.490,331.006 144.400 C 330.611 142.310,330.178 140.420,330.044 140.200 C 329.798 139.796,328.455 134.160,327.376 129.000 C 327.054 127.460,326.526 125.300,326.202 124.200 C 325.878 123.100,325.411 121.390,325.164 120.400 C 323.737 114.673,320.993 112.214,309.946 106.763 C 305.026 104.336,300.640 102.148,300.200 101.901 C 299.760 101.655,298.860 101.204,298.200 100.901 C 296.976 100.338,296.415 100.056,295.000 99.294 C 294.560 99.058,289.340 96.484,283.400 93.576 C 277.460 90.667,268.357 86.182,263.172 83.608 C 257.986 81.034,253.216 78.722,252.572 78.470 C 251.927 78.218,251.130 77.827,250.800 77.601 C 250.470 77.376,249.570 76.921,248.800 76.590 C 248.030 76.259,247.130 75.818,246.800 75.609 C 246.470 75.401,243.770 74.039,240.800 72.582 C 237.830 71.126,235.130 69.767,234.800 69.563 C 234.470 69.359,233.570 68.921,232.800 68.590 C 232.030 68.259,231.130 67.809,230.800 67.590 C 230.470 67.371,229.570 66.921,228.800 66.590 C 228.030 66.259,227.130 65.821,226.800 65.616 C 226.470 65.412,223.860 64.131,221.000 62.771 C 212.270 58.617,207.410 56.213,207.200 55.944 C 206.253 54.729,198.584 54.009,195.187 54.816 M204.546 73.000 C 206.917 74.210,209.101 75.200,209.400 75.200 C 209.698 75.200,210.181 75.438,210.472 75.729 C 210.763 76.020,211.855 76.584,212.900 76.983 C 213.945 77.382,214.800 77.829,214.800 77.975 C 214.800 78.122,215.700 78.566,216.800 78.961 C 217.900 79.357,218.800 79.807,218.800 79.961 C 218.800 80.116,219.700 80.566,220.800 80.961 C 221.900 81.357,222.800 81.807,222.800 81.961 C 222.800 82.116,223.700 82.566,224.800 82.961 C 225.900 83.357,226.800 83.842,226.800 84.040 C 226.800 84.238,227.009 84.400,227.265 84.400 C 227.667 84.400,240.460 90.720,297.200 118.954 L 308.600 124.627 309.051 126.897 C 309.299 128.146,309.635 129.490,309.798 129.884 C 309.960 130.278,310.507 132.400,311.012 134.600 C 311.518 136.800,312.401 140.580,312.977 143.000 C 313.552 145.420,314.377 149.020,314.811 151.000 C 315.244 152.980,315.765 154.960,315.968 155.400 C 316.170 155.840,316.648 157.910,317.030 160.000 C 317.412 162.090,317.842 163.890,317.986 164.000 C 318.130 164.110,318.560 165.910,318.942 168.000 C 319.324 170.090,319.789 172.160,319.976 172.600 C 320.163 173.040,320.892 175.920,321.597 179.000 C 322.301 182.080,323.140 185.590,323.461 186.800 C 323.782 188.010,324.384 190.657,324.798 192.682 C 325.213 194.706,325.719 196.686,325.923 197.082 C 326.127 197.477,326.523 199.060,326.803 200.600 C 327.084 202.140,327.466 203.813,327.653 204.318 C 327.841 204.823,328.368 206.983,328.826 209.118 C 329.739 213.376,329.776 213.529,330.108 214.400 C 330.234 214.730,330.556 216.260,330.825 217.800 C 331.093 219.340,331.489 221.050,331.704 221.600 C 331.919 222.150,332.529 224.490,333.059 226.800 C 334.722 234.050,335.658 238.182,335.752 238.688 C 335.802 238.957,335.969 239.302,336.122 239.455 C 336.583 239.917,336.435 242.021,335.900 242.588 C 335.625 242.880,334.917 243.722,334.327 244.460 C 333.737 245.197,332.243 247.060,331.006 248.600 C 329.770 250.140,328.362 251.919,327.879 252.554 C 327.396 253.189,325.515 255.481,323.700 257.648 C 321.885 259.815,320.400 261.680,320.400 261.794 C 320.400 261.907,320.085 262.328,319.700 262.728 C 319.315 263.129,318.460 264.158,317.800 265.014 C 317.140 265.871,316.105 267.142,315.500 267.839 C 314.895 268.535,314.400 269.286,314.400 269.507 C 314.400 269.727,313.950 270.203,313.400 270.563 C 312.850 270.924,312.400 271.386,312.400 271.591 C 312.400 271.796,311.995 272.405,311.500 272.944 C 311.005 273.483,310.150 274.503,309.600 275.211 C 309.050 275.918,308.420 276.705,308.200 276.958 C 306.098 279.381,304.400 281.621,304.400 281.972 C 304.400 282.207,304.247 282.400,304.061 282.400 C 303.874 282.400,302.550 283.885,301.118 285.700 C 295.676 292.598,282.714 308.682,281.093 310.549 C 280.162 311.620,279.220 312.802,279.000 313.174 C 278.453 314.098,274.097 319.481,272.504 321.200 C 271.791 321.970,271.205 322.728,271.203 322.884 C 271.200 323.148,268.613 326.347,264.673 330.958 C 263.753 332.035,262.820 333.219,262.600 333.589 C 262.202 334.258,261.635 334.957,260.300 336.429 C 259.615 337.184,258.348 337.200,199.641 337.200 L 139.683 337.200 138.541 335.854 C 137.914 335.114,136.950 333.919,136.400 333.198 C 135.850 332.477,135.002 331.418,134.515 330.844 C 133.498 329.644,129.598 324.757,128.286 323.039 C 127.799 322.400,126.950 321.362,126.400 320.731 C 125.850 320.100,124.459 318.373,123.310 316.892 C 120.979 313.891,89.327 274.029,87.904 272.303 C 87.407 271.700,86.819 270.980,86.597 270.703 C 86.375 270.426,84.980 268.721,83.497 266.914 C 82.014 265.107,80.800 263.532,80.800 263.414 C 80.800 263.296,80.485 262.867,80.100 262.460 C 79.715 262.053,79.130 261.376,78.800 260.955 C 78.470 260.535,76.985 258.714,75.500 256.909 C 74.015 255.104,72.800 253.540,72.800 253.432 C 72.800 253.324,72.395 252.795,71.900 252.256 C 71.405 251.717,70.814 251.034,70.588 250.738 C 70.076 250.070,64.964 243.657,64.177 242.695 C 63.537 241.913,63.397 239.773,63.963 239.423 C 64.163 239.299,64.637 237.444,65.017 235.299 C 65.396 233.155,65.844 231.220,66.012 231.000 C 66.179 230.780,66.614 229.070,66.978 227.200 C 67.341 225.330,67.801 223.440,67.999 223.000 C 68.196 222.560,68.647 220.760,69.000 219.000 C 69.353 217.240,69.796 215.514,69.984 215.165 C 70.172 214.816,70.647 212.836,71.039 210.765 C 71.432 208.694,71.870 206.910,72.014 206.800 C 72.158 206.690,72.599 204.890,72.994 202.800 C 73.389 200.710,73.870 198.691,74.063 198.313 C 74.256 197.935,74.765 196.045,75.194 194.113 C 75.623 192.181,76.447 188.710,77.025 186.400 C 77.602 184.090,78.426 180.580,78.855 178.600 C 79.284 176.620,79.798 174.640,79.998 174.200 C 80.197 173.760,80.659 171.870,81.022 170.000 C 81.386 168.130,81.820 166.420,81.986 166.200 C 82.152 165.980,82.609 164.090,83.000 162.000 C 83.391 159.910,83.856 158.014,84.032 157.788 C 84.208 157.561,84.661 155.671,85.038 153.588 C 85.416 151.504,85.849 149.710,86.000 149.600 C 86.152 149.490,86.599 147.690,86.994 145.600 C 87.388 143.510,87.848 141.620,88.014 141.400 C 88.180 141.180,88.615 139.470,88.981 137.600 C 89.347 135.730,89.884 133.570,90.174 132.800 C 90.464 132.030,90.930 130.050,91.210 128.400 C 91.489 126.750,91.916 125.186,92.159 124.924 C 92.556 124.495,199.497 70.845,200.018 70.813 C 200.138 70.806,202.176 71.790,204.546 73.000 " stroke="none" fill="#0494dc" fill-rule="evenodd"></path>
  <path id="path2" d="M37.239 91.191 C 37.005 92.286,36.697 93.906,36.555 94.791 C 36.414 95.676,36.171 96.400,36.016 96.400 C 35.861 96.400,35.404 98.200,35.000 100.400 C 34.596 102.600,34.149 104.400,34.006 104.400 C 33.864 104.400,33.421 106.155,33.022 108.300 C 32.624 110.445,32.152 112.386,31.973 112.612 C 31.794 112.839,31.339 114.729,30.962 116.812 C 30.584 118.896,30.151 120.690,30.000 120.800 C 29.848 120.910,29.398 122.710,29.000 124.800 C 28.602 126.890,28.152 128.690,28.000 128.800 C 27.848 128.910,27.398 130.710,27.000 132.800 C 26.602 134.890,26.152 136.690,26.000 136.800 C 25.848 136.910,25.401 138.710,25.006 140.800 C 24.612 142.890,24.151 144.780,23.982 145.000 C 23.814 145.220,23.362 147.020,22.979 149.000 C 22.595 150.980,22.153 152.780,21.997 153.000 C 21.840 153.220,21.388 155.110,20.994 157.200 C 20.599 159.290,20.152 161.090,20.000 161.200 C 19.848 161.310,19.401 163.110,19.006 165.200 C 18.612 167.290,18.151 169.180,17.982 169.400 C 17.814 169.620,17.362 171.420,16.979 173.400 C 16.595 175.380,16.145 177.180,15.979 177.400 C 15.812 177.620,15.362 179.420,14.979 181.400 C 14.595 183.380,14.145 185.180,13.978 185.400 C 13.810 185.620,13.364 187.510,12.987 189.600 C 12.609 191.690,12.161 193.580,11.992 193.800 C 11.822 194.020,11.386 195.730,11.022 197.600 C 10.659 199.470,10.199 201.360,10.001 201.800 C 9.804 202.240,9.353 204.040,9.000 205.800 C 8.647 207.560,8.212 209.273,8.034 209.606 C 7.856 209.940,7.388 211.920,6.994 214.006 C 6.600 216.093,6.139 217.982,5.970 218.204 C 5.801 218.426,5.340 220.316,4.947 222.404 C 4.554 224.492,4.118 226.290,3.978 226.400 C 3.839 226.510,3.398 228.310,3.000 230.400 C 2.602 232.490,2.154 234.290,2.005 234.400 C 1.683 234.638,-0.001 242.989,-0.000 244.345 C -0.000 245.191,0.135 245.265,1.300 245.058 C 2.015 244.932,3.545 244.708,4.700 244.562 C 5.855 244.416,6.800 244.166,6.800 244.007 C 6.800 243.847,9.050 243.391,11.800 242.992 C 14.550 242.594,16.800 242.117,16.800 241.934 C 16.800 241.750,17.225 241.600,17.743 241.600 C 18.605 241.600,18.731 241.340,19.200 238.600 C 19.482 236.950,19.838 235.600,19.990 235.600 C 20.142 235.600,20.596 233.800,21.000 231.600 C 21.404 229.400,21.854 227.600,22.000 227.600 C 22.146 227.600,22.596 225.800,23.000 223.600 C 23.404 221.400,23.854 219.600,24.000 219.600 C 24.146 219.600,24.596 217.800,25.000 215.600 C 25.404 213.400,25.854 211.600,26.000 211.600 C 26.146 211.600,26.596 209.800,27.000 207.600 C 27.404 205.400,27.854 203.600,28.000 203.600 C 28.146 203.600,28.596 201.800,29.000 199.600 C 29.404 197.400,29.854 195.600,30.000 195.600 C 30.146 195.600,30.596 193.800,31.000 191.600 C 31.404 189.400,31.854 187.600,32.000 187.600 C 32.146 187.600,32.596 185.800,33.000 183.600 C 33.404 181.400,33.859 179.600,34.012 179.600 C 34.164 179.600,34.613 177.710,35.009 175.400 C 35.405 173.090,35.850 171.200,35.998 171.200 C 36.145 171.200,36.596 169.400,37.000 167.200 C 37.404 165.000,37.854 163.200,38.000 163.200 C 38.146 163.200,38.596 161.400,39.000 159.200 C 39.404 157.000,39.854 155.200,40.000 155.200 C 40.146 155.200,40.596 153.400,41.000 151.200 C 41.404 149.000,41.854 147.200,42.000 147.200 C 42.146 147.200,42.596 145.400,43.000 143.200 C 43.404 141.000,43.854 139.200,44.000 139.200 C 44.146 139.200,44.596 137.400,45.000 135.200 C 45.404 133.000,45.854 131.200,46.000 131.200 C 46.146 131.200,46.596 129.400,47.000 127.200 C 47.404 125.000,47.854 123.200,48.000 123.200 C 48.146 123.200,48.596 121.400,49.000 119.200 C 49.404 117.000,49.854 115.200,50.000 115.200 C 50.146 115.200,50.596 113.400,51.000 111.200 C 51.404 109.000,51.855 107.200,52.003 107.200 C 52.151 107.200,52.501 105.915,52.782 104.345 L 53.292 101.490 51.746 100.149 C 49.446 98.153,47.791 96.735,47.161 96.220 C 46.852 95.968,45.213 94.555,43.517 93.081 C 41.821 91.606,40.265 90.400,40.060 90.400 C 39.854 90.400,39.582 90.130,39.455 89.800 C 38.909 88.377,37.677 89.151,37.239 91.191 M361.191 90.327 C 360.416 90.917,359.387 91.760,358.903 92.200 C 358.419 92.640,357.523 93.408,356.912 93.906 C 356.300 94.405,354.922 95.620,353.850 96.606 C 352.777 97.593,351.778 98.400,351.628 98.400 C 351.479 98.400,350.793 98.985,350.104 99.700 L 348.850 101.000 349.453 103.600 C 349.784 105.030,350.404 107.910,350.829 110.000 C 351.255 112.090,351.776 114.160,351.987 114.600 C 352.198 115.040,352.672 117.110,353.040 119.200 C 353.409 121.290,353.841 123.090,354.001 123.200 C 354.160 123.310,354.613 125.245,355.007 127.500 C 355.400 129.755,355.875 131.600,356.061 131.600 C 356.247 131.600,356.400 132.031,356.400 132.557 C 356.400 133.868,357.551 139.659,357.961 140.409 C 358.144 140.744,358.614 142.814,359.006 145.009 C 359.398 147.204,359.849 149.090,360.008 149.200 C 360.167 149.310,360.617 151.200,361.008 153.400 C 361.399 155.600,361.846 157.490,362.001 157.600 C 362.157 157.710,362.578 159.554,362.937 161.698 C 363.297 163.842,363.761 165.912,363.970 166.298 C 364.179 166.684,364.656 168.710,365.031 170.800 C 365.405 172.890,365.845 174.780,366.009 175.000 C 366.172 175.220,366.624 177.200,367.012 179.400 C 367.401 181.600,367.852 183.490,368.015 183.600 C 368.178 183.710,368.617 185.600,368.991 187.800 C 369.364 190.000,369.810 191.980,369.982 192.200 C 370.153 192.420,370.610 194.400,370.998 196.600 C 371.385 198.800,371.823 200.690,371.971 200.800 C 372.119 200.910,372.569 202.800,372.971 205.000 C 373.373 207.200,373.838 209.180,374.004 209.400 C 374.170 209.620,374.621 211.600,375.006 213.800 C 375.392 216.000,375.840 217.980,376.003 218.200 C 376.166 218.420,376.609 220.310,376.987 222.400 C 377.364 224.490,377.815 226.380,377.987 226.600 C 378.160 226.820,378.621 228.845,379.012 231.100 C 379.402 233.355,379.842 235.200,379.989 235.200 C 380.136 235.200,380.490 236.640,380.776 238.400 C 381.256 241.359,381.367 241.600,382.248 241.600 C 382.771 241.600,383.200 241.742,383.200 241.915 C 383.200 242.088,385.450 242.566,388.200 242.976 C 390.950 243.387,393.200 243.851,393.200 244.006 C 393.200 244.162,394.155 244.402,395.321 244.539 C 396.488 244.676,398.018 244.904,398.721 245.044 C 399.861 245.272,400.000 245.201,400.000 244.387 C 400.000 243.009,398.339 234.258,397.990 233.800 C 397.822 233.580,397.365 231.555,396.973 229.300 C 396.581 227.045,396.137 225.200,395.986 225.200 C 395.834 225.200,395.387 223.310,394.991 221.000 C 394.595 218.690,394.150 216.800,394.002 216.800 C 393.855 216.800,393.400 214.955,392.992 212.700 C 392.584 210.445,392.129 208.510,391.981 208.400 C 391.833 208.290,391.384 206.445,390.983 204.300 C 390.582 202.155,390.106 200.400,389.927 200.400 C 389.747 200.400,389.600 200.032,389.600 199.583 C 389.600 198.443,388.447 192.769,388.018 191.800 C 387.823 191.360,387.352 189.290,386.970 187.200 C 386.588 185.110,386.148 183.310,385.992 183.200 C 385.836 183.090,385.387 181.155,384.993 178.900 C 384.600 176.645,384.154 174.800,384.004 174.800 C 383.853 174.800,383.405 172.910,383.009 170.600 C 382.613 168.290,382.162 166.400,382.006 166.400 C 381.850 166.400,381.402 164.555,381.012 162.300 C 380.621 160.045,380.168 158.020,380.006 157.800 C 379.844 157.580,379.391 155.690,379.000 153.600 C 378.609 151.510,378.157 149.620,377.995 149.400 C 377.834 149.180,377.373 147.200,376.971 145.000 C 376.569 142.800,376.124 140.910,375.982 140.800 C 375.840 140.690,375.398 138.890,375.000 136.800 C 374.602 134.710,374.160 132.910,374.018 132.800 C 373.876 132.690,373.429 130.800,373.024 128.600 C 372.619 126.400,372.160 124.510,372.003 124.400 C 371.847 124.290,371.401 122.400,371.012 120.200 C 370.624 118.000,370.169 116.020,370.003 115.800 C 369.836 115.580,369.379 113.555,368.988 111.300 C 368.598 109.045,368.150 107.200,367.994 107.200 C 367.838 107.200,367.387 105.310,366.991 103.000 C 366.595 100.690,366.146 98.800,365.994 98.800 C 365.842 98.800,365.382 96.910,364.972 94.600 C 364.561 92.290,364.085 90.400,363.913 90.400 C 363.741 90.400,363.600 90.130,363.600 89.800 C 363.600 88.930,362.796 89.106,361.191 90.327 " stroke="none" fill="#1c448c" fill-rule="evenodd"></path>
  <path id="path3" d="M187.248 6.814 C 185.185 7.883,183.025 8.945,182.448 9.173 C 181.872 9.402,181.130 9.773,180.800 9.999 C 180.470 10.224,179.570 10.679,178.800 11.010 C 178.030 11.341,177.130 11.791,176.800 12.010 C 176.470 12.229,175.570 12.679,174.800 13.010 C 174.030 13.341,173.130 13.791,172.800 14.010 C 172.470 14.229,171.570 14.679,170.800 15.010 C 170.030 15.341,169.130 15.791,168.800 16.010 C 168.470 16.229,167.570 16.679,166.800 17.010 C 166.030 17.341,165.130 17.791,164.800 18.010 C 164.470 18.229,163.570 18.692,162.800 19.039 C 160.404 20.119,159.766 20.432,146.319 27.112 C 139.110 30.693,133.094 33.602,132.950 33.577 C 132.807 33.552,132.579 33.682,132.445 33.866 C 132.174 34.236,129.091 35.727,128.845 35.607 C 128.759 35.566,128.579 35.682,128.445 35.866 C 128.174 36.236,125.091 37.727,124.845 37.607 C 124.759 37.566,124.579 37.682,124.445 37.866 C 124.174 38.236,121.091 39.727,120.845 39.607 C 120.759 39.566,120.579 39.682,120.445 39.866 C 120.174 40.236,117.091 41.727,116.845 41.607 C 116.759 41.566,116.579 41.682,116.445 41.866 C 116.173 42.236,113.604 43.480,113.045 43.512 C 112.849 43.523,112.579 43.682,112.445 43.866 C 112.126 44.301,109.089 45.766,108.700 45.672 C 108.535 45.632,108.400 45.744,108.400 45.921 C 108.400 46.098,107.500 46.566,106.400 46.961 C 105.300 47.357,104.400 47.807,104.400 47.961 C 104.400 48.116,103.500 48.566,102.400 48.961 C 101.300 49.357,100.400 49.807,100.400 49.961 C 100.400 50.116,99.500 50.566,98.400 50.961 C 97.300 51.357,96.400 51.807,96.400 51.961 C 96.400 52.116,95.500 52.566,94.400 52.961 C 93.300 53.357,92.400 53.807,92.400 53.961 C 92.400 54.116,91.500 54.566,90.400 54.961 C 89.300 55.357,88.400 55.807,88.400 55.961 C 88.400 56.116,87.500 56.566,86.400 56.961 C 85.300 57.357,84.399 57.797,84.399 57.940 C 84.398 58.083,83.543 58.547,82.499 58.971 C 81.454 59.394,80.510 59.849,80.400 59.982 C 80.290 60.114,79.390 60.572,78.400 61.000 C 77.410 61.428,76.510 61.878,76.400 62.000 C 76.290 62.122,75.390 62.572,74.400 63.000 C 73.410 63.428,72.510 63.878,72.400 64.000 C 72.290 64.122,71.390 64.572,70.400 65.000 C 69.410 65.428,68.510 65.878,68.400 66.000 C 68.290 66.122,67.390 66.572,66.400 67.000 C 65.410 67.428,64.510 67.886,64.400 68.018 C 64.290 68.151,63.346 68.606,62.301 69.029 C 61.257 69.453,60.402 69.935,60.401 70.100 C 60.401 70.265,60.192 70.400,59.938 70.400 C 59.316 70.400,48.095 75.923,47.823 76.363 C 47.705 76.554,48.191 77.165,48.904 77.721 C 49.617 78.276,50.759 79.241,51.442 79.865 C 52.993 81.282,55.130 83.095,56.787 84.400 C 57.486 84.950,58.899 86.161,59.929 87.091 C 61.752 88.739,62.558 89.115,62.940 88.496 C 63.044 88.330,92.301 73.615,127.958 55.796 L 192.787 23.400 192.794 14.100 L 192.800 4.800 191.900 4.835 C 191.405 4.855,189.312 5.745,187.248 6.814 M207.200 13.911 C 207.200 24.205,207.036 23.660,210.539 24.998 C 211.562 25.389,212.400 25.829,212.400 25.975 C 212.400 26.122,213.300 26.566,214.400 26.961 C 215.500 27.357,216.400 27.807,216.400 27.961 C 216.400 28.116,217.300 28.566,218.400 28.961 C 219.500 29.357,220.400 29.872,220.400 30.107 C 220.400 30.341,220.508 30.426,220.640 30.294 C 220.917 30.016,224.057 31.552,224.494 32.178 C 224.656 32.410,224.791 32.468,224.794 32.306 C 224.802 31.939,228.094 33.605,228.494 34.178 C 228.656 34.410,228.791 34.465,228.794 34.299 C 228.797 34.134,229.472 34.359,230.294 34.799 C 231.116 35.240,231.957 35.600,232.163 35.600 C 232.369 35.600,232.821 35.840,233.169 36.134 C 233.516 36.428,234.430 36.908,235.200 37.200 C 235.970 37.492,236.870 37.942,237.200 38.200 C 237.530 38.458,238.430 38.908,239.200 39.200 C 239.970 39.492,240.870 39.949,241.200 40.215 C 241.530 40.481,242.475 40.916,243.300 41.180 C 244.125 41.445,244.800 41.793,244.800 41.952 C 244.800 42.111,245.700 42.566,246.800 42.961 C 247.900 43.357,248.800 43.807,248.800 43.961 C 248.800 44.116,249.700 44.566,250.800 44.961 C 251.900 45.357,252.800 45.842,252.800 46.040 C 252.800 46.238,252.979 46.400,253.197 46.400 C 253.880 46.400,256.800 47.773,256.800 48.094 C 256.800 48.262,256.979 48.400,257.197 48.400 C 257.880 48.400,260.800 49.773,260.800 50.094 C 260.800 50.262,260.998 50.400,261.240 50.400 C 261.759 50.400,264.512 51.646,264.800 52.012 C 264.910 52.152,265.945 52.602,267.100 53.012 C 268.255 53.422,269.200 53.884,269.200 54.039 C 269.200 54.193,270.100 54.643,271.200 55.039 C 272.300 55.434,273.200 55.884,273.200 56.039 C 273.200 56.193,274.100 56.643,275.200 57.039 C 276.300 57.434,277.200 57.902,277.200 58.079 C 277.200 58.256,277.416 58.400,277.680 58.400 C 277.944 58.400,285.924 62.270,295.414 67.000 C 304.903 71.730,312.877 75.600,313.134 75.600 C 313.390 75.600,313.600 75.740,313.600 75.912 C 313.600 76.084,314.500 76.573,315.600 77.000 C 316.700 77.427,317.600 77.877,317.600 78.000 C 317.600 78.123,318.500 78.573,319.600 79.000 C 320.700 79.427,321.600 79.916,321.600 80.088 C 321.600 80.260,321.842 80.400,322.137 80.400 C 322.433 80.400,325.471 81.809,328.888 83.531 C 332.306 85.253,335.709 86.903,336.451 87.197 C 337.193 87.491,338.110 87.996,338.490 88.319 C 339.288 88.998,339.830 88.719,342.600 86.208 C 344.750 84.259,345.964 83.230,347.800 81.800 C 350.626 79.600,353.587 76.703,353.370 76.351 C 353.252 76.160,349.610 74.252,345.278 72.112 C 340.945 69.971,337.290 68.065,337.155 67.875 C 337.021 67.686,336.751 67.529,336.555 67.527 C 336.246 67.522,326.807 63.069,324.600 61.887 C 322.895 60.973,321.713 60.393,319.400 59.335 C 318.080 58.732,316.890 58.079,316.755 57.885 C 316.621 57.691,316.399 57.539,316.263 57.548 C 315.719 57.585,312.982 56.282,312.706 55.855 C 312.544 55.605,312.409 55.521,312.406 55.670 C 312.403 55.818,306.865 53.195,300.100 49.840 C 281.831 40.781,276.944 38.400,276.618 38.400 C 276.456 38.400,275.846 38.064,275.262 37.652 C 274.678 37.241,273.750 36.768,273.200 36.600 C 272.650 36.432,271.739 35.971,271.176 35.574 C 270.612 35.178,269.667 34.732,269.076 34.583 C 268.484 34.435,268.000 34.171,268.000 33.997 C 268.000 33.823,267.100 33.357,266.000 32.961 C 264.900 32.566,264.000 32.111,264.000 31.952 C 264.000 31.793,263.412 31.468,262.693 31.231 C 261.974 30.993,259.420 29.809,257.017 28.600 C 254.615 27.390,252.413 26.400,252.124 26.400 C 251.836 26.400,251.600 26.238,251.600 26.040 C 251.600 25.842,250.700 25.357,249.600 24.961 C 248.500 24.566,247.600 24.110,247.600 23.948 C 247.600 23.786,247.195 23.532,246.700 23.382 C 245.394 22.987,235.845 18.261,235.555 17.866 C 235.421 17.682,235.197 17.545,235.058 17.561 C 234.658 17.606,231.826 16.236,231.555 15.866 C 231.421 15.682,231.194 15.550,231.053 15.571 C 230.758 15.617,222.427 11.636,214.286 7.561 C 206.496 3.661,207.200 3.030,207.200 13.911 M126.600 378.400 C 126.460 378.840,126.148 379.200,125.906 379.200 C 125.665 379.200,125.563 379.296,125.681 379.414 C 125.799 379.532,125.109 381.182,124.148 383.082 C 123.186 384.981,122.400 386.775,122.400 387.067 C 122.400 387.360,122.209 387.600,121.976 387.600 C 121.743 387.600,121.664 387.780,121.800 388.000 C 121.936 388.220,121.885 388.400,121.687 388.400 C 121.489 388.400,121.100 389.165,120.824 390.100 C 120.547 391.035,120.083 392.070,119.792 392.400 C 119.501 392.730,119.139 393.495,118.988 394.100 L 118.713 395.200 199.157 395.200 C 271.320 395.200,279.600 395.137,279.600 394.584 C 279.600 394.245,279.248 393.278,278.817 392.434 C 278.387 391.590,278.147 390.787,278.284 390.650 C 278.421 390.512,278.348 390.400,278.121 390.400 C 277.894 390.400,277.386 389.545,276.991 388.500 C 276.596 387.455,276.150 386.510,276.000 386.400 C 275.850 386.290,275.404 385.345,275.009 384.300 C 274.614 383.255,274.173 382.400,274.028 382.400 C 273.884 382.400,273.434 381.425,273.029 380.233 C 272.515 378.722,272.036 377.996,271.446 377.838 C 268.569 377.066,126.849 377.616,126.600 378.400 " stroke="none" fill="#1cc4d4" fill-rule="evenodd"></path>
  <path id="path4" d="" stroke="none" fill="#5098ac" fill-rule="evenodd"></path>
</svg>