<svg xmlns="http://www.w3.org/2000/svg" width="36" height="36" viewBox="0 0 36 36"><title>employee_group_line</title><g id="e1709d41-49e9-409f-9912-e2615f9236f6" data-name="Layer 3"><path d="M18.42,16.31a5.7,5.7,0,1,1,5.76-5.7A5.74,5.74,0,0,1,18.42,16.31Zm0-9.4a3.7,3.7,0,1,0,3.76,3.7A3.74,3.74,0,0,0,18.42,6.91Z"/><path d="M18.42,16.31a5.7,5.7,0,1,1,5.76-5.7A5.74,5.74,0,0,1,18.42,16.31Zm0-9.4a3.7,3.7,0,1,0,3.76,3.7A3.74,3.74,0,0,0,18.42,6.91Z"/><path d="M21.91,17.65a20.6,20.6,0,0,0-13,2A1.77,1.77,0,0,0,8,21.25v3.56a1,1,0,0,0,2,0V21.38a18.92,18.92,0,0,1,12-1.68Z"/><path d="M33,22H26.3V20.52a1,1,0,0,0-2,0V22H17a1,1,0,0,0-1,1V33a1,1,0,0,0,1,1H33a1,1,0,0,0,1-1V23A1,1,0,0,0,33,22ZM32,32H18V24h6.3v.41a1,1,0,0,0,2,0V24H32Z"/><rect x="21.81" y="27.42" width="5.96" height="1.4"/><path d="M10.84,12.24a18,18,0,0,0-7.95,2A1.67,1.67,0,0,0,2,15.71v3.1a1,1,0,0,0,2,0v-2.9a16,16,0,0,1,7.58-1.67A7.28,7.28,0,0,1,10.84,12.24Z"/><path d="M33.11,14.23a17.8,17.8,0,0,0-7.12-2,7.46,7.46,0,0,1-.73,2A15.89,15.89,0,0,1,32,15.91v2.9a1,1,0,1,0,2,0v-3.1A1.67,1.67,0,0,0,33.11,14.23Z"/><path d="M10.66,10.61c0-.23,0-.45,0-.67a3.07,3.07,0,0,1,.54-6.11,3.15,3.15,0,0,1,2.2.89,8.16,8.16,0,0,1,1.7-1.08,5.13,5.13,0,0,0-9,3.27,5.1,5.1,0,0,0,4.7,5A7.42,7.42,0,0,1,10.66,10.61Z"/><path d="M24.77,1.83a5.17,5.17,0,0,0-3.69,1.55,7.87,7.87,0,0,1,1.9,1,3.14,3.14,0,0,1,4.93,2.52,3.09,3.09,0,0,1-1.79,2.77,7.14,7.14,0,0,1,.06.93,7.88,7.88,0,0,1-.1,1.2,5.1,5.1,0,0,0,3.83-4.9A5.12,5.12,0,0,0,24.77,1.83Z"/></g></svg>