<svg xmlns="http://www.w3.org/2000/svg" width="36" height="36" viewBox="0 0 36 36"><title>employee_group_solid</title><g id="ad30ea0b-4044-46a8-9d02-5476e64acf86" data-name="Layer 3"><ellipse cx="18" cy="11.28" rx="4.76" ry="4.7"/><path d="M10.78,11.75c.16,0,.32,0,.48,0,0-.15,0-.28,0-.43a6.7,6.7,0,0,1,3.75-6,4.62,4.62,0,1,0-4.21,6.46Z"/><path d="M24.76,11.28c0,.15,0,.28,0,.43.16,0,.32,0,.48,0A4.58,4.58,0,1,0,21,5.29,6.7,6.7,0,0,1,24.76,11.28Z"/><path d="M22.29,16.45a21.45,21.45,0,0,1,5.71,2,2.71,2.71,0,0,1,.68.53H34V15.56a.72.72,0,0,0-.38-.64,18,18,0,0,0-8.4-2.05l-.66,0A6.66,6.66,0,0,1,22.29,16.45Z"/><path d="M6.53,20.92A2.76,2.76,0,0,1,8,18.47a21.45,21.45,0,0,1,5.71-2,6.66,6.66,0,0,1-2.27-3.55l-.66,0a18,18,0,0,0-8.4,2.05.72.72,0,0,0-.38.64V22H6.53Z"/><rect x="21.46" y="26.69" width="5.96" height="1.4"/><path d="M32.81,21.26H25.94v-1a1,1,0,0,0-2,0v1H22V18.43A20.17,20.17,0,0,0,18,18a19.27,19.27,0,0,0-9.06,2.22.76.76,0,0,0-.41.68v5.61h7.11v6.09a1,1,0,0,0,1,1H32.81a1,1,0,0,0,1-1V22.26A1,1,0,0,0,32.81,21.26Zm-1,10.36H17.64V23.26h6.3v.91a1,1,0,0,0,2,0v-.91h5.87Z"/></g></svg>