<svg version="1.1" width="36" height="36"  viewBox="0 0 36 36" preserveAspectRatio="xMidYMid meet" xmlns="http://www.w3.org/2000/svg" xmlns:xlink="http://www.w3.org/1999/xlink">
    <title>bell-curve-line</title>
    <path d="M33,29H3A1,1,0,1,1,3,27H33A1,1,0,1,1,33,29Z" class="clr-i-outline clr-i-outline-path-1"></path><path d="M33,25h-.62a8.11,8.11,0,0,1-8-6.67C23.62,14.44,21.89,7.94,18,7.94s-5.69,6.51-6.38,10.39a8.11,8.11,0,0,1-8,6.65H3a1,1,0,1,1,0-2h.6A6.11,6.11,0,0,0,9.6,18c1.41-7.88,4.3-12,8.35-12s6.93,4.16,8.33,12a6.11,6.11,0,0,0,6,5H33a1,1,0,0,1,0,2Z" class="clr-i-outline clr-i-outline-path-2"></path>
    <rect x="0" y="0" width="36" height="36" fill-opacity="0"/>
</svg>