<?xml version="1.0" encoding="UTF-8"?>
<svg width="984px" height="770px" viewBox="0 0 984 770" version="1.1" xmlns="http://www.w3.org/2000/svg" xmlns:xlink="http://www.w3.org/1999/xlink">
    <title>Use Cases</title>
    <defs>
        <linearGradient x1="79.8099607%" y1="5.07124266%" x2="64.9571413%" y2="30.9296583%" id="linearGradient-1">
            <stop stop-color="#FFFFFF" stop-opacity="0.427985937" offset="0%"></stop>
            <stop stop-color="#FFFFFF" stop-opacity="0.37224104" offset="43.6298077%"></stop>
            <stop stop-color="#FFFFFF" offset="100%"></stop>
        </linearGradient>
        <linearGradient x1="81.2189204%" y1="3.95964028%" x2="65.7996346%" y2="30.9296583%" id="linearGradient-2">
            <stop stop-color="#FFFFFF" stop-opacity="0.427985937" offset="0%"></stop>
            <stop stop-color="#FFFFFF" stop-opacity="0.37224104" offset="43.6298077%"></stop>
            <stop stop-color="#FFFFFF" offset="100%"></stop>
        </linearGradient>
    </defs>
    <g id="Final" stroke="none" stroke-width="1" fill="none" fill-rule="evenodd" opacity="0.9">
        <g id="Rd-3-Homepage" transform="translate(-456.000000, -1068.000000)">
            <g id="Use-Cases" transform="translate(-1022.000000, 1066.000000)">
                <g id="texture" transform="translate(981.000000, 0.000000)" opacity="0.432776163">
                    <g id="Group">
                        <g id="Group-2" stroke="#717074" stroke-opacity="0.5">
                            <polygon id="Path" points="649 0 556 0 556 93 649 93"></polygon>
                            <line x1="649" y1="0" x2="556" y2="93" id="Path"></line>
                            <polygon id="Path" points="742 0 649 0 649 93 742 93"></polygon>
                            <line x1="742" y1="0" x2="649" y2="93" id="Path"></line>
                            <polygon id="Path" points="834 0 741 0 741 93 834 93"></polygon>
                            <line x1="834" y1="0" x2="741" y2="93" id="Path"></line>
                            <polygon id="Path" points="927 0 834 0 834 93 927 93"></polygon>
                            <line x1="927" y1="0" x2="834" y2="93" id="Path"></line>
                            <polygon id="Path" points="1020 0 927 0 927 93 1020 93"></polygon>
                            <line x1="1020" y1="0" x2="927" y2="93" id="Path"></line>
                            <polygon id="Path" points="1113 0 1020 0 1020 93 1113 93"></polygon>
                            <line x1="1113" y1="0" x2="1020" y2="93" id="Path"></line>
                            <polygon id="Path" points="1205 0 1112 0 1112 93 1205 93"></polygon>
                            <line x1="1205" y1="0" x2="1112" y2="93" id="Path"></line>
                            <polygon id="Path" points="1298 0 1205 0 1205 93 1298 93"></polygon>
                            <line x1="1298" y1="0" x2="1205" y2="93" id="Path"></line>
                            <polygon id="Path" points="1391 0 1298 0 1298 93 1391 93"></polygon>
                            <line x1="1391" y1="0" x2="1298" y2="93" id="Path"></line>
                            <polygon id="Path" points="1483 0 1390 0 1390 93 1483 93"></polygon>
                            <line x1="1483" y1="0" x2="1390" y2="93" id="Path"></line>
                            <polygon id="Path" points="649 93 556 93 556 186 649 186"></polygon>
                            <line x1="649" y1="93" x2="556" y2="186" id="Path"></line>
                            <polygon id="Path" points="742 93 649 93 649 186 742 186"></polygon>
                            <line x1="742" y1="93" x2="649" y2="186" id="Path"></line>
                            <polygon id="Path" points="834 93 741 93 741 186 834 186"></polygon>
                            <line x1="834" y1="93" x2="741" y2="186" id="Path"></line>
                            <polygon id="Path" points="927 93 834 93 834 186 927 186"></polygon>
                            <line x1="927" y1="93" x2="834" y2="186" id="Path"></line>
                            <polygon id="Path" points="1020 93 927 93 927 186 1020 186"></polygon>
                            <line x1="1020" y1="93" x2="927" y2="186" id="Path"></line>
                            <polygon id="Path" points="1113 93 1020 93 1020 186 1113 186"></polygon>
                            <line x1="1113" y1="93" x2="1020" y2="186" id="Path"></line>
                            <polygon id="Path" points="1205 93 1112 93 1112 186 1205 186"></polygon>
                            <line x1="1205" y1="93" x2="1112" y2="186" id="Path"></line>
                            <polygon id="Path" points="1298 93 1205 93 1205 186 1298 186"></polygon>
                            <line x1="1298" y1="93" x2="1205" y2="186" id="Path"></line>
                            <polygon id="Path" points="1391 93 1298 93 1298 186 1391 186"></polygon>
                            <line x1="1391" y1="93" x2="1298" y2="186" id="Path"></line>
                            <polygon id="Path" points="1483 93 1390 93 1390 186 1483 186"></polygon>
                            <line x1="1483" y1="93" x2="1390" y2="186" id="Path"></line>
                            <polygon id="Path" points="649 185 556 185 556 278 649 278"></polygon>
                            <line x1="649" y1="185" x2="556" y2="278" id="Path"></line>
                            <polygon id="Path" points="742 185 649 185 649 278 742 278"></polygon>
                            <line x1="742" y1="185" x2="649" y2="278" id="Path"></line>
                            <polygon id="Path" points="834 185 741 185 741 278 834 278"></polygon>
                            <line x1="834" y1="185" x2="741" y2="278" id="Path"></line>
                            <polygon id="Path" points="927 185 834 185 834 278 927 278"></polygon>
                            <line x1="927" y1="185" x2="834" y2="278" id="Path"></line>
                            <polygon id="Path" points="1020 185 927 185 927 278 1020 278"></polygon>
                            <line x1="1020" y1="185" x2="927" y2="278" id="Path"></line>
                            <polygon id="Path" points="1113 185 1020 185 1020 278 1113 278"></polygon>
                            <line x1="1113" y1="185" x2="1020" y2="278" id="Path"></line>
                            <polygon id="Path" points="1205 185 1112 185 1112 278 1205 278"></polygon>
                            <line x1="1205" y1="185" x2="1112" y2="278" id="Path"></line>
                            <polygon id="Path" points="1298 185 1205 185 1205 278 1298 278"></polygon>
                            <line x1="1298" y1="185" x2="1205" y2="278" id="Path"></line>
                            <polygon id="Path" points="1391 185 1298 185 1298 278 1391 278"></polygon>
                            <line x1="1391" y1="185" x2="1298" y2="278" id="Path"></line>
                            <polygon id="Path" points="1483 185 1390 185 1390 278 1483 278"></polygon>
                            <line x1="1483" y1="185" x2="1390" y2="278" id="Path"></line>
                            <polygon id="Path" points="649 278 556 278 556 371 649 371"></polygon>
                            <line x1="649" y1="278" x2="556" y2="371" id="Path"></line>
                            <polygon id="Path" points="742 278 649 278 649 371 742 371"></polygon>
                            <line x1="742" y1="278" x2="649" y2="371" id="Path"></line>
                            <polygon id="Path" points="834 278 741 278 741 371 834 371"></polygon>
                            <line x1="834" y1="278" x2="741" y2="371" id="Path"></line>
                            <polygon id="Path" points="927 278 834 278 834 371 927 371"></polygon>
                            <line x1="927" y1="278" x2="834" y2="371" id="Path"></line>
                            <polygon id="Path" points="1020 278 927 278 927 371 1020 371"></polygon>
                            <line x1="1020" y1="278" x2="927" y2="371" id="Path"></line>
                            <polygon id="Path" points="1113 278 1020 278 1020 371 1113 371"></polygon>
                            <line x1="1113" y1="278" x2="1020" y2="371" id="Path"></line>
                            <polygon id="Path" points="1205 278 1112 278 1112 371 1205 371"></polygon>
                            <line x1="1205" y1="278" x2="1112" y2="371" id="Path"></line>
                            <polygon id="Path" points="1298 278 1205 278 1205 371 1298 371"></polygon>
                            <line x1="1298" y1="278" x2="1205" y2="371" id="Path"></line>
                            <polygon id="Path" points="1391 278 1298 278 1298 371 1391 371"></polygon>
                            <line x1="1391" y1="278" x2="1298" y2="371" id="Path"></line>
                            <polygon id="Path" points="1483 278 1390 278 1390 371 1483 371"></polygon>
                            <line x1="1483" y1="278" x2="1390" y2="371" id="Path"></line>
                            <polygon id="Path" points="649 371 556 371 556 464 649 464"></polygon>
                            <line x1="649" y1="371" x2="556" y2="464" id="Path"></line>
                            <polygon id="Path" points="742 371 649 371 649 464 742 464"></polygon>
                            <line x1="742" y1="371" x2="649" y2="464" id="Path"></line>
                            <polygon id="Path" points="834 371 741 371 741 464 834 464"></polygon>
                            <line x1="834" y1="371" x2="741" y2="464" id="Path"></line>
                            <polygon id="Path" points="927 371 834 371 834 464 927 464"></polygon>
                            <line x1="927" y1="371" x2="834" y2="464" id="Path"></line>
                            <polygon id="Path" points="1020 371 927 371 927 464 1020 464"></polygon>
                            <line x1="1020" y1="371" x2="927" y2="464" id="Path"></line>
                            <polygon id="Path" points="1113 371 1020 371 1020 464 1113 464"></polygon>
                            <line x1="1113" y1="371" x2="1020" y2="464" id="Path"></line>
                            <polygon id="Path" points="1205 371 1112 371 1112 464 1205 464"></polygon>
                            <line x1="1205" y1="371" x2="1112" y2="464" id="Path"></line>
                            <polygon id="Path" points="1298 371 1205 371 1205 464 1298 464"></polygon>
                            <line x1="1298" y1="371" x2="1205" y2="464" id="Path"></line>
                            <polygon id="Path" points="1391 371 1298 371 1298 464 1391 464"></polygon>
                            <line x1="1391" y1="371" x2="1298" y2="464" id="Path"></line>
                            <polygon id="Path" points="1483 371 1390 371 1390 464 1483 464"></polygon>
                            <line x1="1483" y1="371" x2="1390" y2="464" id="Path"></line>
                            <polygon id="Path" points="649 463 556 463 556 556 649 556"></polygon>
                            <line x1="649" y1="463" x2="556" y2="556" id="Path"></line>
                            <polygon id="Path" points="742 463 649 463 649 556 742 556"></polygon>
                            <line x1="742" y1="463" x2="649" y2="556" id="Path"></line>
                            <polygon id="Path" points="834 463 741 463 741 556 834 556"></polygon>
                            <line x1="834" y1="463" x2="741" y2="556" id="Path"></line>
                            <polygon id="Path" points="927 463 834 463 834 556 927 556"></polygon>
                            <line x1="927" y1="463" x2="834" y2="556" id="Path"></line>
                            <polygon id="Path" points="1020 463 927 463 927 556 1020 556"></polygon>
                            <line x1="1020" y1="463" x2="927" y2="556" id="Path"></line>
                            <polygon id="Path" points="1113 463 1020 463 1020 556 1113 556"></polygon>
                            <line x1="1113" y1="463" x2="1020" y2="556" id="Path"></line>
                            <polygon id="Path" points="1205 463 1112 463 1112 556 1205 556"></polygon>
                            <line x1="1205" y1="463" x2="1112" y2="556" id="Path"></line>
                            <polygon id="Path" points="1298 463 1205 463 1205 556 1298 556"></polygon>
                            <line x1="1298" y1="463" x2="1205" y2="556" id="Path"></line>
                            <polygon id="Path" points="1391 463 1298 463 1298 556 1391 556"></polygon>
                            <line x1="1391" y1="463" x2="1298" y2="556" id="Path"></line>
                            <polygon id="Path" points="1483 463 1390 463 1390 556 1483 556"></polygon>
                            <line x1="1483" y1="463" x2="1390" y2="556" id="Path"></line>
                            <polygon id="Path" points="649 556 556 556 556 649 649 649"></polygon>
                            <line x1="649" y1="556" x2="556" y2="649" id="Path"></line>
                            <polygon id="Path" points="742 556 649 556 649 649 742 649"></polygon>
                            <line x1="742" y1="556" x2="649" y2="649" id="Path"></line>
                            <polygon id="Path" points="834 556 741 556 741 649 834 649"></polygon>
                            <line x1="834" y1="556" x2="741" y2="649" id="Path"></line>
                            <polygon id="Path" points="927 556 834 556 834 649 927 649"></polygon>
                            <line x1="927" y1="556" x2="834" y2="649" id="Path"></line>
                            <polygon id="Path" points="1020 556 927 556 927 649 1020 649"></polygon>
                            <line x1="1020" y1="556" x2="927" y2="649" id="Path"></line>
                            <polygon id="Path" points="1113 556 1020 556 1020 649 1113 649"></polygon>
                            <line x1="1113" y1="556" x2="1020" y2="649" id="Path"></line>
                            <polygon id="Path" points="1205 556 1112 556 1112 649 1205 649"></polygon>
                            <line x1="1205" y1="556" x2="1112" y2="649" id="Path"></line>
                            <polygon id="Path" points="1298 556 1205 556 1205 649 1298 649"></polygon>
                            <line x1="1298" y1="556" x2="1205" y2="649" id="Path"></line>
                            <polygon id="Path" points="1391 556 1298 556 1298 649 1391 649"></polygon>
                            <line x1="1391" y1="556" x2="1298" y2="649" id="Path"></line>
                            <polygon id="Path" points="1483 556 1390 556 1390 649 1483 649"></polygon>
                            <line x1="1483" y1="556" x2="1390" y2="649" id="Path"></line>
                            <polygon id="Path" points="556 0 463 0 463 93 556 93"></polygon>
                            <line x1="556" y1="0" x2="463" y2="93" id="Path"></line>
                            <polygon id="Path" points="556 93 463 93 463 186 556 186"></polygon>
                            <line x1="556" y1="93" x2="463" y2="186" id="Path"></line>
                            <polygon id="Path" points="556 185 463 185 463 278 556 278"></polygon>
                            <line x1="556" y1="185" x2="463" y2="278" id="Path"></line>
                            <polygon id="Path" points="556 278 463 278 463 371 556 371"></polygon>
                            <line x1="556" y1="278" x2="463" y2="371" id="Path"></line>
                            <polygon id="Path" points="556 371 463 371 463 464 556 464"></polygon>
                            <line x1="556" y1="371" x2="463" y2="464" id="Path"></line>
                            <polygon id="Path" points="556 463 463 463 463 556 556 556"></polygon>
                            <line x1="556" y1="463" x2="463" y2="556" id="Path"></line>
                            <polygon id="Path" points="556 556 463 556 463 649 556 649"></polygon>
                            <line x1="556" y1="556" x2="463" y2="649" id="Path"></line>
                            <polygon id="Path-Copy-364" points="649 0 556 0 556 93 649 93"></polygon>
                            <line x1="649" y1="0" x2="556" y2="93" id="Path-Copy-363"></line>
                            <polygon id="Path-Copy-362" points="742 0 649 0 649 93 742 93"></polygon>
                            <line x1="742" y1="0" x2="649" y2="93" id="Path-Copy-361"></line>
                            <polygon id="Path-Copy-360" points="834 0 741 0 741 93 834 93"></polygon>
                            <line x1="834" y1="0" x2="741" y2="93" id="Path-Copy-359"></line>
                            <polygon id="Path-Copy-358" points="927 0 834 0 834 93 927 93"></polygon>
                            <line x1="927" y1="0" x2="834" y2="93" id="Path-Copy-357"></line>
                            <polygon id="Path-Copy-356" points="1020 0 927 0 927 93 1020 93"></polygon>
                            <line x1="1020" y1="0" x2="927" y2="93" id="Path-Copy-355"></line>
                            <polygon id="Path-Copy-354" points="1113 0 1020 0 1020 93 1113 93"></polygon>
                            <line x1="1113" y1="0" x2="1020" y2="93" id="Path-Copy-353"></line>
                            <polygon id="Path-Copy-352" points="1205 0 1112 0 1112 93 1205 93"></polygon>
                            <line x1="1205" y1="0" x2="1112" y2="93" id="Path-Copy-351"></line>
                            <polygon id="Path-Copy-350" points="1298 0 1205 0 1205 93 1298 93"></polygon>
                            <line x1="1298" y1="0" x2="1205" y2="93" id="Path-Copy-349"></line>
                            <polygon id="Path-Copy-348" points="1391 0 1298 0 1298 93 1391 93"></polygon>
                            <line x1="1391" y1="0" x2="1298" y2="93" id="Path-Copy-347"></line>
                            <polygon id="Path-Copy-346" points="1483 0 1390 0 1390 93 1483 93"></polygon>
                            <line x1="1483" y1="0" x2="1390" y2="93" id="Path-Copy-345"></line>
                            <polygon id="Path-Copy-340" points="649 93 556 93 556 186 649 186"></polygon>
                            <line x1="649" y1="93" x2="556" y2="186" id="Path-Copy-339"></line>
                            <polygon id="Path-Copy-338" points="742 93 649 93 649 186 742 186"></polygon>
                            <line x1="742" y1="93" x2="649" y2="186" id="Path-Copy-337"></line>
                            <polygon id="Path-Copy-336" points="834 93 741 93 741 186 834 186"></polygon>
                            <line x1="834" y1="93" x2="741" y2="186" id="Path-Copy-335"></line>
                            <polygon id="Path-Copy-334" points="927 93 834 93 834 186 927 186"></polygon>
                            <line x1="927" y1="93" x2="834" y2="186" id="Path-Copy-333"></line>
                            <polygon id="Path-Copy-332" points="1020 93 927 93 927 186 1020 186"></polygon>
                            <line x1="1020" y1="93" x2="927" y2="186" id="Path-Copy-331"></line>
                            <polygon id="Path-Copy-330" points="1113 93 1020 93 1020 186 1113 186"></polygon>
                            <line x1="1113" y1="93" x2="1020" y2="186" id="Path-Copy-329"></line>
                            <polygon id="Path-Copy-328" points="1205 93 1112 93 1112 186 1205 186"></polygon>
                            <line x1="1205" y1="93" x2="1112" y2="186" id="Path-Copy-327"></line>
                            <polygon id="Path-Copy-326" points="1298 93 1205 93 1205 186 1298 186"></polygon>
                            <line x1="1298" y1="93" x2="1205" y2="186" id="Path-Copy-325"></line>
                            <polygon id="Path-Copy-324" points="1391 93 1298 93 1298 186 1391 186"></polygon>
                            <line x1="1391" y1="93" x2="1298" y2="186" id="Path-Copy-323"></line>
                            <polygon id="Path-Copy-322" points="1483 93 1390 93 1390 186 1483 186"></polygon>
                            <line x1="1483" y1="93" x2="1390" y2="186" id="Path-Copy-321"></line>
                            <polygon id="Path-Copy-316" points="649 185 556 185 556 278 649 278"></polygon>
                            <line x1="649" y1="185" x2="556" y2="278" id="Path-Copy-315"></line>
                            <polygon id="Path-Copy-314" points="742 185 649 185 649 278 742 278"></polygon>
                            <line x1="742" y1="185" x2="649" y2="278" id="Path-Copy-313"></line>
                            <polygon id="Path-Copy-312" points="834 185 741 185 741 278 834 278"></polygon>
                            <line x1="834" y1="185" x2="741" y2="278" id="Path-Copy-311"></line>
                            <polygon id="Path-Copy-310" points="927 185 834 185 834 278 927 278"></polygon>
                            <line x1="927" y1="185" x2="834" y2="278" id="Path-Copy-309"></line>
                            <polygon id="Path-Copy-308" points="1020 185 927 185 927 278 1020 278"></polygon>
                            <line x1="1020" y1="185" x2="927" y2="278" id="Path-Copy-307"></line>
                            <polygon id="Path-Copy-306" points="1113 185 1020 185 1020 278 1113 278"></polygon>
                            <line x1="1113" y1="185" x2="1020" y2="278" id="Path-Copy-305"></line>
                            <polygon id="Path-Copy-304" points="1205 185 1112 185 1112 278 1205 278"></polygon>
                            <line x1="1205" y1="185" x2="1112" y2="278" id="Path-Copy-303"></line>
                            <polygon id="Path-Copy-302" points="1298 185 1205 185 1205 278 1298 278"></polygon>
                            <line x1="1298" y1="185" x2="1205" y2="278" id="Path-Copy-301"></line>
                            <polygon id="Path-Copy-300" points="1391 185 1298 185 1298 278 1391 278"></polygon>
                            <line x1="1391" y1="185" x2="1298" y2="278" id="Path-Copy-299"></line>
                            <polygon id="Path-Copy-298" points="1483 185 1390 185 1390 278 1483 278"></polygon>
                            <line x1="1483" y1="185" x2="1390" y2="278" id="Path-Copy-297"></line>
                            <polygon id="Path-Copy-292" points="649 278 556 278 556 371 649 371"></polygon>
                            <line x1="649" y1="278" x2="556" y2="371" id="Path-Copy-291"></line>
                            <polygon id="Path-Copy-290" points="742 278 649 278 649 371 742 371"></polygon>
                            <line x1="742" y1="278" x2="649" y2="371" id="Path-Copy-289"></line>
                            <polygon id="Path-Copy-288" points="834 278 741 278 741 371 834 371"></polygon>
                            <line x1="834" y1="278" x2="741" y2="371" id="Path-Copy-287"></line>
                            <polygon id="Path-Copy-286" points="927 278 834 278 834 371 927 371"></polygon>
                            <line x1="927" y1="278" x2="834" y2="371" id="Path-Copy-285"></line>
                            <polygon id="Path-Copy-284" points="1020 278 927 278 927 371 1020 371"></polygon>
                            <line x1="1020" y1="278" x2="927" y2="371" id="Path-Copy-283"></line>
                            <polygon id="Path-Copy-282" points="1113 278 1020 278 1020 371 1113 371"></polygon>
                            <line x1="1113" y1="278" x2="1020" y2="371" id="Path-Copy-281"></line>
                            <polygon id="Path-Copy-280" points="1205 278 1112 278 1112 371 1205 371"></polygon>
                            <line x1="1205" y1="278" x2="1112" y2="371" id="Path-Copy-279"></line>
                            <polygon id="Path-Copy-278" points="1298 278 1205 278 1205 371 1298 371"></polygon>
                            <line x1="1298" y1="278" x2="1205" y2="371" id="Path-Copy-277"></line>
                            <polygon id="Path-Copy-276" points="1391 278 1298 278 1298 371 1391 371"></polygon>
                            <line x1="1391" y1="278" x2="1298" y2="371" id="Path-Copy-275"></line>
                            <polygon id="Path-Copy-274" points="1483 278 1390 278 1390 371 1483 371"></polygon>
                            <line x1="1483" y1="278" x2="1390" y2="371" id="Path-Copy-273"></line>
                            <polygon id="Path-Copy-268" points="649 371 556 371 556 464 649 464"></polygon>
                            <line x1="649" y1="371" x2="556" y2="464" id="Path-Copy-267"></line>
                            <polygon id="Path-Copy-266" points="742 371 649 371 649 464 742 464"></polygon>
                            <line x1="742" y1="371" x2="649" y2="464" id="Path-Copy-265"></line>
                            <polygon id="Path-Copy-264" points="834 371 741 371 741 464 834 464"></polygon>
                            <line x1="834" y1="371" x2="741" y2="464" id="Path-Copy-263"></line>
                            <polygon id="Path-Copy-262" points="927 371 834 371 834 464 927 464"></polygon>
                            <line x1="927" y1="371" x2="834" y2="464" id="Path-Copy-261"></line>
                            <polygon id="Path-Copy-260" points="1020 371 927 371 927 464 1020 464"></polygon>
                            <line x1="1020" y1="371" x2="927" y2="464" id="Path-Copy-259"></line>
                            <polygon id="Path-Copy-258" points="1113 371 1020 371 1020 464 1113 464"></polygon>
                            <line x1="1113" y1="371" x2="1020" y2="464" id="Path-Copy-257"></line>
                            <polygon id="Path-Copy-256" points="1205 371 1112 371 1112 464 1205 464"></polygon>
                            <line x1="1205" y1="371" x2="1112" y2="464" id="Path-Copy-255"></line>
                            <polygon id="Path-Copy-254" points="1298 371 1205 371 1205 464 1298 464"></polygon>
                            <line x1="1298" y1="371" x2="1205" y2="464" id="Path-Copy-253"></line>
                            <polygon id="Path-Copy-252" points="1391 371 1298 371 1298 464 1391 464"></polygon>
                            <line x1="1391" y1="371" x2="1298" y2="464" id="Path-Copy-251"></line>
                            <polygon id="Path-Copy-250" points="1483 371 1390 371 1390 464 1483 464"></polygon>
                            <line x1="1483" y1="371" x2="1390" y2="464" id="Path-Copy-249"></line>
                            <polygon id="Path-Copy-244" points="649 463 556 463 556 556 649 556"></polygon>
                            <line x1="649" y1="463" x2="556" y2="556" id="Path-Copy-243"></line>
                            <polygon id="Path-Copy-242" points="742 463 649 463 649 556 742 556"></polygon>
                            <line x1="742" y1="463" x2="649" y2="556" id="Path-Copy-241"></line>
                            <polygon id="Path-Copy-240" points="834 463 741 463 741 556 834 556"></polygon>
                            <line x1="834" y1="463" x2="741" y2="556" id="Path-Copy-239"></line>
                            <polygon id="Path-Copy-238" points="927 463 834 463 834 556 927 556"></polygon>
                            <line x1="927" y1="463" x2="834" y2="556" id="Path-Copy-237"></line>
                            <polygon id="Path-Copy-236" points="1020 463 927 463 927 556 1020 556"></polygon>
                            <line x1="1020" y1="463" x2="927" y2="556" id="Path-Copy-235"></line>
                            <polygon id="Path-Copy-234" points="1113 463 1020 463 1020 556 1113 556"></polygon>
                            <line x1="1113" y1="463" x2="1020" y2="556" id="Path-Copy-233"></line>
                            <polygon id="Path-Copy-232" points="1205 463 1112 463 1112 556 1205 556"></polygon>
                            <line x1="1205" y1="463" x2="1112" y2="556" id="Path-Copy-231"></line>
                            <polygon id="Path-Copy-230" points="1298 463 1205 463 1205 556 1298 556"></polygon>
                            <line x1="1298" y1="463" x2="1205" y2="556" id="Path-Copy-229"></line>
                            <polygon id="Path-Copy-228" points="1391 463 1298 463 1298 556 1391 556"></polygon>
                            <line x1="1391" y1="463" x2="1298" y2="556" id="Path-Copy-227"></line>
                            <polygon id="Path-Copy-226" points="1483 463 1390 463 1390 556 1483 556"></polygon>
                            <line x1="1483" y1="463" x2="1390" y2="556" id="Path-Copy-225"></line>
                            <polygon id="Path-Copy-220" points="649 556 556 556 556 649 649 649"></polygon>
                            <line x1="649" y1="556" x2="556" y2="649" id="Path-Copy-219"></line>
                            <polygon id="Path-Copy-218" points="742 556 649 556 649 649 742 649"></polygon>
                            <line x1="742" y1="556" x2="649" y2="649" id="Path-Copy-217"></line>
                            <polygon id="Path-Copy-216" points="834 556 741 556 741 649 834 649"></polygon>
                            <line x1="834" y1="556" x2="741" y2="649" id="Path-Copy-215"></line>
                            <polygon id="Path-Copy-214" points="927 556 834 556 834 649 927 649"></polygon>
                            <line x1="927" y1="556" x2="834" y2="649" id="Path-Copy-213"></line>
                            <polygon id="Path-Copy-212" points="1020 556 927 556 927 649 1020 649"></polygon>
                            <line x1="1020" y1="556" x2="927" y2="649" id="Path-Copy-211"></line>
                            <polygon id="Path-Copy-210" points="1113 556 1020 556 1020 649 1113 649"></polygon>
                            <line x1="1113" y1="556" x2="1020" y2="649" id="Path-Copy-209"></line>
                            <polygon id="Path-Copy-208" points="1205 556 1112 556 1112 649 1205 649"></polygon>
                            <line x1="1205" y1="556" x2="1112" y2="649" id="Path-Copy-207"></line>
                            <polygon id="Path-Copy-206" points="1298 556 1205 556 1205 649 1298 649"></polygon>
                            <line x1="1298" y1="556" x2="1205" y2="649" id="Path-Copy-205"></line>
                            <polygon id="Path-Copy-204" points="1391 556 1298 556 1298 649 1391 649"></polygon>
                            <line x1="1391" y1="556" x2="1298" y2="649" id="Path-Copy-203"></line>
                            <polygon id="Path-Copy-202" points="1483 556 1390 556 1390 649 1483 649"></polygon>
                            <line x1="1483" y1="556" x2="1390" y2="649" id="Path-Copy-201"></line>
                            <polygon id="Path-Copy-74" points="556 0 463 0 463 93 556 93"></polygon>
                            <line x1="556" y1="0" x2="463" y2="93" id="Path-Copy-73"></line>
                            <polygon id="Path-Copy-62" points="556 93 463 93 463 186 556 186"></polygon>
                            <line x1="556" y1="93" x2="463" y2="186" id="Path-Copy-61"></line>
                            <polygon id="Path-Copy-50" points="556 185 463 185 463 278 556 278"></polygon>
                            <line x1="556" y1="185" x2="463" y2="278" id="Path-Copy-49"></line>
                            <polygon id="Path-Copy-38" points="556 278 463 278 463 371 556 371"></polygon>
                            <line x1="556" y1="278" x2="463" y2="371" id="Path-Copy-37"></line>
                            <polygon id="Path-Copy-26" points="556 371 463 371 463 464 556 464"></polygon>
                            <line x1="556" y1="371" x2="463" y2="464" id="Path-Copy-25"></line>
                            <polygon id="Path-Copy-14" points="556 463 463 463 463 556 556 556"></polygon>
                            <line x1="556" y1="463" x2="463" y2="556" id="Path-Copy-13"></line>
                            <polygon id="Path-Copy-2" points="556 556 463 556 463 649 556 649"></polygon>
                            <line x1="556" y1="556" x2="463" y2="649" id="Path-Copy"></line>
                        </g>
                        <g id="Group-2-Copy" transform="translate(0.000000, 650.000000)" stroke="#717074" stroke-opacity="0.5">
                            <polygon id="Path" points="649 0 556 0 556 93 649 93"></polygon>
                            <line x1="649" y1="0" x2="556" y2="93" id="Path"></line>
                            <polygon id="Path" points="742 0 649 0 649 93 742 93"></polygon>
                            <line x1="742" y1="0" x2="649" y2="93" id="Path"></line>
                            <polygon id="Path" points="834 0 741 0 741 93 834 93"></polygon>
                            <line x1="834" y1="0" x2="741" y2="93" id="Path"></line>
                            <polygon id="Path" points="927 0 834 0 834 93 927 93"></polygon>
                            <line x1="927" y1="0" x2="834" y2="93" id="Path"></line>
                            <polygon id="Path" points="1020 0 927 0 927 93 1020 93"></polygon>
                            <line x1="1020" y1="0" x2="927" y2="93" id="Path"></line>
                            <polygon id="Path" points="1113 0 1020 0 1020 93 1113 93"></polygon>
                            <line x1="1113" y1="0" x2="1020" y2="93" id="Path"></line>
                            <polygon id="Path" points="1205 0 1112 0 1112 93 1205 93"></polygon>
                            <line x1="1205" y1="0" x2="1112" y2="93" id="Path"></line>
                            <polygon id="Path" points="1298 0 1205 0 1205 93 1298 93"></polygon>
                            <line x1="1298" y1="0" x2="1205" y2="93" id="Path"></line>
                            <polygon id="Path" points="1391 0 1298 0 1298 93 1391 93"></polygon>
                            <line x1="1391" y1="0" x2="1298" y2="93" id="Path"></line>
                            <polygon id="Path" points="1483 0 1390 0 1390 93 1483 93"></polygon>
                            <line x1="1483" y1="0" x2="1390" y2="93" id="Path"></line>
                            <polygon id="Path" points="649 93 556 93 556 186 649 186"></polygon>
                            <line x1="649" y1="93" x2="556" y2="186" id="Path"></line>
                            <polygon id="Path" points="742 93 649 93 649 186 742 186"></polygon>
                            <line x1="742" y1="93" x2="649" y2="186" id="Path"></line>
                            <polygon id="Path" points="834 93 741 93 741 186 834 186"></polygon>
                            <line x1="834" y1="93" x2="741" y2="186" id="Path"></line>
                            <polygon id="Path" points="927 93 834 93 834 186 927 186"></polygon>
                            <line x1="927" y1="93" x2="834" y2="186" id="Path"></line>
                            <polygon id="Path" points="1020 93 927 93 927 186 1020 186"></polygon>
                            <line x1="1020" y1="93" x2="927" y2="186" id="Path"></line>
                            <polygon id="Path" points="1113 93 1020 93 1020 186 1113 186"></polygon>
                            <line x1="1113" y1="93" x2="1020" y2="186" id="Path"></line>
                            <polygon id="Path" points="1205 93 1112 93 1112 186 1205 186"></polygon>
                            <line x1="1205" y1="93" x2="1112" y2="186" id="Path"></line>
                            <polygon id="Path" points="1298 93 1205 93 1205 186 1298 186"></polygon>
                            <line x1="1298" y1="93" x2="1205" y2="186" id="Path"></line>
                            <polygon id="Path" points="1391 93 1298 93 1298 186 1391 186"></polygon>
                            <line x1="1391" y1="93" x2="1298" y2="186" id="Path"></line>
                            <polygon id="Path" points="1483 93 1390 93 1390 186 1483 186"></polygon>
                            <line x1="1483" y1="93" x2="1390" y2="186" id="Path"></line>
                            <polygon id="Path" points="556 0 463 0 463 93 556 93"></polygon>
                            <line x1="556" y1="0" x2="463" y2="93" id="Path"></line>
                            <polygon id="Path" points="556 93 463 93 463 186 556 186"></polygon>
                            <line x1="556" y1="93" x2="463" y2="186" id="Path"></line>
                            <polygon id="Path-Copy-364" points="649 0 556 0 556 93 649 93"></polygon>
                            <line x1="649" y1="0" x2="556" y2="93" id="Path-Copy-363"></line>
                            <polygon id="Path-Copy-362" points="742 0 649 0 649 93 742 93"></polygon>
                            <line x1="742" y1="0" x2="649" y2="93" id="Path-Copy-361"></line>
                            <polygon id="Path-Copy-360" points="834 0 741 0 741 93 834 93"></polygon>
                            <line x1="834" y1="0" x2="741" y2="93" id="Path-Copy-359"></line>
                            <polygon id="Path-Copy-358" points="927 0 834 0 834 93 927 93"></polygon>
                            <line x1="927" y1="0" x2="834" y2="93" id="Path-Copy-357"></line>
                            <polygon id="Path-Copy-356" points="1020 0 927 0 927 93 1020 93"></polygon>
                            <line x1="1020" y1="0" x2="927" y2="93" id="Path-Copy-355"></line>
                            <polygon id="Path-Copy-354" points="1113 0 1020 0 1020 93 1113 93"></polygon>
                            <line x1="1113" y1="0" x2="1020" y2="93" id="Path-Copy-353"></line>
                            <polygon id="Path-Copy-352" points="1205 0 1112 0 1112 93 1205 93"></polygon>
                            <line x1="1205" y1="0" x2="1112" y2="93" id="Path-Copy-351"></line>
                            <polygon id="Path-Copy-350" points="1298 0 1205 0 1205 93 1298 93"></polygon>
                            <line x1="1298" y1="0" x2="1205" y2="93" id="Path-Copy-349"></line>
                            <polygon id="Path-Copy-348" points="1391 0 1298 0 1298 93 1391 93"></polygon>
                            <line x1="1391" y1="0" x2="1298" y2="93" id="Path-Copy-347"></line>
                            <polygon id="Path-Copy-346" points="1483 0 1390 0 1390 93 1483 93"></polygon>
                            <line x1="1483" y1="0" x2="1390" y2="93" id="Path-Copy-345"></line>
                            <polygon id="Path-Copy-340" points="649 93 556 93 556 186 649 186"></polygon>
                            <line x1="649" y1="93" x2="556" y2="186" id="Path-Copy-339"></line>
                            <polygon id="Path-Copy-338" points="742 93 649 93 649 186 742 186"></polygon>
                            <line x1="742" y1="93" x2="649" y2="186" id="Path-Copy-337"></line>
                            <polygon id="Path-Copy-336" points="834 93 741 93 741 186 834 186"></polygon>
                            <line x1="834" y1="93" x2="741" y2="186" id="Path-Copy-335"></line>
                            <polygon id="Path-Copy-334" points="927 93 834 93 834 186 927 186"></polygon>
                            <line x1="927" y1="93" x2="834" y2="186" id="Path-Copy-333"></line>
                            <polygon id="Path-Copy-332" points="1020 93 927 93 927 186 1020 186"></polygon>
                            <line x1="1020" y1="93" x2="927" y2="186" id="Path-Copy-331"></line>
                            <polygon id="Path-Copy-330" points="1113 93 1020 93 1020 186 1113 186"></polygon>
                            <line x1="1113" y1="93" x2="1020" y2="186" id="Path-Copy-329"></line>
                            <polygon id="Path-Copy-328" points="1205 93 1112 93 1112 186 1205 186"></polygon>
                            <line x1="1205" y1="93" x2="1112" y2="186" id="Path-Copy-327"></line>
                            <polygon id="Path-Copy-326" points="1298 93 1205 93 1205 186 1298 186"></polygon>
                            <line x1="1298" y1="93" x2="1205" y2="186" id="Path-Copy-325"></line>
                            <polygon id="Path-Copy-324" points="1391 93 1298 93 1298 186 1391 186"></polygon>
                            <line x1="1391" y1="93" x2="1298" y2="186" id="Path-Copy-323"></line>
                            <polygon id="Path-Copy-322" points="1483 93 1390 93 1390 186 1483 186"></polygon>
                            <line x1="1483" y1="93" x2="1390" y2="186" id="Path-Copy-321"></line>
                            <polygon id="Path-Copy-74" points="556 0 463 0 463 93 556 93"></polygon>
                            <line x1="556" y1="0" x2="463" y2="93" id="Path-Copy-73"></line>
                            <polygon id="Path-Copy-62" points="556 93 463 93 463 186 556 186"></polygon>
                            <line x1="556" y1="93" x2="463" y2="186" id="Path-Copy-61"></line>
                        </g>
                        <polygon id="Path" fill="url(#linearGradient-1)" fill-rule="nonzero" points="1481 0 41 0 41 1873 1481 1873"></polygon>
                    </g>
                </g>
                <g id="texture" transform="translate(1209.000000, 973.500000) scale(-1, -1) translate(-1209.000000, -973.500000) translate(0.000000, 37.000000)" opacity="0.432776163">
                    <g id="Group">
                        <g id="Group-2-Copy" transform="translate(7.000000, 650.000000)" stroke="#717074" stroke-opacity="0.5">
                            <polygon id="Path" points="649 463 556 463 556 556 649 556"></polygon>
                            <line x1="649" y1="463" x2="556" y2="556" id="Path"></line>
                            <polygon id="Path" points="742 463 649 463 649 556 742 556"></polygon>
                            <line x1="742" y1="463" x2="649" y2="556" id="Path"></line>
                            <polygon id="Path" points="834 463 741 463 741 556 834 556"></polygon>
                            <line x1="834" y1="463" x2="741" y2="556" id="Path"></line>
                            <polygon id="Path" points="927 463 834 463 834 556 927 556"></polygon>
                            <line x1="927" y1="463" x2="834" y2="556" id="Path"></line>
                            <polygon id="Path" points="1020 463 927 463 927 556 1020 556"></polygon>
                            <line x1="1020" y1="463" x2="927" y2="556" id="Path"></line>
                            <polygon id="Path" points="649 556 556 556 556 649 649 649"></polygon>
                            <line x1="649" y1="556" x2="556" y2="649" id="Path"></line>
                            <polygon id="Path" points="742 556 649 556 649 649 742 649"></polygon>
                            <line x1="742" y1="556" x2="649" y2="649" id="Path"></line>
                            <polygon id="Path" points="834 556 741 556 741 649 834 649"></polygon>
                            <line x1="834" y1="556" x2="741" y2="649" id="Path"></line>
                            <polygon id="Path" points="927 556 834 556 834 649 927 649"></polygon>
                            <line x1="927" y1="556" x2="834" y2="649" id="Path"></line>
                            <polygon id="Path" points="1020 556 927 556 927 649 1020 649"></polygon>
                            <line x1="1020" y1="556" x2="927" y2="649" id="Path"></line>
                            <polygon id="Path" points="93 463 0 463 0 556 93 556"></polygon>
                            <line x1="93" y1="463" x2="0" y2="556" id="Path"></line>
                            <polygon id="Path" points="185 463 92 463 92 556 185 556"></polygon>
                            <line x1="185" y1="463" x2="92" y2="556" id="Path"></line>
                            <polygon id="Path" points="278 463 185 463 185 556 278 556"></polygon>
                            <line x1="278" y1="463" x2="185" y2="556" id="Path"></line>
                            <polygon id="Path" points="371 463 278 463 278 556 371 556"></polygon>
                            <line x1="371" y1="463" x2="278" y2="556" id="Path"></line>
                            <polygon id="Path" points="463 463 370 463 370 556 463 556"></polygon>
                            <line x1="463" y1="463" x2="370" y2="556" id="Path"></line>
                            <polygon id="Path" points="556 463 463 463 463 556 556 556"></polygon>
                            <line x1="556" y1="463" x2="463" y2="556" id="Path"></line>
                            <polygon id="Path" points="93 556 0 556 0 649 93 649"></polygon>
                            <line x1="93" y1="556" x2="0" y2="649" id="Path"></line>
                            <polygon id="Path" points="185 556 92 556 92 649 185 649"></polygon>
                            <line x1="185" y1="556" x2="92" y2="649" id="Path"></line>
                            <polygon id="Path" points="278 556 185 556 185 649 278 649"></polygon>
                            <line x1="278" y1="556" x2="185" y2="649" id="Path"></line>
                            <polygon id="Path" points="371 556 278 556 278 649 371 649"></polygon>
                            <line x1="371" y1="556" x2="278" y2="649" id="Path"></line>
                            <polygon id="Path" points="463 556 370 556 370 649 463 649"></polygon>
                            <line x1="463" y1="556" x2="370" y2="649" id="Path"></line>
                            <polygon id="Path" points="556 556 463 556 463 649 556 649"></polygon>
                            <line x1="556" y1="556" x2="463" y2="649" id="Path"></line>
                            <polygon id="Path-Copy-244" points="649 463 556 463 556 556 649 556"></polygon>
                            <line x1="649" y1="463" x2="556" y2="556" id="Path-Copy-243"></line>
                            <polygon id="Path-Copy-242" points="742 463 649 463 649 556 742 556"></polygon>
                            <line x1="742" y1="463" x2="649" y2="556" id="Path-Copy-241"></line>
                            <polygon id="Path-Copy-240" points="834 463 741 463 741 556 834 556"></polygon>
                            <line x1="834" y1="463" x2="741" y2="556" id="Path-Copy-239"></line>
                            <polygon id="Path-Copy-238" points="927 463 834 463 834 556 927 556"></polygon>
                            <line x1="927" y1="463" x2="834" y2="556" id="Path-Copy-237"></line>
                            <polygon id="Path-Copy-236" points="1020 463 927 463 927 556 1020 556"></polygon>
                            <line x1="1020" y1="463" x2="927" y2="556" id="Path-Copy-235"></line>
                            <polygon id="Path-Copy-220" points="649 556 556 556 556 649 649 649"></polygon>
                            <line x1="649" y1="556" x2="556" y2="649" id="Path-Copy-219"></line>
                            <polygon id="Path-Copy-218" points="742 556 649 556 649 649 742 649"></polygon>
                            <line x1="742" y1="556" x2="649" y2="649" id="Path-Copy-217"></line>
                            <polygon id="Path-Copy-216" points="834 556 741 556 741 649 834 649"></polygon>
                            <line x1="834" y1="556" x2="741" y2="649" id="Path-Copy-215"></line>
                            <polygon id="Path-Copy-214" points="927 556 834 556 834 649 927 649"></polygon>
                            <line x1="927" y1="556" x2="834" y2="649" id="Path-Copy-213"></line>
                            <polygon id="Path-Copy-212" points="1020 556 927 556 927 649 1020 649"></polygon>
                            <line x1="1020" y1="556" x2="927" y2="649" id="Path-Copy-211"></line>
                            <polygon id="Path-Copy-24" points="93 463 0 463 0 556 93 556"></polygon>
                            <line x1="93" y1="463" x2="0" y2="556" id="Path-Copy-23"></line>
                            <polygon id="Path-Copy-22" points="185 463 92 463 92 556 185 556"></polygon>
                            <line x1="185" y1="463" x2="92" y2="556" id="Path-Copy-21"></line>
                            <polygon id="Path-Copy-20" points="278 463 185 463 185 556 278 556"></polygon>
                            <line x1="278" y1="463" x2="185" y2="556" id="Path-Copy-19"></line>
                            <polygon id="Path-Copy-18" points="371 463 278 463 278 556 371 556"></polygon>
                            <line x1="371" y1="463" x2="278" y2="556" id="Path-Copy-17"></line>
                            <polygon id="Path-Copy-16" points="463 463 370 463 370 556 463 556"></polygon>
                            <line x1="463" y1="463" x2="370" y2="556" id="Path-Copy-15"></line>
                            <polygon id="Path-Copy-14" points="556 463 463 463 463 556 556 556"></polygon>
                            <line x1="556" y1="463" x2="463" y2="556" id="Path-Copy-13"></line>
                            <polygon id="Path-Copy-12" points="93 556 0 556 0 649 93 649"></polygon>
                            <line x1="93" y1="556" x2="0" y2="649" id="Path-Copy-11"></line>
                            <polygon id="Path-Copy-10" points="185 556 92 556 92 649 185 649"></polygon>
                            <line x1="185" y1="556" x2="92" y2="649" id="Path-Copy-9"></line>
                            <polygon id="Path-Copy-8" points="278 556 185 556 185 649 278 649"></polygon>
                            <line x1="278" y1="556" x2="185" y2="649" id="Path-Copy-7"></line>
                            <polygon id="Path-Copy-6" points="371 556 278 556 278 649 371 649"></polygon>
                            <line x1="371" y1="556" x2="278" y2="649" id="Path-Copy-5"></line>
                            <polygon id="Path-Copy-4" points="463 556 370 556 370 649 463 649"></polygon>
                            <line x1="463" y1="556" x2="370" y2="649" id="Path-Copy-3"></line>
                            <polygon id="Path-Copy-2" points="556 556 463 556 463 649 556 649"></polygon>
                            <line x1="556" y1="556" x2="463" y2="649" id="Path-Copy"></line>
                        </g>
                        <polygon id="Path" fill="url(#linearGradient-2)" fill-rule="nonzero" points="1480 0 0 0 0 1873 1480 1873"></polygon>
                    </g>
                </g>
            </g>
        </g>
    </g>
</svg>