<svg viewBox="0 0 483.32 131.27" xmlns="http://www.w3.org/2000/svg" xmlns:xlink="http://www.w3.org/1999/xlink"><linearGradient id="a" gradientUnits="userSpaceOnUse" x1="17.79" x2="78.69" y1="114.53" y2="119.09"><stop offset="0" stop-color="#009cdc" stop-opacity=".3"/><stop offset="1" stop-color="#009cdc"/></linearGradient><linearGradient id="b" gradientUnits="userSpaceOnUse" x1="75.87" x2="122.4" y1="124.55" y2="81.9"><stop offset="0" stop-color="#59c6d8" stop-opacity=".3"/><stop offset="1" stop-color="#59c6d8"/></linearGradient><linearGradient id="c" gradientUnits="userSpaceOnUse" x1="122.93" x2="108.15" y1="91.99" y2="16.36"><stop offset="0" stop-color="#009cdc"/><stop offset="1" stop-color="#00438c"/></linearGradient><linearGradient id="d" x1="14.34" x2="53.72" xlink:href="#c" y1="105.06" y2="105.06"/><linearGradient id="e" gradientUnits="userSpaceOnUse" x1="17.53" x2="1.1" y1="62.59" y2="120.74"><stop offset="0" stop-color="#009cdc"/><stop offset="1" stop-color="#009cdc" stop-opacity=".3"/></linearGradient><linearGradient id="f" x1="-16.53" x2="37.52" xlink:href="#b" y1="49.28" y2="28.07"/><linearGradient id="g" x1="64.25" x2="120.81" xlink:href="#e" y1="10.95" y2="39.45"/><path d="m86.42 108.71h-38.19l17.99 22.56h2.21 28.85l18-22.56z" fill="url(#a)"/><path d="m128.22 56.29-17.99 22.56-23.81 29.86h28.86l1.38-1.73 17.99-22.56z" fill="url(#b)"/><path d="m127.53 53.22-6.22-27.22-26-12.52 6.22 27.22.21.91 8.49 37.24 17.99-22.56z" fill="url(#c)"/><path d="m48.23 108.71-23.82-29.86-6.42 28.13 1.38 1.73 17.99 22.56h28.86z" fill="url(#d)"/><path d="m6.91 54.13-.49 2.16-6.42 28.13 17.99 22.56 6.42-28.13 8.5-37.24z" fill="url(#e)"/><path d="m41.33 12.52-2 .96-26 12.52-6.42 28.13 26-12.52 34.41-16.57z" fill="url(#f)"/><path d="m95.31 13.48-1.99-.96-26-12.52-25.99 12.52 25.99 12.52 34.42 16.57z" fill="url(#g)"/><g fill="#2d3748"><path d="m157.35 40.71h3.65v18l16.49-18h4.88l-13.65 14.88 14.59 17.67h-4.78l-12.37-15.16-5.16 5.4v9.76h-3.69z"/><path d="m208.75 48.76v24.5h-3.55v-3.89a8.24 8.24 0 0 1 -3.27 3.22 10 10 0 0 1 -9.57 0 8.21 8.21 0 0 1 -3.24-3.34 10.23 10.23 0 0 1 -1.17-5v-15.49h3.56v15.12a7 7 0 0 0 1.7 4.9 5.69 5.69 0 0 0 4.41 1.87 8.52 8.52 0 0 0 3.79-.85 7.16 7.16 0 0 0 2.77-2.3 5.33 5.33 0 0 0 1-3.15v-15.59z"/><path d="m235.22 49.83a11.24 11.24 0 0 1 4.05 4.54 15.66 15.66 0 0 1 0 13.25 11.2 11.2 0 0 1 -4.05 4.57 10.57 10.57 0 0 1 -5.76 1.64 10 10 0 0 1 -5.19-1.36 10.24 10.24 0 0 1 -3.72-3.81v4.6h-3.55v-33.12h3.55v13.22a10.34 10.34 0 0 1 3.72-3.82 10 10 0 0 1 5.19-1.35 10.57 10.57 0 0 1 5.76 1.64zm-2.22 19.59a8.21 8.21 0 0 0 3-3.42 11.58 11.58 0 0 0 1-5 11.44 11.44 0 0 0 -1-5 8.25 8.25 0 0 0 -3-3.4 7.57 7.57 0 0 0 -4.24-1.23 7.7 7.7 0 0 0 -4.27 1.23 8.24 8.24 0 0 0 -2.9 3.4 11.44 11.44 0 0 0 -1 5 11.58 11.58 0 0 0 1 5 8.2 8.2 0 0 0 2.94 3.44 7.7 7.7 0 0 0 4.27 1.23 7.57 7.57 0 0 0 4.2-1.25z"/><path d="m261.79 69.8a8.88 8.88 0 0 0 3.35-2.09l2.18 2.29a11 11 0 0 1 -4.39 2.75 15.62 15.62 0 0 1 -5.47 1 12 12 0 0 1 -6.11-1.66 12.58 12.58 0 0 1 -4.57-4.62 12.82 12.82 0 0 1 -1.73-6.61 13.11 13.11 0 0 1 1.63-6.49 12.12 12.12 0 0 1 4.41-4.6 11.49 11.49 0 0 1 6-1.66 10.32 10.32 0 0 1 8.59 3.89q3.06 3.84 3.06 10.33h-20a9.35 9.35 0 0 0 2.77 6 8.17 8.17 0 0 0 5.94 2.32 12 12 0 0 0 4.34-.85zm-10.21-16.28a9 9 0 0 0 -2.84 5.67h16.49a9.46 9.46 0 0 0 -2.42-5.67 7.26 7.26 0 0 0 -5.54-2.15 8.2 8.2 0 0 0 -5.69 2.15z"/><path d="m298.4 65.86h-18.15l-3.25 7.4h-4l14.36-32.55h4l14.35 32.55h-4zm-1.52-3.5-7.53-17.11-7.58 17.11z"/><path d="m315.22 72.07a13.09 13.09 0 0 1 -4.67-4.71 12.45 12.45 0 0 1 -1.73-6.36 12.31 12.31 0 0 1 1.73-6.34 13 13 0 0 1 4.67-4.66 12.15 12.15 0 0 1 11-.81 13 13 0 0 1 4 2.65l-2.47 2.42a9.37 9.37 0 0 0 -2.84-2.09 8 8 0 0 0 -3.41-.75 8.23 8.23 0 0 0 -4.48 1.3 9.5 9.5 0 0 0 -3.27 3.53 10.11 10.11 0 0 0 0 9.59 9.77 9.77 0 0 0 3.25 3.49 8.17 8.17 0 0 0 4.48 1.32 8.05 8.05 0 0 0 3.46-.78 9.3 9.3 0 0 0 2.93-2.2l2.47 2.41a12.92 12.92 0 0 1 -4.05 2.75 12.12 12.12 0 0 1 -11.11-.76z"/><path d="m351.77 51a10.47 10.47 0 0 1 2.54 7.36v14.9h-3.56v-3.84a8.49 8.49 0 0 1 -3.67 3.24 11.14 11.14 0 0 1 -4.95 1.17 9.61 9.61 0 0 1 -6.44-2.14 7 7 0 0 1 -2.51-5.69 7.23 7.23 0 0 1 1.3-4.24 8.58 8.58 0 0 1 3.5-2.89 11.34 11.34 0 0 1 4.81-1 26.17 26.17 0 0 1 8 1.37v-.9a8.26 8.26 0 0 0 -1.51-5c-1-1.38-2.72-2.06-5.12-2.06a10.26 10.26 0 0 0 -3.39.59 29.23 29.23 0 0 0 -3.77 1.58l-1.42-2.89a19.87 19.87 0 0 1 8.82-2.37q4.84 0 7.37 2.81zm-4 18.38a6.1 6.1 0 0 0 3-3.77v-3.77a27.33 27.33 0 0 0 -7.39-1 7.9 7.9 0 0 0 -4.76 1.43 4.27 4.27 0 0 0 -2 3.59 4.21 4.21 0 0 0 1.73 3.54 7.17 7.17 0 0 0 4.39 1.3 9.84 9.84 0 0 0 5-1.35z"/><path d="m383.82 40.14v33.12h-3.55v-4.6a10.24 10.24 0 0 1 -3.72 3.81 10 10 0 0 1 -5.19 1.36 10.53 10.53 0 0 1 -5.75-1.64 11.15 11.15 0 0 1 -4.06-4.57 15.76 15.76 0 0 1 0-13.25 11.19 11.19 0 0 1 4.06-4.54 10.53 10.53 0 0 1 5.75-1.64 10 10 0 0 1 5.19 1.35 10.34 10.34 0 0 1 3.72 3.82v-13.22zm-7.53 29.28a8.2 8.2 0 0 0 2.94-3.42 11.58 11.58 0 0 0 1-5 11.44 11.44 0 0 0 -1-5 8.24 8.24 0 0 0 -2.94-3.41 7.66 7.66 0 0 0 -4.29-1.22 7.53 7.53 0 0 0 -4.24 1.23 8.27 8.27 0 0 0 -2.89 3.4 11.44 11.44 0 0 0 -1 5 11.58 11.58 0 0 0 1 5 8.23 8.23 0 0 0 2.92 3.44 7.53 7.53 0 0 0 4.21 1.21 7.66 7.66 0 0 0 4.29-1.23z"/><path d="m406.78 69.8a8.83 8.83 0 0 0 3.34-2.09l2.18 2.29a10.88 10.88 0 0 1 -4.38 2.75 15.67 15.67 0 0 1 -5.48 1 12 12 0 0 1 -6.11-1.66 12.66 12.66 0 0 1 -4.57-4.62 12.92 12.92 0 0 1 -1.76-6.53 13.12 13.12 0 0 1 1.64-6.49 12.09 12.09 0 0 1 4.4-4.6 11.51 11.51 0 0 1 6-1.66 10.32 10.32 0 0 1 8.63 3.81q3 3.84 3.05 10.33h-20a9.4 9.4 0 0 0 2.77 6 8.21 8.21 0 0 0 5.95 2.32 12 12 0 0 0 4.34-.85zm-10.21-16.28a9 9 0 0 0 -2.84 5.67h16.48a9.45 9.45 0 0 0 -2.41-5.67 7.3 7.3 0 0 0 -5.55-2.15 8.17 8.17 0 0 0 -5.68 2.15z"/><path d="m450.68 49.4a8.39 8.39 0 0 1 3.1 3.36 10.6 10.6 0 0 1 1.11 4.91v15.59h-3.55v-15.12a7.35 7.35 0 0 0 -1.59-4.88 5.06 5.06 0 0 0 -4.05-1.89 6.58 6.58 0 0 0 -4.78 1.78 6 6 0 0 0 -1.85 4.52v15.59h-3.55v-15.12a7.35 7.35 0 0 0 -1.59-4.88 5.06 5.06 0 0 0 -4.05-1.89 6.6 6.6 0 0 0 -4.79 1.78 6 6 0 0 0 -1.85 4.52v15.59h-3.55v-24.5h3.55v3.6a7.16 7.16 0 0 1 2.82-3 8.17 8.17 0 0 1 4.29-1.12 8.4 8.4 0 0 1 5 1.57 8.66 8.66 0 0 1 3.15 4.19 7 7 0 0 1 2.68-4.22 8 8 0 0 1 5-1.61 8.57 8.57 0 0 1 4.5 1.23z"/><path d="m460.82 81 .85-3a6.38 6.38 0 0 0 2.89.61 4.05 4.05 0 0 0 2-.47 4.55 4.55 0 0 0 1.51-1.71l1.43-3-10.62-24.67h3.93l8.57 20.38 8.11-20.38h3.83l-11.18 27.24a10 10 0 0 1 -3 4.38 7.36 7.36 0 0 1 -4.41 1.39 9.13 9.13 0 0 1 -3.91-.77z"/><path d="m158 92.67h4.1v2.17h-4.1v14.54h-2.42v-14.54h-2.58v-2.17h2.62v-2.29a4.25 4.25 0 0 1 1.14-3.07 3.88 3.88 0 0 1 2.93-1.2 4.88 4.88 0 0 1 3.1 1.07l-1.24 1.82a2.22 2.22 0 0 0 -.74-.49 2.48 2.48 0 0 0 -1-.19 1.68 1.68 0 0 0 -1.28.59 2.21 2.21 0 0 0 -.53 1.51z"/><path d="m170.12 93.27a7.87 7.87 0 0 1 4-1v2.17a7.67 7.67 0 0 0 -3.35.71 5.57 5.57 0 0 0 -2.29 2 5.2 5.2 0 0 0 -.83 2.89v9.34h-2.42v-16.71h2.42v3.27a5.76 5.76 0 0 1 2.47-2.67z"/><path d="m180.9 108.59a8.8 8.8 0 0 1 -4.31-7.58 8.47 8.47 0 0 1 1.16-4.36 8.76 8.76 0 0 1 3.15-3.19 8.37 8.37 0 0 1 4.32-1.18 8.24 8.24 0 0 1 4.29 1.18 8.81 8.81 0 0 1 3.14 3.19 8.47 8.47 0 0 1 1.16 4.36 8.6 8.6 0 0 1 -1.16 4.38 8.69 8.69 0 0 1 -3.14 3.2 8.15 8.15 0 0 1 -4.29 1.18 8.28 8.28 0 0 1 -4.32-1.18zm7.35-1.87a6.53 6.53 0 0 0 2.22-2.41 6.79 6.79 0 0 0 .82-3.3 6.68 6.68 0 0 0 -.82-3.28 6.47 6.47 0 0 0 -2.22-2.39 5.42 5.42 0 0 0 -3-.89 5.57 5.57 0 0 0 -3.06.89 6.41 6.41 0 0 0 -2.23 2.39 6.68 6.68 0 0 0 -.82 3.28 6.79 6.79 0 0 0 .82 3.3 6.47 6.47 0 0 0 2.23 2.41 5.64 5.64 0 0 0 3.06.88 5.5 5.5 0 0 0 3-.88z"/><path d="m219.12 93.11a5.65 5.65 0 0 1 2.12 2.29 7.28 7.28 0 0 1 .76 3.35v10.63h-2.43v-10.31a5 5 0 0 0 -1.08-3.33 3.44 3.44 0 0 0 -2.76-1.29 4.51 4.51 0 0 0 -3.27 1.21 4.11 4.11 0 0 0 -1.26 3.09v10.63h-2.42v-10.31a5 5 0 0 0 -1.08-3.33 3.47 3.47 0 0 0 -2.77-1.29 4.5 4.5 0 0 0 -3.26 1.21 4.11 4.11 0 0 0 -1.26 3.09v10.63h-2.41v-16.71h2.43v2.46a4.9 4.9 0 0 1 1.9-2.13 5.65 5.65 0 0 1 2.92-.76 5.73 5.73 0 0 1 3.45 1.07 5.88 5.88 0 0 1 2.11 2.91 4.85 4.85 0 0 1 1.83-2.88 5.48 5.48 0 0 1 3.41-1.1 5.79 5.79 0 0 1 3.07.87z"/><path d="m256.45 87.18-9.79 22.2h-2.75l-9.79-22.2h2.75l8.43 19.1 8.4-19.1z"/><path d="m260.78 87.18h2.53l8.24 15.48 8.24-15.48h2.52v22.2h-2.52v-16.77l-8.24 15.48-8.24-15.48v16.77h-2.53z"/><path d="m286.35 92.67h2.59l4.17 13.48 4.55-13.48h2.11l4.55 13.48 4.17-13.48h2.59l-5.62 16.71h-2.3l-4.43-13.38-4.49 13.35h-2.3z"/><path d="m325.45 94.17a7.2 7.2 0 0 1 1.73 5v10.18h-2.43v-2.61a5.93 5.93 0 0 1 -2.5 2.21 7.65 7.65 0 0 1 -3.38.79 6.56 6.56 0 0 1 -4.4-1.45 4.85 4.85 0 0 1 -1.71-3.88 5 5 0 0 1 .89-2.9 5.87 5.87 0 0 1 2.39-2 7.78 7.78 0 0 1 3.28-.69 17.9 17.9 0 0 1 5.43.93v-.55a5.64 5.64 0 0 0 -1-3.44 4.05 4.05 0 0 0 -3.49-1.41 7.14 7.14 0 0 0 -2.32.41 21 21 0 0 0 -2.57 1.11l-1-2a13.47 13.47 0 0 1 6-1.62 6.53 6.53 0 0 1 5.08 1.92zm-2.75 12.55a4.16 4.16 0 0 0 2.05-2.57v-2.56a19 19 0 0 0 -5-.68 5.44 5.44 0 0 0 -3.25 1 2.94 2.94 0 0 0 -1.34 2.46 2.85 2.85 0 0 0 1.18 2.41 4.83 4.83 0 0 0 3 .89 6.77 6.77 0 0 0 3.36-.95z"/><path d="m337.29 93.27a7.87 7.87 0 0 1 4-1v2.17a7.67 7.67 0 0 0 -3.35.71 5.57 5.57 0 0 0 -2.29 2 5.19 5.19 0 0 0 -.82 2.89v9.34h-2.43v-16.71h2.43v3.27a5.69 5.69 0 0 1 2.46-2.67z"/><path d="m355.25 107a6 6 0 0 0 2.28-1.42l1.48 1.59a7.45 7.45 0 0 1 -3 1.87 10.79 10.79 0 0 1 -3.73.71 8.16 8.16 0 0 1 -4.17-1.13 8.57 8.57 0 0 1 -3.12-3.15 9.26 9.26 0 0 1 -.06-8.94 8.14 8.14 0 0 1 3-3.13 7.85 7.85 0 0 1 4.12-1.14 7.06 7.06 0 0 1 5.84 2.62 11 11 0 0 1 2.08 7h-13.66a6.37 6.37 0 0 0 1.89 4.12 5.58 5.58 0 0 0 4.06 1.58 8.18 8.18 0 0 0 2.99-.58zm-7-11.1a6.16 6.16 0 0 0 -1.94 3.86h11.25a6.42 6.42 0 0 0 -1.65-3.86 4.93 4.93 0 0 0 -3.78-1.47 5.57 5.57 0 0 0 -3.85 1.49z"/></g></svg>
