<?xml version="1.0" encoding="utf-8"?>
<!-- Generator: Adobe Illustrator 25.2.0, SVG Export Plug-In . SVG Version: 6.00 Build 0)  -->
<svg version="1.1" id="Layer_1" xmlns="http://www.w3.org/2000/svg" xmlns:xlink="http://www.w3.org/1999/xlink" x="0px" y="0px"
	 viewBox="0 0 600 152.9" style="enable-background:new 0 0 600 152.9;" xml:space="preserve">
<style type="text/css">
	.st0{fill:#78BE20;}
	.st1{fill:#1BC1D5;}
	.st2{fill:#1D428A;}
	.st3{fill:#717074;}
</style>
<g id="Layer_3">
</g>
<g>
	<path class="st0" d="M96.7,118.3L85.9,90c-1.4-3.7,1.6-7.4,5.5-6.9l30.2,4.5L96.7,118.3z"/>
	<path class="st1" d="M110.9,42.1L86,58.8c-3.2,2.2-7.6,0-8-3.9l-2.3-30L110.9,42.1z"/>
	<path class="st0" d="M61.1,90l-10.8,28.3l-24.5-31l29.9-4.2C59.5,82.6,62.6,86.4,61.1,90z"/>
	<path class="st2" d="M53.1,74.2L25,82.9l9.2-37.1l21,19.9C58,68.4,56.8,73.1,53.1,74.2z"/>
	<path class="st2" d="M122.6,83.1L94,74.5c-3.8-1.1-4.9-6-2-8.7l21.7-20.2L122.6,83.1z"/>
	<path class="st1" d="M71.3,25.1l-2.6,29.4c-0.4,3.9-4.7,6-8,3.8L36.9,42.1L71.3,25.1z"/>
	<path class="st1" d="M54.4,120.2l14.8-25.7c2-3.4,6.9-3.4,8.8,0l14.8,25.7H54.4z"/>
	<path class="st3" d="M73.6,8.3C36.8,8.3,7,38.1,7,74.9s29.8,66.6,66.6,66.6s66.6-29.8,66.6-66.6S110.4,8.3,73.6,8.3z M73.8,132.7
		c-32.1,0-58.1-26-58.1-58.1s26-58.1,58.1-58.1s58.1,26,58.1,58.1S105.9,132.7,73.8,132.7z"/>
</g>
<g>
	<path class="st3" d="M218.2,28.5l-16.8,39h-6.4l-16.8-39h6.4l13.7,31.7l13.5-31.7C211.9,28.5,218.2,28.5,218.2,28.5z"/>
	<path class="st3" d="M224.3,28.5h5.7l13.7,25.4l13.7-25.4h5.7v39h-5.7V39.7l-13.7,25.4L230,39.7v27.7h-5.7L224.3,28.5L224.3,28.5z"
		/>
	<path class="st3" d="M269.8,38.1h5.7l6.6,21.8l7.3-21.8h4.7l7.3,21.8l6.8-21.8h5.7L304,67.4h-5.1l-7-21.8l-7,21.8h-5.1L269.8,38.1z
		"/>
	<path class="st3" d="M339.6,40.8c2.2,2.2,3.2,5.1,3.2,8.9v17.7h-5.5v-3.9c-1.1,1.5-2.4,2.6-4.2,3.4s-3.7,1.2-5.5,1.2
		c-3.1,0-5.7-0.8-7.7-2.6c-2-1.8-3.1-3.9-3.1-6.8c0-1.9,0.5-3.5,1.6-5.1c1.1-1.5,2.4-2.7,4.2-3.5c1.8-0.8,3.8-1.2,6-1.2
		c2.8,0,5.7,0.5,8.8,1.6v-0.9c0-2.2-0.5-3.9-1.8-5.4c-1.2-1.5-3.1-2.2-5.8-2.2c-2.3,0-5,0.8-8.3,2.4l-2.2-4.2c3.9-2,7.6-3,11.1-3
		C334.5,37.4,337.5,38.6,339.6,40.8z M334.1,62.3c1.6-0.9,2.7-2.3,3.1-4.1v-3.9c-2.4-0.8-5.1-1.1-8-1.1c-2,0-3.7,0.5-5.1,1.5
		c-1.4,1.1-2.2,2.3-2.2,3.9c0,1.5,0.7,2.8,1.9,3.7c1.2,0.9,2.8,1.4,4.7,1.4C330.7,63.8,332.5,63.2,334.1,62.3z"/>
	<path class="st3" d="M362.1,39.2c1.9-1.2,4.2-1.8,6.6-1.8v4.9c-2.2,0-4.1,0.4-5.7,1.2c-1.6,0.8-3,1.9-3.9,3.4
		c-0.9,1.5-1.4,3.1-1.4,5v15.6h-5.7V38.1h5.7v5.7C358.8,41.9,360.2,40.4,362.1,39.2z"/>
	<path class="st3" d="M391.6,62.6c1.6-0.7,3-1.5,3.8-2.4l3.2,3.5c-1.2,1.4-3,2.4-5.3,3.2c-2.3,0.8-4.5,1.2-6.6,1.2
		c-2.7,0-5.1-0.7-7.6-2c-2.3-1.4-4.2-3.1-5.5-5.5c-1.4-2.3-2-5-2-7.8s0.7-5.4,2-7.8c1.4-2.3,3.1-4.2,5.4-5.4c2.3-1.4,4.7-2,7.4-2
		c3,0,5.5,0.7,7.6,2.2c2.2,1.4,3.8,3.4,4.9,6c1.1,2.6,1.6,5.5,1.6,9.1h-23.4c0.4,2.7,1.4,4.7,3.1,6.5c1.8,1.6,3.9,2.4,6.5,2.4
		C388.3,63.5,390,63.2,391.6,62.6z M380.5,44.4c-1.8,1.5-2.8,3.5-3.2,6.1h18c-0.3-2.4-1.2-4.5-2.7-6c-1.5-1.5-3.5-2.3-6-2.3
		C384.3,42.1,382.2,42.8,380.5,44.4z"/>
	<path class="st3" d="M433.3,33.9h-12.9v-5.3h31.3v5.3H439v33.6h-5.7V33.9z"/>
	<path class="st3" d="M477.1,40.8c2.2,2.2,3.2,5.1,3.2,8.9v17.7h-5.5v-3.9c-1.1,1.5-2.4,2.6-4.2,3.4c-1.8,0.8-3.7,1.2-5.5,1.2
		c-3.1,0-5.7-0.8-7.7-2.6c-2-1.8-3.1-3.9-3.1-6.8c0-1.9,0.5-3.5,1.6-5.1c1.1-1.5,2.4-2.7,4.2-3.5c1.8-0.8,3.8-1.2,6-1.2
		c2.8,0,5.7,0.5,8.8,1.6v-0.9c0-2.2-0.5-3.9-1.8-5.4s-3.1-2.2-5.8-2.2c-2.3,0-5,0.8-8.3,2.4l-2.2-4.2c3.9-2,7.6-3,11.1-3
		C472,37.4,474.9,38.6,477.1,40.8z M471.7,62.3c1.6-0.9,2.7-2.3,3.1-4.1v-3.9c-2.4-0.8-5.1-1.1-8-1.1c-2,0-3.7,0.5-5.1,1.5
		c-1.4,1.1-2.2,2.3-2.2,3.9c0,1.5,0.7,2.8,1.9,3.7c1.2,0.9,2.8,1.4,4.7,1.4C468.2,63.8,470.1,63.2,471.7,62.3z"/>
	<path class="st3" d="M509.6,38.9c1.6,0.9,3,2.3,3.9,4.1c0.9,1.8,1.4,3.7,1.4,6v18.5h-5.4V49.7c0-2.2-0.7-3.9-1.9-5.4
		c-1.2-1.4-2.8-2-4.9-2c-1.5,0-2.8,0.3-4.1,0.9s-2.3,1.5-3,2.6c-0.7,1.1-1.1,2.2-1.1,3.5v18.1h-5.7V38.1h5.7v4.3
		c0.8-1.5,2.2-2.7,3.8-3.7c1.6-0.9,3.5-1.4,5.5-1.4C506.1,37.4,508,37.9,509.6,38.9z"/>
	<path class="st3" d="M521.2,63.2l16.5-20h-16.1v-5h23.5v4.2l-16.5,20h16.6v5h-24.1V63.2z"/>
	<path class="st3" d="M577.1,38.1v29.4h-5.7v-4.2c-0.9,1.5-2.2,2.7-3.9,3.5c-1.6,0.9-3.5,1.4-5.5,1.4c-2.2,0-4.1-0.4-5.7-1.4
		s-3-2.3-3.9-4.1c-0.9-1.8-1.4-3.7-1.4-6V38.1h5.5v17.7c0,2.2,0.7,3.9,1.9,5.4c1.2,1.4,2.8,2,4.9,2c1.5,0,2.8-0.3,4.1-0.9
		c1.2-0.7,2.2-1.5,3-2.6c0.7-1.1,1.1-2.2,1.1-3.5V38.1H577.1z"/>
	<path class="st3" d="M190.1,120.6c-2-1.2-3.5-2.7-4.7-4.7s-1.8-4.2-1.8-6.5c0-2.3,0.5-4.5,1.8-6.4c1.2-2,2.7-3.5,4.7-4.7
		c2-1.2,4.1-1.8,6.4-1.8c1.8,0,3.4,0.4,5,1.1s3,1.6,4.2,2.8l-2.6,2.4c-0.8-0.9-1.9-1.6-3-2.2c-1.2-0.5-2.3-0.8-3.7-0.8
		c-1.6,0-3.1,0.4-4.6,1.4c-1.4,0.8-2.6,2-3.4,3.5c-0.8,1.5-1.2,3-1.2,4.7s0.4,3.2,1.2,4.7c0.8,1.5,1.9,2.6,3.4,3.5
		c1.5,0.9,3,1.4,4.6,1.4c1.2,0,2.4-0.3,3.7-0.8s2.2-1.2,3-2.2l2.6,2.4c-1.2,1.2-2.6,2.2-4.2,2.8c-1.6,0.7-3.2,1.1-5,1.1
		C194.3,122.4,192.1,121.8,190.1,120.6z"/>
	<path class="st3" d="M213.8,121c-1.5-0.9-2.7-2-3.7-3.7c-0.9-1.5-1.4-3.1-1.4-4.9c0-1.8,0.4-3.4,1.4-4.9c0.9-1.5,2.2-2.7,3.7-3.5
		c1.5-0.9,3.1-1.4,4.9-1.4s3.4,0.4,4.9,1.4c1.5,0.9,2.7,2,3.7,3.5c0.9,1.5,1.4,3.1,1.4,4.9c0,1.8-0.4,3.4-1.4,4.9s-2.2,2.7-3.7,3.7
		c-1.5,0.9-3.1,1.4-4.9,1.4S215.3,122,213.8,121z M221.8,118.3c0.9-0.5,1.8-1.5,2.3-2.4c0.5-1.1,0.8-2.2,0.8-3.4
		c0-1.2-0.3-2.3-0.8-3.4s-1.4-1.9-2.3-2.4c-0.9-0.5-2-0.9-3.1-0.9c-1.1,0-2.2,0.3-3.1,0.9c-0.9,0.5-1.8,1.4-2.3,2.4
		c-0.5,1.1-0.8,2.2-0.8,3.4c0,1.2,0.3,2.3,0.8,3.4c0.5,1.1,1.4,1.9,2.3,2.4c0.9,0.5,2,0.9,3.1,0.9
		C219.9,119.3,220.8,119,221.8,118.3z"/>
	<path class="st3" d="M257.3,103.7c1.1,0.7,1.9,1.5,2.4,2.6c0.5,1.1,0.8,2.3,0.8,3.8V122h-3.5v-11.4c0-1.4-0.4-2.6-1.1-3.4
		c-0.8-0.8-1.8-1.4-2.8-1.4c-1.4,0-2.4,0.4-3.4,1.2c-0.8,0.8-1.4,1.9-1.4,3.1V122h-3.5v-11.4c0-1.4-0.4-2.6-1.1-3.4
		c-0.7-0.8-1.6-1.4-2.8-1.4c-1.4,0-2.4,0.4-3.4,1.2c-0.8,0.8-1.4,1.9-1.4,3.1V122h-3.7v-18.8h3.7v2.7c0.5-0.9,1.2-1.8,2.2-2.3
		c0.9-0.5,2-0.8,3.2-0.8c1.5,0,2.7,0.4,3.9,1.2c1.1,0.8,1.9,1.9,2.4,3.2c0.3-1.4,0.9-2.4,2-3.2c1.1-0.8,2.3-1.2,3.8-1.2
		C255.2,102.8,256.3,103,257.3,103.7z"/>
	<path class="st3" d="M290.9,103.7c1.1,0.7,1.9,1.5,2.4,2.6c0.5,1.1,0.8,2.3,0.8,3.8V122h-3.5v-11.4c0-1.4-0.4-2.6-1.1-3.4
		c-0.8-0.8-1.8-1.4-2.8-1.4c-1.4,0-2.4,0.4-3.4,1.2c-0.8,0.8-1.4,1.9-1.4,3.1V122h-3.5v-11.4c0-1.4-0.4-2.6-1.1-3.4
		c-0.7-0.8-1.6-1.4-2.8-1.4c-1.4,0-2.4,0.4-3.4,1.2c-0.8,0.8-1.4,1.9-1.4,3.1V122h-3.7v-18.8h3.7v2.7c0.5-0.9,1.2-1.8,2.2-2.3
		c0.9-0.5,2-0.8,3.2-0.8c1.5,0,2.7,0.4,3.9,1.2c1.1,0.8,1.9,1.9,2.4,3.2c0.3-1.4,0.9-2.4,2-3.2s2.3-1.2,3.8-1.2
		C288.7,102.8,290,103,290.9,103.7z"/>
	<path class="st3" d="M316.2,103.2V122h-3.7v-2.7c-0.5,0.9-1.4,1.8-2.4,2.3c-1.1,0.5-2.3,0.8-3.5,0.8c-1.4,0-2.6-0.3-3.7-0.9
		c-1.1-0.5-1.9-1.5-2.4-2.6c-0.5-1.1-0.9-2.3-0.9-3.8v-11.9h3.5v11.4c0,1.4,0.4,2.6,1.2,3.4c0.8,0.9,1.9,1.4,3.1,1.4
		c0.9,0,1.8-0.1,2.6-0.5c0.8-0.4,1.4-0.9,1.9-1.6c0.4-0.7,0.7-1.4,0.7-2.2v-11.6L316.2,103.2L316.2,103.2z"/>
	<path class="st3" d="M335.7,103.7c1.1,0.5,1.9,1.5,2.4,2.6c0.5,1.1,0.9,2.3,0.9,3.8V122h-3.5v-11.4c0-1.4-0.4-2.6-1.2-3.4
		c-0.8-0.9-1.9-1.4-3.1-1.4c-0.9,0-1.8,0.1-2.6,0.5c-0.8,0.4-1.5,0.9-1.9,1.6c-0.4,0.7-0.7,1.4-0.7,2.2v11.6h-3.7v-18.7h3.7v2.7
		c0.5-0.9,1.4-1.8,2.4-2.3c1.1-0.5,2.3-0.9,3.5-0.9C333.5,102.8,334.6,103,335.7,103.7z"/>
	<path class="st3" d="M345.3,99.4c-0.4-0.4-0.7-0.9-0.7-1.5c0-0.5,0.3-1.1,0.7-1.5c0.4-0.4,0.9-0.7,1.5-0.7c0.5,0,1.1,0.3,1.5,0.7
		c0.4,0.4,0.7,0.9,0.7,1.5c0,0.5-0.3,1.1-0.7,1.5c-0.4,0.4-0.9,0.7-1.5,0.7C346.1,100,345.7,99.8,345.3,99.4z M345,103.2h3.7V122
		H345V103.2z"/>
	<path class="st3" d="M364.7,121c-0.5,0.4-1.1,0.7-1.8,0.9c-0.7,0.3-1.4,0.4-2,0.4c-1.5,0-2.6-0.5-3.5-1.5c-0.9-0.9-1.4-2.2-1.4-3.7
		v-11.1h-2.8V103h2.8v-5.1h3.5v5.1h4.5v3.1h-4.5V117c0,0.7,0.1,1.2,0.5,1.6s0.8,0.7,1.4,0.7c0.4,0,0.8,0,1.1-0.1
		c0.3-0.1,0.5-0.3,0.8-0.5L364.7,121z"/>
	<path class="st3" d="M367.6,127.7l0.8-2.7c0.7,0.4,1.5,0.5,2.3,0.5c0.5,0,1.1-0.1,1.5-0.3c0.4-0.3,0.8-0.5,1.1-1.1l0.9-2l-8.1-18.9
		h3.8L376,118l5.7-14.9h3.8l-8.3,20.4c-0.7,1.6-1.5,2.8-2.4,3.7c-0.9,0.8-2.2,1.2-3.5,1.2C369.8,128.5,368.6,128.2,367.6,127.7z"/>
	<path class="st3" d="M404,100.5v7.2h13.3v3.4H404v7.6h14.6v3.4h-18.4v-25h18.4v3.4L404,100.5L404,100.5z"/>
	<path class="st3" d="M441.5,96.5V122h-3.7v-3.2c-0.8,1.1-1.8,2-2.8,2.7c-1.1,0.7-2.4,0.9-3.8,0.9c-1.6,0-3.1-0.4-4.5-1.2
		c-1.4-0.8-2.3-2-3.1-3.5c-0.8-1.5-1.1-3.2-1.1-5.1c0-1.9,0.4-3.5,1.1-5c0.8-1.5,1.8-2.7,3.1-3.5c1.4-0.8,2.8-1.2,4.5-1.2
		c1.4,0,2.7,0.3,3.8,0.9c1.1,0.7,2,1.5,2.8,2.7v-9.7L441.5,96.5L441.5,96.5z M435.2,118.5c0.9-0.5,1.6-1.4,2-2.4
		c0.5-1.1,0.8-2.2,0.8-3.5c0-1.2-0.3-2.4-0.8-3.5c-0.5-1.1-1.2-1.8-2-2.4c-0.9-0.5-1.9-0.8-3-0.8c-1.1,0-2.2,0.3-3,0.8
		c-0.9,0.5-1.6,1.4-2,2.4c-0.4,1.1-0.8,2.2-0.8,3.5c0,1.2,0.3,2.4,0.8,3.5c0.5,1.1,1.2,1.9,2,2.4c0.9,0.5,1.9,0.8,3,0.8
		C433.3,119.3,434.2,119,435.2,118.5z"/>
	<path class="st3" d="M448,99.4c-0.4-0.4-0.7-0.9-0.7-1.5c0-0.5,0.3-1.1,0.7-1.5c0.4-0.4,0.9-0.7,1.5-0.7s1.1,0.3,1.5,0.7
		c0.4,0.4,0.7,0.9,0.7,1.5c0,0.5-0.3,1.1-0.7,1.5s-0.9,0.7-1.5,0.7S448.4,99.8,448,99.4z M447.7,103.2h3.7V122h-3.7V103.2z"/>
	<path class="st3" d="M467.5,121c-0.5,0.4-1.1,0.7-1.8,0.9c-0.7,0.3-1.4,0.4-2,0.4c-1.5,0-2.6-0.5-3.5-1.5c-0.9-0.9-1.4-2.2-1.4-3.7
		v-11.1H456V103h2.8v-5.1h3.5v5.1h4.5v3.1h-4.5V117c0,0.7,0.1,1.2,0.5,1.6s0.8,0.7,1.4,0.7c0.4,0,0.8,0,1.1-0.1
		c0.3-0.1,0.5-0.3,0.8-0.5L467.5,121z"/>
	<path class="st3" d="M471.8,99.4c-0.4-0.4-0.7-0.9-0.7-1.5c0-0.5,0.3-1.1,0.7-1.5c0.4-0.4,0.9-0.7,1.5-0.7s1.1,0.3,1.5,0.7
		c0.4,0.4,0.7,0.9,0.7,1.5c0,0.5-0.3,1.1-0.7,1.5s-0.9,0.7-1.5,0.7S472.2,99.8,471.8,99.4z M471.6,103.2h3.7V122h-3.7V103.2z"/>
	<path class="st3" d="M484.8,121c-1.5-0.9-2.7-2-3.7-3.7c-0.9-1.5-1.4-3.1-1.4-4.9c0-1.8,0.4-3.4,1.4-4.9c0.9-1.5,2.2-2.7,3.7-3.5
		c1.5-0.9,3.1-1.4,4.9-1.4c1.8,0,3.4,0.4,4.9,1.4c1.5,0.9,2.7,2,3.7,3.5c0.9,1.5,1.4,3.1,1.4,4.9c0,1.8-0.4,3.4-1.4,4.9
		c-0.9,1.5-2.2,2.7-3.7,3.7s-3.1,1.4-4.9,1.4S486.3,122,484.8,121z M492.9,118.3c0.9-0.5,1.8-1.5,2.3-2.4c0.5-1.1,0.8-2.2,0.8-3.4
		c0-1.2-0.3-2.3-0.8-3.4c-0.5-1.1-1.4-1.9-2.3-2.4c-0.9-0.5-2-0.9-3.1-0.9c-1.1,0-2.2,0.3-3.1,0.9c-0.9,0.5-1.8,1.4-2.3,2.4
		c-0.5,1.1-0.8,2.2-0.8,3.4c0,1.2,0.3,2.3,0.8,3.4s1.4,1.9,2.3,2.4c0.9,0.5,2,0.9,3.1,0.9C490.9,119.3,491.9,119,492.9,118.3z"/>
	<path class="st3" d="M517.6,103.7c1.1,0.5,1.9,1.5,2.4,2.6c0.5,1.1,0.9,2.3,0.9,3.8V122h-3.5v-11.4c0-1.4-0.4-2.6-1.2-3.4
		c-0.8-0.9-1.9-1.4-3.1-1.4c-0.9,0-1.8,0.1-2.6,0.5c-0.8,0.4-1.5,0.9-1.9,1.6c-0.4,0.7-0.7,1.4-0.7,2.2v11.6h-3.7v-18.7h3.7v2.7
		c0.5-0.9,1.4-1.8,2.4-2.3c1.1-0.5,2.3-0.9,3.5-0.9C515.3,102.8,516.5,103,517.6,103.7z"/>
	<g>
		<path class="st3" d="M582.4,38.9h-2v-0.7h4.7v0.7h-2v5.3h-0.7V38.9z"/>
		<path class="st3" d="M586.3,38.2h0.7l2.2,4.2l2.2-4.2h0.7v6h-0.7v-4.5l-2.2,4.2l-2.2-4.2v4.5h-0.7V38.2z"/>
	</g>
</g>
</svg>
