<svg version="1.1" width="36" height="36"  viewBox="0 0 36 36" preserveAspectRatio="xMidYMid meet" xmlns="http://www.w3.org/2000/svg" xmlns:xlink="http://www.w3.org/1999/xlink">
    <title>block-solid-alerted</title>
    <path d="M30,15.38v11L19,31.44V16.64l2.79-1.29a3.68,3.68,0,0,1-2.25-1.16L18,14.9,7.39,10,18,5.1l3,1.39,1-1.75L18.42,3.09a1,1,0,0,0-.84,0l-13,6A1,1,0,0,0,4,10V27a1,1,0,0,0,.58.91l13,6a1,1,0,0,0,.84,0l13-6A1,1,0,0,0,32,27V15.38Z" class="clr-i-solid--alerted clr-i-solid-path-1--alerted"></path><path d="M26.85,1.12,21.13,11a1.27,1.27,0,0,0,1.1,1.91H33.68A1.27,1.27,0,0,0,34.78,11L29.06,1.12A1.28,1.28,0,0,0,26.85,1.12Z" class="clr-i-solid--alerted clr-i-solid-path-2--alerted clr-i-alert"></path>
    <rect x="0" y="0" width="36" height="36" fill-opacity="0"/>
</svg>