<svg version="1.1" width="36" height="36"  viewBox="0 0 36 36" preserveAspectRatio="xMidYMid meet" xmlns="http://www.w3.org/2000/svg" xmlns:xlink="http://www.w3.org/1999/xlink">
    <title>blocks-group-solid-alerted</title>
    <path d="M33.53,18.76,26.6,15.57v0h-2v0l-6.43,3V10.87a1.05,1.05,0,0,0,.35-.08l.14-.06A3.23,3.23,0,0,1,19,10l1.28-2.22-2.14,1L13,6.43l5.1-2.35,3.39,1.56,1-1.73-4-1.83a1,1,0,0,0-.84,0l-7.5,3.45a1,1,0,0,0-.58.91v9.14l-6.9,3.18a1,1,0,0,0-.58.91v9.78a1,1,0,0,0,.58.91l7.5,3.45a1,1,0,0,0,.84,0l7.08-3.26,7.08,3.26a1,1,0,0,0,.84,0l7.5-3.45a1,1,0,0,0,.58-.91V19.67A1,1,0,0,0,33.53,18.76Zm-28,.91,5.11-2.36,5.11,2.35L10.6,22ZM10.6,31.8V24.11A1.08,1.08,0,0,0,11,24l6.08-2.8,0,7.6Zm9.9-12.13,5.11-2.35,5.11,2.35L25.61,22ZM25.64,31.8V24.11A.89.89,0,0,0,26,24l6.08-2.8,0,7.6Z" class="clr-i-solid--alerted clr-i-solid-path-1--alerted"></path><path d="M26.89,1.14l-5.72,9.91A1.27,1.27,0,0,0,22.27,13H33.72a1.27,1.27,0,0,0,1.1-1.91L29.1,1.14A1.28,1.28,0,0,0,26.89,1.14Z" class="clr-i-solid--alerted clr-i-solid-path-2--alerted clr-i-alert"></path>
    <rect x="0" y="0" width="36" height="36" fill-opacity="0"/>
</svg>