<svg xmlns="http://www.w3.org/2000/svg" width="36" height="36" viewBox="0 0 36 36"><title>control-lun-outline-alerted</title><g id="e2af1431-2951-43a6-8444-95952cba2536" data-name="Layer 3"><path d="M8,24.59a25.5,25.5,0,0,0,2.75.59l1.21-1.41a24.13,24.13,0,0,1-4-.83Z"/><path d="M32.09,22H15.46l-5.41,6.31L15.49,34h16.6a2,2,0,0,0,2-2V23.93A2,2,0,0,0,32.09,22Zm0,10H16.34l-3.59-3.77L16.38,24H32.09v8Z"/><path d="M16.11,27a1,1,0,1,0,1,1A1,1,0,0,0,16.11,27Z"/><path d="M6,27.53V10.3c2.9,1.43,8.34,1.88,12,1.88h.59a3.59,3.59,0,0,1,.32-2H18C10.71,10.18,6.31,8.69,6,8c.32-.8,4.72-2.3,12-2.3,1.22,0,2.35.05,3.41.12l1.1-1.91c-1.6-.15-3.17-.21-4.51-.21-5.2,0-14,.9-14,4.25v19.6c0,2,3.17,3.14,6.83,3.72L8.38,28.68C7,28.28,6.13,27.84,6,27.53Z"/><path d="M8,16.33V18a40.86,40.86,0,0,0,10,1.16c3.46,0,9.13-.45,12-1.91v3.23h2V15.4H30c-.91.82-5,2.13-12,2.13A34.81,34.81,0,0,1,8,16.33Z"/><path d="M26.85,1.14l-5.72,9.91A1.27,1.27,0,0,0,22.23,13H33.68a1.27,1.27,0,0,0,1.1-1.91L29.06,1.14A1.28,1.28,0,0,0,26.85,1.14Z" fill="#fac400"/></g></svg>