<svg xmlns="http://www.w3.org/2000/svg" width="36" height="36" viewBox="0 0 36 36"><title>media-changer-outline-alerted</title><g id="ba26b725-b8f3-4ccb-aee2-8938f3342917" data-name="Layer 3"><rect x="20" y="18" width="2" height="2"/><rect x="24" y="18" width="2" height="2"/><rect x="20" y="22" width="2" height="2"/><rect x="24" y="22" width="2" height="2"/><rect x="8.81" y="10" width="8.14" height="2"/><rect x="8.81" y="14" width="8.14" height="2"/><rect x="8.81" y="18" width="8.14" height="2"/><rect x="8.81" y="22" width="8.14" height="2"/><rect x="8.81" y="26" width="8.14" height="2"/><path d="M30,15.4V30H6V6H21.27l1.18-2H6A2,2,0,0,0,4,6V30a2,2,0,0,0,2,2H7.88v1.57a1,1,0,0,0,2,0V32h16v1.57a1,1,0,0,0,2,0V32H30a2,2,0,0,0,2-2V15.4Z"/><path d="M26.85,1.14l-5.72,9.91A1.27,1.27,0,0,0,22.23,13H33.68a1.27,1.27,0,0,0,1.1-1.91L29.06,1.14A1.28,1.28,0,0,0,26.85,1.14Z" fill="#fac400"/></g></svg>