<svg version="1.1" width="36" height="36"  viewBox="0 0 36 36" preserveAspectRatio="xMidYMid meet" xmlns="http://www.w3.org/2000/svg" xmlns:xlink="http://www.w3.org/1999/xlink">
    <title>namespace-line</title>
    <path d="M27,4.18a1,1,0,1,0-1,1.73l6,3.47V26.62l-6,3.47a1,1,0,0,0-.37,1.36,1,1,0,0,0,1.37.37l7-4.05V8.23Z" class="clr-i-outline clr-i-outline-path-1"></path><path d="M9.68,29.9,4,26.62V9.38L9.68,6.1a1,1,0,1,0-1-1.73L2,8.23V27.77l6.68,3.86a1,1,0,0,0,1.37-.37A1,1,0,0,0,9.68,29.9Z" class="clr-i-outline clr-i-outline-path-2"></path><path d="M10,12V24a2,2,0,0,0,2,2H24a2,2,0,0,0,2-2V12a2,2,0,0,0-2-2H12A2,2,0,0,0,10,12Zm7,0v5H12V12Zm-5,7h5v5H12Zm7,5V19h5v5Zm5-7H19V12h5Z" class="clr-i-outline clr-i-outline-path-3"></path>
    <rect x="0" y="0" width="36" height="36" fill-opacity="0"/>
</svg>