<svg version="1.1" width="36" height="36"  viewBox="0 0 36 36" preserveAspectRatio="xMidYMid meet" xmlns="http://www.w3.org/2000/svg" xmlns:xlink="http://www.w3.org/1999/xlink">
    <title>nodes-line</title>
    <path d="M10.5,34.29,2,29.39V19.58l8.5-4.9,8.5,4.9v9.81ZM4,28.23,10.5,32,17,28.23V20.74L10.5,17,4,20.74Z" class="clr-i-outline clr-i-outline-path-1"></path><path d="M25.5,34.29,17,29.39V19.58l8.5-4.9,8.5,4.9v9.81ZM19,28.23,25.5,32,32,28.23V20.74L25.5,17,19,20.74Z" class="clr-i-outline clr-i-outline-path-2"></path><path d="M18,21.32l-8.5-4.9V6.61L18,1.71l8.5,4.9v9.81Zm-6.5-6.06L18,19l6.5-3.75V7.77L18,4,11.5,7.77Z" class="clr-i-outline clr-i-outline-path-3"></path>
    <rect x="0" y="0" width="36" height="36" fill-opacity="0"/>
</svg>