<svg xmlns="http://www.w3.org/2000/svg" width="36" height="36" viewBox="0 0 36 36"><title>tape-drive-solid-alerted</title><g id="b2f9aaca-300c-4c2c-85b6-c22abfe27d71" data-name="Layer 3"><path d="M7.2,18a5,5,0,1,0,5-5A5,5,0,0,0,7.2,18Zm7,0a2,2,0,1,1-2-2A2,2,0,0,1,14.22,18Z"/><path d="M18.78,18a5,5,0,1,0,9.27-2.6H22.23a3.71,3.71,0,0,1-2.17-.71A5,5,0,0,0,18.78,18Zm5-2a2,2,0,1,1-2,2A2,2,0,0,1,23.79,16Z"/><path d="M33.68,15.4H30V24H6V12H18.57a3.65,3.65,0,0,1,.48-2.11L21.29,6H4A2,2,0,0,0,2,8V28a2,2,0,0,0,2,2H32a2,2,0,0,0,2-2V15.38Z"/><path d="M26.85,1.14l-5.72,9.91A1.27,1.27,0,0,0,22.23,13H33.68a1.27,1.27,0,0,0,1.1-1.91L29.06,1.14A1.28,1.28,0,0,0,26.85,1.14Z" fill="#fac400"/></g></svg>