<svg xmlns="http://www.w3.org/2000/svg" width="36" height="36" viewBox="0 0 36 36"><title>tape-drive-outline</title><g id="edc65e35-6853-41fe-a251-2204942da15b" data-name="Layer 4"><path d="M32,6H4A2,2,0,0,0,2,8V28a2,2,0,0,0,2,2H32a2,2,0,0,0,2-2V8A2,2,0,0,0,32,6ZM4,28V8H32V28Z"/><path d="M13.33,13.35a4.52,4.52,0,1,0,4.53,4.52A4.53,4.53,0,0,0,13.33,13.35Zm0,7.44a2.92,2.92,0,1,1,2.93-2.92A2.92,2.92,0,0,1,13.33,20.79Z"/><path d="M23.62,13.35a4.52,4.52,0,1,0,4.52,4.52A4.53,4.53,0,0,0,23.62,13.35Zm0,7.44a2.92,2.92,0,1,1,2.92-2.92A2.92,2.92,0,0,1,23.62,20.79Z"/><path d="M6,11V23.55H8V12H29.34V10H7A1,1,0,0,0,6,11Z"/></g></svg>