<svg xmlns="http://www.w3.org/2000/svg" width="36" height="36" viewBox="0 0 36 36"><title>color_palette_solid</title><g id="b894e32b-0437-45ab-b8bf-9f0c4e8f57cd" data-name="Layer 3"><path d="M32.23,14.89c-2.1-.56-4.93,1.8-6.34.3-1.71-1.82,2.27-5.53,1.86-8.92-.33-2.78-3.51-4.08-6.66-4.1A18.5,18.5,0,0,0,7.74,7.59c-6.64,6.59-8.07,16-1.37,22.48,6.21,6,16.61,4.23,22.67-1.4a17.73,17.73,0,0,0,4.22-6.54C34.34,19.23,34.44,15.49,32.23,14.89ZM9.4,10.57a2.23,2.23,0,0,1,2.87,1.21,2.22,2.22,0,0,1-1.81,2.53A2.22,2.22,0,0,1,7.59,13.1,2.23,2.23,0,0,1,9.4,10.57ZM5.07,20.82a2.22,2.22,0,0,1,1.82-2.53A2.22,2.22,0,0,1,9.75,19.5,2.23,2.23,0,0,1,7.94,22,2.24,2.24,0,0,1,5.07,20.82Zm7,8.33a2.22,2.22,0,0,1-2.87-1.21A2.23,2.23,0,0,1,11,25.41a2.23,2.23,0,0,1,2.87,1.21A2.22,2.22,0,0,1,12,29.15ZM15,8.26a2.23,2.23,0,0,1,1.81-2.53,2.24,2.24,0,0,1,2.87,1.21,2.22,2.22,0,0,1-1.82,2.53A2.21,2.21,0,0,1,15,8.26Zm5.82,22.19a2.22,2.22,0,0,1-2.87-1.21,2.23,2.23,0,0,1,1.81-2.53,2.24,2.24,0,0,1,2.87,1.21A2.22,2.22,0,0,1,20.78,30.45Zm5-10.46a3.2,3.2,0,0,1-1.69,1.76,3.53,3.53,0,0,1-1.4.3,2.78,2.78,0,0,1-2.56-1.5,2.49,2.49,0,0,1-.07-2,3.2,3.2,0,0,1,1.69-1.76,3,3,0,0,1,4,1.2A2.54,2.54,0,0,1,25.79,20Z"/></g></svg>