<svg xmlns="http://www.w3.org/2000/svg" width="36" height="36" viewBox="0 0 36 36"><title>first-aid-kit-solid</title><g id="bcb20d87-9a45-4e25-814f-6152e53bb23a" data-name="Layer 4"><path d="M32,6H23.91V4.5A2.5,2.5,0,0,0,21.41,2h-7a2.5,2.5,0,0,0-2.5,2.5V6H4A2,2,0,0,0,2,8V28a2,2,0,0,0,2,2H32a2,2,0,0,0,2-2V8A2,2,0,0,0,32,6ZM13.91,4.5a.5.5,0,0,1,.5-.5h7a.5.5,0,0,1,.5.5V6h-8ZM24.64,19.9a.5.5,0,0,1-.5.5h-3.5v3.5a.5.5,0,0,1-.5.5h-3.4a.5.5,0,0,1-.5-.5V20.4h-3.5a.5.5,0,0,1-.5-.5V16.5a.5.5,0,0,1,.5-.5h3.5V12.5a.5.5,0,0,1,.5-.5h3.4a.5.5,0,0,1,.5.5V16h3.5a.5.5,0,0,1,.5.5Z"/></g></svg>