<svg version="1.1" width="36" height="36"  viewBox="0 0 36 36" preserveAspectRatio="xMidYMid meet" xmlns="http://www.w3.org/2000/svg" xmlns:xlink="http://www.w3.org/1999/xlink">
    <title>table-line</title>
    <path d="M8,34a1,1,0,0,1-1-1V2.92a1,1,0,0,1,2,0V33A1,1,0,0,1,8,34Z" class="clr-i-outline clr-i-outline-path-1"></path><path d="M17,33.92a1,1,0,0,1-1-1V9.1a1,1,0,1,1,2,0V32.92A1,1,0,0,1,17,33.92Z" class="clr-i-outline clr-i-outline-path-2"></path><path d="M26,34a1,1,0,0,1-1-1V9a1,1,0,0,1,2,0V33A1,1,0,0,1,26,34Z" class="clr-i-outline clr-i-outline-path-3"></path><path d="M33.11,18h-25a1,1,0,1,1,0-2h25a1,1,0,1,1,0,2Z" class="clr-i-outline clr-i-outline-path-4"></path><path d="M33.1,26.94H8.1A1,1,0,1,1,8.1,25h25a1,1,0,1,1,0,1.92Z" class="clr-i-outline clr-i-outline-path-5"></path><path d="M33,8.92H3A1,1,0,1,1,3,7H33a1,1,0,1,1,0,1.94Z" class="clr-i-outline clr-i-outline-path-6"></path>
    <rect x="0" y="0" width="36" height="36" fill-opacity="0"/>
</svg>