<svg xmlns="http://www.w3.org/2000/svg" viewBox="0 0 321.849 232.001"><path d="M180.662,106.69l-9.589-24.961a4.5,4.5,0,0,1,4.859-6.068l26.58,3.917Z" fill="#78be20"/><path d="M193.148,39.539,171.193,54.182a4.5,4.5,0,0,1-6.988-3.408l-1.991-26.482Z" fill="#1bc1d5"/><path d="M149.265,81.695l-9.582,24.875-21.61-27.192,26.355-3.758A4.5,4.5,0,0,1,149.265,81.695Z" fill="#78be20"/><path d="M142.185,67.784l-24.812,7.672,8.084-32.795,18.5,17.556A4.5,4.5,0,0,1,142.185,67.784Z" fill="#1d428a"/><path d="M203.433,75.676,178.281,68a4.5,4.5,0,0,1-1.749-7.6l19.077-17.716Z" fill="#1d428a"/><path d="M158.212,24.452l-2.3,25.887a4.5,4.5,0,0,1-7,3.334L127.918,39.52Z" fill="#1bc1d5"/><path d="M143.285,108.292,156.3,85.7a4.5,4.5,0,0,1,7.812.017l12.872,22.573Z" fill="#1bc1d5"/><path d="M160.213,9.626A58.7,58.7,0,1,0,218.9,68.312,58.683,58.683,0,0,0,160.213,9.626Zm.22,109.671a51.154,51.154,0,1,1,51.144-51.164A51.152,51.152,0,0,1,160.433,119.3Z" fill="#727174"/><path d="M43.3,216.785a9.526,9.526,0,0,1-3.382-3.369,8.866,8.866,0,0,1,0-9.128,9.571,9.571,0,0,1,3.382-3.356,8.785,8.785,0,0,1,4.545-1.252,9.1,9.1,0,0,1,6.557,2.788l-1.832,1.756a6.791,6.791,0,0,0-2.156-1.575,6.1,6.1,0,0,0-5.809.361,6.918,6.918,0,0,0-2.4,2.479,6.614,6.614,0,0,0-.89,3.357,6.681,6.681,0,0,0,.89,3.369,6.876,6.876,0,0,0,2.4,2.492,6.1,6.1,0,0,0,5.809.361,6.791,6.791,0,0,0,2.156-1.575l1.832,1.756a9.332,9.332,0,0,1-2.994,2.053,8.906,8.906,0,0,1-3.563.736A8.767,8.767,0,0,1,43.3,216.785Z" fill="#727174"/><path d="M60.1,217.1a7.113,7.113,0,0,1-2.569-2.556,6.761,6.761,0,0,1-.955-3.5,6.687,6.687,0,0,1,.955-3.486,7.14,7.14,0,0,1,2.569-2.543,6.961,6.961,0,0,1,7,0,7.132,7.132,0,0,1,2.569,2.543,6.679,6.679,0,0,1,.957,3.486,6.753,6.753,0,0,1-.957,3.5A7.1,7.1,0,0,1,67.1,217.1a6.968,6.968,0,0,1-7,0Zm5.732-1.924a4.741,4.741,0,0,0,1.628-1.743,5.01,5.01,0,0,0,0-4.777,4.634,4.634,0,0,0-1.628-1.73,4.261,4.261,0,0,0-4.466,0,4.624,4.624,0,0,0-1.627,1.73,5.01,5.01,0,0,0,0,4.777,4.73,4.73,0,0,0,1.627,1.743,4.182,4.182,0,0,0,4.466,0Z" fill="#727174"/><path d="M91.071,204.728a4.583,4.583,0,0,1,1.718,1.833,5.639,5.639,0,0,1,.619,2.673v8.494H90.929V209.62a3.543,3.543,0,0,0-.8-2.4,2.57,2.57,0,0,0-2.039-.93,3.3,3.3,0,0,0-2.363.865,2.933,2.933,0,0,0-.917,2.233v8.34h-2.5V209.62a3.582,3.582,0,0,0-.788-2.4,2.532,2.532,0,0,0-2.027-.93,3.3,3.3,0,0,0-2.362.865,2.93,2.93,0,0,0-.917,2.233v8.34H73.656v-13.35h2.556v1.912a3.869,3.869,0,0,1,1.511-1.627,4.372,4.372,0,0,1,2.285-.594,4.614,4.614,0,0,1,2.763.853,4.691,4.691,0,0,1,1.7,2.323,3.856,3.856,0,0,1,1.447-2.3,4.26,4.26,0,0,1,2.684-.878A4.69,4.69,0,0,1,91.071,204.728Z" fill="#727174"/><path d="M114.98,204.728a4.581,4.581,0,0,1,1.717,1.833,5.64,5.64,0,0,1,.62,2.673v8.494h-2.479V209.62a3.543,3.543,0,0,0-.8-2.4,2.568,2.568,0,0,0-2.039-.93,3.3,3.3,0,0,0-2.362.865,2.931,2.931,0,0,0-.918,2.233v8.34h-2.5V209.62a3.582,3.582,0,0,0-.788-2.4,2.532,2.532,0,0,0-2.026-.93,3.3,3.3,0,0,0-2.363.865,2.933,2.933,0,0,0-.917,2.233v8.34H97.564v-13.35h2.556v1.912a3.875,3.875,0,0,1,1.511-1.627,4.373,4.373,0,0,1,2.286-.594,4.613,4.613,0,0,1,2.762.853,4.693,4.693,0,0,1,1.7,2.323,3.85,3.85,0,0,1,1.446-2.3,4.262,4.262,0,0,1,2.684-.878A4.694,4.694,0,0,1,114.98,204.728Z" fill="#727174"/><path d="M132.988,204.378v13.35h-2.557v-1.91a4.485,4.485,0,0,1-1.755,1.614,5.249,5.249,0,0,1-2.5.606,5.134,5.134,0,0,1-2.582-.646,4.5,4.5,0,0,1-1.769-1.82,5.611,5.611,0,0,1-.632-2.7v-8.5h2.5v8.056a3.5,3.5,0,0,0,.852,2.441,2.855,2.855,0,0,0,2.221.943,4.027,4.027,0,0,0,1.845-.427,3.463,3.463,0,0,0,1.33-1.149,2.747,2.747,0,0,0,.49-1.574v-8.29Z" fill="#727174"/><path d="M146.827,204.714a4.525,4.525,0,0,1,1.769,1.822,5.594,5.594,0,0,1,.633,2.7v8.494H146.75v-8.056a3.5,3.5,0,0,0-.852-2.44,2.851,2.851,0,0,0-2.221-.942,4.111,4.111,0,0,0-1.859.425,3.462,3.462,0,0,0-1.343,1.149,2.756,2.756,0,0,0-.49,1.576v8.288h-2.556v-13.35h2.556v1.964a4.463,4.463,0,0,1,1.743-1.641,5.409,5.409,0,0,1,5.1.013Z" fill="#727174"/><path d="M153.579,201.694a1.509,1.509,0,0,1-.453-1.085,1.47,1.47,0,0,1,.453-1.072,1.491,1.491,0,0,1,1.1-.451,1.542,1.542,0,0,1,1.524,1.523,1.508,1.508,0,0,1-.452,1.085,1.448,1.448,0,0,1-1.072.464A1.473,1.473,0,0,1,153.579,201.694Zm-.194,2.684h2.556v13.35h-2.556Z" fill="#727174"/><path d="M167.366,217.082a4.3,4.3,0,0,1-1.251.7,4.181,4.181,0,0,1-1.434.258,3.353,3.353,0,0,1-2.53-1.021,3.617,3.617,0,0,1-.981-2.621v-7.848h-1.989v-2.17h1.989v-3.665h2.5v3.665h3.15v2.17h-3.15v7.669a1.638,1.638,0,0,0,.413,1.149,1.288,1.288,0,0,0,.981.452,2.066,2.066,0,0,0,.776-.144,1.622,1.622,0,0,0,.567-.348Z" fill="#727174"/><path d="M169.483,221.808l.568-1.964a3.3,3.3,0,0,0,1.627.415,2.308,2.308,0,0,0,1.084-.233,1.9,1.9,0,0,0,.749-.8l.671-1.42-5.732-13.427h2.738l4.285,10.535,4.055-10.535h2.658L176.3,218.941a5.982,5.982,0,0,1-1.757,2.582,4.109,4.109,0,0,1-2.529.852A5.386,5.386,0,0,1,169.483,221.808Z" fill="#727174"/><path d="M195.351,202.416v5.062h9.4v2.427h-9.4v5.4h10.406v2.427H192.718V199.989h13.039v2.427Z" fill="#727174"/><path d="M222.025,199.68v18.048h-2.556v-2.273a5.8,5.8,0,0,1-2.014,1.9,5.419,5.419,0,0,1-2.712.685,5.725,5.725,0,0,1-3.15-.892,6.123,6.123,0,0,1-2.194-2.491,8.536,8.536,0,0,1,0-7.216,6.159,6.159,0,0,1,2.194-2.479,5.724,5.724,0,0,1,3.15-.891,5.439,5.439,0,0,1,2.712.684,5.822,5.822,0,0,1,2.014,1.9V199.68Zm-4.557,15.531a4.087,4.087,0,0,0,1.472-1.705,5.622,5.622,0,0,0,.529-2.465,5.555,5.555,0,0,0-.529-2.454,4.106,4.106,0,0,0-1.472-1.69,3.852,3.852,0,0,0-2.131-.607,3.911,3.911,0,0,0-2.143.607,4.064,4.064,0,0,0-1.485,1.69,5.527,5.527,0,0,0-.529,2.454,5.594,5.594,0,0,0,.529,2.465,4.046,4.046,0,0,0,1.485,1.705,3.92,3.92,0,0,0,2.143.607A3.861,3.861,0,0,0,217.468,215.211Z" fill="#727174"/><path d="M226.66,201.694a1.508,1.508,0,0,1-.452-1.085,1.469,1.469,0,0,1,.452-1.072,1.494,1.494,0,0,1,1.1-.451,1.542,1.542,0,0,1,1.524,1.523,1.508,1.508,0,0,1-.452,1.085,1.448,1.448,0,0,1-1.072.464A1.475,1.475,0,0,1,226.66,201.694Zm-.194,2.684h2.557v13.35h-2.557Z" fill="#727174"/><path d="M240.448,217.082a4.3,4.3,0,0,1-1.252.7,4.173,4.173,0,0,1-1.434.258,3.35,3.35,0,0,1-2.529-1.021,3.613,3.613,0,0,1-.982-2.621v-7.848h-1.989v-2.17h1.989v-3.665h2.5v3.665h3.151v2.17h-3.151v7.669a1.643,1.643,0,0,0,.413,1.149,1.291,1.291,0,0,0,.982.452,2.058,2.058,0,0,0,.775-.144,1.617,1.617,0,0,0,.568-.348Z" fill="#727174"/><path d="M243.559,201.694a1.509,1.509,0,0,1-.453-1.085,1.47,1.47,0,0,1,.453-1.072,1.491,1.491,0,0,1,1.1-.451,1.542,1.542,0,0,1,1.524,1.523,1.508,1.508,0,0,1-.452,1.085,1.448,1.448,0,0,1-1.072.464A1.473,1.473,0,0,1,243.559,201.694Zm-.194,2.684h2.556v13.35h-2.556Z" fill="#727174"/><path d="M252.8,217.1a7.118,7.118,0,0,1-2.568-2.556,6.751,6.751,0,0,1-.955-3.5,6.677,6.677,0,0,1,.955-3.486,7.145,7.145,0,0,1,2.568-2.543,6.963,6.963,0,0,1,7,0,7.151,7.151,0,0,1,2.57,2.543,6.677,6.677,0,0,1,.955,3.486,6.751,6.751,0,0,1-.955,3.5,7.123,7.123,0,0,1-2.57,2.556,6.969,6.969,0,0,1-7,0Zm5.734-1.924a4.752,4.752,0,0,0,1.626-1.743,5,5,0,0,0,0-4.777,4.645,4.645,0,0,0-1.626-1.73,4.264,4.264,0,0,0-4.468,0,4.645,4.645,0,0,0-1.626,1.73,5,5,0,0,0,0,4.777,4.752,4.752,0,0,0,1.626,1.743,4.186,4.186,0,0,0,4.468,0Z" fill="#727174"/><path d="M276.078,204.714a4.522,4.522,0,0,1,1.768,1.822,5.594,5.594,0,0,1,.634,2.7v8.494H276v-8.056a3.5,3.5,0,0,0-.853-2.44,2.849,2.849,0,0,0-2.22-.942,4.116,4.116,0,0,0-1.86.425,3.469,3.469,0,0,0-1.343,1.149,2.756,2.756,0,0,0-.49,1.576v8.288h-2.556v-13.35h2.556v1.964a4.47,4.47,0,0,1,1.743-1.641,5.411,5.411,0,0,1,5.1.013Z" fill="#727174"/><path d="M43.716,151.282,31.774,179H27.3L15.354,151.282h4.518l9.683,22.512L39.2,151.282Z" fill="#727174"/><path d="M48.031,151.282h4.075L61.83,169.4l9.723-18.114h4.075V179H71.553V159.27L61.83,177.384,52.106,159.27V179H48.031Z" fill="#727174"/><path d="M80.388,158.141h4.073l4.761,15.532,5.165-15.532h3.388l5.164,15.532,4.8-15.532h4.076L104.755,179h-3.672l-4.961-15.491L91.079,179H87.407Z" fill="#727174"/><path d="M130.01,160.036a8.736,8.736,0,0,1,2.3,6.334V179H128.4v-2.824a7.462,7.462,0,0,1-3.026,2.441,9.323,9.323,0,0,1-3.915.867,8.339,8.339,0,0,1-5.526-1.816,5.983,5.983,0,0,1-2.178-4.841,6.157,6.157,0,0,1,1.109-3.61,7.227,7.227,0,0,1,3.026-2.462,10.115,10.115,0,0,1,4.215-.867,19.5,19.5,0,0,1,6.295,1.13v-.646a5.949,5.949,0,0,0-1.252-3.853,4.986,4.986,0,0,0-4.114-1.552,13.3,13.3,0,0,0-5.85,1.735l-1.493-2.946a17.755,17.755,0,0,1,7.907-2.1A8.5,8.5,0,0,1,130.01,160.036Zm-3.873,15.271a4.589,4.589,0,0,0,2.26-2.844v-2.785a19.558,19.558,0,0,0-5.689-.807,5.982,5.982,0,0,0-3.631,1.091,3.273,3.273,0,0,0-1.493,2.742,3.141,3.141,0,0,0,1.311,2.642,5.431,5.431,0,0,0,3.368.989A7.588,7.588,0,0,0,126.137,175.307Z" fill="#727174"/><path d="M146.045,158.886a8.992,8.992,0,0,1,4.74-1.229v3.468a9.235,9.235,0,0,0-4.034.848,6.381,6.381,0,0,0-2.744,2.4,6.549,6.549,0,0,0-.967,3.53V179h-3.994V158.141h3.994v4.073A7.489,7.489,0,0,1,146.045,158.886Z" fill="#727174"/><path d="M167.023,175.488a7.479,7.479,0,0,0,2.723-1.694l2.34,2.46a9.333,9.333,0,0,1-3.731,2.34,13.512,13.512,0,0,1-4.7.888,10.708,10.708,0,0,1-9.3-5.346,11.548,11.548,0,0,1-.06-11.175,10.376,10.376,0,0,1,3.812-3.892,10.176,10.176,0,0,1,5.265-1.412,9.692,9.692,0,0,1,5.426,1.492,9.365,9.365,0,0,1,3.469,4.236,16.118,16.118,0,0,1,1.191,6.455H156.8a7.41,7.41,0,0,0,2.2,4.578,6.362,6.362,0,0,0,4.58,1.756A9.434,9.434,0,0,0,167.023,175.488Zm-7.906-12.91a7.064,7.064,0,0,0-2.281,4.317h12.749a7.253,7.253,0,0,0-1.916-4.277,5.587,5.587,0,0,0-4.216-1.653A6.347,6.347,0,0,0,159.117,162.578Z" fill="#727174"/><path d="M196.616,155.074H187.5v-3.792h22.269v3.792H200.69V179h-4.074Z" fill="#727174"/><path d="M227.8,160.036a8.736,8.736,0,0,1,2.3,6.334V179h-3.913v-2.824a7.455,7.455,0,0,1-3.026,2.441,9.315,9.315,0,0,1-3.914.867,8.34,8.34,0,0,1-5.527-1.816,5.986,5.986,0,0,1-2.178-4.841,6.158,6.158,0,0,1,1.11-3.61,7.224,7.224,0,0,1,3.025-2.462,10.123,10.123,0,0,1,4.216-.867,19.49,19.49,0,0,1,6.294,1.13v-.646a5.949,5.949,0,0,0-1.251-3.853,4.988,4.988,0,0,0-4.115-1.552,13.307,13.307,0,0,0-5.85,1.735l-1.492-2.946a17.751,17.751,0,0,1,7.906-2.1A8.5,8.5,0,0,1,227.8,160.036Zm-3.874,15.271a4.586,4.586,0,0,0,2.26-2.844v-2.785a19.558,19.558,0,0,0-5.689-.807,5.986,5.986,0,0,0-3.631,1.091,3.272,3.272,0,0,0-1.492,2.742,3.138,3.138,0,0,0,1.311,2.642,5.429,5.429,0,0,0,3.368.989A7.584,7.584,0,0,0,223.927,175.307Z" fill="#727174"/><path d="M250.876,158.665a7.046,7.046,0,0,1,2.764,2.843,8.763,8.763,0,0,1,.988,4.217V179h-3.874V166.411a5.459,5.459,0,0,0-1.331-3.812,4.459,4.459,0,0,0-3.469-1.474,6.4,6.4,0,0,0-2.9.667,5.364,5.364,0,0,0-2.1,1.795,4.292,4.292,0,0,0-.766,2.46V179h-3.994V158.141h3.994v3.065a6.957,6.957,0,0,1,2.723-2.561,8.451,8.451,0,0,1,7.968.02Z" fill="#727174"/><path d="M259.144,176.013l11.7-14.282H259.387v-3.59H276.13l-.041,2.984-11.7,14.283H276.21V179H259.144Z" fill="#727174"/><path d="M298.883,158.141V179h-3.994v-2.985a7.033,7.033,0,0,1-2.743,2.522,8.2,8.2,0,0,1-3.913.947,8.017,8.017,0,0,1-4.035-1.009,7.03,7.03,0,0,1-2.764-2.844,8.75,8.75,0,0,1-.988-4.216V158.141h3.913v12.586a5.465,5.465,0,0,0,1.332,3.813,4.46,4.46,0,0,0,3.47,1.473,6.268,6.268,0,0,0,2.884-.667,5.406,5.406,0,0,0,2.077-1.794,4.3,4.3,0,0,0,.767-2.462V158.141Z" fill="#727174"/><text transform="translate(300.937 162.471)" font-size="6.166" fill="#727174" font-family="Metropolis-Regular, Metropolis">TM</text></svg>