<svg xmlns="http://www.w3.org/2000/svg" viewBox="0 0 115 115"><path d="M74.644,89.665,66.605,68.739a3.774,3.774,0,0,1,4.073-5.087l22.284,3.284Z" fill="#78be20"/><path d="M85.111,33.369,66.705,45.645a3.774,3.774,0,0,1-5.858-2.857l-1.67-22.2Z" fill="#1bc1d5"/><path d="M48.322,68.711,40.289,89.564l-18.117-22.8,22.1-3.15A3.774,3.774,0,0,1,48.322,68.711Z" fill="#78be20"/><path d="M42.386,57.048l-20.8,6.432,6.777-27.494L43.87,50.705A3.774,3.774,0,0,1,42.386,57.048Z" fill="#1d428a"/><path d="M93.733,63.664,72.648,57.231a3.774,3.774,0,0,1-1.467-6.376L87.174,36Z" fill="#1d428a"/><path d="M55.822,20.721,53.9,42.423a3.774,3.774,0,0,1-5.869,2.8l-17.6-11.866Z" fill="#1bc1d5"/><path d="M43.309,91.008,54.217,72.069a3.775,3.775,0,0,1,6.55.015l10.79,18.924Z" fill="#1bc1d5"/><path d="M57.5,8.292a49.208,49.208,0,1,0,49.2,49.2A49.2,49.2,0,0,0,57.5,8.292Zm.185,91.942A42.885,42.885,0,1,1,100.561,57.34,42.884,42.884,0,0,1,57.685,100.234Z" fill="#727174"/></svg>